<svg width="715" height="167" viewBox="0 0 715 167" fill="none" xmlns="http://www.w3.org/2000/svg">
<path fill-rule="evenodd" clip-rule="evenodd" d="M36.3298 2.1242L20.1081 0.879541C19.8599 4.11357 18.2372 6.91327 15.8564 8.74982C13.7096 10.63 10.8372 11.6786 7.76702 11.443L6.6414 26.1132C12.6987 26.578 17.2324 31.8652 16.7676 37.9225L16.6947 38.8731C16.2299 44.9304 10.9427 49.4641 4.88539 48.9993L3.75977 63.6695C9.8171 64.1343 14.3508 69.4215 13.886 75.4788L13.8131 76.4294C13.3483 82.4867 8.06109 87.0204 2.00377 86.5556L0.878147 101.226C3.94793 101.461 6.62638 102.935 8.46123 105.121C10.5345 107.299 11.7115 110.314 11.4633 113.548L27.6851 114.793C28.1498 108.736 33.437 104.202 39.4944 104.667L40.4852 104.743C46.5425 105.208 51.0762 110.495 50.6114 116.552L66.8331 117.797C67.2979 111.739 72.5851 107.206 78.6424 107.671L79.6333 107.747C85.6906 108.211 90.2243 113.499 89.7595 119.556L105.981 120.801C106.446 114.743 111.733 110.21 117.791 110.674L118.781 110.75C124.839 111.215 129.372 116.502 128.908 122.56L145.129 123.804C145.594 117.747 150.881 113.213 156.939 113.678L157.929 113.754C163.987 114.219 168.52 119.506 168.056 125.563L184.277 126.808C184.742 120.751 190.029 116.217 196.087 116.682L197.078 116.758C203.135 117.223 207.669 122.51 207.204 128.567L223.426 129.812C223.89 123.755 229.178 119.221 235.235 119.686L236.226 119.762C242.283 120.226 246.817 125.514 246.352 131.571L262.574 132.816C263.038 126.758 268.326 122.225 274.383 122.689L275.374 122.765C281.431 123.23 285.965 128.517 285.5 134.575L301.722 135.819C302.186 129.762 307.474 125.228 313.531 125.693L314.522 125.769C320.579 126.234 325.113 131.521 324.648 137.578L340.87 138.823C341.335 132.766 346.622 128.232 352.679 128.697L353.67 128.773C359.727 129.238 364.261 134.525 363.796 140.582L380.018 141.827C380.483 135.77 385.77 131.236 391.827 131.701L392.818 131.777C398.875 132.241 403.409 137.529 402.944 143.586L419.166 144.831C419.631 138.773 424.918 134.24 430.975 134.704L431.966 134.78C438.023 135.245 442.557 140.532 442.092 146.59L458.314 147.834C458.779 141.777 464.066 137.243 470.123 137.708L471.114 137.784C477.172 138.249 481.705 143.536 481.24 149.594L497.462 150.838C497.927 144.781 503.214 140.247 509.271 140.712L510.262 140.788C516.32 141.253 520.853 146.54 520.388 152.597L536.61 153.842C537.075 147.785 542.362 143.251 548.42 143.716L549.41 143.792C555.468 144.257 560.001 149.544 559.537 155.601L575.758 156.846C576.223 150.788 581.51 146.255 587.568 146.719L588.559 146.796C594.616 147.26 599.149 152.547 598.685 158.605L614.906 159.849C615.371 153.792 620.658 149.258 626.716 149.723L627.707 149.799C633.764 150.264 638.298 155.551 637.833 161.609L654.055 162.853C654.519 156.796 659.807 152.262 665.864 152.727L666.855 152.803C672.912 153.268 677.446 158.555 676.981 164.612L693.203 165.857C693.667 159.8 698.955 155.266 705.012 155.731L706.003 155.807C706.401 155.837 706.792 155.889 707.175 155.96L708.303 141.261C702.308 140.733 697.84 135.477 698.302 129.461L698.374 128.511C698.836 122.495 704.054 117.982 710.059 118.376L711.185 103.704C705.19 103.177 700.722 97.9209 701.183 91.9052L701.256 90.9547C701.718 84.939 706.936 80.4261 712.941 80.8196L714.147 65.1014C713.757 65.113 713.362 65.104 712.965 65.0735L711.974 64.9975C705.916 64.5327 701.383 59.2455 701.848 53.1882L685.626 51.9435C685.161 58.0008 679.874 62.5345 673.816 62.0697L672.826 61.9937C666.768 61.5289 662.235 56.2417 662.699 50.1844L646.478 48.9397C646.013 54.9971 640.726 59.5307 634.668 59.066L633.678 58.9899C627.62 58.5252 623.087 53.238 623.551 47.1806L607.33 45.936C606.865 51.9933 601.578 56.527 595.52 56.0622L594.529 55.9862C588.472 55.5214 583.938 50.2342 584.403 44.1769L568.181 42.9322C567.717 48.9895 562.43 53.5232 556.372 53.0584L555.381 52.9824C549.324 52.5177 544.79 47.2304 545.255 41.1731L529.033 39.9285C528.569 45.9858 523.281 50.5195 517.224 50.0547L516.233 49.9787C510.176 49.5139 505.642 44.2267 506.107 38.1694L489.885 36.9247C489.421 42.982 484.133 47.5157 478.076 47.0509L477.085 46.9749C471.028 46.5101 466.494 41.2229 466.959 35.1656L450.737 33.9209C450.272 39.9783 444.985 44.5119 438.928 44.0472L437.937 43.9711C431.88 43.5064 427.346 38.2192 427.811 32.1618L411.589 30.9172C411.124 36.9745 405.837 41.5082 399.78 41.0434L398.789 40.9674C392.732 40.5026 388.198 35.2154 388.663 29.1581L372.441 27.9134C371.976 33.9707 366.689 38.5044 360.632 38.0396L359.641 37.9636C353.584 37.4988 349.05 32.2116 349.515 26.1543L333.293 24.9097C332.828 30.967 327.541 35.5006 321.484 35.0359L320.493 34.9598C314.436 34.4951 309.902 29.2079 310.367 23.1505L294.145 21.9059C293.68 27.9632 288.393 32.4969 282.336 32.0321L281.345 31.9561C275.287 31.4913 270.754 26.2041 271.218 20.1468L254.997 18.9021C254.532 24.9595 249.245 29.4931 243.187 29.0284L242.197 28.9523C236.139 28.4876 231.606 23.2004 232.07 17.143L215.849 15.8984C215.384 21.9557 210.097 26.4894 204.039 26.0246L203.049 25.9486C196.991 25.4838 192.458 20.1966 192.922 14.1393L176.701 12.8946C176.236 18.9519 170.949 23.4856 164.891 23.0208L163.9 22.9448C157.843 22.48 153.309 17.1928 153.774 11.1355L137.552 9.89083C137.088 15.9482 131.8 20.4818 125.743 20.0171L124.752 19.941C118.695 19.4763 114.161 14.1891 114.626 8.13173L98.4043 6.88707C97.9396 12.9444 92.6524 17.4781 86.595 17.0133L85.6041 16.9373C79.5468 16.4725 75.0132 11.1853 75.4779 5.12797L59.2562 3.88331C58.7914 9.94063 53.5042 14.4743 47.4469 14.0095L46.456 13.9335C40.3987 13.4687 35.865 8.18153 36.3298 2.1242Z" fill="#87AAFF"/>
<path d="M89.4902 55.1063L93.8344 55.4396L92.9935 66.3986L96.449 66.6638L107.064 56.4547L112.198 56.8486L99.8821 68.5162L110.684 83.05L105.155 82.6258L96.1612 70.4155L92.7056 70.1504L91.8269 81.6031L87.4828 81.2698L89.4902 55.1063ZM122.811 84.477C121.363 84.3659 120.095 84.07 119.006 83.5892C117.953 83.078 117.076 82.4314 116.375 81.6493C115.673 80.8672 115.163 79.9674 114.844 78.9498C114.525 77.9322 114.41 76.831 114.501 75.6462C114.701 73.0463 115.602 71.2285 117.204 70.1928C118.839 69.1597 121.088 68.7529 123.951 68.9726L132.442 69.6241L132.579 67.847C132.75 65.6091 132.359 64.0232 131.404 63.0892C130.483 62.1578 129.018 61.6151 127.011 61.461C125.135 61.3171 123.741 61.5743 122.83 62.2327C121.921 62.8582 121.383 63.6114 121.217 64.4924L116.872 64.1591C117.019 63.111 117.373 62.1616 117.935 61.3109C118.532 60.4298 119.284 59.693 120.19 59.1005C121.129 58.5104 122.222 58.0811 123.467 57.8126C124.715 57.5111 126.079 57.4171 127.56 57.5308C130.654 57.7681 133.049 58.6967 134.745 60.3166C136.477 61.906 137.216 64.3627 136.961 67.6866L136.146 78.3001C136.04 79.6823 135.947 80.9 135.866 81.9531C135.821 82.9759 135.826 83.9859 135.882 84.9833L132.081 84.6917C132.04 83.9272 132.028 83.2146 132.046 82.5538C132.066 81.8602 132.109 81.0855 132.175 80.2299C131.378 81.5591 130.169 82.6415 128.549 83.4772C126.929 84.3129 125.016 84.6462 122.811 84.477ZM124.052 80.5998C125.073 80.6781 126.037 80.6197 126.946 80.4246C127.89 80.1991 128.728 79.8496 129.459 79.376C130.194 78.8696 130.788 78.2366 131.244 77.4771C131.699 76.7175 131.968 75.8112 132.048 74.7581L132.185 72.9809L124.434 72.3862C122.822 72.2625 121.529 72.4944 120.557 73.0819C119.588 73.6365 119.05 74.6049 118.944 75.9871C118.851 77.2048 119.202 78.2414 119.997 79.0969C120.825 79.9549 122.177 80.4559 124.052 80.5998ZM145.315 59.3896L149.659 59.7229L148.818 70.682L152.274 70.9471L162.889 60.738L168.023 61.132L155.707 72.7995L166.509 87.3333L160.98 86.9091L151.986 74.6989L148.531 74.4337L147.652 85.8864L143.308 85.5531L145.315 59.3896ZM186.051 62.5152L207.772 64.1818L205.764 90.3453L201.42 90.012L203.132 67.699L190.1 66.699L188.388 89.012L184.044 88.6787L186.051 62.5152ZM215.651 64.7863L219.699 65.0969L219.32 70.0334C220.342 68.3574 221.679 67.1192 223.329 66.3189C225.015 65.4883 226.911 65.1538 229.017 65.3154C232.308 65.5679 234.858 66.8559 236.666 69.1795C238.476 71.4702 239.218 74.7382 238.893 78.9836L238.817 79.9709C238.645 82.2088 238.232 84.1467 237.576 85.7847C236.924 87.3898 236.077 88.7152 235.037 89.7609C233.999 90.7737 232.784 91.5081 231.392 91.9641C230.033 92.4225 228.547 92.5899 226.934 92.4662C224.696 92.2945 222.858 91.6569 221.42 90.5534C220.015 89.4525 218.991 88.1325 218.347 86.5935L217.23 101.156L212.886 100.823L215.651 64.7863ZM226.242 88.5399C227.295 88.6207 228.298 88.499 229.249 88.1748C230.204 87.8177 231.04 87.2695 231.759 86.5301C232.511 85.7933 233.113 84.8464 233.566 83.6894C234.052 82.535 234.354 81.1843 234.473 79.6376L234.549 78.6503C234.657 77.2351 234.557 75.9529 234.248 74.8037C233.972 73.657 233.517 72.6786 232.884 71.8687C232.286 71.0283 231.542 70.3754 230.651 69.9097C229.76 69.4441 228.788 69.1709 227.734 69.0901C226.55 68.9992 225.449 69.1133 224.431 69.4325C223.416 69.7187 222.536 70.1809 221.792 70.819C221.05 71.4242 220.447 72.1723 219.981 73.0635C219.516 73.9547 219.242 74.9269 219.162 75.98L218.859 79.9292C218.768 81.1139 218.882 82.2151 219.201 83.2327C219.52 84.2503 219.999 85.1312 220.637 85.8753C221.275 86.6195 222.072 87.2269 223.029 87.6976C223.986 88.1682 225.057 88.449 226.242 88.5399ZM246.022 67.1167L250.366 67.45L248.851 87.196L263.892 68.4878L268.236 68.8211L266.229 94.9846L261.885 94.6513L263.4 74.9053L248.358 93.6135L244.014 93.2802L246.022 67.1167ZM276.152 69.4285L280.496 69.7618L278.784 92.0748L288.311 92.8058L290.023 70.4928L294.368 70.8261L292.656 93.1392L302.183 93.8702L303.895 71.5572L308.239 71.8905L306.232 98.054L274.144 95.592L276.152 69.4285ZM316.116 72.4949L320.461 72.8282L318.945 92.5742L333.987 73.866L338.331 74.1994L336.323 100.363L331.979 100.03L333.494 80.2835L318.453 98.9917L314.109 98.6584L316.116 72.4949ZM351.924 79.1155L342.989 78.4299L343.285 74.5795L365.499 76.2839L365.203 80.1344L356.268 79.4488L354.556 101.762L350.212 101.429L351.924 79.1155ZM370.447 76.6636L374.791 76.9969L374.033 86.8699L380.303 87.3509C383.594 87.6035 385.957 88.5131 387.393 90.0798C388.861 91.649 389.497 93.7172 389.3 96.2841C389.108 98.7853 388.167 100.699 386.476 102.026C384.818 103.355 382.344 103.894 379.053 103.641L368.439 102.827L370.447 76.6636ZM379.101 99.772C381.142 99.9286 382.601 99.6764 383.48 99.0155C384.358 98.3546 384.851 97.3166 384.96 95.9015C385.068 94.4863 384.739 93.3852 383.972 92.598C383.205 91.8109 381.801 91.339 379.761 91.1825L373.738 90.7204L373.079 99.3099L379.101 99.772ZM415.564 106.939C412.273 106.687 409.743 105.798 407.973 104.271C406.203 102.745 405.316 100.724 405.31 98.2077L409.654 98.541C409.786 99.8422 410.385 100.881 411.451 101.658C412.552 102.405 414.025 102.849 415.867 102.99C418.138 103.164 419.813 102.912 420.891 102.234C422.005 101.525 422.603 100.627 422.687 99.541C422.785 98.2575 422.434 97.2209 421.634 96.4313C420.837 95.6087 419.385 95.1166 417.278 94.955L412.786 94.6103L413.059 91.056L417.255 91.378C419.065 91.5168 420.375 91.2698 421.185 90.6367C422.028 90.0062 422.497 89.0657 422.593 87.8151C422.669 86.8278 422.274 85.9368 421.408 85.1421C420.542 84.3473 419.188 83.8793 417.345 83.7379C415.337 83.5838 413.847 83.8006 412.875 84.388C411.939 84.9452 411.326 85.8085 411.038 86.9781L406.694 86.6448C406.876 85.5664 407.249 84.5853 407.814 83.7017C408.413 82.7877 409.184 82.0193 410.126 81.3963C411.067 80.7734 412.161 80.3277 413.406 80.0591C414.687 79.7601 416.101 79.67 417.648 79.7886C419.326 79.9174 420.759 80.226 421.946 80.7143C423.169 81.1723 424.165 81.7784 424.935 82.5327C425.707 83.254 426.256 84.0905 426.58 85.0423C426.904 85.9941 427.023 87.0295 426.937 88.1484C426.841 89.399 426.444 90.4775 425.746 91.3839C425.05 92.2574 423.99 92.9044 422.568 93.3249C424.373 93.96 425.596 94.8483 426.236 95.9899C426.877 97.1315 427.142 98.4263 427.031 99.8743C426.947 100.96 426.639 101.963 426.105 102.882C425.571 103.801 424.815 104.587 423.838 105.24C422.897 105.863 421.718 106.336 420.303 106.658C418.921 106.982 417.342 107.076 415.564 106.939ZM440.069 108.82C438.621 108.709 437.352 108.413 436.264 107.932C435.211 107.421 434.333 106.774 433.632 105.992C432.931 105.21 432.42 104.31 432.101 103.292C431.782 102.275 431.668 101.174 431.759 99.9888C431.958 97.3889 432.859 95.5711 434.461 94.5354C436.096 93.5022 438.346 93.0955 441.209 93.3152L449.7 93.9667L449.836 92.1895C450.008 89.9516 449.616 88.3657 448.662 87.4318C447.74 86.5004 446.275 85.9577 444.268 85.8036C442.392 85.6597 440.998 85.9169 440.087 86.5753C439.179 87.2007 438.641 87.954 438.474 88.835L434.13 88.5016C434.276 87.4536 434.631 86.5042 435.192 85.6535C435.79 84.7724 436.541 84.0356 437.448 83.4431C438.387 82.853 439.479 82.4237 440.724 82.1551C441.972 81.8537 443.337 81.7597 444.818 81.8734C447.911 82.1107 450.306 83.0393 452.003 84.6591C453.735 86.2486 454.473 88.7053 454.218 92.0292L453.404 102.643C453.297 104.025 453.204 105.243 453.123 106.296C453.078 107.318 453.083 108.329 453.139 109.326L449.338 109.034C449.297 108.27 449.286 107.557 449.303 106.896C449.323 106.203 449.366 105.428 449.432 104.572C448.635 105.902 447.426 106.984 445.806 107.82C444.186 108.656 442.274 108.989 440.069 108.82ZM441.31 104.942C442.33 105.021 443.294 104.962 444.203 104.767C445.147 104.542 445.985 104.192 446.717 103.719C447.451 103.212 448.046 102.579 448.501 101.82C448.957 101.06 449.225 100.154 449.306 99.1006L449.442 97.3235L441.692 96.7288C440.079 96.6051 438.787 96.837 437.815 97.4245C436.845 97.9791 436.308 98.9475 436.202 100.33C436.108 101.547 436.459 102.584 437.254 103.439C438.082 104.297 439.434 104.798 441.31 104.942ZM462.573 83.7322L484.293 85.3988L482.286 111.562L477.942 111.229L479.654 88.9159L466.621 87.916L464.909 110.229L460.565 109.896L462.573 83.7322ZM488.893 112.566C488.399 112.528 487.909 112.441 487.423 112.304L487.756 107.96C487.919 108.005 488.164 108.041 488.493 108.066C489.217 108.122 489.86 107.939 490.422 107.519C491.017 107.101 491.523 106.329 491.941 105.202C492.358 104.076 492.725 102.531 493.041 100.569C493.357 98.6075 493.631 96.1126 493.863 93.0849L494.394 86.1738L513.152 87.6131L511.145 113.777L506.801 113.443L508.513 91.1303L498.442 90.3576L498.132 94.4055C497.851 98.0585 497.455 101.074 496.941 103.451C496.428 105.828 495.786 107.715 495.017 109.113C494.283 110.48 493.4 111.422 492.367 111.939C491.334 112.455 490.176 112.664 488.893 112.566ZM526.458 115.448C525.01 115.337 523.741 115.041 522.653 114.56C521.599 114.049 520.722 113.402 520.021 112.62C519.319 111.838 518.809 110.938 518.49 109.921C518.171 108.903 518.057 107.802 518.148 106.617C518.347 104.017 519.248 102.2 520.85 101.164C522.485 100.131 524.734 99.724 527.598 99.9437L536.088 100.595L536.225 98.818C536.396 96.5801 536.005 94.9942 535.051 94.0603C534.129 93.1288 532.664 92.5861 530.657 92.4321C528.781 92.2882 527.387 92.5454 526.476 93.2037C525.567 93.8292 525.03 94.5824 524.863 95.4634L520.519 95.1301C520.665 94.082 521.019 93.1326 521.581 92.282C522.179 91.4009 522.93 90.6641 523.836 90.0715C524.776 89.4815 525.868 89.0522 527.113 88.7836C528.361 88.4821 529.726 88.3882 531.207 88.5018C534.3 88.7392 536.695 89.6678 538.392 91.2876C540.123 92.8771 540.862 95.3337 540.607 98.6577L539.792 109.271C539.686 110.653 539.593 111.871 539.512 112.924C539.467 113.947 539.472 114.957 539.528 115.954L535.727 115.663C535.686 114.898 535.675 114.186 535.692 113.525C535.712 112.831 535.755 112.057 535.821 111.201C535.024 112.53 533.815 113.613 532.195 114.448C530.575 115.284 528.663 115.617 526.458 115.448ZM527.699 111.571C528.719 111.649 529.683 111.591 530.592 111.396C531.536 111.17 532.374 110.821 533.106 110.347C533.84 109.841 534.434 109.208 534.89 108.448C535.346 107.689 535.614 106.782 535.694 105.729L535.831 103.952L528.081 103.357C526.468 103.234 525.176 103.465 524.204 104.053C523.234 104.608 522.696 105.576 522.59 106.958C522.497 108.176 522.848 109.212 523.643 110.068C524.471 110.926 525.823 111.427 527.699 111.571ZM554.157 94.6325L545.222 93.9469L545.517 90.0964L567.732 91.8009L567.436 95.6514L558.501 94.9658L556.789 117.279L552.445 116.945L554.157 94.6325ZM572.68 92.1805L577.024 92.5139L576.183 103.473L579.639 103.738L590.254 93.529L595.388 93.9229L583.072 105.59L593.874 120.124L588.345 119.7L579.351 107.49L575.895 107.225L575.016 118.677L570.672 118.344L572.68 92.1805ZM602.209 131.191C601.715 131.154 601.226 131.066 600.739 130.93L601.042 126.981C601.529 127.117 602.018 127.204 602.512 127.242C603.006 127.28 603.44 127.231 603.814 127.094C604.189 126.957 604.559 126.671 604.923 126.236C605.288 125.8 605.684 125.168 606.111 124.34C606.569 123.548 607.097 122.496 607.694 121.185L598.594 94.1689L603.432 94.5401L610.294 116.419L619.624 95.7825L624.264 96.1385L612.384 121.544C611.551 123.334 610.772 124.864 610.046 126.132C609.319 127.4 608.563 128.418 607.775 129.185C607.019 129.988 606.199 130.538 605.315 130.834C604.429 131.163 603.394 131.282 602.209 131.191Z" fill="#87AAFF"/>
</svg>
