<svg width="575" height="354" viewBox="0 0 575 354" fill="none" xmlns="http://www.w3.org/2000/svg">
<rect x="36.8182" y="100.024" width="515.036" height="100.007" transform="rotate(6.13984 36.8182 100.024)" fill="#F5CB33"/>
<path d="M137.173 169.211C136.368 169.59 135.405 169.901 134.284 170.146C133.195 170.394 131.846 170.431 130.238 170.258C128.728 170.096 127.384 169.785 126.205 169.326C125.059 168.871 124.115 168.238 123.372 167.428C122.629 166.618 122.106 165.616 121.803 164.421C121.5 163.226 121.438 161.792 121.618 160.119L122.519 151.75L126.851 152.216L126.03 159.846C125.91 160.962 125.908 161.908 126.023 162.684C126.172 163.463 126.468 164.109 126.91 164.622C127.353 165.134 127.941 165.529 128.675 165.808C129.409 166.086 130.317 166.283 131.4 166.399C132.877 166.558 134.156 166.547 135.238 166.364C136.32 166.182 137.092 165.949 137.554 165.667L138.862 153.508L143.194 153.974L140.387 180.064L136.055 179.598L137.173 169.211ZM156.598 159.3L147.688 158.342L148.101 154.502L170.253 156.885L169.84 160.725L160.93 159.766L158.536 182.017L154.204 181.551L156.598 159.3ZM182.676 185.111C181.003 184.931 179.439 184.498 177.986 183.81C176.537 183.09 175.296 182.126 174.264 180.92C173.235 179.68 172.466 178.187 171.957 176.439C171.448 174.691 171.313 172.702 171.553 170.47L171.659 169.485C171.885 167.385 172.429 165.568 173.292 164.034C174.154 162.5 175.216 161.27 176.477 160.343C177.742 159.384 179.158 158.723 180.724 158.36C182.294 157.965 183.915 157.857 185.589 158.037C187.263 158.217 188.824 158.667 190.274 159.387C191.727 160.075 192.97 161.022 194.002 162.228C195.037 163.402 195.813 164.83 196.329 166.512C196.846 168.194 196.991 170.086 196.765 172.186L196.659 173.171C196.419 175.402 195.864 177.318 194.995 178.917C194.126 180.517 193.057 181.813 191.788 182.805C190.523 183.764 189.106 184.442 187.536 184.837C185.97 185.2 184.35 185.291 182.676 185.111ZM183.1 181.173C184.085 181.279 185.087 181.221 186.107 180.999C187.13 180.744 188.058 180.296 188.89 179.655C189.726 178.981 190.438 178.078 191.024 176.946C191.643 175.818 192.045 174.4 192.228 172.694L192.334 171.709C192.504 170.134 192.402 168.762 192.03 167.593C191.691 166.428 191.183 165.444 190.505 164.641C189.828 163.838 189.015 163.219 188.066 162.785C187.117 162.351 186.15 162.081 185.165 161.975C184.181 161.869 183.179 161.927 182.159 162.15C181.139 162.372 180.213 162.803 179.38 163.444C178.548 164.085 177.825 164.937 177.213 166C176.634 167.066 176.259 168.387 176.09 169.962L175.984 170.947C175.8 172.653 175.875 174.122 176.207 175.353C176.572 176.587 177.092 177.622 177.765 178.458C178.442 179.261 179.254 179.896 180.199 180.363C181.149 180.797 182.115 181.067 183.1 181.173ZM222.072 166.344L213.163 165.385L213.576 161.545L235.727 163.928L235.314 167.768L226.404 166.81L224.011 189.06L219.679 188.594L222.072 166.344ZM244.274 191.737C242.83 191.582 241.571 191.248 240.498 190.734C239.461 190.191 238.603 189.517 237.926 188.714C237.249 187.911 236.767 186.996 236.479 185.969C236.191 184.942 236.11 183.838 236.238 182.657C236.516 180.064 237.472 178.275 239.106 177.289C240.772 176.306 243.032 175.968 245.887 176.275L254.354 177.186L254.545 175.414C254.785 173.182 254.442 171.585 253.517 170.622C252.624 169.663 251.176 169.076 249.175 168.861C247.304 168.659 245.903 168.874 244.972 169.504C244.045 170.102 243.484 170.838 243.291 171.713L238.959 171.247C239.137 170.204 239.52 169.266 240.108 168.433C240.732 167.571 241.506 166.857 242.43 166.293C243.386 165.732 244.491 165.336 245.744 165.106C247.001 164.842 248.368 164.79 249.844 164.949C252.929 165.281 255.295 166.282 256.941 167.953C258.623 169.595 259.286 172.073 258.93 175.388L257.791 185.971C257.643 187.35 257.512 188.564 257.399 189.614C257.323 190.635 257.297 191.645 257.322 192.643L253.532 192.235C253.515 191.47 253.525 190.757 253.563 190.098C253.604 189.405 253.671 188.632 253.762 187.779C252.925 189.083 251.684 190.128 250.039 190.914C248.394 191.699 246.472 191.974 244.274 191.737ZM245.633 187.9C246.65 188.009 247.616 187.981 248.53 187.813C249.481 187.617 250.329 187.293 251.075 186.842C251.824 186.358 252.438 185.744 252.916 184.999C253.395 184.253 253.69 183.356 253.803 182.306L253.994 180.533L246.266 179.702C244.657 179.529 243.359 179.721 242.369 180.279C241.383 180.803 240.816 181.755 240.668 183.133C240.537 184.348 240.856 185.394 241.625 186.274C242.426 187.157 243.762 187.699 245.633 187.9ZM267.534 167.35L271.866 167.816L270.69 178.744L274.136 179.115L285.059 169.235L290.178 169.786L277.511 181.071L287.864 195.929L282.35 195.336L273.734 182.856L270.288 182.485L269.059 193.906L264.727 193.44L267.534 167.35ZM302.857 198.039C301.184 197.859 299.62 197.426 298.167 196.738C296.718 196.018 295.477 195.055 294.445 193.848C293.416 192.609 292.647 191.115 292.138 189.367C291.629 187.619 291.494 185.63 291.735 183.398L291.84 182.414C292.066 180.313 292.61 178.496 293.473 176.962C294.335 175.428 295.397 174.198 296.658 173.271C297.923 172.312 299.339 171.651 300.905 171.288C302.475 170.893 304.096 170.785 305.77 170.965C307.444 171.145 309.005 171.595 310.455 172.316C311.908 173.003 313.151 173.95 314.183 175.157C315.218 176.33 315.994 177.758 316.51 179.44C317.027 181.123 317.172 183.014 316.946 185.114L316.84 186.099C316.6 188.33 316.045 190.246 315.176 191.845C314.307 193.445 313.238 194.741 311.969 195.733C310.704 196.693 309.287 197.37 307.717 197.766C306.151 198.128 304.531 198.22 302.857 198.039ZM303.281 194.101C304.266 194.207 305.268 194.149 306.288 193.927C307.311 193.672 308.239 193.224 309.071 192.583C309.907 191.909 310.619 191.007 311.205 189.875C311.824 188.746 312.226 187.329 312.41 185.622L312.515 184.638C312.685 183.062 312.584 181.69 312.211 180.522C311.872 179.356 311.364 178.372 310.686 177.569C310.009 176.766 309.196 176.147 308.247 175.713C307.298 175.279 306.331 175.009 305.346 174.903C304.362 174.797 303.36 174.855 302.34 175.078C301.32 175.3 300.394 175.732 299.561 176.372C298.729 177.013 298.006 177.865 297.394 178.928C296.815 179.994 296.44 181.315 296.271 182.89L296.165 183.875C295.981 185.581 296.056 187.05 296.388 188.281C296.753 189.515 297.273 190.55 297.946 191.386C298.623 192.189 299.435 192.825 300.38 193.291C301.33 193.725 302.297 193.995 303.281 194.101ZM332.374 201.215C330.7 201.035 329.137 200.601 327.684 199.913C326.231 199.226 324.988 198.279 323.956 197.072C322.927 195.833 322.158 194.339 321.649 192.592C321.14 190.844 321.007 188.838 321.251 186.573L321.357 185.589C321.59 183.423 322.119 181.587 322.945 180.083C323.774 178.545 324.787 177.31 325.983 176.376C327.215 175.413 328.582 174.747 330.082 174.377C331.615 174.011 333.186 173.914 334.794 174.087C338.634 174.5 341.491 175.87 343.365 178.196C345.24 180.522 345.97 183.605 345.557 187.445L345.261 190.202L325.472 188.073C325.306 189.615 325.412 190.938 325.792 192.041C326.171 193.144 326.719 194.067 327.436 194.808C328.153 195.549 328.972 196.118 329.892 196.516C330.844 196.917 331.813 197.171 332.798 197.277C334.767 197.488 336.312 197.323 337.432 196.779C338.586 196.239 339.454 195.42 340.037 194.321L344.271 194.776C343.874 195.995 343.28 197.043 342.488 197.921C341.73 198.802 340.823 199.518 339.767 200.068C338.749 200.589 337.598 200.947 336.316 201.141C335.066 201.338 333.752 201.363 332.374 201.215ZM334.617 178.052C333.599 177.942 332.599 177.984 331.615 178.177C330.635 178.337 329.735 178.689 328.913 179.231C328.127 179.744 327.455 180.435 326.897 181.305C326.339 182.174 325.991 183.249 325.853 184.529L341.556 186.218C341.668 184.869 341.56 183.712 341.232 182.747C340.941 181.753 340.481 180.94 339.851 180.308C339.226 179.643 338.451 179.128 337.528 178.763C336.637 178.402 335.667 178.165 334.617 178.052ZM371.042 191.282L363.05 177.625L367.874 178.144L374.673 189.93L377.676 190.253L378.852 179.325L383.184 179.791L382.008 190.719L384.962 191.037L394.259 180.982L398.985 181.49L388.287 192.988L396.671 207.633L391.551 207.083L384.559 194.778L381.606 194.46L380.377 205.881L376.045 205.415L377.274 193.994L374.271 193.671L364.772 204.202L359.751 203.662L371.042 191.282ZM404.637 182.098L408.968 182.564L407.793 193.493L411.239 193.863L422.161 183.984L427.281 184.534L414.614 195.82L424.966 210.677L419.453 210.084L410.836 197.604L407.39 197.234L406.162 208.654L401.83 208.188L404.637 182.098ZM439.138 198.807L431.217 184.958L436.238 185.498L442.107 195.74L450.021 186.981L454.845 187.499L444.186 199.101L452.531 213.642L447.412 213.092L441.222 202.118L432.841 211.524L427.918 210.995L439.138 198.807Z" fill="#F5CB33"/>
<rect x="36.8182" y="100.024" width="515.036" height="100.007" transform="rotate(6.13984 36.8182 100.024)" stroke="#FFF9EF" stroke-width="11.0023" stroke-linecap="round" stroke-dasharray="1 38.51"/>
<g filter="url(#filter0_d_1088_44431)">
<circle cx="55.3866" cy="127.363" r="7.42156" transform="rotate(73.9729 55.3866 127.363)" fill="#FFF9EF"/>
<circle cx="55.3866" cy="127.363" r="9.54201" transform="rotate(73.9729 55.3866 127.363)" stroke="#87AAFF" stroke-width="4.24089"/>
</g>
<defs>
<filter id="filter0_d_1088_44431" x="42.3076" y="115.697" width="26.1583" height="26.1581" filterUnits="userSpaceOnUse" color-interpolation-filters="sRGB">
<feFlood flood-opacity="0" result="BackgroundImageFix"/>
<feColorMatrix in="SourceAlpha" type="matrix" values="0 0 0 0 0 0 0 0 0 0 0 0 0 0 0 0 0 0 127 0" result="hardAlpha"/>
<feOffset dy="1.41363"/>
<feGaussianBlur stdDeviation="0.706815"/>
<feComposite in2="hardAlpha" operator="out"/>
<feColorMatrix type="matrix" values="0 0 0 0 0 0 0 0 0 0 0 0 0 0 0 0 0 0 0.25 0"/>
<feBlend mode="normal" in2="BackgroundImageFix" result="effect1_dropShadow_1088_44431"/>
<feBlend mode="normal" in="SourceGraphic" in2="effect1_dropShadow_1088_44431" result="shape"/>
</filter>
</defs>
</svg>
