<svg width="635" height="155" viewBox="0 0 635 155" fill="none" xmlns="http://www.w3.org/2000/svg">
<path fill-rule="evenodd" clip-rule="evenodd" d="M27.7055 39.709L11.4716 40.7842C11.686 44.0206 10.4779 47.0227 8.38259 49.1791C6.525 51.3456 3.83097 52.792 0.758458 52.9955L1.73082 67.6767C7.79267 67.2752 13.0322 71.8638 13.4337 77.9257L13.4967 78.8769C13.8982 84.9388 9.30958 90.1784 3.24773 90.5799L4.22009 105.261C10.2819 104.86 15.5215 109.448 15.923 115.51L15.986 116.461C16.3875 122.523 11.7989 127.763 5.73701 128.164L6.70936 142.845C9.78144 142.642 12.6423 143.72 14.7693 145.622C17.1313 147.483 18.7252 150.3 18.9396 153.537L35.1734 152.462C34.7719 146.4 39.3605 141.161 45.4224 140.759L46.414 140.693C52.4758 140.292 57.7154 144.88 58.1169 150.942L74.3507 149.867C73.9492 143.805 78.5379 138.566 84.5997 138.164L85.5913 138.099C91.6532 137.697 96.8927 142.286 97.2942 148.348L113.528 147.272C113.127 141.211 117.715 135.971 123.777 135.569L124.769 135.504C130.83 135.102 136.07 139.691 136.472 145.753L152.705 144.678C152.304 138.616 156.893 133.376 162.954 132.975L163.946 132.909C170.008 132.508 175.247 137.096 175.649 143.158L191.883 142.083C191.481 136.021 196.07 130.781 202.132 130.38L203.123 130.314C209.185 129.913 214.425 134.501 214.826 140.563L231.06 139.488C230.659 133.426 235.247 128.187 241.309 127.785L242.301 127.719C248.362 127.318 253.602 131.907 254.004 137.968L270.237 136.893C269.836 130.831 274.425 125.592 280.486 125.19L281.478 125.125C287.54 124.723 292.779 129.312 293.181 135.374L309.415 134.298C309.013 128.237 313.602 122.997 319.664 122.596L320.655 122.53C326.717 122.128 331.957 126.717 332.358 132.779L348.592 131.704C348.191 125.642 352.779 120.402 358.841 120.001L359.833 119.935C365.894 119.534 371.134 124.122 371.535 130.184L387.769 129.109C387.368 123.047 391.956 117.807 398.018 117.406L399.01 117.34C405.072 116.939 410.311 121.527 410.713 127.589L426.947 126.514C426.545 120.452 431.134 115.213 437.196 114.811L438.187 114.746C444.249 114.344 449.489 118.933 449.89 124.995L466.124 123.919C465.722 117.857 470.311 112.618 476.373 112.216L477.365 112.151C483.426 111.749 488.666 116.338 489.067 122.4L505.301 121.325C504.9 115.263 509.488 110.023 515.55 109.622L516.542 109.556C522.604 109.154 527.843 113.743 528.245 119.805L544.479 118.73C544.077 112.668 548.666 107.428 554.728 107.027L555.719 106.961C561.781 106.56 567.021 111.148 567.422 117.21L583.656 116.135C583.254 110.073 587.843 104.834 593.905 104.432L594.897 104.366C600.958 103.965 606.198 108.554 606.599 114.615L622.833 113.54C622.432 107.478 627.02 102.239 633.082 101.837L633.985 101.777L632.97 86.4442C626.949 86.791 621.762 82.2189 621.363 76.1892L621.3 75.2379C620.901 69.2082 625.439 63.9921 631.453 63.5418L630.48 48.8599C624.459 49.2067 619.273 44.6346 618.874 38.6049L618.811 37.6536C618.411 31.6239 622.949 26.4078 628.963 25.9575L627.971 10.9764L627.068 11.0362C621.007 11.4377 615.767 6.84909 615.365 0.787239L599.132 1.86243C599.533 7.92429 594.944 13.1639 588.883 13.5653L587.891 13.631C581.829 14.0325 576.59 9.44387 576.188 3.38202L559.954 4.45722C560.356 10.5191 555.767 15.7586 549.705 16.1601L548.714 16.2258C542.652 16.6273 537.412 12.0387 537.011 5.9768L520.777 7.052C521.178 13.1139 516.59 18.3534 510.528 18.7549L509.536 18.8206C503.475 19.2221 498.235 14.6334 497.833 8.57158L481.6 9.64678C482.001 15.7086 477.412 20.9482 471.351 21.3497L470.359 21.4154C464.297 21.8168 459.058 17.2282 458.656 11.1664L442.422 12.2416C442.824 18.3034 438.235 23.543 432.173 23.9445L431.182 24.0101C425.12 24.4116 419.88 19.823 419.479 13.7611L403.245 14.8363C403.646 20.8982 399.058 26.1378 392.996 26.5393L392.004 26.6049C385.943 27.0064 380.703 22.4178 380.301 16.3559L364.068 17.4311C364.469 23.493 359.881 28.7325 353.819 29.134L352.827 29.1997C346.765 29.6012 341.526 25.0126 341.124 18.9507L324.89 20.0259C325.292 26.0878 320.703 31.3273 314.641 31.7288L313.65 31.7945C307.588 32.196 302.348 27.6073 301.947 21.5455L285.713 22.6207C286.115 28.6825 281.526 33.9221 275.464 34.3236L274.472 34.3893C268.411 34.7908 263.171 30.2021 262.77 24.1403L246.536 25.2155C246.937 31.2773 242.349 36.5169 236.287 36.9184L235.295 36.984C229.233 37.3855 223.994 32.7969 223.592 26.7351L207.358 27.8102C207.76 33.8721 203.171 39.1117 197.109 39.5132L196.118 39.5788C190.056 39.9803 184.816 35.3917 184.415 29.3298L168.181 30.405C168.583 36.4669 163.994 41.7065 157.932 42.1079L156.94 42.1736C150.879 42.5751 145.639 37.9865 145.238 31.9246L129.004 32.9998C129.405 39.0617 124.817 44.3012 118.755 44.7027L117.763 44.7684C111.701 45.1699 106.462 40.5813 106.06 34.5194L89.8263 35.5946C90.2278 41.6564 85.6392 46.896 79.5773 47.2975L78.5857 47.3632C72.5239 47.7647 67.2843 43.176 66.8828 37.1142L50.649 38.1894C51.0505 44.2512 46.4618 49.4908 40.4 49.8923L39.4084 49.958C33.3465 50.3594 28.1069 45.7708 27.7055 39.709Z" fill="#ED6D2F"/>
<path d="M87.8616 84.5912L92.2089 84.3033L92.9353 95.2705L96.3934 95.0415L105.449 83.4264L110.586 83.0861L100.055 96.3867L112.815 109.236L107.282 109.603L96.6421 98.796L93.184 99.025L93.9431 110.486L89.5957 110.774L87.8616 84.5912ZM125.021 108.924C123.572 109.02 122.275 108.908 121.129 108.586C120.014 108.23 119.053 107.715 118.248 107.041C117.442 106.366 116.809 105.548 116.349 104.586C115.888 103.624 115.618 102.551 115.54 101.365C115.367 98.7632 116.001 96.8357 117.439 95.5827C118.911 94.3274 121.079 93.6049 123.945 93.4152L132.442 92.8524L132.324 91.0739C132.176 88.8344 131.563 87.3202 130.485 86.5316C129.44 85.7407 127.913 85.4118 125.904 85.5449C124.027 85.6692 122.684 86.122 121.876 86.9033C121.065 87.6516 120.64 88.4737 120.6 89.3695L116.253 89.6574C116.249 88.5991 116.465 87.609 116.9 86.6871C117.366 85.73 118.005 84.8938 118.818 84.1783C119.663 83.4608 120.683 82.8805 121.878 82.4375C123.07 81.9616 124.407 81.6745 125.89 81.5764C128.985 81.3713 131.488 81.9498 133.398 83.3119C135.338 84.6389 136.418 86.9656 136.639 90.292L137.342 100.913C137.434 102.297 137.514 103.515 137.584 104.569C137.685 105.588 137.834 106.587 138.031 107.566L134.227 107.818C134.078 107.067 133.965 106.364 133.889 105.707C133.81 105.018 133.742 104.245 133.685 103.388C133.085 104.817 132.043 106.061 130.558 107.118C129.074 108.176 127.228 108.778 125.021 108.924ZM125.698 104.91C126.719 104.842 127.666 104.647 128.537 104.325C129.44 103.967 130.22 103.502 130.876 102.929C131.531 102.324 132.03 101.613 132.372 100.796C132.715 99.9794 132.852 99.0441 132.782 97.9902L132.664 96.2117L124.908 96.7254C123.294 96.8323 122.048 97.2456 121.17 97.9654C120.289 98.6522 119.894 99.6873 119.986 101.071C120.067 102.289 120.561 103.265 121.47 103.999C122.412 104.731 123.821 105.034 125.698 104.91ZM143.728 80.8911L148.076 80.6031L148.802 91.5704L152.26 91.3413L161.315 79.7262L166.453 79.3859L155.922 92.6866L168.681 105.536L163.148 105.903L152.509 95.0959L149.051 95.3249L149.81 106.786L145.462 107.074L143.728 80.8911ZM184.494 78.191L195.857 77.4385C199.084 77.2247 201.5 77.7428 203.105 78.9928C204.707 80.2098 205.578 81.8723 205.718 83.9801C205.755 84.54 205.694 85.1229 205.536 85.7288C205.375 86.3018 205.13 86.8473 204.801 87.3653C204.504 87.8811 204.121 88.3365 203.651 88.7315C203.214 89.1243 202.705 89.4392 202.125 89.6761C203.765 89.9644 205.034 90.6412 205.932 91.7064C206.86 92.7366 207.373 93.9926 207.471 95.4747C207.622 97.7472 206.984 99.6088 205.559 101.059C204.133 102.51 201.807 103.342 198.579 103.556L186.229 104.374L184.494 78.191ZM198.324 99.7027C200.168 99.5806 201.447 99.1651 202.161 98.4562C202.875 97.7473 203.192 96.7836 203.111 95.565C203.028 94.3135 202.586 93.3835 201.785 92.775C200.982 92.1335 199.658 91.8739 197.813 91.996L189.81 92.5261L190.321 100.233L198.324 99.7027ZM196.59 88.5045C198.467 88.3802 199.746 87.9647 200.427 87.258C201.141 86.5491 201.46 85.6183 201.383 84.4656C201.311 83.3788 200.876 82.5476 200.077 81.972C199.311 81.3942 197.989 81.1675 196.112 81.2918L189.097 81.7565L189.575 88.9691L196.59 88.5045ZM212.428 76.341L216.775 76.053L217.43 85.9334L222.716 85.5833C226.009 85.3652 228.478 85.9294 230.122 87.276C231.798 88.6204 232.722 90.5771 232.892 93.146C233.058 95.649 232.398 97.6775 230.913 99.2313C229.461 100.783 227.089 101.668 223.795 101.886L214.162 102.524L212.428 76.341ZM223.293 98.049C225.335 97.9137 226.744 97.4566 227.519 96.6775C228.294 95.8984 228.635 94.8007 228.541 93.3845C228.448 91.9683 227.965 90.9252 227.094 90.2552C226.222 89.5852 224.766 89.3178 222.724 89.453L217.685 89.7868L218.254 98.3827L223.293 98.049ZM235.745 74.7966L240.093 74.5087L241.827 100.692L237.48 100.98L235.745 74.7966ZM260.619 99.9432C258.873 100.059 257.221 99.8375 255.663 99.2791C254.137 98.7186 252.773 97.8497 251.57 96.6723C250.398 95.4598 249.422 93.9533 248.641 92.1525C247.893 90.3496 247.442 88.279 247.287 85.9407L247.221 84.9526C247.025 81.9885 247.065 79.3396 247.34 77.0058C247.613 74.6391 248.207 72.615 249.121 70.9336C250.066 69.217 251.348 67.8421 252.966 66.8087C254.618 65.7731 256.724 65.1043 259.284 64.8024C261.352 64.5662 263.158 64.3639 264.702 64.1955C266.243 63.9942 267.539 63.5776 268.588 62.9457L268.867 67.1449C268.359 67.4762 267.403 67.7711 265.998 68.0296C264.625 68.2858 262.723 68.5276 260.29 68.7549C258.711 68.8926 257.325 69.1829 256.13 69.6259C254.968 70.0667 253.986 70.7106 253.182 71.5578C252.411 72.4028 251.821 73.4838 251.412 74.801C251.033 76.083 250.84 77.6506 250.83 79.5037C251.505 77.7058 252.632 76.2418 254.211 75.1118C255.79 73.9817 257.666 73.3447 259.84 73.2008C261.52 73.0895 263.071 73.2845 264.493 73.7857C265.914 74.254 267.153 74.9824 268.211 75.9708C269.301 76.9571 270.178 78.2057 270.84 79.7165C271.501 81.1944 271.894 82.8885 272.021 84.7987L272.086 85.7867C272.221 87.8287 272.03 89.6937 271.514 91.3819C270.995 93.0372 270.231 94.4936 269.223 95.7512C268.213 96.9759 266.97 97.9513 265.497 98.6774C264.023 99.4035 262.397 99.8255 260.619 99.9432ZM260.357 95.9911C262.663 95.8384 264.504 94.9225 265.881 93.2435C267.257 91.5316 267.843 89.1441 267.64 86.0812L267.574 85.0932C267.489 83.8087 267.215 82.6691 266.752 81.6743C266.29 80.6795 265.688 79.8427 264.949 79.164C264.207 78.4523 263.329 77.9316 262.315 77.6018C261.334 77.2698 260.267 77.142 259.114 77.2184C257.961 77.2947 256.904 77.5632 255.942 78.0239C255.013 78.4823 254.228 79.1132 253.586 79.9165C252.943 80.6869 252.457 81.5957 252.13 82.6428C251.802 83.69 251.681 84.8558 251.766 86.1402L251.831 87.1282C251.927 88.5774 252.212 89.8817 252.686 91.0411C253.19 92.1655 253.832 93.1154 254.611 93.8907C255.388 94.6332 256.268 95.1868 257.252 95.5517C258.235 95.9166 259.27 96.0631 260.357 95.9911ZM277.364 72.0401L281.415 71.7718L281.742 76.712C282.516 74.9076 283.663 73.4919 285.183 72.465C286.733 71.4031 288.562 70.8023 290.67 70.6627C293.964 70.4445 296.67 71.3569 298.79 73.3997C300.908 75.4095 302.108 78.5388 302.389 82.7873L302.455 83.7754C302.603 86.0149 302.469 87.992 302.054 89.7065C301.636 91.3882 300.986 92.8205 300.105 94.0035C299.222 95.1536 298.124 96.0534 296.811 96.7027C295.531 97.3498 294.083 97.7268 292.47 97.8337C290.23 97.982 288.32 97.6124 286.74 96.7247C285.192 95.8348 283.991 94.6739 283.135 93.242L284.1 107.816L279.753 108.104L277.364 72.0401ZM291.226 94.0458C292.28 93.976 293.255 93.713 294.151 93.2567C295.045 92.7674 295.795 92.1058 296.401 91.2717C297.041 90.4355 297.502 89.4126 297.786 88.2029C298.103 86.9911 298.21 85.6112 298.107 84.0633L298.042 83.0753C297.948 81.6591 297.666 80.4042 297.197 79.3106C296.761 78.2148 296.172 77.3111 295.43 76.5994C294.719 75.8526 293.889 75.3121 292.941 74.978C291.992 74.6438 290.991 74.5116 289.937 74.5814C288.752 74.66 287.678 74.9296 286.716 75.3902C285.752 75.8179 284.947 76.4005 284.301 77.138C283.653 77.8425 283.162 78.6689 282.828 79.6172C282.494 80.5656 282.362 81.5667 282.431 82.6206L282.693 86.5728C282.772 87.7584 283.041 88.8322 283.502 89.794C283.963 90.7559 284.562 91.5597 285.299 92.2055C286.037 92.8514 286.912 93.3392 287.927 93.6689C288.941 93.9987 290.041 94.1243 291.226 94.0458ZM316.985 96.2101C315.535 96.306 314.238 96.1935 313.092 95.8724C311.977 95.5163 311.016 95.001 310.211 94.3266C309.405 93.6522 308.772 92.8341 308.312 91.8722C307.851 90.9104 307.581 89.8366 307.503 88.651C307.331 86.0491 307.964 84.1217 309.402 82.8686C310.874 81.6134 313.042 80.8909 315.908 80.7011L324.405 80.1383L324.287 78.3599C324.139 76.1203 323.526 74.6062 322.448 73.8175C321.403 73.0267 319.876 72.6978 317.867 72.8308C315.99 72.9552 314.647 73.408 313.839 74.1892C313.029 74.9376 312.603 75.7596 312.563 76.6554L308.216 76.9434C308.212 75.8851 308.428 74.895 308.863 73.973C309.329 73.0159 309.968 72.1797 310.781 71.4643C311.626 70.7467 312.646 70.1664 313.841 69.7234C315.033 69.2475 316.371 68.9605 317.853 68.8623C320.949 68.6573 323.451 69.2358 325.361 70.5979C327.301 71.9248 328.381 74.2515 328.602 77.5779L329.305 88.1993C329.397 89.5826 329.478 90.8012 329.547 91.8551C329.648 92.8739 329.797 93.8729 329.994 94.8522L326.19 95.1042C326.041 94.3532 325.928 93.6495 325.852 92.993C325.773 92.3035 325.705 91.5307 325.649 90.6744C325.049 92.1034 324.006 93.3468 322.522 94.4044C321.037 95.462 319.191 96.0639 316.985 96.2101ZM317.661 92.1957C318.682 92.1281 319.629 91.9331 320.501 91.6107C321.403 91.2533 322.183 90.7881 322.84 90.2154C323.494 89.6097 323.993 88.8985 324.336 88.0819C324.678 87.2653 324.815 86.33 324.745 85.2761L324.627 83.4977L316.871 84.0114C315.258 84.1183 314.011 84.5316 313.133 85.2514C312.252 85.9382 311.858 86.9732 311.949 88.3565C312.03 89.5751 312.525 90.5512 313.433 91.2849C314.375 92.0165 315.784 92.3201 317.661 92.1957ZM341.442 71.6664L332.5 72.2586L332.245 68.4053L354.476 66.9329L354.731 70.7862L345.789 71.3785L347.268 93.7081L342.921 93.9961L341.442 71.6664ZM359.427 66.6049L363.775 66.317L364.429 76.1974L370.703 75.7818C373.997 75.5637 376.465 76.1279 378.109 77.4745C379.786 78.819 380.71 80.7756 380.88 83.3445C381.046 85.8476 380.386 87.876 378.901 89.4298C377.449 90.9815 375.076 91.8663 371.783 92.0845L361.162 92.7879L359.427 66.6049ZM371.281 88.2475C373.323 88.1122 374.731 87.6551 375.507 86.876C376.282 86.0969 376.623 84.9992 376.529 83.5831C376.435 82.1669 375.953 81.1238 375.081 80.4537C374.21 79.7837 372.753 79.5163 370.711 79.6515L364.684 80.0507L365.254 88.6467L371.281 88.2475ZM403.966 67.5253L395.024 68.1175L394.769 64.2642L417 62.7918L417.255 66.6451L408.313 67.2374L409.792 89.567L405.445 89.855L403.966 67.5253ZM421.952 62.4638L426.299 62.1759L426.954 72.0563L432.24 71.7062C435.533 71.4881 438.002 72.0523 439.646 73.3989C441.322 74.7433 442.246 76.7 442.416 79.2689C442.582 81.7719 441.922 83.8003 440.437 85.3542C438.985 86.9058 436.613 87.7907 433.319 88.0088L423.686 88.6469L421.952 62.4638ZM432.817 84.1718C434.859 84.0366 436.268 83.5794 437.043 82.8003C437.818 82.0212 438.159 80.9236 438.065 79.5074C437.972 78.0912 437.489 77.0481 436.618 76.3781C435.746 75.708 434.29 75.4407 432.248 75.5759L427.209 75.9096L427.778 84.5056L432.817 84.1718ZM445.269 60.9195L449.617 60.6315L451.351 86.8146L447.004 87.1025L445.269 60.9195ZM457.508 60.1089L461.855 59.821L462.581 70.7882L466.04 70.5592L475.095 58.9441L480.233 58.6038L469.701 71.9044L482.461 84.7541L476.928 85.1206L466.288 74.3137L462.83 74.5427L463.589 86.004L459.242 86.2919L457.508 60.1089ZM485.923 58.2269L497.286 57.4743C500.513 57.2606 502.929 57.7787 504.534 59.0286C506.136 60.2457 507.007 61.9081 507.147 64.0159C507.184 64.5758 507.123 65.1587 506.965 65.7646C506.804 66.3376 506.559 66.8831 506.23 67.4011C505.933 67.917 505.55 68.3724 505.08 68.7674C504.643 69.1602 504.134 69.475 503.554 69.7119C505.194 70.0002 506.463 70.677 507.361 71.7423C508.289 72.7724 508.802 74.0285 508.9 75.5105C509.051 77.783 508.413 79.6446 506.988 81.0953C505.562 82.5459 503.236 83.3781 500.008 83.5919L487.658 84.4099L485.923 58.2269ZM499.753 79.7386C501.597 79.6164 502.876 79.2009 503.59 78.492C504.304 77.7832 504.621 76.8195 504.54 75.6009C504.457 74.3494 504.015 73.4193 503.214 72.8108C502.411 72.1694 501.087 71.9097 499.242 72.0319L491.239 72.5619L491.75 80.2686L499.753 79.7386ZM498.019 68.5404C499.896 68.416 501.175 68.0005 501.856 67.2938C502.57 66.585 502.889 65.6542 502.812 64.5015C502.74 63.4146 502.305 62.5834 501.506 62.0078C500.74 61.4301 499.418 61.2033 497.541 61.3277L490.526 61.7923L491.004 69.005L498.019 68.5404ZM518.771 92.7691C518.277 92.8018 517.78 92.7851 517.279 92.7191L517.018 88.7669C517.518 88.833 518.015 88.8497 518.509 88.817C519.003 88.7842 519.426 88.6735 519.778 88.4849C520.129 88.2962 520.454 87.9604 520.753 87.4775C521.052 86.9946 521.354 86.313 521.659 85.4327C522 84.5832 522.373 83.4669 522.777 82.0839L509.928 56.637L514.769 56.3164L524.673 76.9964L530.973 55.2432L535.617 54.9356L527.47 81.773C526.901 83.6632 526.347 85.2877 525.808 86.6465C525.27 88.0053 524.666 89.1204 523.996 89.9918C523.361 90.8939 522.627 91.5544 521.795 91.9734C520.965 92.4254 519.957 92.6906 518.771 92.7691Z" fill="#ED6D2F"/>
</svg>
