<svg width="753" height="175" viewBox="0 0 753 175" fill="none" xmlns="http://www.w3.org/2000/svg">
<path fill-rule="evenodd" clip-rule="evenodd" d="M27.67 59.7253L11.4569 61.0782C11.7267 64.3105 10.5701 67.3327 8.51205 69.5248C6.69181 71.7227 4.02293 73.215 0.954347 73.4711L2.17784 88.1335C8.23193 87.6283 13.5493 92.1266 14.0545 98.1807L14.1337 99.1307C14.6389 105.185 10.1406 110.502 4.08653 111.007L5.31002 125.67C11.3641 125.164 16.6815 129.663 17.1866 135.717L17.2659 136.667C17.7711 142.721 13.2728 148.038 7.21872 148.544L8.44221 163.206C11.5104 162.95 14.3893 163.979 16.5485 165.844C18.942 167.665 20.5839 170.454 20.8536 173.687L37.0667 172.334C36.5615 166.28 41.0598 160.962 47.1139 160.457L48.1042 160.375C54.1583 159.869 59.4756 164.368 59.9808 170.422L76.1938 169.069C75.6887 163.015 80.1869 157.698 86.241 157.192L87.2314 157.11C93.2854 156.605 98.6028 161.103 99.108 167.157L115.321 165.804C114.816 159.75 119.314 154.433 125.368 153.927L126.359 153.845C132.413 153.34 137.73 157.838 138.235 163.892L154.448 162.539C153.943 156.485 158.441 151.168 164.495 150.662L165.486 150.58C171.54 150.075 176.857 154.573 177.362 160.627L193.575 159.274C193.07 153.22 197.568 147.903 203.623 147.398L204.613 147.315C210.667 146.81 215.984 151.308 216.49 157.362L232.703 156.009C232.197 149.955 236.696 144.638 242.75 144.133L243.74 144.05C249.794 143.545 255.112 148.043 255.617 154.097L271.83 152.744C271.325 146.69 275.823 141.373 281.877 140.868L282.867 140.785C288.921 140.28 294.239 144.778 294.744 150.832L310.957 149.479C310.452 143.425 314.95 138.108 321.004 137.603L321.994 137.52C328.049 137.015 333.366 141.513 333.871 147.567L350.084 146.214C349.579 140.16 354.077 134.843 360.131 134.338L361.122 134.255C367.176 133.75 372.493 138.248 372.998 144.302L389.211 142.949C388.706 136.895 393.204 131.578 399.258 131.073L400.249 130.99C406.303 130.485 411.62 134.983 412.125 141.037L428.338 139.684C427.833 133.63 432.332 128.313 438.386 127.808L439.376 127.725C445.43 127.22 450.747 131.718 451.253 137.772L467.466 136.42C466.96 130.365 471.459 125.048 477.513 124.543L478.503 124.46C484.557 123.955 489.875 128.453 490.38 134.507L506.593 133.155C506.088 127.101 510.586 121.783 516.64 121.278L517.63 121.195C523.684 120.69 529.002 125.188 529.507 131.243L545.72 129.89C545.215 123.836 549.713 118.518 555.767 118.013L556.757 117.93C562.812 117.425 568.129 121.924 568.634 127.978L584.847 126.625C584.342 120.571 588.84 115.253 594.894 114.748L595.885 114.665C601.939 114.16 607.256 118.659 607.761 124.713L623.974 123.36C623.469 117.306 627.967 111.988 634.022 111.483L635.012 111.401C641.066 110.895 646.383 115.394 646.888 121.448L663.102 120.095C662.596 114.041 667.095 108.723 673.149 108.218L674.139 108.136C680.193 107.63 685.511 112.129 686.016 118.183L702.229 116.83C701.724 110.776 706.222 105.458 712.276 104.953L713.266 104.871C719.32 104.365 724.638 108.864 725.143 114.918L741.356 113.565C741.086 110.333 742.243 107.31 744.301 105.118C746.121 102.92 748.79 101.428 751.859 101.172L750.635 86.5096C744.581 87.0148 739.264 82.5165 738.758 76.4624L738.679 75.5124C738.174 69.4583 742.672 64.141 748.726 63.6358L747.503 48.9734C741.449 49.4786 736.131 44.9803 735.626 38.9262L735.547 37.9762C735.042 31.9221 739.54 26.6047 745.594 26.0996L744.371 11.4372C741.303 11.6932 738.424 10.6642 736.264 8.79888C733.871 6.97827 732.229 4.18911 731.959 0.956301L715.746 2.30919C716.251 8.36328 711.753 13.6806 705.699 14.1858L704.709 14.2684C698.655 14.7736 693.337 10.2753 692.832 4.22124L676.619 5.57413C677.124 11.6282 672.626 16.9456 666.572 17.4507L665.582 17.5334C659.527 18.0386 654.21 13.5403 653.705 7.48618L637.492 8.83907C637.997 14.8932 633.499 20.2105 627.445 20.7157L626.454 20.7983C620.4 21.3035 615.083 16.8052 614.578 10.7511L598.365 12.104C598.87 18.1581 594.372 23.4754 588.318 23.9806L587.327 24.0633C581.273 24.5684 575.956 20.0702 575.451 14.0161L559.238 15.369C559.743 21.423 555.244 26.7404 549.19 27.2456L548.2 27.3282C542.146 27.8334 536.829 23.3351 536.323 17.281L520.11 18.6339C520.616 24.688 516.117 30.0053 510.063 30.5105L509.073 30.5931C503.019 31.0983 497.701 26.6 497.196 20.546L480.983 21.8988C481.488 27.9529 476.99 33.2703 470.936 33.7755L469.946 33.8581C463.892 34.3633 458.574 29.865 458.069 23.8109L441.856 25.1638C442.361 31.2179 437.863 36.5352 431.809 37.0404L430.818 37.123C424.764 37.6282 419.447 33.1299 418.942 27.0758L402.729 28.4287C403.234 34.4828 398.736 39.8002 392.682 40.3053L391.691 40.388C385.637 40.8932 380.32 36.3949 379.815 30.3408L363.602 31.6937C364.107 37.7478 359.609 43.0651 353.554 43.5703L352.564 43.6529C346.51 44.1581 341.193 39.6598 340.688 33.6057L324.475 34.9586C324.98 41.0127 320.481 46.33 314.427 46.8352L313.437 46.9179C307.383 47.423 302.066 42.9248 301.56 36.8707L285.347 38.2236C285.852 44.2776 281.354 49.595 275.3 50.1002L274.31 50.1828C268.256 50.688 262.938 46.1897 262.433 40.1356L246.22 41.4885C246.725 47.5426 242.227 52.8599 236.173 53.3651L235.183 53.4477C229.129 53.9529 223.811 49.4546 223.306 43.4006L207.093 44.7534C207.598 50.8075 203.1 56.1249 197.046 56.6301L196.055 56.7127C190.001 57.2179 184.684 52.7196 184.179 46.6655L167.966 48.0184C168.471 54.0725 163.973 59.3898 157.919 59.895L156.928 59.9776C150.874 60.4828 145.557 55.9845 145.052 49.9304L128.839 51.2833C129.344 57.3374 124.845 62.6548 118.791 63.1599L117.801 63.2426C111.747 63.7478 106.43 59.2495 105.924 53.1954L89.7114 54.5483C90.2165 60.6024 85.7183 65.9197 79.6642 66.4249L78.6738 66.5075C72.6197 67.0127 67.3024 62.5144 66.7972 56.4603L50.5842 57.8132C51.0893 63.8673 46.5911 69.1846 40.537 69.6898L39.5466 69.7725C33.4925 70.2776 28.1752 65.7794 27.67 59.7253Z" fill="#ED6D2F"/>
<rect width="581" height="67" transform="translate(82.4961 78.2302) rotate(-4.76996)" fill="#ED6D2F"/>
<path d="M88.5852 103.571L92.927 103.209L93.841 114.162L97.2947 113.874L106.15 102.106L111.281 101.677L100.979 115.156L113.956 127.786L108.431 128.247L97.6076 117.624L94.1539 117.912L95.1091 129.358L90.7673 129.721L88.5852 103.571ZM123.947 137.385C123.453 137.427 122.956 137.418 122.454 137.361L122.125 133.414C122.627 133.471 123.124 133.479 123.617 133.438C124.111 133.397 124.532 133.279 124.88 133.085C125.228 132.89 125.547 132.549 125.838 132.061C126.128 131.573 126.418 130.886 126.709 130.001C127.035 129.145 127.389 128.023 127.769 126.633L114.486 101.41L119.321 101.007L129.578 121.514L135.504 99.6561L140.142 99.2691L132.457 126.242C131.919 128.142 131.393 129.775 130.878 131.143C130.363 132.511 129.778 133.636 129.123 134.519C128.504 135.432 127.781 136.105 126.956 136.538C126.134 137.004 125.131 137.287 123.947 137.385ZM142.462 121.532L145.669 121.264C145.99 120.741 146.255 119.957 146.466 118.912C146.677 117.868 146.84 116.646 146.955 115.245C147.07 113.844 147.11 112.334 147.074 110.714C147.068 109.058 146.994 107.375 146.851 105.665L146.275 98.7574L164.53 97.2341L166.391 119.535L170.092 119.226L170.927 129.242L166.783 129.588L166.268 123.421L146.927 125.035L147.442 131.202L143.298 131.548L142.462 121.532ZM162.049 119.897L160.51 101.445L150.839 102.252L151.177 106.298C151.292 107.679 151.358 109.065 151.375 110.454C151.388 111.811 151.349 113.123 151.256 114.389C151.16 115.623 151.011 116.811 150.808 117.954C150.635 119.061 150.403 120.041 150.109 120.894L162.049 119.897ZM183.589 122.472C182.142 122.593 180.843 122.503 179.692 122.201C178.571 121.864 177.601 121.365 176.785 120.705C175.968 120.044 175.321 119.237 174.844 118.283C174.367 117.33 174.079 116.261 173.98 115.076C173.763 112.478 174.363 110.54 175.78 109.262C177.23 107.982 179.386 107.223 182.247 106.984L190.734 106.276L190.585 104.5C190.399 102.263 189.76 100.759 188.669 99.9893C187.611 99.2165 186.078 98.9138 184.072 99.0812C182.197 99.2376 180.862 99.7133 180.068 100.508C179.27 101.27 178.859 102.1 178.834 102.996L174.493 103.358C174.47 102.3 174.669 101.307 175.088 100.377C175.538 99.4124 176.163 98.5654 176.963 97.8362C177.796 97.1042 178.806 96.5065 179.993 96.0432C181.177 95.5469 182.509 95.237 183.989 95.1135C187.081 94.8555 189.594 95.3911 191.526 96.7203C193.489 98.0139 194.609 100.322 194.886 103.644L195.771 114.252C195.886 115.633 195.988 116.85 196.076 117.903C196.194 118.92 196.36 119.916 196.574 120.892L192.775 121.209C192.613 120.461 192.488 119.759 192.4 119.104C192.31 118.416 192.229 117.644 192.157 116.789C191.582 118.228 190.561 119.489 189.095 120.572C187.628 121.655 185.793 122.288 183.589 122.472ZM184.198 118.447C185.217 118.362 186.16 118.151 187.026 117.813C187.923 117.44 188.694 116.962 189.341 116.378C189.985 115.761 190.471 115.042 190.8 114.219C191.129 113.397 191.25 112.46 191.162 111.407L191.014 109.631L183.267 110.277C181.656 110.412 180.417 110.846 179.551 111.581C178.682 112.283 178.305 113.324 178.42 114.706C178.522 115.923 179.033 116.89 179.954 117.608C180.908 118.324 182.323 118.603 184.198 118.447ZM225.253 118.996C221.963 119.27 219.324 118.795 217.333 117.57C215.343 116.345 214.145 114.49 213.739 112.007L218.081 111.645C218.418 112.908 219.175 113.839 220.351 114.436C221.557 114.998 223.081 115.202 224.923 115.048C227.193 114.859 228.806 114.344 229.762 113.502C230.749 112.625 231.197 111.643 231.107 110.558C230.999 109.275 230.488 108.308 229.573 107.655C228.654 106.97 227.143 106.715 225.037 106.891L220.548 107.266L220.251 103.713L224.445 103.363C226.254 103.212 227.508 102.76 228.207 102.006C228.939 101.25 229.252 100.246 229.148 98.9963C229.066 98.0095 228.534 97.1928 227.553 96.546C226.571 95.8992 225.159 95.6527 223.318 95.8064C221.311 95.9738 219.875 96.4249 219.009 97.1596C218.173 97.8586 217.706 98.8085 217.607 100.009L213.265 100.371C213.273 99.2777 213.486 98.2497 213.902 97.2876C214.349 96.2898 214.987 95.4085 215.818 94.6436C216.648 93.8788 217.657 93.2647 218.844 92.8013C220.061 92.3023 221.442 91.9883 222.988 91.8593C224.666 91.7193 226.129 91.7959 227.379 92.089C228.659 92.3466 229.739 92.7864 230.619 93.4085C231.497 93.9977 232.171 94.7364 232.643 95.6244C233.114 96.5125 233.397 97.5157 233.49 98.634C233.594 99.8839 233.374 101.012 232.828 102.018C232.28 102.991 231.337 103.798 230 104.44C231.883 104.78 233.232 105.462 234.046 106.487C234.86 107.512 235.328 108.748 235.448 110.196C235.539 111.281 235.394 112.32 235.013 113.312C234.632 114.305 234.011 115.201 233.151 116.001C232.32 116.766 231.232 117.42 229.886 117.963C228.573 118.503 227.029 118.847 225.253 118.996ZM249.744 116.952C248.297 117.073 246.997 116.982 245.846 116.681C244.725 116.344 243.756 115.845 242.939 115.185C242.122 114.524 241.475 113.717 240.998 112.763C240.521 111.809 240.233 110.74 240.134 109.556C239.917 106.958 240.517 105.02 241.934 103.742C243.384 102.462 245.54 101.702 248.402 101.464L256.888 100.756L256.74 98.9793C256.553 96.7427 255.914 95.2392 254.823 94.4691C253.765 93.6963 252.233 93.3935 250.226 93.561C248.352 93.7174 247.017 94.1931 246.222 94.9881C245.424 95.7502 245.013 96.5795 244.989 97.4758L240.647 97.8381C240.625 96.78 240.823 95.7864 241.243 94.8571C241.692 93.8922 242.317 93.0452 243.117 92.3159C243.95 91.584 244.961 90.9863 246.147 90.523C247.331 90.0267 248.664 89.7168 250.144 89.5933C253.236 89.3353 255.748 89.8709 257.68 91.2001C259.643 92.4937 260.763 94.8015 261.04 98.1237L261.926 108.731C262.041 110.113 262.142 111.33 262.23 112.383C262.348 113.399 262.514 114.396 262.728 115.372L258.929 115.689C258.767 114.94 258.642 114.239 258.555 113.584C258.464 112.896 258.383 112.124 258.312 111.269C257.736 112.708 256.715 113.969 255.249 115.052C253.783 116.135 251.948 116.768 249.744 116.952ZM250.352 112.927C251.372 112.841 252.314 112.63 253.181 112.293C254.077 111.92 254.848 111.442 255.495 110.858C256.139 110.241 256.626 109.521 256.955 108.699C257.283 107.877 257.404 106.939 257.316 105.887L257.168 104.111L249.422 104.757C247.81 104.891 246.571 105.326 245.705 106.061C244.836 106.763 244.459 107.804 244.575 109.186C244.676 110.403 245.188 111.37 246.109 112.088C247.063 112.804 248.477 113.083 250.352 112.927ZM280.306 114.402C278.628 114.542 277.044 114.409 275.553 114.003C274.059 113.565 272.74 112.847 271.597 111.849C270.451 110.819 269.496 109.491 268.731 107.866C267.999 106.237 267.539 104.305 267.353 102.068L267.27 101.082C267.095 98.9764 267.269 97.0906 267.792 95.4239C268.315 93.7573 269.076 92.3524 270.073 91.2093C271.068 90.0333 272.251 89.1231 273.621 88.4788C275.022 87.7989 276.495 87.3944 278.041 87.2654C279.587 87.1364 280.987 87.2349 282.239 87.561C283.525 87.8843 284.643 88.3871 285.594 89.0696C286.579 89.7492 287.393 90.5756 288.037 91.5486C288.714 92.5188 289.234 93.5851 289.596 94.7472L285.155 95.1178C284.84 94.5148 284.479 93.9652 284.074 93.4691C283.698 92.9374 283.231 92.4961 282.671 92.1454C282.145 91.7918 281.527 91.5287 280.817 91.3561C280.107 91.1835 279.292 91.1356 278.371 91.2125C277.417 91.2921 276.511 91.5499 275.653 91.9858C274.792 92.3888 274.047 92.981 273.416 93.7622C272.783 94.5106 272.3 95.4618 271.965 96.6158C271.664 97.7671 271.579 99.1322 271.711 100.711L271.793 101.698C271.933 103.375 272.251 104.806 272.748 105.99C273.274 107.139 273.914 108.062 274.668 108.761C275.419 109.427 276.254 109.904 277.172 110.192C278.088 110.447 279.022 110.534 279.976 110.455C281.588 110.32 282.904 109.813 283.923 108.933C284.976 108.05 285.675 106.899 286.02 105.479L290.46 105.108C290.052 107.759 288.941 109.922 287.126 111.597C285.309 113.239 283.036 114.174 280.306 114.402ZM294.854 86.3593L299.196 85.997L300.019 95.8648L305.298 95.4242C308.587 95.1498 311.065 95.6717 312.732 96.9899C314.432 98.3055 315.389 100.246 315.603 102.812C315.811 105.311 315.187 107.351 313.728 108.93C312.303 110.506 309.946 111.432 306.657 111.706L297.036 112.509L294.854 86.3593ZM306.089 107.878C308.128 107.708 309.529 107.227 310.291 106.435C311.053 105.642 311.375 104.539 311.257 103.125C311.139 101.71 310.638 100.676 309.756 100.021C308.873 99.3655 307.412 99.1231 305.373 99.2932L300.34 99.7132L301.056 108.298L306.089 107.878ZM318.142 84.4161L322.483 84.0538L324.665 110.203L320.324 110.566L318.142 84.4161ZM330.364 83.3962L352.073 81.5847L354.255 107.734L349.913 108.096L348.052 85.7954L335.027 86.8823L336.888 109.183L332.546 109.546L330.364 83.3962ZM369.621 106.949C368.174 107.07 366.875 106.979 365.724 106.678C364.602 106.341 363.633 105.842 362.817 105.182C362 104.521 361.353 103.714 360.876 102.76C360.399 101.806 360.111 100.737 360.012 99.5531C359.795 96.9546 360.395 95.0166 361.812 93.7391C363.262 92.4589 365.418 91.6993 368.279 91.4606L376.766 90.7524L376.617 88.9762C376.431 86.7395 375.792 85.2361 374.701 84.466C373.643 83.6932 372.11 83.3904 370.104 83.5579C368.229 83.7143 366.894 84.19 366.099 84.985C365.302 85.7471 364.891 86.5763 364.866 87.4727L360.524 87.835C360.502 86.7769 360.701 85.7833 361.12 84.854C361.57 83.8891 362.195 83.042 362.995 82.3128C363.828 81.5809 364.838 80.9832 366.025 80.5198C367.209 80.0236 368.541 79.7137 370.021 79.5902C373.113 79.3322 375.625 79.8678 377.558 81.197C379.521 82.4906 380.641 84.7984 380.918 88.1205L381.803 98.7284C381.918 100.11 382.02 101.327 382.108 102.379C382.226 103.396 382.392 104.393 382.606 105.368L378.807 105.686C378.645 104.937 378.52 104.236 378.432 103.58C378.342 102.892 378.261 102.121 378.189 101.266C377.614 102.705 376.593 103.966 375.127 105.049C373.66 106.132 371.825 106.765 369.621 106.949ZM370.229 102.923C371.249 102.838 372.192 102.627 373.058 102.29C373.954 101.917 374.726 101.439 375.373 100.855C376.017 100.238 376.503 99.5184 376.832 98.696C377.161 97.8737 377.282 96.9362 377.194 95.8836L377.046 94.1075L369.299 94.7538C367.688 94.8883 366.449 95.3229 365.583 96.0576C364.714 96.7594 364.337 97.8011 364.452 99.1826C364.554 100.4 365.065 101.367 365.986 102.085C366.94 102.8 368.355 103.08 370.229 102.923ZM393.655 81.9901L384.725 82.7353L384.403 78.8869L406.606 77.0342L406.927 80.8826L397.997 81.6278L399.858 103.929L395.516 104.291L393.655 81.9901ZM411.551 76.6216L415.893 76.2593L416.717 86.127L422.983 85.6041C426.272 85.3297 428.75 85.8516 430.416 87.1698C432.116 88.4854 433.073 90.4259 433.287 92.9915C433.496 95.4914 432.871 97.5308 431.413 99.1098C429.988 100.686 427.63 101.611 424.341 101.886L413.733 102.771L411.551 76.6216ZM423.773 98.0581C425.813 97.8879 427.213 97.4067 427.975 96.6144C428.737 95.8222 429.059 94.7189 428.941 93.3045C428.823 91.8901 428.323 90.8554 427.44 90.2004C426.557 89.5454 425.096 89.303 423.057 89.4731L417.038 89.9754L417.754 98.5604L423.773 98.0581ZM449.808 73.4292L471.517 71.6178L473.699 97.7673L469.357 98.1296L467.496 75.8285L454.471 76.9154L456.332 99.2165L451.99 99.5788L449.808 73.4292ZM492.47 96.6978C490.792 96.8378 489.175 96.7077 487.618 96.3077C486.058 95.8748 484.658 95.1636 483.416 94.1743C482.171 93.152 481.134 91.8309 480.303 90.211C479.472 88.5912 478.963 86.6629 478.777 84.4262L478.694 83.4394C478.519 81.3343 478.709 79.447 479.265 77.7777C479.822 76.1083 480.631 74.6993 481.695 73.5507C482.755 72.3692 484.02 71.4521 485.49 70.7996C486.956 70.1142 488.528 69.7015 490.205 69.5615C491.883 69.4215 493.501 69.568 495.061 70.0009C496.618 70.4009 498.018 71.0956 499.259 72.085C500.498 73.0415 501.531 74.2968 502.356 75.8509C503.181 77.405 503.681 79.2346 503.857 81.3397L503.94 82.3265C504.126 84.5632 503.944 86.5491 503.393 88.2843C502.843 90.0194 502.038 91.4942 500.98 92.7086C499.92 93.8901 498.656 94.8236 497.19 95.509C495.721 96.1615 494.147 96.5578 492.47 96.6978ZM492.14 92.7507C493.127 92.6683 494.1 92.4215 495.06 92.0103C496.016 91.5661 496.842 90.9507 497.539 90.1639C498.232 89.3442 498.76 88.3231 499.121 87.1006C499.516 85.8753 499.642 84.4074 499.499 82.697L499.417 81.7103C499.285 80.1314 498.926 78.8034 498.339 77.7262C497.785 76.6463 497.1 75.7761 496.283 75.1156C495.466 74.4551 494.55 74.0015 493.536 73.755C492.522 73.5084 491.522 73.4263 490.535 73.5086C489.548 73.5909 488.575 73.8377 487.616 74.249C486.656 74.6603 485.829 75.2593 485.132 76.046C484.436 76.8328 483.888 77.8059 483.488 78.9655C483.121 80.1222 483.003 81.49 483.135 83.0689L483.217 84.0556C483.36 85.7661 483.711 87.1941 484.27 88.3398C484.862 89.4828 485.568 90.401 486.388 91.0943C487.205 91.7549 488.122 92.2248 489.139 92.5043C490.153 92.7509 491.154 92.833 492.14 92.7507ZM508.976 68.492L513.022 68.1544L513.433 73.0883C514.176 71.2709 515.298 69.8358 516.8 68.7831C518.332 67.6947 520.151 67.0627 522.256 66.887C525.545 66.6126 528.267 67.4784 530.422 69.4847C532.574 71.458 533.827 74.5662 534.181 78.8094L534.264 79.7961C534.45 82.0328 534.35 84.0119 533.964 85.7333C533.575 87.4218 532.95 88.8651 532.09 90.063C531.226 91.2281 530.144 92.1464 528.842 92.8181C527.573 93.4871 526.132 93.8888 524.521 94.0233C522.284 94.21 520.368 93.873 518.772 93.0125C517.21 92.1492 515.989 91.0091 515.109 89.5921L516.323 104.147L511.981 104.509L508.976 68.492ZM523.213 90.2572C524.265 90.1694 525.236 89.8897 526.124 89.4182C527.009 88.9137 527.748 88.2393 528.34 87.395C528.964 86.5479 529.408 85.5173 529.671 84.3029C529.967 83.0859 530.051 81.7044 529.922 80.1584L529.839 79.1717C529.721 77.7573 529.418 76.5074 528.93 75.422C528.475 74.3338 527.871 73.4403 527.117 72.7414C526.393 72.0069 525.554 71.4807 524.6 71.1628C523.646 70.845 522.643 70.73 521.591 70.8178C520.406 70.9166 519.337 71.2045 518.384 71.6816C517.427 72.1257 516.632 72.722 515.999 73.4704C515.363 74.1859 514.886 75.0206 514.569 75.9745C514.251 76.9284 514.136 77.9317 514.223 78.9842L514.553 82.9313C514.652 84.1155 514.94 85.1844 515.417 86.1383C515.894 87.0921 516.506 87.8856 517.255 88.5187C518.003 89.1518 518.887 89.6245 519.907 89.9369C520.927 90.2493 522.029 90.3561 523.213 90.2572ZM552.409 91.6962C550.731 91.8362 549.114 91.7062 547.557 91.3062C545.997 90.8732 544.596 90.1621 543.355 89.1727C542.11 88.1504 541.072 86.8294 540.242 85.2095C539.411 83.5896 538.902 81.6613 538.716 79.4246L538.633 78.4379C538.458 76.3327 538.648 74.4455 539.204 72.7761C539.76 71.1068 540.57 69.6978 541.634 68.5491C542.694 67.3676 543.959 66.4506 545.428 65.7981C546.895 65.1126 548.467 64.6999 550.144 64.5599C551.822 64.42 553.44 64.5664 555 64.9994C556.557 65.3994 557.956 66.0941 559.198 67.0835C560.437 68.04 561.469 69.2953 562.295 70.8493C563.12 72.4034 563.62 74.233 563.796 76.3382L563.878 77.3249C564.065 79.5616 563.883 81.5475 563.332 83.2827C562.781 85.0179 561.977 86.4926 560.919 87.707C559.858 88.8886 558.595 89.822 557.129 90.5075C555.659 91.16 554.086 91.5563 552.409 91.6962ZM552.079 87.7491C553.066 87.6668 554.039 87.42 554.998 87.0087C555.955 86.5646 556.781 85.9491 557.477 85.1623C558.171 84.3427 558.698 83.3216 559.06 82.099C559.455 80.8737 559.581 79.4059 559.438 77.6955L559.355 76.7087C559.224 75.1299 558.864 73.8019 558.278 72.7247C557.724 71.6448 557.039 70.7745 556.222 70.114C555.405 69.4535 554.489 69 553.475 68.7534C552.461 68.5068 551.46 68.4247 550.474 68.507C549.487 68.5894 548.514 68.8362 547.554 69.2475C546.595 69.6587 545.767 70.2577 545.071 71.0445C544.375 71.8313 543.827 72.8044 543.427 73.9639C543.06 75.1207 542.942 76.4885 543.074 78.0673L543.156 79.0541C543.299 80.7645 543.65 82.1926 544.209 83.3383C544.801 84.4812 545.507 85.3994 546.327 86.0928C547.144 86.7533 548.061 87.2233 549.078 87.5028C550.092 87.7494 551.092 87.8315 552.079 87.7491ZM568.915 63.4905L573.257 63.1282L575.117 85.4293L584.64 84.6347L582.779 62.3336L587.121 61.9713L588.982 84.2724L598.504 83.4778L596.643 61.1767L600.985 60.8144L603.167 86.9639L571.097 89.64L568.915 63.4905ZM621.936 85.8946C620.258 86.0346 618.641 85.9045 617.084 85.5045C615.524 85.0716 614.123 84.3604 612.882 83.3711C611.637 82.3488 610.599 81.0277 609.769 79.4078C608.938 77.788 608.429 75.8597 608.243 73.623L608.16 72.6362C607.985 70.5311 608.175 68.6438 608.731 66.9745C609.287 65.3051 610.097 63.8961 611.161 62.7475C612.221 61.566 613.486 60.6489 614.955 59.9964C616.422 59.311 617.994 58.8983 619.671 58.7583C621.349 58.6183 622.967 58.7648 624.527 59.1977C626.084 59.5977 627.483 60.2924 628.725 61.2818C629.964 62.2383 630.996 63.4936 631.822 65.0477C632.647 66.6018 633.147 68.4314 633.323 70.5365L633.405 71.5233C633.592 73.76 633.41 75.7459 632.859 77.4811C632.308 79.2162 631.504 80.691 630.446 81.9054C629.386 83.0869 628.122 84.0204 626.656 84.7058C625.186 85.3583 623.613 85.7546 621.936 85.8946ZM621.606 81.9475C622.593 81.8651 623.566 81.6183 624.525 81.2071C625.482 80.7629 626.308 80.1475 627.005 79.3607C627.698 78.541 628.225 77.5199 628.587 76.2974C628.982 75.0721 629.108 73.6042 628.965 71.8938L628.883 70.9071C628.751 69.3282 628.392 68.0002 627.805 66.923C627.251 65.8431 626.566 64.9729 625.749 64.3124C624.932 63.6519 624.016 63.1983 623.002 62.9518C621.988 62.7052 620.987 62.6231 620.001 62.7054C619.014 62.7877 618.041 63.0345 617.081 63.4458C616.122 63.8571 615.294 64.4561 614.598 65.2428C613.902 66.0296 613.354 67.0027 612.954 68.1623C612.587 69.319 612.469 70.6868 612.601 72.2657L612.683 73.2524C612.826 74.9629 613.177 76.3909 613.736 77.5366C614.328 78.6796 615.034 79.5978 615.854 80.2911C616.671 80.9517 617.588 81.4216 618.605 81.7011C619.619 81.9477 620.619 82.0298 621.606 81.9475ZM638.442 57.6888L642.784 57.3265L643.698 68.2797L647.151 67.9915L656.006 56.2232L661.138 55.795L650.835 69.2739L663.813 81.9033L658.287 82.3644L647.464 71.7413L644.011 72.0295L644.966 83.476L640.624 83.8383L638.442 57.6888Z" fill="#ED6D2F"/>
</svg>
