<svg width="1920" height="1267" viewBox="0 0 1920 1267" fill="none" xmlns="http://www.w3.org/2000/svg">
<path fill-rule="evenodd" clip-rule="evenodd" d="M1921 43.519L1921 219.999H1920L1920 1115H1921L1921 1223.48C1921 1247.51 1901.52 1267 1877.48 1267H1545C1528.43 1267 1515 1253.57 1515 1237V1123H1506V1237C1506 1253.57 1492.57 1267 1476 1267H441C424.432 1267 411 1253.57 411 1237V1123H402V1237C402 1253.57 388.569 1267 372 1267H30C13.4314 1267 0 1253.57 0 1237V1123V1091V199V142V30C0 13.4315 13.4314 2.07452e-06 30 1.98593e-06L371 1.60537e-07C387.568 7.19447e-08 401 13.4315 401 30V142H410V29.999C410 13.4305 423.432 -0.000970762 440 -0.000970851L1477 -0.000976562C1493.57 -0.000976562 1507 13.4305 1507 29.999V141H1516V29.999C1516 13.4305 1529.43 -0.000976562 1546 -0.000976562H1877.48C1901.52 -0.000976562 1921 19.4836 1921 43.519Z" fill="#F5CB33"/>
</svg>
