<svg width="22" height="22" viewBox="0 0 22 22" fill="none" xmlns="http://www.w3.org/2000/svg">
<rect x="22" width="22" height="22" rx="11" transform="rotate(90 22 0)" fill="#FFF9EF"/>
<path d="M11.4797 6.21802C11.4797 5.95388 11.2656 5.73976 11.0015 5.73976C10.7373 5.73976 10.5232 5.95388 10.5232 6.21802L11.4797 6.21802ZM10.6633 16.1214C10.8501 16.3082 11.1529 16.3082 11.3396 16.1214L14.3833 13.0778C14.5701 12.891 14.5701 12.5882 14.3833 12.4014C14.1965 12.2146 13.8937 12.2146 13.7069 12.4014L11.0015 15.1069L8.29601 12.4014C8.10924 12.2146 7.80642 12.2146 7.61965 12.4014C7.43288 12.5882 7.43288 12.891 7.61965 13.0778L10.6633 16.1214ZM10.5232 6.21802L10.5232 15.7832L11.4797 15.7832L11.4797 6.21802L10.5232 6.21802Z" fill="#ED6D2F"/>
</svg>
