<svg width="1920" height="112" viewBox="0 0 1920 112" fill="none" xmlns="http://www.w3.org/2000/svg">
<rect x="-58.8563" y="5.68277" width="528.036" height="100.007" fill="#F5CB33"/>
<path d="M43.272 74.6814C40.4664 74.6814 38.1395 74.0543 36.2911 72.8C34.4427 71.5127 33.2215 69.5818 32.6273 67.0073L37.2813 67.0073C38.2055 69.3508 40.2024 70.5225 43.272 70.5225C44.4603 70.5225 45.566 70.308 46.5892 69.8789C47.6124 69.4498 48.5036 68.7402 49.2627 67.75C50.0219 66.7598 50.6325 65.4395 51.0946 63.7891C51.5567 62.1388 51.8208 60.0759 51.8868 57.6004C51.4247 58.3925 50.8636 59.0857 50.2034 59.6798C49.5433 60.2409 48.8172 60.703 48.025 61.0661C47.2658 61.3962 46.4737 61.6437 45.6485 61.8087C44.8233 61.9738 44.0312 62.0563 43.272 62.0563C39.8063 62.0563 37.0337 61.0991 34.9543 59.1847C32.9079 57.2373 31.8847 54.4647 31.8847 50.867L31.8847 50.3719C31.8847 48.7216 32.1817 47.2032 32.7759 45.817C33.403 44.4307 34.2447 43.2424 35.3009 42.2522C36.3571 41.229 37.5949 40.4368 39.0141 39.8757C40.4334 39.3146 41.9352 39.0341 43.5196 39.0341C47.4144 39.0341 50.484 40.3048 52.7285 42.8463C55.0059 45.3879 56.1447 49.3982 56.1447 54.8773L56.1447 55.8675C56.1447 59.2672 55.7981 62.1718 55.1049 64.5813C54.4118 66.9578 53.4711 68.9052 52.2829 70.4235C51.1276 71.9088 49.7744 72.998 48.223 73.6912C46.6717 74.3513 45.0214 74.6814 43.272 74.6814ZM43.9156 57.8974C46.3251 57.8974 48.157 57.2868 49.4113 56.0656C50.6655 54.8443 51.2927 53.0949 51.2927 50.8175L51.2927 50.3224C51.2927 48.0779 50.649 46.3286 49.3618 45.0743C48.1075 43.82 46.2921 43.1929 43.9156 43.1929C41.5062 43.1929 39.6743 43.8035 38.42 45.0248C37.1658 46.213 36.5386 47.9789 36.5386 50.3224L36.5386 50.8175C36.5386 53.0949 37.1658 54.8443 38.42 56.0656C39.6743 57.2868 41.5062 57.8974 43.9156 57.8974ZM61.8615 70.1264L70.1297 70.1264L70.1297 44.6287L61.8615 50.5204L61.8615 45.4704L70.2288 39.5292L74.8827 39.5292L74.8827 70.1264L81.6656 70.1264L81.6656 74.1863L61.8615 74.1863L61.8615 70.1264ZM85.1487 70.374L99.0116 58.343C100.068 57.4518 100.926 56.6432 101.586 55.917C102.279 55.1909 102.824 54.5142 103.22 53.8871C103.616 53.227 103.88 52.5833 104.012 51.9562C104.177 51.3291 104.26 50.6524 104.26 49.9263C104.26 47.9789 103.682 46.3781 102.527 45.1238C101.372 43.8365 99.7872 43.1929 97.7738 43.1929C95.3643 43.1929 93.5159 43.8531 92.2287 45.1733C90.9414 46.4606 90.2978 48.2925 90.2978 50.669L85.6438 50.669C85.6438 48.9856 85.9244 47.4343 86.4855 46.015C87.0796 44.5627 87.9048 43.3249 88.961 42.3017C90.0502 41.2785 91.3375 40.4864 92.8228 39.9252C94.3081 39.3311 95.9584 39.0341 97.7738 39.0341C99.5232 39.0341 101.091 39.3146 102.477 39.8757C103.864 40.4038 105.035 41.163 105.992 42.1532C106.95 43.1104 107.676 44.2491 108.171 45.5694C108.666 46.8897 108.914 48.342 108.914 49.9263C108.914 51.1145 108.732 52.2203 108.369 53.2435C108.006 54.2667 107.494 55.2404 106.834 56.1646C106.207 57.0888 105.431 57.9965 104.507 58.8876C103.616 59.7458 102.626 60.637 101.537 61.5612L91.189 70.1264L109.409 70.1264L109.409 74.1863L85.1487 74.1863L85.1487 70.374ZM126.246 58.2935L158.428 58.2935L158.428 62.3534L126.246 62.3534L126.246 58.2935ZM182.76 51.8077L173.799 51.8077L173.799 47.9459L196.079 47.9459L196.079 51.8077L187.117 51.8077L187.117 74.1863L182.76 74.1863L182.76 51.8077ZM211.45 74.6814C209.767 74.6814 208.166 74.4173 206.647 73.8892C205.129 73.3611 203.792 72.5524 202.637 71.4632C201.482 70.341 200.558 68.9382 199.865 67.2549C199.171 65.5715 198.825 63.5911 198.825 61.3136L198.825 60.3234C198.825 58.145 199.155 56.2636 199.815 54.6793C200.475 53.0619 201.35 51.7252 202.439 50.669C203.561 49.5797 204.849 48.7711 206.301 48.243C207.786 47.7148 209.337 47.4508 210.955 47.4508C214.817 47.4508 217.804 48.507 219.916 50.6194C222.029 52.7319 223.085 55.719 223.085 59.5808L223.085 62.3534L203.182 62.3534C203.182 63.9047 203.429 65.2084 203.924 66.2647C204.419 67.3209 205.063 68.179 205.855 68.8392C206.647 69.4993 207.522 69.9779 208.479 70.275C209.47 70.572 210.46 70.7206 211.45 70.7206C213.43 70.7206 214.949 70.3905 216.005 69.7304C217.094 69.0702 217.87 68.1625 218.332 67.0073L222.59 67.0073C222.326 68.2616 221.847 69.3673 221.154 70.3245C220.494 71.2817 219.669 72.0904 218.678 72.7505C217.721 73.3776 216.615 73.8562 215.361 74.1863C214.14 74.5164 212.836 74.6814 211.45 74.6814ZM211.202 51.4116C210.179 51.4116 209.189 51.5601 208.232 51.8572C207.275 52.1213 206.416 52.5668 205.657 53.194C204.931 53.7881 204.337 54.5473 203.875 55.4714C203.413 56.3956 203.182 57.5014 203.182 58.7886L218.975 58.7886C218.942 57.4353 218.711 56.2966 218.282 55.3724C217.886 54.4152 217.342 53.6561 216.648 53.095C215.955 52.5008 215.13 52.0717 214.173 51.8077C213.249 51.5436 212.259 51.4116 211.202 51.4116ZM227.556 74.6814C227.061 74.6814 226.566 74.6319 226.071 74.5329L226.071 70.176C226.236 70.209 226.483 70.2255 226.814 70.2255C227.54 70.2255 228.167 69.9944 228.695 69.5323C229.256 69.0702 229.702 68.2616 230.032 67.1063C230.362 65.9511 230.609 64.3833 230.774 62.4029C230.939 60.4225 231.022 57.9139 231.022 54.8773L231.022 47.9459L249.836 47.9459L249.836 74.1863L245.479 74.1863L245.479 51.8077L235.379 51.8077L235.379 55.8675C235.379 59.5313 235.214 62.5679 234.884 64.9774C234.554 67.3869 234.059 69.3178 233.398 70.7701C232.771 72.1894 231.963 73.1961 230.972 73.7902C229.982 74.3843 228.843 74.6814 227.556 74.6814ZM261.221 74.6814C260.264 74.6814 259.439 74.3513 258.746 73.6912C258.086 72.998 257.755 72.1729 257.755 71.2157C257.755 70.2255 258.086 69.4003 258.746 68.7402C259.439 68.08 260.264 67.75 261.221 67.75C262.178 67.75 262.987 68.08 263.647 68.7402C264.34 69.4003 264.687 70.2255 264.687 71.2157C264.687 72.1729 264.34 72.998 263.647 73.6912C262.987 74.3513 262.178 74.6814 261.221 74.6814ZM296.859 74.6814C294.779 74.6814 292.964 74.4338 291.413 73.9387C289.861 73.4436 288.558 72.767 287.501 71.9088C286.445 71.0176 285.604 69.9944 284.976 68.8392C284.382 67.6509 283.97 66.3802 283.739 65.0269L288.393 65.0269C288.558 65.7861 288.838 66.5122 289.234 67.2054C289.63 67.8655 290.158 68.4431 290.819 68.9382C291.512 69.4333 292.353 69.8294 293.344 70.1265C294.334 70.3905 295.506 70.5225 296.859 70.5225C299.631 70.5225 301.727 69.9944 303.147 68.9382C304.599 67.882 305.325 66.5782 305.325 65.0269C305.325 64.0697 305.16 63.261 304.83 62.6009C304.533 61.9408 304.005 61.3632 303.246 60.8681C302.519 60.3729 301.546 59.9274 300.325 59.5313C299.136 59.1352 297.667 58.7391 295.918 58.343C293.971 57.9139 292.287 57.4518 290.868 56.9567C289.482 56.4286 288.327 55.785 287.402 55.0259C286.511 54.2337 285.835 53.293 285.372 52.2038C284.943 51.1145 284.729 49.7778 284.729 48.1934C284.729 46.9062 285.009 45.7179 285.57 44.6287C286.132 43.5065 286.924 42.5328 287.947 41.7076C289.003 40.8824 290.274 40.2388 291.759 39.7767C293.278 39.2816 294.977 39.0341 296.859 39.0341C298.707 39.0341 300.325 39.2816 301.711 39.7767C303.097 40.2388 304.269 40.8824 305.226 41.7076C306.216 42.5328 306.992 43.5065 307.553 44.6287C308.114 45.7179 308.51 46.9062 308.741 48.1934L304.087 48.1934C303.922 47.5003 303.675 46.8567 303.345 46.2626C303.015 45.6354 302.552 45.1073 301.958 44.6782C301.397 44.2161 300.688 43.8531 299.829 43.589C299.004 43.3249 298.014 43.1929 296.859 43.1929C294.482 43.1929 292.634 43.688 291.314 44.6782C290.026 45.6354 289.383 46.8072 289.383 48.1934C289.383 49.0846 289.548 49.8603 289.878 50.5204C290.208 51.1476 290.72 51.7087 291.413 52.2038C292.106 52.6659 292.981 53.0785 294.037 53.4415C295.126 53.7716 296.413 54.1017 297.899 54.4317C300.044 54.8938 301.876 55.4219 303.394 56.0161C304.945 56.5772 306.2 57.2703 307.157 58.0955C308.147 58.9207 308.857 59.8944 309.286 61.0166C309.748 62.1388 309.979 63.4756 309.979 65.0269C309.979 66.3802 309.682 67.6509 309.088 68.8392C308.494 69.9944 307.636 71.0176 306.513 71.9088C305.391 72.767 304.021 73.4436 302.404 73.9387C300.787 74.4338 298.938 74.6814 296.859 74.6814ZM331.003 74.6814C329.023 74.6814 327.109 74.3513 325.26 73.6912C323.412 72.998 321.778 71.9418 320.359 70.5225C318.939 69.1032 317.801 67.2879 316.943 65.0764C316.084 62.865 315.655 60.2079 315.655 57.1053L315.655 56.1151C315.655 53.1445 316.084 50.5864 316.943 48.441C317.801 46.2956 318.939 44.5297 320.359 43.1434C321.778 41.7241 323.412 40.6844 325.26 40.0243C327.109 39.3641 329.023 39.0341 331.003 39.0341C332.984 39.0341 334.898 39.3641 336.747 40.0243C338.595 40.6844 340.229 41.7241 341.648 43.1434C343.067 44.5297 344.206 46.2956 345.064 48.441C345.922 50.5864 346.352 53.1445 346.352 56.1151L346.352 57.1053C346.352 60.2079 345.922 62.865 345.064 65.0764C344.206 67.2879 343.067 69.1032 341.648 70.5225C340.229 71.9418 338.595 72.998 336.747 73.6912C334.898 74.3513 332.984 74.6814 331.003 74.6814ZM331.003 70.5225C332.357 70.5225 333.66 70.275 334.915 69.7799C336.169 69.2848 337.275 68.5091 338.232 67.4529C339.189 66.3637 339.948 64.9774 340.509 63.294C341.103 61.5777 341.401 59.5148 341.401 57.1053L341.401 56.1151C341.401 53.8376 341.103 51.8902 340.509 50.2729C339.948 48.6225 339.189 47.2858 338.232 46.2626C337.275 45.2063 336.169 44.4307 334.915 43.9356C333.66 43.4405 332.357 43.1929 331.003 43.1929C329.65 43.1929 328.346 43.4405 327.092 43.9356C325.838 44.4307 324.732 45.2063 323.775 46.2626C322.818 47.2858 322.042 48.6225 321.448 50.2729C320.887 51.8902 320.606 53.8376 320.606 56.1151L320.606 57.1053C320.606 59.5148 320.887 61.5777 321.448 63.294C322.042 64.9774 322.818 66.3637 323.775 67.4529C324.732 68.5091 325.838 69.2848 327.092 69.7799C328.346 70.275 329.65 70.5225 331.003 70.5225ZM365.177 74.6814C363.098 74.6814 361.282 74.4338 359.731 73.9387C358.18 73.4436 356.876 72.767 355.82 71.9088C354.763 71.0176 353.922 69.9944 353.295 68.8392C352.7 67.6509 352.288 66.3802 352.057 65.0269L356.711 65.0269C356.876 65.7861 357.156 66.5122 357.552 67.2054C357.949 67.8655 358.477 68.4431 359.137 68.9382C359.83 69.4333 360.672 69.8294 361.662 70.1265C362.652 70.3905 363.824 70.5225 365.177 70.5225C367.95 70.5225 370.046 69.9944 371.465 68.9382C372.917 67.882 373.643 66.5782 373.643 65.0269C373.643 64.0697 373.478 63.261 373.148 62.6009C372.851 61.9408 372.323 61.3632 371.564 60.8681C370.838 60.373 369.864 59.9274 368.643 59.5313C367.455 59.1352 365.986 58.7391 364.236 58.343C362.289 57.9139 360.606 57.4519 359.186 56.9567C357.8 56.4286 356.645 55.785 355.721 55.0259C354.829 54.2337 354.153 53.293 353.691 52.2038C353.262 51.1145 353.047 49.7778 353.047 48.1934C353.047 46.9062 353.328 45.7179 353.889 44.6287C354.45 43.5065 355.242 42.5328 356.265 41.7076C357.321 40.8824 358.592 40.2388 360.078 39.7767C361.596 39.2816 363.296 39.0341 365.177 39.0341C367.025 39.0341 368.643 39.2816 370.029 39.7767C371.415 40.2388 372.587 40.8824 373.544 41.7076C374.534 42.5328 375.31 43.5065 375.871 44.6287C376.432 45.7179 376.828 46.9062 377.059 48.1934L372.406 48.1934C372.241 47.5003 371.993 46.8567 371.663 46.2626C371.333 45.6354 370.871 45.1073 370.277 44.6782C369.715 44.2161 369.006 43.8531 368.148 43.589C367.322 43.3249 366.332 43.1929 365.177 43.1929C362.801 43.1929 360.952 43.688 359.632 44.6782C358.345 45.6354 357.701 46.8072 357.701 48.1934C357.701 49.0846 357.866 49.8603 358.196 50.5204C358.526 51.1476 359.038 51.7087 359.731 52.2038C360.424 52.6659 361.299 53.0785 362.355 53.4415C363.444 53.7716 364.731 54.1017 366.217 54.4317C368.362 54.8938 370.194 55.4219 371.712 56.0161C373.264 56.5772 374.518 57.2703 375.475 58.0955C376.465 58.9207 377.175 59.8944 377.604 61.0166C378.066 62.1388 378.297 63.4756 378.297 65.0269C378.297 66.3802 378 67.6509 377.406 68.8392C376.812 69.9944 375.954 71.0176 374.832 71.9088C373.709 72.767 372.34 73.4436 370.722 73.9387C369.105 74.4338 367.256 74.6814 365.177 74.6814Z" fill="#FFF9EF"/>
<rect x="-58.8563" y="5.68277" width="528.036" height="100.007" stroke="#FFF9EF" stroke-width="11.0023" stroke-linecap="round" stroke-dasharray="1 38.51"/>
<rect x="1558.14" y="5.68277" width="528.036" height="100.007" fill="#F5CB33"/>
<path d="M1660.27 74.6814C1657.47 74.6814 1655.14 74.0543 1653.29 72.8C1651.44 71.5127 1650.22 69.5818 1649.63 67.0073L1654.28 67.0073C1655.21 69.3508 1657.2 70.5225 1660.27 70.5225C1661.46 70.5225 1662.57 70.308 1663.59 69.8789C1664.61 69.4498 1665.5 68.7402 1666.26 67.75C1667.02 66.7598 1667.63 65.4395 1668.09 63.7891C1668.56 62.1388 1668.82 60.0759 1668.89 57.6004C1668.42 58.3925 1667.86 59.0857 1667.2 59.6798C1666.54 60.2409 1665.82 60.703 1665.02 61.0661C1664.27 61.3962 1663.47 61.6437 1662.65 61.8087C1661.82 61.9738 1661.03 62.0563 1660.27 62.0563C1656.81 62.0563 1654.03 61.0991 1651.95 59.1847C1649.91 57.2373 1648.88 54.4647 1648.88 50.867L1648.88 50.3719C1648.88 48.7216 1649.18 47.2032 1649.78 45.817C1650.4 44.4307 1651.24 43.2424 1652.3 42.2522C1653.36 41.229 1654.59 40.4368 1656.01 39.8757C1657.43 39.3146 1658.94 39.0341 1660.52 39.0341C1664.41 39.0341 1667.48 40.3048 1669.73 42.8463C1672.01 45.3879 1673.14 49.3982 1673.14 54.8773L1673.14 55.8675C1673.14 59.2672 1672.8 62.1718 1672.1 64.5813C1671.41 66.9578 1670.47 68.9052 1669.28 70.4235C1668.13 71.9088 1666.77 72.998 1665.22 73.6912C1663.67 74.3513 1662.02 74.6814 1660.27 74.6814ZM1660.92 57.8974C1663.33 57.8974 1665.16 57.2868 1666.41 56.0656C1667.67 54.8443 1668.29 53.0949 1668.29 50.8175L1668.29 50.3224C1668.29 48.0779 1667.65 46.3286 1666.36 45.0743C1665.11 43.82 1663.29 43.1929 1660.92 43.1929C1658.51 43.1929 1656.67 43.8035 1655.42 45.0248C1654.17 46.213 1653.54 47.9789 1653.54 50.3224L1653.54 50.8175C1653.54 53.0949 1654.17 54.8443 1655.42 56.0656C1656.67 57.2868 1658.51 57.8974 1660.92 57.8974ZM1678.86 70.1264L1687.13 70.1264L1687.13 44.6287L1678.86 50.5204L1678.86 45.4704L1687.23 39.5292L1691.88 39.5292L1691.88 70.1264L1698.67 70.1264L1698.67 74.1863L1678.86 74.1863L1678.86 70.1264ZM1702.15 70.374L1716.01 58.343C1717.07 57.4518 1717.93 56.6432 1718.59 55.917C1719.28 55.1909 1719.82 54.5142 1720.22 53.8871C1720.62 53.227 1720.88 52.5833 1721.01 51.9562C1721.18 51.3291 1721.26 50.6524 1721.26 49.9263C1721.26 47.9789 1720.68 46.3781 1719.53 45.1238C1718.37 43.8365 1716.79 43.1929 1714.77 43.1929C1712.36 43.1929 1710.52 43.8531 1709.23 45.1733C1707.94 46.4606 1707.3 48.2925 1707.3 50.669L1702.64 50.669C1702.64 48.9856 1702.92 47.4343 1703.49 46.015C1704.08 44.5627 1704.9 43.3249 1705.96 42.3017C1707.05 41.2785 1708.34 40.4864 1709.82 39.9252C1711.31 39.3311 1712.96 39.0341 1714.77 39.0341C1716.52 39.0341 1718.09 39.3146 1719.48 39.8757C1720.86 40.4038 1722.04 41.163 1722.99 42.1532C1723.95 43.1104 1724.68 44.2491 1725.17 45.5694C1725.67 46.8897 1725.91 48.342 1725.91 49.9263C1725.91 51.1145 1725.73 52.2203 1725.37 53.2435C1725.01 54.2667 1724.49 55.2404 1723.83 56.1646C1723.21 57.0888 1722.43 57.9965 1721.51 58.8876C1720.62 59.7458 1719.63 60.637 1718.54 61.5612L1708.19 70.1264L1726.41 70.1264L1726.41 74.1863L1702.15 74.1863L1702.15 70.374ZM1743.25 58.2935L1775.43 58.2935L1775.43 62.3534L1743.25 62.3534L1743.25 58.2935ZM1799.76 51.8077L1790.8 51.8077L1790.8 47.9459L1813.08 47.9459L1813.08 51.8077L1804.12 51.8077L1804.12 74.1863L1799.76 74.1863L1799.76 51.8077ZM1828.45 74.6814C1826.77 74.6814 1825.17 74.4173 1823.65 73.8892C1822.13 73.3611 1820.79 72.5524 1819.64 71.4632C1818.48 70.341 1817.56 68.9382 1816.86 67.2549C1816.17 65.5715 1815.82 63.5911 1815.82 61.3136L1815.82 60.3234C1815.82 58.145 1816.15 56.2636 1816.82 54.6793C1817.48 53.0619 1818.35 51.7252 1819.44 50.669C1820.56 49.5797 1821.85 48.7711 1823.3 48.243C1824.79 47.7148 1826.34 47.4508 1827.95 47.4508C1831.82 47.4508 1834.8 48.507 1836.92 50.6194C1839.03 52.7319 1840.08 55.719 1840.08 59.5808L1840.08 62.3534L1820.18 62.3534C1820.18 63.9047 1820.43 65.2084 1820.92 66.2647C1821.42 67.3209 1822.06 68.179 1822.86 68.8392C1823.65 69.4993 1824.52 69.9779 1825.48 70.275C1826.47 70.572 1827.46 70.7206 1828.45 70.7206C1830.43 70.7206 1831.95 70.3905 1833 69.7304C1834.09 69.0702 1834.87 68.1625 1835.33 67.0073L1839.59 67.0073C1839.33 68.2616 1838.85 69.3673 1838.15 70.3245C1837.49 71.2817 1836.67 72.0904 1835.68 72.7505C1834.72 73.3776 1833.62 73.8562 1832.36 74.1863C1831.14 74.5164 1829.84 74.6814 1828.45 74.6814ZM1828.2 51.4116C1827.18 51.4116 1826.19 51.5601 1825.23 51.8572C1824.27 52.1213 1823.42 52.5668 1822.66 53.194C1821.93 53.7881 1821.34 54.5473 1820.87 55.4714C1820.41 56.3956 1820.18 57.5014 1820.18 58.7886L1835.98 58.7886C1835.94 57.4353 1835.71 56.2966 1835.28 55.3724C1834.89 54.4152 1834.34 53.6561 1833.65 53.095C1832.96 52.5008 1832.13 52.0717 1831.17 51.8077C1830.25 51.5436 1829.26 51.4116 1828.2 51.4116ZM1844.56 74.6814C1844.06 74.6814 1843.57 74.6319 1843.07 74.5329L1843.07 70.176C1843.24 70.209 1843.48 70.2255 1843.81 70.2255C1844.54 70.2255 1845.17 69.9944 1845.69 69.5323C1846.26 69.0702 1846.7 68.2616 1847.03 67.1063C1847.36 65.9511 1847.61 64.3833 1847.77 62.4029C1847.94 60.4225 1848.02 57.9139 1848.02 54.8773L1848.02 47.9459L1866.84 47.9459L1866.84 74.1863L1862.48 74.1863L1862.48 51.8077L1852.38 51.8077L1852.38 55.8675C1852.38 59.5313 1852.21 62.5679 1851.88 64.9774C1851.55 67.3869 1851.06 69.3178 1850.4 70.7701C1849.77 72.1894 1848.96 73.1961 1847.97 73.7902C1846.98 74.3843 1845.84 74.6814 1844.56 74.6814ZM1878.22 74.6814C1877.26 74.6814 1876.44 74.3513 1875.75 73.6912C1875.09 72.998 1874.76 72.1729 1874.76 71.2157C1874.76 70.2255 1875.09 69.4003 1875.75 68.7402C1876.44 68.08 1877.26 67.75 1878.22 67.75C1879.18 67.75 1879.99 68.08 1880.65 68.7402C1881.34 69.4003 1881.69 70.2255 1881.69 71.2157C1881.69 72.1729 1881.34 72.998 1880.65 73.6912C1879.99 74.3513 1879.18 74.6814 1878.22 74.6814ZM1913.86 74.6814C1911.78 74.6814 1909.96 74.4338 1908.41 73.9387C1906.86 73.4436 1905.56 72.767 1904.5 71.9088C1903.45 71.0176 1902.6 69.9944 1901.98 68.8392C1901.38 67.6509 1900.97 66.3802 1900.74 65.0269L1905.39 65.0269C1905.56 65.7861 1905.84 66.5122 1906.23 67.2054C1906.63 67.8655 1907.16 68.4431 1907.82 68.9382C1908.51 69.4333 1909.35 69.8294 1910.34 70.1265C1911.33 70.3905 1912.51 70.5225 1913.86 70.5225C1916.63 70.5225 1918.73 69.9944 1920.15 68.9382C1921.6 67.882 1922.33 66.5782 1922.33 65.0269C1922.33 64.0697 1922.16 63.261 1921.83 62.6009C1921.53 61.9408 1921 61.3632 1920.25 60.8681C1919.52 60.3729 1918.55 59.9274 1917.32 59.5313C1916.14 59.1352 1914.67 58.7391 1912.92 58.343C1910.97 57.9139 1909.29 57.4518 1907.87 56.9567C1906.48 56.4286 1905.33 55.785 1904.4 55.0259C1903.51 54.2337 1902.83 53.293 1902.37 52.2038C1901.94 51.1145 1901.73 49.7778 1901.73 48.1934C1901.73 46.9062 1902.01 45.7179 1902.57 44.6287C1903.13 43.5065 1903.92 42.5328 1904.95 41.7076C1906 40.8824 1907.27 40.2388 1908.76 39.7767C1910.28 39.2816 1911.98 39.0341 1913.86 39.0341C1915.71 39.0341 1917.32 39.2816 1918.71 39.7767C1920.1 40.2388 1921.27 40.8824 1922.23 41.7076C1923.22 42.5328 1923.99 43.5065 1924.55 44.6287C1925.11 45.7179 1925.51 46.9062 1925.74 48.1934L1921.09 48.1934C1920.92 47.5003 1920.67 46.8567 1920.34 46.2626C1920.01 45.6354 1919.55 45.1073 1918.96 44.6782C1918.4 44.2161 1917.69 43.8531 1916.83 43.589C1916 43.3249 1915.01 43.1929 1913.86 43.1929C1911.48 43.1929 1909.63 43.688 1908.31 44.6782C1907.03 45.6354 1906.38 46.8072 1906.38 48.1934C1906.38 49.0846 1906.55 49.8603 1906.88 50.5204C1907.21 51.1476 1907.72 51.7087 1908.41 52.2038C1909.11 52.6659 1909.98 53.0785 1911.04 53.4415C1912.13 53.7716 1913.41 54.1017 1914.9 54.4317C1917.04 54.8938 1918.88 55.4219 1920.39 56.0161C1921.95 56.5772 1923.2 57.2703 1924.16 58.0955C1925.15 58.9207 1925.86 59.8944 1926.29 61.0166C1926.75 62.1388 1926.98 63.4756 1926.98 65.0269C1926.98 66.3802 1926.68 67.6509 1926.09 68.8392C1925.49 69.9944 1924.64 71.0176 1923.51 71.9088C1922.39 72.767 1921.02 73.4436 1919.4 73.9387C1917.79 74.4338 1915.94 74.6814 1913.86 74.6814ZM1948 74.6814C1946.02 74.6814 1944.11 74.3513 1942.26 73.6912C1940.41 72.998 1938.78 71.9418 1937.36 70.5225C1935.94 69.1032 1934.8 67.2879 1933.94 65.0764C1933.08 62.865 1932.66 60.2079 1932.66 57.1053L1932.66 56.1151C1932.66 53.1445 1933.08 50.5864 1933.94 48.441C1934.8 46.2956 1935.94 44.5297 1937.36 43.1434C1938.78 41.7241 1940.41 40.6844 1942.26 40.0243C1944.11 39.3641 1946.02 39.0341 1948 39.0341C1949.98 39.0341 1951.9 39.3641 1953.75 40.0243C1955.59 40.6844 1957.23 41.7241 1958.65 43.1434C1960.07 44.5297 1961.21 46.2956 1962.06 48.441C1962.92 50.5864 1963.35 53.1445 1963.35 56.1151L1963.35 57.1053C1963.35 60.2079 1962.92 62.865 1962.06 65.0764C1961.21 67.2879 1960.07 69.1032 1958.65 70.5225C1957.23 71.9418 1955.59 72.998 1953.75 73.6912C1951.9 74.3513 1949.98 74.6814 1948 74.6814ZM1948 70.5225C1949.36 70.5225 1950.66 70.275 1951.91 69.7799C1953.17 69.2848 1954.27 68.5091 1955.23 67.4529C1956.19 66.3637 1956.95 64.9774 1957.51 63.294C1958.1 61.5777 1958.4 59.5148 1958.4 57.1053L1958.4 56.1151C1958.4 53.8376 1958.1 51.8902 1957.51 50.2729C1956.95 48.6225 1956.19 47.2858 1955.23 46.2626C1954.27 45.2063 1953.17 44.4307 1951.91 43.9356C1950.66 43.4405 1949.36 43.1929 1948 43.1929C1946.65 43.1929 1945.35 43.4405 1944.09 43.9356C1942.84 44.4307 1941.73 45.2063 1940.77 46.2626C1939.82 47.2858 1939.04 48.6225 1938.45 50.2729C1937.89 51.8902 1937.61 53.8376 1937.61 56.1151L1937.61 57.1053C1937.61 59.5148 1937.89 61.5777 1938.45 63.294C1939.04 64.9774 1939.82 66.3637 1940.77 67.4529C1941.73 68.5091 1942.84 69.2848 1944.09 69.7799C1945.35 70.275 1946.65 70.5225 1948 70.5225ZM1982.18 74.6814C1980.1 74.6814 1978.28 74.4338 1976.73 73.9387C1975.18 73.4436 1973.88 72.767 1972.82 71.9088C1971.76 71.0176 1970.92 69.9944 1970.29 68.8392C1969.7 67.6509 1969.29 66.3802 1969.06 65.0269L1973.71 65.0269C1973.88 65.7861 1974.16 66.5122 1974.55 67.2054C1974.95 67.8655 1975.48 68.4431 1976.14 68.9382C1976.83 69.4333 1977.67 69.8294 1978.66 70.1265C1979.65 70.3905 1980.82 70.5225 1982.18 70.5225C1984.95 70.5225 1987.05 69.9944 1988.46 68.9382C1989.92 67.882 1990.64 66.5782 1990.64 65.0269C1990.64 64.0697 1990.48 63.261 1990.15 62.6009C1989.85 61.9408 1989.32 61.3632 1988.56 60.8681C1987.84 60.373 1986.86 59.9274 1985.64 59.5313C1984.45 59.1352 1982.99 58.7391 1981.24 58.343C1979.29 57.9139 1977.61 57.4519 1976.19 56.9567C1974.8 56.4286 1973.64 55.785 1972.72 55.0259C1971.83 54.2337 1971.15 53.293 1970.69 52.2038C1970.26 51.1145 1970.05 49.7778 1970.05 48.1934C1970.05 46.9062 1970.33 45.7179 1970.89 44.6287C1971.45 43.5065 1972.24 42.5328 1973.27 41.7076C1974.32 40.8824 1975.59 40.2388 1977.08 39.7767C1978.6 39.2816 1980.3 39.0341 1982.18 39.0341C1984.03 39.0341 1985.64 39.2816 1987.03 39.7767C1988.42 40.2388 1989.59 40.8824 1990.54 41.7076C1991.53 42.5328 1992.31 43.5065 1992.87 44.6287C1993.43 45.7179 1993.83 46.9062 1994.06 48.1934L1989.41 48.1934C1989.24 47.5003 1988.99 46.8567 1988.66 46.2626C1988.33 45.6354 1987.87 45.1073 1987.28 44.6782C1986.72 44.2161 1986.01 43.8531 1985.15 43.589C1984.32 43.3249 1983.33 43.1929 1982.18 43.1929C1979.8 43.1929 1977.95 43.688 1976.63 44.6782C1975.34 45.6354 1974.7 46.8072 1974.7 48.1934C1974.7 49.0846 1974.87 49.8603 1975.2 50.5204C1975.53 51.1476 1976.04 51.7087 1976.73 52.2038C1977.42 52.6659 1978.3 53.0785 1979.35 53.4415C1980.44 53.7716 1981.73 54.1017 1983.22 54.4317C1985.36 54.8938 1987.19 55.4219 1988.71 56.0161C1990.26 56.5772 1991.52 57.2703 1992.48 58.0955C1993.47 58.9207 1994.18 59.8944 1994.6 61.0166C1995.07 62.1388 1995.3 63.4756 1995.3 65.0269C1995.3 66.3802 1995 67.6509 1994.41 68.8392C1993.81 69.9944 1992.95 71.0176 1991.83 71.9088C1990.71 72.767 1989.34 73.4436 1987.72 73.9387C1986.1 74.4338 1984.26 74.6814 1982.18 74.6814Z" fill="#FFF9EF"/>
<rect x="1558.14" y="5.68277" width="528.036" height="100.007" stroke="#FFF9EF" stroke-width="11.0023" stroke-linecap="round" stroke-dasharray="1 38.51"/>
<path fill-rule="evenodd" clip-rule="evenodd" d="M499.678 0.181641L484.178 0.181641C484.178 3.38906 482.78 6.27297 480.556 8.26782C478.556 10.3206 475.749 11.5972 472.643 11.5972L472.643 25.7661C478.718 25.7661 483.643 30.647 483.643 36.6679L483.643 37.6954C483.643 43.7163 478.718 48.5972 472.643 48.5972L472.643 62.7661C478.718 62.7661 483.643 67.647 483.643 73.6679L483.643 74.6954C483.643 80.7163 478.718 85.5972 472.643 85.5972L472.643 99.7661C475.749 99.7661 478.555 101.042 480.555 103.095C482.78 105.09 484.178 107.974 484.178 111.182L499.678 111.182C499.678 105.161 504.603 100.28 510.678 100.28L511.75 100.28C517.825 100.28 522.75 105.161 522.75 111.182L538.25 111.182C538.25 105.161 543.175 100.28 549.25 100.28L550.321 100.28C556.396 100.28 561.321 105.161 561.321 111.182L576.821 111.182C576.821 105.161 581.746 100.28 587.821 100.28L588.892 100.28C594.968 100.28 599.892 105.161 599.892 111.182L615.393 111.182C615.393 105.161 620.318 100.28 626.393 100.28L627.464 100.28C633.539 100.28 638.464 105.161 638.464 111.182L653.964 111.182C653.964 105.161 658.889 100.28 664.964 100.28L666.035 100.28C672.11 100.28 677.035 105.161 677.035 111.182L692.536 111.182C692.536 105.161 697.46 100.28 703.536 100.28L704.607 100.28C710.682 100.28 715.607 105.161 715.607 111.182L731.107 111.182C731.107 105.161 736.032 100.28 742.107 100.28L743.178 100.28C749.253 100.28 754.178 105.161 754.178 111.182L769.678 111.182C769.678 105.161 774.603 100.28 780.678 100.28L781.75 100.28C787.825 100.28 792.75 105.161 792.75 111.182L808.25 111.182C808.25 105.161 813.175 100.28 819.25 100.28L820.321 100.28C826.396 100.28 831.321 105.161 831.321 111.182L846.821 111.182C846.821 105.161 851.746 100.28 857.821 100.28L858.892 100.28C864.968 100.28 869.892 105.161 869.892 111.182L885.393 111.182C885.393 105.161 890.318 100.28 896.393 100.28L897.464 100.28C903.539 100.28 908.464 105.161 908.464 111.182L923.964 111.182C923.964 105.161 928.889 100.28 934.964 100.28L936.035 100.28C942.111 100.28 947.035 105.161 947.035 111.182L962.536 111.182C962.536 105.161 967.461 100.28 973.536 100.28L974.607 100.28C980.682 100.28 985.607 105.161 985.607 111.182L1001.11 111.182C1001.11 107.974 1002.5 105.09 1004.73 103.095C1006.73 101.043 1009.54 99.7661 1012.64 99.7661L1012.64 85.5972C1006.57 85.5972 1001.64 80.7163 1001.64 74.6954L1001.64 73.6679C1001.64 67.647 1006.57 62.7661 1012.64 62.7661L1012.64 48.5972C1006.57 48.5972 1001.64 43.7163 1001.64 37.6954L1001.64 36.6679C1001.64 30.647 1006.57 25.7661 1012.64 25.7661L1012.64 11.5972C1009.54 11.5972 1006.73 10.3208 1004.73 8.26825C1002.5 6.27337 1001.11 3.38933 1001.11 0.181652L985.607 0.181651C985.607 6.20254 980.682 11.0834 974.607 11.0834L973.536 11.0834C967.46 11.0834 962.536 6.20254 962.536 0.181651L947.035 0.18165C947.035 6.20254 942.11 11.0834 936.035 11.0834L934.964 11.0834C928.889 11.0834 923.964 6.20254 923.964 0.18165L908.464 0.18165C908.464 6.20254 903.539 11.0834 897.464 11.0834L896.393 11.0834C890.318 11.0834 885.393 6.20254 885.393 0.181649L869.892 0.181649C869.892 6.20254 864.968 11.0834 858.892 11.0834L857.821 11.0834C851.746 11.0834 846.821 6.20254 846.821 0.181648L831.321 0.181648C831.321 6.20254 826.396 11.0834 820.321 11.0834L819.25 11.0834C813.175 11.0834 808.25 6.20254 808.25 0.181648L792.75 0.181647C792.75 6.20254 787.825 11.0834 781.75 11.0834L780.678 11.0834C774.603 11.0834 769.678 6.20254 769.678 0.181647L754.178 0.181646C754.178 6.20254 749.253 11.0834 743.178 11.0834L742.107 11.0834C736.032 11.0834 731.107 6.20254 731.107 0.181646L715.607 0.181646C715.607 6.20254 710.682 11.0834 704.607 11.0834L703.536 11.0834C697.46 11.0834 692.536 6.20253 692.536 0.181645L677.035 0.181645C677.035 6.20253 672.11 11.0834 666.035 11.0834L664.964 11.0834C658.889 11.0834 653.964 6.20253 653.964 0.181644L638.464 0.181644C638.464 6.20253 633.539 11.0834 627.464 11.0834L626.393 11.0834C620.318 11.0834 615.393 6.20253 615.393 0.181644L599.892 0.181643C599.892 6.20253 594.968 11.0834 588.892 11.0834L587.821 11.0834C581.746 11.0834 576.821 6.20253 576.821 0.181643L561.321 0.181642C561.321 6.20253 556.396 11.0834 550.321 11.0834L549.25 11.0834C543.175 11.0834 538.25 6.20253 538.25 0.181642L522.75 0.181642C522.75 6.20253 517.825 11.0834 511.75 11.0834L510.678 11.0834C504.603 11.0834 499.678 6.20253 499.678 0.181641Z" fill="#F5CB33"/>
<path d="M580.753 75.4717C577.947 75.4717 575.62 74.8445 573.772 73.5903C571.924 72.303 570.702 70.3721 570.108 67.7976L574.762 67.7976C575.686 70.1411 577.683 71.3128 580.753 71.3128C581.941 71.3128 583.047 71.0983 584.07 70.6692C585.093 70.2401 585.985 69.5304 586.744 68.5402C587.503 67.55 588.113 66.2298 588.576 64.5794C589.038 62.9291 589.302 60.8662 589.368 58.3907C588.906 59.1828 588.345 59.876 587.684 60.4701C587.024 61.0312 586.298 61.4933 585.506 61.8564C584.747 62.1864 583.955 62.434 583.129 62.599C582.304 62.7641 581.512 62.8466 580.753 62.8466C577.287 62.8466 574.515 61.8894 572.435 59.975C570.389 58.0276 569.366 55.255 569.366 51.6573L569.366 51.1622C569.366 49.5118 569.663 47.9935 570.257 46.6072C570.884 45.221 571.726 44.0327 572.782 43.0425C573.838 42.0193 575.076 41.2271 576.495 40.666C577.914 40.1049 579.416 39.8243 581.001 39.8243C584.895 39.8243 587.965 41.0951 590.209 43.6366C592.487 46.1781 593.626 50.1885 593.626 55.6676L593.626 56.6578C593.626 60.0575 593.279 62.9621 592.586 65.3716C591.893 67.7481 590.952 69.6955 589.764 71.2138C588.609 72.6991 587.255 73.7883 585.704 74.4815C584.153 75.1416 582.502 75.4717 580.753 75.4717ZM581.397 58.6877C583.806 58.6877 585.638 58.0771 586.892 56.8558C588.146 55.6346 588.774 53.8852 588.774 51.6078L588.774 51.1127C588.774 48.8682 588.13 47.1188 586.843 45.8646C585.588 44.6103 583.773 43.9832 581.397 43.9832C578.987 43.9832 577.155 44.5938 575.901 45.8151C574.647 47.0033 574.02 48.7692 574.02 51.1127L574.02 51.6078C574.02 53.8852 574.647 55.6346 575.901 56.8558C577.155 58.0771 578.987 58.6877 581.397 58.6877ZM599.342 70.9167L607.611 70.9167L607.611 45.419L599.342 51.3107L599.342 46.2607L607.71 40.3194L612.364 40.3194L612.364 70.9167L619.147 70.9167L619.147 74.9766L599.342 74.9766L599.342 70.9167ZM622.63 71.1643L636.493 59.1333C637.549 58.2421 638.407 57.4335 639.067 56.7073C639.76 55.9812 640.305 55.3045 640.701 54.6774C641.097 54.0173 641.361 53.3736 641.493 52.7465C641.658 52.1194 641.741 51.4427 641.741 50.7166C641.741 48.7692 641.163 47.1684 640.008 45.9141C638.853 44.6268 637.268 43.9832 635.255 43.9832C632.845 43.9832 630.997 44.6433 629.71 45.9636C628.422 47.2509 627.779 49.0827 627.779 51.4592L623.125 51.4592C623.125 49.7759 623.405 48.2246 623.966 46.8053C624.561 45.353 625.386 44.1152 626.442 43.092C627.531 42.0688 628.818 41.2766 630.304 40.7155C631.789 40.1214 633.439 39.8243 635.255 39.8243C637.004 39.8243 638.572 40.1049 639.958 40.666C641.345 41.1941 642.516 41.9533 643.473 42.9435C644.431 43.9007 645.157 45.0394 645.652 46.3597C646.147 47.68 646.395 49.1323 646.395 50.7166C646.395 51.9048 646.213 53.0106 645.85 54.0338C645.487 55.057 644.975 56.0307 644.315 56.9549C643.688 57.8791 642.912 58.7867 641.988 59.6779C641.097 60.5361 640.107 61.4273 639.018 62.3515L628.67 70.9167L646.89 70.9167L646.89 74.9766L622.63 74.9766L622.63 71.1643ZM663.727 59.0838L695.909 59.0838L695.909 63.1436L663.727 63.1436L663.727 59.0838ZM720.241 52.598L711.28 52.598L711.28 48.7362L733.56 48.7362L733.56 52.598L724.598 52.598L724.598 74.9766L720.241 74.9766L720.241 52.598ZM748.931 75.4717C747.248 75.4717 745.647 75.2076 744.128 74.6795C742.61 74.1514 741.273 73.3427 740.118 72.2535C738.963 71.1313 738.039 69.7285 737.345 68.0451C736.652 66.3618 736.306 64.3814 736.306 62.1039L736.306 61.1137C736.306 58.9353 736.636 57.0539 737.296 55.4696C737.956 53.8522 738.831 52.5155 739.92 51.4592C741.042 50.37 742.33 49.5613 743.782 49.0332C745.267 48.5051 746.818 48.2411 748.436 48.2411C752.298 48.2411 755.285 49.2973 757.397 51.4097C759.51 53.5222 760.566 56.5093 760.566 60.3711L760.566 63.1436L740.663 63.1436C740.663 64.695 740.91 65.9987 741.405 67.0549C741.9 68.1112 742.544 68.9693 743.336 69.6295C744.128 70.2896 745.003 70.7682 745.96 71.0653C746.95 71.3623 747.941 71.5109 748.931 71.5109C750.911 71.5109 752.43 71.1808 753.486 70.5207C754.575 69.8605 755.351 68.9528 755.813 67.7976L760.071 67.7976C759.807 69.0518 759.328 70.1576 758.635 71.1148C757.975 72.072 757.15 72.8806 756.159 73.5408C755.202 74.1679 754.096 74.6465 752.842 74.9766C751.621 75.3066 750.317 75.4717 748.931 75.4717ZM748.683 52.2019C747.66 52.2019 746.67 52.3504 745.713 52.6475C744.756 52.9115 743.897 53.3571 743.138 53.9843C742.412 54.5784 741.818 55.3375 741.356 56.2617C740.894 57.1859 740.663 58.2916 740.663 59.5789L756.456 59.5789C756.423 58.2256 756.192 57.0869 755.763 56.1627C755.367 55.2055 754.823 54.4464 754.129 53.8852C753.436 53.2911 752.611 52.862 751.654 52.598C750.73 52.3339 749.74 52.2019 748.683 52.2019ZM765.037 75.4717C764.542 75.4717 764.047 75.4222 763.552 75.3231L763.552 70.9662C763.717 70.9993 763.964 71.0158 764.294 71.0158C765.021 71.0158 765.648 70.7847 766.176 70.3226C766.737 69.8605 767.183 69.0519 767.513 67.8966C767.843 66.7414 768.09 65.1736 768.255 63.1931C768.42 61.2127 768.503 58.7042 768.503 55.6676L768.503 48.7362L787.317 48.7362L787.317 74.9766L782.96 74.9766L782.96 52.598L772.86 52.598L772.86 56.6578C772.86 60.3216 772.695 63.3582 772.365 65.7677C772.035 68.1772 771.539 70.1081 770.879 71.5604C770.252 72.9797 769.444 73.9864 768.453 74.5805C767.463 75.1746 766.324 75.4717 765.037 75.4717ZM798.702 75.4717C797.745 75.4717 796.92 75.1416 796.227 74.4815C795.566 73.7883 795.236 72.9632 795.236 72.006C795.236 71.0158 795.566 70.1906 796.227 69.5304C796.92 68.8703 797.745 68.5402 798.702 68.5402C799.659 68.5402 800.468 68.8703 801.128 69.5304C801.821 70.1906 802.168 71.0158 802.168 72.006C802.168 72.9632 801.821 73.7883 801.128 74.4815C800.468 75.1416 799.659 75.4717 798.702 75.4717ZM834.34 75.4717C832.26 75.4717 830.445 75.2241 828.894 74.729C827.342 74.2339 826.039 73.5573 824.982 72.6991C823.926 71.8079 823.084 70.7847 822.457 69.6295C821.863 68.4412 821.451 67.1705 821.22 65.8172L825.874 65.8172C826.039 66.5763 826.319 67.3025 826.715 67.9956C827.111 68.6558 827.639 69.2334 828.3 69.7285C828.993 70.2236 829.834 70.6197 830.825 70.9167C831.815 71.1808 832.986 71.3128 834.34 71.3128C837.112 71.3128 839.208 70.7847 840.628 69.7285C842.08 68.6723 842.806 67.3685 842.806 65.8172C842.806 64.86 842.641 64.0513 842.311 63.3912C842.014 62.7311 841.486 62.1534 840.727 61.6583C840 61.1632 839.027 60.7176 837.805 60.3216C836.617 59.9255 835.148 59.5294 833.399 59.1333C831.452 58.7042 829.768 58.2421 828.349 57.747C826.963 57.2189 825.808 56.5753 824.883 55.8161C823.992 55.024 823.316 54.0833 822.853 52.9941C822.424 51.9048 822.21 50.5681 822.21 48.9837C822.21 47.6965 822.49 46.5082 823.051 45.419C823.613 44.2968 824.405 43.3231 825.428 42.4979C826.484 41.6727 827.755 41.0291 829.24 40.567C830.759 40.0719 832.458 39.8244 834.34 39.8244C836.188 39.8244 837.805 40.0719 839.192 40.567C840.578 41.0291 841.75 41.6727 842.707 42.4979C843.697 43.3231 844.473 44.2968 845.034 45.419C845.595 46.5082 845.991 47.6965 846.222 48.9837L841.568 48.9837C841.403 48.2906 841.156 47.647 840.826 47.0528C840.496 46.4257 840.033 45.8976 839.439 45.4685C838.878 45.0064 838.169 44.6433 837.31 44.3793C836.485 44.1152 835.495 43.9832 834.34 43.9832C831.963 43.9832 830.115 44.4783 828.795 45.4685C827.507 46.4257 826.864 47.5974 826.864 48.9837C826.864 49.8749 827.029 50.6506 827.359 51.3107C827.689 51.9378 828.201 52.499 828.894 52.9941C829.587 53.4561 830.461 53.8687 831.518 54.2318C832.607 54.5619 833.894 54.8919 835.379 55.222C837.525 55.6841 839.357 56.2122 840.875 56.8063C842.426 57.3675 843.681 58.0606 844.638 58.8858C845.628 59.7109 846.338 60.6846 846.767 61.8069C847.229 62.9291 847.46 64.2659 847.46 65.8172C847.46 67.1705 847.163 68.4412 846.569 69.6295C845.975 70.7847 845.116 71.8079 843.994 72.6991C842.872 73.5573 841.502 74.2339 839.885 74.729C838.268 75.2241 836.419 75.4717 834.34 75.4717ZM868.484 75.4717C866.504 75.4717 864.59 75.1416 862.741 74.4815C860.893 73.7883 859.259 72.7321 857.84 71.3128C856.42 69.8935 855.282 68.0782 854.423 65.8667C853.565 63.6552 853.136 60.9982 853.136 57.8956L853.136 56.9054C853.136 53.9347 853.565 51.3767 854.423 49.2313C855.282 47.0858 856.42 45.32 857.84 43.9337C859.259 42.5144 860.893 41.4747 862.741 40.8146C864.59 40.1544 866.504 39.8244 868.484 39.8244C870.465 39.8244 872.379 40.1544 874.228 40.8146C876.076 41.4747 877.71 42.5144 879.129 43.9337C880.548 45.32 881.687 47.0858 882.545 49.2313C883.403 51.3767 883.833 53.9347 883.833 56.9054L883.833 57.8956C883.833 60.9982 883.403 63.6552 882.545 65.8667C881.687 68.0782 880.548 69.8935 879.129 71.3128C877.71 72.7321 876.076 73.7883 874.228 74.4815C872.379 75.1416 870.465 75.4717 868.484 75.4717ZM868.484 71.3128C869.838 71.3128 871.141 71.0653 872.396 70.5702C873.65 70.0751 874.756 69.2994 875.713 68.2432C876.67 67.154 877.429 65.7677 877.99 64.0843C878.584 62.368 878.882 60.3051 878.882 57.8956L878.882 56.9054C878.882 54.6279 878.584 52.6805 877.99 51.0632C877.429 49.4128 876.67 48.076 875.713 47.0528C874.756 45.9966 873.65 45.221 872.396 44.7259C871.141 44.2308 869.838 43.9832 868.484 43.9832C867.131 43.9832 865.827 44.2308 864.573 44.7259C863.319 45.221 862.213 45.9966 861.256 47.0528C860.299 48.076 859.523 49.4128 858.929 51.0632C858.368 52.6805 858.087 54.6279 858.087 56.9054L858.087 57.8956C858.087 60.3051 858.368 62.368 858.929 64.0843C859.523 65.7677 860.299 67.154 861.256 68.2432C862.213 69.2994 863.319 70.0751 864.573 70.5702C865.827 71.0653 867.131 71.3128 868.484 71.3128ZM902.658 75.4717C900.579 75.4717 898.763 75.2241 897.212 74.729C895.661 74.2339 894.357 73.5573 893.301 72.6991C892.244 71.8079 891.403 70.7847 890.776 69.6295C890.181 68.4412 889.769 67.1705 889.538 65.8172L894.192 65.8172C894.357 66.5763 894.637 67.3025 895.033 67.9956C895.43 68.6558 895.958 69.2334 896.618 69.7285C897.311 70.2236 898.153 70.6197 899.143 70.9167C900.133 71.1808 901.305 71.3128 902.658 71.3128C905.431 71.3128 907.527 70.7847 908.946 69.7285C910.398 68.6723 911.124 67.3685 911.124 65.8172C911.124 64.86 910.959 64.0513 910.629 63.3912C910.332 62.7311 909.804 62.1534 909.045 61.6583C908.319 61.1632 907.345 60.7176 906.124 60.3216C904.935 59.9255 903.467 59.5294 901.717 59.1333C899.77 58.7042 898.087 58.2421 896.667 57.747C895.281 57.2189 894.126 56.5753 893.202 55.8161C892.31 55.024 891.634 54.0833 891.172 52.9941C890.743 51.9048 890.528 50.5681 890.528 48.9837C890.528 47.6965 890.809 46.5082 891.37 45.419C891.931 44.2968 892.723 43.3231 893.746 42.4979C894.802 41.6727 896.073 41.0291 897.558 40.567C899.077 40.0719 900.777 39.8244 902.658 39.8244C904.506 39.8244 906.124 40.0719 907.51 40.567C908.896 41.0291 910.068 41.6727 911.025 42.4979C912.015 43.3231 912.791 44.2968 913.352 45.419C913.913 46.5082 914.309 47.6965 914.54 48.9837L909.886 48.9837C909.721 48.2906 909.474 47.647 909.144 47.0528C908.814 46.4257 908.352 45.8976 907.758 45.4685C907.196 45.0064 906.487 44.6433 905.629 44.3793C904.803 44.1152 903.813 43.9832 902.658 43.9832C900.282 43.9832 898.433 44.4783 897.113 45.4685C895.826 46.4257 895.182 47.5974 895.182 48.9837C895.182 49.8749 895.347 50.6506 895.677 51.3107C896.007 51.9378 896.519 52.499 897.212 52.9941C897.905 53.4562 898.78 53.8687 899.836 54.2318C900.925 54.5619 902.212 54.8919 903.698 55.222C905.843 55.6841 907.675 56.2122 909.193 56.8063C910.745 57.3675 911.999 58.0606 912.956 58.8858C913.946 59.7109 914.656 60.6846 915.085 61.8069C915.547 62.9291 915.778 64.2659 915.778 65.8172C915.778 67.1705 915.481 68.4412 914.887 69.6295C914.293 70.7847 913.435 71.8079 912.312 72.6991C911.19 73.5573 909.82 74.2339 908.203 74.729C906.586 75.2241 904.737 75.4717 902.658 75.4717Z" fill="#FFF9EF"/>
<path fill-rule="evenodd" clip-rule="evenodd" d="M1039.68 0.181641L1024.18 0.181641C1024.18 3.38906 1022.78 6.27297 1020.56 8.26782C1018.56 10.3206 1015.75 11.5972 1012.64 11.5972L1012.64 25.7661C1018.72 25.7661 1023.64 30.647 1023.64 36.6679L1023.64 37.6954C1023.64 43.7163 1018.72 48.5972 1012.64 48.5972L1012.64 62.7661C1018.72 62.7661 1023.64 67.647 1023.64 73.6679L1023.64 74.6954C1023.64 80.7163 1018.72 85.5972 1012.64 85.5972L1012.64 99.7661C1015.75 99.7661 1018.56 101.042 1020.56 103.095C1022.78 105.09 1024.18 107.974 1024.18 111.182L1039.68 111.182C1039.68 105.161 1044.6 100.28 1050.68 100.28L1051.75 100.28C1057.82 100.28 1062.75 105.161 1062.75 111.182L1078.25 111.182C1078.25 105.161 1083.17 100.28 1089.25 100.28L1090.32 100.28C1096.4 100.28 1101.32 105.161 1101.32 111.182L1116.82 111.182C1116.82 105.161 1121.75 100.28 1127.82 100.28L1128.89 100.28C1134.97 100.28 1139.89 105.161 1139.89 111.182L1155.39 111.182C1155.39 105.161 1160.32 100.28 1166.39 100.28L1167.46 100.28C1173.54 100.28 1178.46 105.161 1178.46 111.182L1193.96 111.182C1193.96 105.161 1198.89 100.28 1204.96 100.28L1206.04 100.28C1212.11 100.28 1217.04 105.161 1217.04 111.182L1232.54 111.182C1232.54 105.161 1237.46 100.28 1243.54 100.28L1244.61 100.28C1250.68 100.28 1255.61 105.161 1255.61 111.182L1271.11 111.182C1271.11 105.161 1276.03 100.28 1282.11 100.28L1283.18 100.28C1289.25 100.28 1294.18 105.161 1294.18 111.182L1309.68 111.182C1309.68 105.161 1314.6 100.28 1320.68 100.28L1321.75 100.28C1327.82 100.28 1332.75 105.161 1332.75 111.182L1348.25 111.182C1348.25 105.161 1353.17 100.28 1359.25 100.28L1360.32 100.28C1366.4 100.28 1371.32 105.161 1371.32 111.182L1386.82 111.182C1386.82 105.161 1391.75 100.28 1397.82 100.28L1398.89 100.28C1404.97 100.28 1409.89 105.161 1409.89 111.182L1425.39 111.182C1425.39 105.161 1430.32 100.28 1436.39 100.28L1437.46 100.28C1443.54 100.28 1448.46 105.161 1448.46 111.182L1463.96 111.182C1463.96 105.161 1468.89 100.28 1474.96 100.28L1476.04 100.28C1482.11 100.28 1487.04 105.161 1487.04 111.182L1502.54 111.182C1502.54 105.161 1507.46 100.28 1513.54 100.28L1514.61 100.28C1520.68 100.28 1525.61 105.161 1525.61 111.182L1541.11 111.182C1541.11 107.974 1542.5 105.09 1544.73 103.095C1546.73 101.043 1549.54 99.7661 1552.64 99.7661L1552.64 85.5972C1546.57 85.5972 1541.64 80.7163 1541.64 74.6954L1541.64 73.6679C1541.64 67.647 1546.57 62.7661 1552.64 62.7661L1552.64 48.5972C1546.57 48.5972 1541.64 43.7163 1541.64 37.6954L1541.64 36.6679C1541.64 30.647 1546.57 25.7661 1552.64 25.7661L1552.64 11.5972C1549.54 11.5972 1546.73 10.3208 1544.73 8.26825C1542.5 6.27337 1541.11 3.38933 1541.11 0.181652L1525.61 0.181651C1525.61 6.20254 1520.68 11.0834 1514.61 11.0834L1513.54 11.0834C1507.46 11.0834 1502.54 6.20254 1502.54 0.181651L1487.04 0.18165C1487.04 6.20254 1482.11 11.0834 1476.04 11.0834L1474.96 11.0834C1468.89 11.0834 1463.96 6.20254 1463.96 0.18165L1448.46 0.18165C1448.46 6.20254 1443.54 11.0834 1437.46 11.0834L1436.39 11.0834C1430.32 11.0834 1425.39 6.20254 1425.39 0.181649L1409.89 0.181649C1409.89 6.20254 1404.97 11.0834 1398.89 11.0834L1397.82 11.0834C1391.75 11.0834 1386.82 6.20254 1386.82 0.181648L1371.32 0.181648C1371.32 6.20254 1366.4 11.0834 1360.32 11.0834L1359.25 11.0834C1353.17 11.0834 1348.25 6.20254 1348.25 0.181648L1332.75 0.181647C1332.75 6.20254 1327.82 11.0834 1321.75 11.0834L1320.68 11.0834C1314.6 11.0834 1309.68 6.20254 1309.68 0.181647L1294.18 0.181646C1294.18 6.20254 1289.25 11.0834 1283.18 11.0834L1282.11 11.0834C1276.03 11.0834 1271.11 6.20254 1271.11 0.181646L1255.61 0.181646C1255.61 6.20254 1250.68 11.0834 1244.61 11.0834L1243.54 11.0834C1237.46 11.0834 1232.54 6.20253 1232.54 0.181645L1217.04 0.181645C1217.04 6.20253 1212.11 11.0834 1206.04 11.0834L1204.96 11.0834C1198.89 11.0834 1193.96 6.20253 1193.96 0.181644L1178.46 0.181644C1178.46 6.20253 1173.54 11.0834 1167.46 11.0834L1166.39 11.0834C1160.32 11.0834 1155.39 6.20253 1155.39 0.181644L1139.89 0.181643C1139.89 6.20253 1134.97 11.0834 1128.89 11.0834L1127.82 11.0834C1121.75 11.0834 1116.82 6.20253 1116.82 0.181643L1101.32 0.181642C1101.32 6.20253 1096.4 11.0834 1090.32 11.0834L1089.25 11.0834C1083.17 11.0834 1078.25 6.20253 1078.25 0.181642L1062.75 0.181642C1062.75 6.20253 1057.82 11.0834 1051.75 11.0834L1050.68 11.0834C1044.6 11.0834 1039.68 6.20253 1039.68 0.181641Z" fill="#F5CB33"/>
<path d="M1120.75 75.4717C1117.95 75.4717 1115.62 74.8445 1113.77 73.5903C1111.92 72.303 1110.7 70.3721 1110.11 67.7976L1114.76 67.7976C1115.69 70.1411 1117.68 71.3128 1120.75 71.3128C1121.94 71.3128 1123.05 71.0983 1124.07 70.6692C1125.09 70.2401 1125.98 69.5304 1126.74 68.5402C1127.5 67.55 1128.11 66.2298 1128.58 64.5794C1129.04 62.9291 1129.3 60.8662 1129.37 58.3907C1128.91 59.1828 1128.34 59.876 1127.68 60.4701C1127.02 61.0312 1126.3 61.4933 1125.51 61.8564C1124.75 62.1864 1123.95 62.434 1123.13 62.599C1122.3 62.7641 1121.51 62.8466 1120.75 62.8466C1117.29 62.8466 1114.51 61.8894 1112.44 59.975C1110.39 58.0276 1109.37 55.255 1109.37 51.6573L1109.37 51.1622C1109.37 49.5118 1109.66 47.9935 1110.26 46.6072C1110.88 45.221 1111.73 44.0327 1112.78 43.0425C1113.84 42.0193 1115.08 41.2271 1116.5 40.666C1117.91 40.1049 1119.42 39.8243 1121 39.8243C1124.9 39.8243 1127.96 41.0951 1130.21 43.6366C1132.49 46.1781 1133.63 50.1885 1133.63 55.6676L1133.63 56.6578C1133.63 60.0575 1133.28 62.9621 1132.59 65.3716C1131.89 67.7481 1130.95 69.6955 1129.76 71.2138C1128.61 72.6991 1127.26 73.7883 1125.7 74.4815C1124.15 75.1416 1122.5 75.4717 1120.75 75.4717ZM1121.4 58.6877C1123.81 58.6877 1125.64 58.0771 1126.89 56.8558C1128.15 55.6346 1128.77 53.8852 1128.77 51.6078L1128.77 51.1127C1128.77 48.8682 1128.13 47.1188 1126.84 45.8646C1125.59 44.6103 1123.77 43.9832 1121.4 43.9832C1118.99 43.9832 1117.16 44.5938 1115.9 45.8151C1114.65 47.0033 1114.02 48.7692 1114.02 51.1127L1114.02 51.6078C1114.02 53.8852 1114.65 55.6346 1115.9 56.8558C1117.16 58.0771 1118.99 58.6877 1121.4 58.6877ZM1139.34 70.9167L1147.61 70.9167L1147.61 45.419L1139.34 51.3107L1139.34 46.2607L1147.71 40.3194L1152.36 40.3194L1152.36 70.9167L1159.15 70.9167L1159.15 74.9766L1139.34 74.9766L1139.34 70.9167ZM1162.63 71.1643L1176.49 59.1333C1177.55 58.2421 1178.41 57.4335 1179.07 56.7073C1179.76 55.9812 1180.3 55.3045 1180.7 54.6774C1181.1 54.0173 1181.36 53.3736 1181.49 52.7465C1181.66 52.1194 1181.74 51.4427 1181.74 50.7166C1181.74 48.7692 1181.16 47.1684 1180.01 45.9141C1178.85 44.6268 1177.27 43.9832 1175.25 43.9832C1172.85 43.9832 1171 44.6433 1169.71 45.9636C1168.42 47.2509 1167.78 49.0827 1167.78 51.4592L1163.12 51.4592C1163.12 49.7759 1163.41 48.2246 1163.97 46.8053C1164.56 45.353 1165.39 44.1152 1166.44 43.092C1167.53 42.0688 1168.82 41.2766 1170.3 40.7155C1171.79 40.1214 1173.44 39.8243 1175.25 39.8243C1177 39.8243 1178.57 40.1049 1179.96 40.666C1181.34 41.1941 1182.52 41.9533 1183.47 42.9435C1184.43 43.9007 1185.16 45.0394 1185.65 46.3597C1186.15 47.68 1186.39 49.1323 1186.39 50.7166C1186.39 51.9048 1186.21 53.0106 1185.85 54.0338C1185.49 55.057 1184.98 56.0307 1184.32 56.9549C1183.69 57.8791 1182.91 58.7867 1181.99 59.6779C1181.1 60.5361 1180.11 61.4273 1179.02 62.3515L1168.67 70.9167L1186.89 70.9167L1186.89 74.9766L1162.63 74.9766L1162.63 71.1643ZM1203.73 59.0838L1235.91 59.0838L1235.91 63.1436L1203.73 63.1436L1203.73 59.0838ZM1260.24 52.598L1251.28 52.598L1251.28 48.7362L1273.56 48.7362L1273.56 52.598L1264.6 52.598L1264.6 74.9766L1260.24 74.9766L1260.24 52.598ZM1288.93 75.4717C1287.25 75.4717 1285.65 75.2076 1284.13 74.6795C1282.61 74.1514 1281.27 73.3427 1280.12 72.2535C1278.96 71.1313 1278.04 69.7285 1277.35 68.0451C1276.65 66.3618 1276.31 64.3814 1276.31 62.1039L1276.31 61.1137C1276.31 58.9353 1276.64 57.0539 1277.3 55.4696C1277.96 53.8522 1278.83 52.5155 1279.92 51.4592C1281.04 50.37 1282.33 49.5613 1283.78 49.0332C1285.27 48.5051 1286.82 48.2411 1288.44 48.2411C1292.3 48.2411 1295.28 49.2973 1297.4 51.4097C1299.51 53.5222 1300.57 56.5093 1300.57 60.3711L1300.57 63.1436L1280.66 63.1436C1280.66 64.695 1280.91 65.9987 1281.41 67.0549C1281.9 68.1112 1282.54 68.9693 1283.34 69.6295C1284.13 70.2896 1285 70.7682 1285.96 71.0653C1286.95 71.3623 1287.94 71.5109 1288.93 71.5109C1290.91 71.5109 1292.43 71.1808 1293.49 70.5207C1294.58 69.8605 1295.35 68.9528 1295.81 67.7976L1300.07 67.7976C1299.81 69.0518 1299.33 70.1576 1298.63 71.1148C1297.97 72.072 1297.15 72.8806 1296.16 73.5408C1295.2 74.1679 1294.1 74.6465 1292.84 74.9766C1291.62 75.3066 1290.32 75.4717 1288.93 75.4717ZM1288.68 52.2019C1287.66 52.2019 1286.67 52.3504 1285.71 52.6475C1284.76 52.9115 1283.9 53.3571 1283.14 53.9843C1282.41 54.5784 1281.82 55.3375 1281.36 56.2617C1280.89 57.1859 1280.66 58.2916 1280.66 59.5789L1296.46 59.5789C1296.42 58.2256 1296.19 57.0869 1295.76 56.1627C1295.37 55.2055 1294.82 54.4464 1294.13 53.8852C1293.44 53.2911 1292.61 52.862 1291.65 52.598C1290.73 52.3339 1289.74 52.2019 1288.68 52.2019ZM1305.04 75.4717C1304.54 75.4717 1304.05 75.4222 1303.55 75.3231L1303.55 70.9662C1303.72 70.9993 1303.96 71.0158 1304.29 71.0158C1305.02 71.0158 1305.65 70.7847 1306.18 70.3226C1306.74 69.8605 1307.18 69.0519 1307.51 67.8966C1307.84 66.7414 1308.09 65.1736 1308.26 63.1931C1308.42 61.2127 1308.5 58.7042 1308.5 55.6676L1308.5 48.7362L1327.32 48.7362L1327.32 74.9766L1322.96 74.9766L1322.96 52.598L1312.86 52.598L1312.86 56.6578C1312.86 60.3216 1312.69 63.3582 1312.36 65.7677C1312.03 68.1772 1311.54 70.1081 1310.88 71.5604C1310.25 72.9797 1309.44 73.9864 1308.45 74.5805C1307.46 75.1746 1306.32 75.4717 1305.04 75.4717ZM1338.7 75.4717C1337.74 75.4717 1336.92 75.1416 1336.23 74.4815C1335.57 73.7883 1335.24 72.9632 1335.24 72.006C1335.24 71.0158 1335.57 70.1906 1336.23 69.5304C1336.92 68.8703 1337.74 68.5402 1338.7 68.5402C1339.66 68.5402 1340.47 68.8703 1341.13 69.5304C1341.82 70.1906 1342.17 71.0158 1342.17 72.006C1342.17 72.9632 1341.82 73.7883 1341.13 74.4815C1340.47 75.1416 1339.66 75.4717 1338.7 75.4717ZM1374.34 75.4717C1372.26 75.4717 1370.44 75.2241 1368.89 74.729C1367.34 74.2339 1366.04 73.5573 1364.98 72.6991C1363.93 71.8079 1363.08 70.7847 1362.46 69.6295C1361.86 68.4412 1361.45 67.1705 1361.22 65.8172L1365.87 65.8172C1366.04 66.5763 1366.32 67.3025 1366.72 67.9956C1367.11 68.6558 1367.64 69.2334 1368.3 69.7285C1368.99 70.2236 1369.83 70.6197 1370.82 70.9167C1371.81 71.1808 1372.99 71.3128 1374.34 71.3128C1377.11 71.3128 1379.21 70.7847 1380.63 69.7285C1382.08 68.6723 1382.81 67.3685 1382.81 65.8172C1382.81 64.86 1382.64 64.0513 1382.31 63.3912C1382.01 62.7311 1381.49 62.1534 1380.73 61.6583C1380 61.1632 1379.03 60.7176 1377.81 60.3216C1376.62 59.9255 1375.15 59.5294 1373.4 59.1333C1371.45 58.7042 1369.77 58.2421 1368.35 57.747C1366.96 57.2189 1365.81 56.5753 1364.88 55.8161C1363.99 55.024 1363.32 54.0833 1362.85 52.9941C1362.42 51.9048 1362.21 50.5681 1362.21 48.9837C1362.21 47.6965 1362.49 46.5082 1363.05 45.419C1363.61 44.2968 1364.4 43.3231 1365.43 42.4979C1366.48 41.6727 1367.75 41.0291 1369.24 40.567C1370.76 40.0719 1372.46 39.8244 1374.34 39.8244C1376.19 39.8244 1377.81 40.0719 1379.19 40.567C1380.58 41.0291 1381.75 41.6727 1382.71 42.4979C1383.7 43.3231 1384.47 44.2968 1385.03 45.419C1385.6 46.5082 1385.99 47.6965 1386.22 48.9837L1381.57 48.9837C1381.4 48.2906 1381.16 47.647 1380.83 47.0528C1380.5 46.4257 1380.03 45.8976 1379.44 45.4685C1378.88 45.0064 1378.17 44.6433 1377.31 44.3793C1376.49 44.1152 1375.5 43.9832 1374.34 43.9832C1371.96 43.9832 1370.11 44.4783 1368.79 45.4685C1367.51 46.4257 1366.86 47.5974 1366.86 48.9837C1366.86 49.8749 1367.03 50.6506 1367.36 51.3107C1367.69 51.9378 1368.2 52.499 1368.89 52.9941C1369.59 53.4561 1370.46 53.8687 1371.52 54.2318C1372.61 54.5619 1373.89 54.8919 1375.38 55.222C1377.52 55.6841 1379.36 56.2122 1380.88 56.8063C1382.43 57.3675 1383.68 58.0606 1384.64 58.8858C1385.63 59.7109 1386.34 60.6846 1386.77 61.8069C1387.23 62.9291 1387.46 64.2659 1387.46 65.8172C1387.46 67.1705 1387.16 68.4412 1386.57 69.6295C1385.97 70.7847 1385.12 71.8079 1383.99 72.6991C1382.87 73.5573 1381.5 74.2339 1379.88 74.729C1378.27 75.2241 1376.42 75.4717 1374.34 75.4717ZM1408.48 75.4717C1406.5 75.4717 1404.59 75.1416 1402.74 74.4815C1400.89 73.7883 1399.26 72.7321 1397.84 71.3128C1396.42 69.8935 1395.28 68.0782 1394.42 65.8667C1393.57 63.6552 1393.14 60.9982 1393.14 57.8956L1393.14 56.9054C1393.14 53.9347 1393.57 51.3767 1394.42 49.2313C1395.28 47.0858 1396.42 45.32 1397.84 43.9337C1399.26 42.5144 1400.89 41.4747 1402.74 40.8146C1404.59 40.1544 1406.5 39.8244 1408.48 39.8244C1410.46 39.8244 1412.38 40.1544 1414.23 40.8146C1416.08 41.4747 1417.71 42.5144 1419.13 43.9337C1420.55 45.32 1421.69 47.0858 1422.55 49.2313C1423.4 51.3767 1423.83 53.9347 1423.83 56.9054L1423.83 57.8956C1423.83 60.9982 1423.4 63.6552 1422.55 65.8667C1421.69 68.0782 1420.55 69.8935 1419.13 71.3128C1417.71 72.7321 1416.08 73.7883 1414.23 74.4815C1412.38 75.1416 1410.46 75.4717 1408.48 75.4717ZM1408.48 71.3128C1409.84 71.3128 1411.14 71.0653 1412.4 70.5702C1413.65 70.0751 1414.76 69.2994 1415.71 68.2432C1416.67 67.154 1417.43 65.7677 1417.99 64.0843C1418.58 62.368 1418.88 60.3051 1418.88 57.8956L1418.88 56.9054C1418.88 54.6279 1418.58 52.6805 1417.99 51.0632C1417.43 49.4128 1416.67 48.076 1415.71 47.0528C1414.76 45.9966 1413.65 45.221 1412.4 44.7259C1411.14 44.2308 1409.84 43.9832 1408.48 43.9832C1407.13 43.9832 1405.83 44.2308 1404.57 44.7259C1403.32 45.221 1402.21 45.9966 1401.26 47.0528C1400.3 48.076 1399.52 49.4128 1398.93 51.0632C1398.37 52.6805 1398.09 54.6279 1398.09 56.9054L1398.09 57.8956C1398.09 60.3051 1398.37 62.368 1398.93 64.0843C1399.52 65.7677 1400.3 67.154 1401.26 68.2432C1402.21 69.2994 1403.32 70.0751 1404.57 70.5702C1405.83 71.0653 1407.13 71.3128 1408.48 71.3128ZM1442.66 75.4717C1440.58 75.4717 1438.76 75.2241 1437.21 74.729C1435.66 74.2339 1434.36 73.5573 1433.3 72.6991C1432.24 71.8079 1431.4 70.7847 1430.78 69.6295C1430.18 68.4412 1429.77 67.1705 1429.54 65.8172L1434.19 65.8172C1434.36 66.5763 1434.64 67.3025 1435.03 67.9956C1435.43 68.6558 1435.96 69.2334 1436.62 69.7285C1437.31 70.2236 1438.15 70.6197 1439.14 70.9167C1440.13 71.1808 1441.3 71.3128 1442.66 71.3128C1445.43 71.3128 1447.53 70.7847 1448.95 69.7285C1450.4 68.6723 1451.12 67.3685 1451.12 65.8172C1451.12 64.86 1450.96 64.0513 1450.63 63.3912C1450.33 62.7311 1449.8 62.1534 1449.04 61.6583C1448.32 61.1632 1447.34 60.7176 1446.12 60.3216C1444.94 59.9255 1443.47 59.5294 1441.72 59.1333C1439.77 58.7042 1438.09 58.2421 1436.67 57.747C1435.28 57.2189 1434.13 56.5753 1433.2 55.8161C1432.31 55.024 1431.63 54.0833 1431.17 52.9941C1430.74 51.9048 1430.53 50.5681 1430.53 48.9837C1430.53 47.6965 1430.81 46.5082 1431.37 45.419C1431.93 44.2968 1432.72 43.3231 1433.75 42.4979C1434.8 41.6727 1436.07 41.0291 1437.56 40.567C1439.08 40.0719 1440.78 39.8244 1442.66 39.8244C1444.51 39.8244 1446.12 40.0719 1447.51 40.567C1448.9 41.0291 1450.07 41.6727 1451.03 42.4979C1452.02 43.3231 1452.79 44.2968 1453.35 45.419C1453.91 46.5082 1454.31 47.6965 1454.54 48.9837L1449.89 48.9837C1449.72 48.2906 1449.47 47.647 1449.14 47.0528C1448.81 46.4257 1448.35 45.8976 1447.76 45.4685C1447.2 45.0064 1446.49 44.6433 1445.63 44.3793C1444.8 44.1152 1443.81 43.9832 1442.66 43.9832C1440.28 43.9832 1438.43 44.4783 1437.11 45.4685C1435.83 46.4257 1435.18 47.5974 1435.18 48.9837C1435.18 49.8749 1435.35 50.6506 1435.68 51.3107C1436.01 51.9378 1436.52 52.499 1437.21 52.9941C1437.91 53.4562 1438.78 53.8687 1439.84 54.2318C1440.93 54.5619 1442.21 54.8919 1443.7 55.222C1445.84 55.6841 1447.68 56.2122 1449.19 56.8063C1450.74 57.3675 1452 58.0606 1452.96 58.8858C1453.95 59.7109 1454.66 60.6846 1455.09 61.8069C1455.55 62.9291 1455.78 64.2659 1455.78 65.8172C1455.78 67.1705 1455.48 68.4412 1454.89 69.6295C1454.29 70.7847 1453.43 71.8079 1452.31 72.6991C1451.19 73.5573 1449.82 74.2339 1448.2 74.729C1446.59 75.2241 1444.74 75.4717 1442.66 75.4717Z" fill="#FFF9EF"/>
</svg>
