<svg width="1920" height="1636" viewBox="0 0 1920 1636" fill="none" xmlns="http://www.w3.org/2000/svg">
<mask id="mask0_179_20425" style="mask-type:alpha" maskUnits="userSpaceOnUse" x="0" y="0" width="1920" height="1636">
<rect width="1636" height="1920" rx="46.5482" transform="matrix(0 1 1 0 0 0)" fill="#FFF9EF"/>
</mask>
<g mask="url(#mask0_179_20425)">
<path fill-rule="evenodd" clip-rule="evenodd" d="M1511.49 1025V1052.95H1504L1504 1606C1504 1622.57 1490.57 1636 1474 1636L440 1636C423.432 1636 410 1622.57 410 1606L410 1052.95H401L401 1605C401 1621.57 387.569 1635 371 1635H29C12.4315 1635 -0.999989 1621.57 -0.999989 1605L-1 854.999C-1 838.43 12.4315 824.999 29 824.999H139.101V815.999H29.0293C12.4608 815.999 -0.970663 802.568 -0.970664 785.999L-0.970672 29.999C-0.970672 13.4305 12.4608 -0.000971655 29.0294 -0.000971862L375.235 -0.000976562L375.27 -0.000956586L1541.79 -0.000971879L1779.93 -0.000976562L1890 -0.000976562C1906.57 -0.000976562 1920 13.4305 1920 29.999L1920 787.999C1920 804.568 1906.57 817.999 1890 817.999L1779.93 817.999V827.999L1890 827.999C1906.57 827.999 1920 841.43 1920 857.999L1920 1606C1920 1622.57 1906.57 1636 1890 1636H1544C1527.43 1636 1514 1622.57 1514 1606L1514 1025H1511.49Z" fill="#87AAFF"/>
<rect width="497.251" height="501" transform="matrix(-1 8.23796e-09 1.72619e-08 1 577.321 992.999)" fill="#87AAFF"/>
<rect width="528.74" height="496" transform="matrix(-1 8.23796e-09 1.72619e-08 1 1836.91 1001)" fill="#87AAFF"/>
</g>
</svg>
