<svg width="73" height="30" viewBox="0 0 73 30" fill="none" xmlns="http://www.w3.org/2000/svg">
<path fill-rule="evenodd" clip-rule="evenodd" d="M2.99076 20.2594L0 24.4925L0.180417 24.7231C0.675234 25.3553 1.3145 25.9516 2.09137 26.5142C2.86916 27.0774 3.73781 27.5714 4.69578 27.9972L4.69759 27.998L4.69941 27.9988C5.68714 28.4259 6.76435 28.758 7.92962 28.9966C9.10201 29.2628 10.3252 29.3952 11.5984 29.3952C13.1898 29.3952 14.6572 29.1964 15.9979 28.7943C17.3622 28.3929 18.5382 27.814 19.5182 27.0518L19.5209 27.0497L19.5235 27.0476C20.5003 26.2607 21.2638 25.3214 21.8095 24.2313C22.3866 23.1306 22.6713 21.8986 22.6713 20.544C22.6713 19.145 22.3895 17.9629 21.795 17.0256C21.2451 16.0929 20.5153 15.3355 19.6084 14.7576C18.7161 14.1633 17.7068 13.7067 16.5839 13.3854C15.5111 13.0454 14.4253 12.7446 13.3265 12.4829L13.3237 12.4822L13.3208 12.4816C12.3892 12.2746 11.4836 12.0676 10.604 11.8607C9.76652 11.632 9.00922 11.3665 8.33091 11.0652C7.70099 10.7741 7.20567 10.4176 6.83345 10.0016C6.5114 9.58943 6.34046 9.07142 6.34046 8.42253C6.34046 7.39791 6.79653 6.55035 7.77042 5.86087C8.7717 5.17028 10.2018 4.80157 12.1051 4.80157C13.1438 4.80157 14.0116 4.91582 14.7167 5.13466L14.7243 5.13702L14.732 5.13906C15.4791 5.33829 16.1002 5.60859 16.6029 5.94372L16.6117 5.94965L16.6209 5.95508C17.1678 6.27822 17.6038 6.61961 17.9366 6.97612C18.2878 7.35244 18.5711 7.7107 18.7897 8.0507L19.0625 8.47508L22.5932 4.71215L22.4006 4.44867C21.3666 3.03368 19.9432 1.94026 18.1467 1.16268C16.3502 0.385052 14.3472 0 12.1441 0C10.603 0 9.17356 0.199296 7.85847 0.601874C6.54633 1.00355 5.39885 1.58206 4.42185 2.34137C3.4392 3.079 2.67276 3.99618 2.1261 5.08951C1.57602 6.18967 1.30504 7.42032 1.30504 8.77331C1.30504 10.3107 1.64238 11.6039 2.34973 12.6225L2.35122 12.6247L2.35274 12.6268C3.03716 13.585 3.91268 14.3637 4.97406 14.9624L4.97743 14.9643L4.98084 14.9662C6.02495 15.5284 7.1726 15.9682 8.42197 16.2872L8.42292 16.2874L8.42388 16.2877C9.67413 16.6002 10.8857 16.8868 12.0585 17.1475C12.8562 17.3276 13.6009 17.5203 14.2929 17.7253L14.2947 17.7258L14.2965 17.7264C14.9944 17.9258 15.5805 18.1841 16.061 18.4964L16.0705 18.5026L16.0802 18.5081C16.5792 18.7933 16.9602 19.1429 17.2342 19.554L17.2372 19.5584L17.2402 19.5627C17.4963 19.9255 17.6359 20.3877 17.6359 20.9727C17.6359 21.4516 17.5229 21.9072 17.2935 22.3445C17.0675 22.7497 16.7229 23.1218 16.2447 23.4566L16.2408 23.4593L16.2369 23.4621C15.7902 23.7913 15.1993 24.0725 14.4518 24.2972C13.7422 24.4924 12.8841 24.5937 11.8712 24.5937C10.7312 24.5937 9.71571 24.467 8.82114 24.2187C7.93876 23.9665 7.15049 23.6404 6.45398 23.2424C5.74799 22.839 5.13494 22.4134 4.61261 21.9666C4.1025 21.4817 3.67209 21.0381 3.31991 20.6356L2.99076 20.2594ZM25.5741 15.3043L25.5733 15.3066L25.5725 15.3089C25.1416 16.5476 24.9271 17.8517 24.9271 19.2188C24.9271 20.6916 25.1682 22.0649 25.6547 23.3351L25.6552 23.3364L25.6557 23.3377C26.142 24.5805 26.8336 25.6536 27.7316 26.5517L27.7337 26.5538L27.7358 26.5558C28.6597 27.4525 29.77 28.155 31.0611 28.6661L31.0644 28.6674L31.0677 28.6686C32.3667 29.1557 33.8308 29.3952 35.4543 29.3952C36.6999 29.3952 37.8015 29.2631 38.7534 28.9918C39.682 28.7527 40.4893 28.4578 41.1704 28.1036L41.1729 28.1023L41.1754 28.101C41.8664 27.7289 42.4481 27.3514 42.915 26.9669L42.9158 26.9662L42.9167 26.9655C43.3859 26.5745 43.7541 26.259 44.0194 26.0203L44.2686 25.796L41.82 22.003L41.4758 22.3854C41.2578 22.6277 40.9609 22.9131 40.5811 23.2426C40.2175 23.5327 39.7889 23.8025 39.2928 24.0506C38.7987 24.2976 38.238 24.51 37.6088 24.6862L37.6067 24.6868L37.6047 24.6874C37.0209 24.8577 36.3828 24.9445 35.6881 24.9445C34.0245 24.9445 32.6924 24.4873 31.6593 23.5992C30.7497 22.7972 30.1553 21.7603 29.8829 20.4698H44.0203L44.0679 20.131C44.2814 18.6096 44.2426 17.1723 43.9458 15.8224C43.6493 14.4481 43.1083 13.2392 42.3185 12.2028C41.5507 11.135 40.538 10.3027 39.2893 9.70523C38.0553 9.10227 36.6039 8.80851 34.9476 8.80851C33.3675 8.80851 31.9461 9.08988 30.6917 9.66254C29.4492 10.2298 28.3906 11.0023 27.5209 11.9807L27.5204 11.9812C26.6798 12.9304 26.0316 14.0396 25.5741 15.3043ZM38.9865 15.6233L38.9875 15.6259L38.9886 15.6285C39.0654 15.8129 39.1303 16.0088 39.183 16.2164L39.1847 16.2163C39.3815 17.0427 39.3815 17.751 39.3815 17.751L38.2402 18.2626C38.2402 18.2626 37.4063 17.0876 34.6597 17.0439C31.8901 17.0802 30.9748 18.249 30.9748 18.249L29.858 17.7374C29.858 17.7374 29.8813 17.4387 29.982 16.9776C30.0394 16.68 30.1152 16.4041 30.2084 16.1492L30.2122 16.138L30.2126 16.138C30.2846 15.9427 30.367 15.7599 30.4593 15.589C30.8022 14.9774 31.2004 14.4853 31.6506 14.1053C32.1353 13.7182 32.6528 13.4302 33.2037 13.2383C33.7942 13.0417 34.3356 12.9475 34.8307 12.9475C35.4598 12.9475 36.0475 13.0562 36.5971 13.2712L36.6041 13.274L36.6112 13.2764C37.1535 13.4651 37.622 13.7582 38.0212 14.1574L38.0255 14.1616L38.0298 14.1657C38.4238 14.5366 38.7447 15.0188 38.9865 15.6233ZM47.4066 0.46771V28.9275H52.2861V0.46771H47.4066ZM72.8238 3.19219C72.164 2.09246 71.2892 1.28234 70.1996 0.778519C69.1192 0.252997 67.8104 0 66.2892 0C64.9247 0 63.7153 0.213811 62.6701 0.653418C61.6577 1.06427 60.802 1.65634 60.1104 2.431L60.1098 2.43165C59.4478 3.17641 58.9423 4.06785 58.5895 5.09914L58.5884 5.10212L58.5875 5.10511C58.2617 6.10963 58.1006 7.19036 58.1006 8.34458V9.27622H54.242V13.5711H58.1006V28.9275H62.9801V13.5711H71.204V9.27622H67.3083C66.5178 9.29589 65.0886 9.39228 63.8592 9.8021C62.5999 10.2219 61.2042 11.2898 61.1045 11.3762L60.3961 10.4317C60.3961 10.4317 61.6854 9.46986 62.0489 9.05438C62.3244 8.73956 62.6763 8.31053 62.836 7.79508C62.9327 7.48272 62.9658 7.17445 62.981 6.7489C62.9968 6.12338 63.2088 5.59302 63.6189 5.13977L63.622 5.1364L63.6249 5.13296C64.0082 4.68922 64.7234 4.41181 65.8995 4.41181C66.5993 4.41181 67.221 4.60837 67.7767 5.002L67.7813 5.00521L67.7859 5.0083C68.3746 5.40078 68.7252 5.79096 68.8918 6.16587L69.0999 6.63409L73 3.48581L72.8238 3.19219Z" fill="#FFF9EF"/>
</svg>
