<svg width="1309" height="462" viewBox="0 0 1309 462" fill="none" xmlns="http://www.w3.org/2000/svg">
<path fill-rule="evenodd" clip-rule="evenodd" d="M386.521 169.942L363.568 73.5349L340.616 66.1896L280.021 1L189.129 44.1537L206.573 126.788L128.534 90.98L89.0559 135.052L133.125 207.587H63.349L57.0399 222.61C53.5997 220.827 49.693 219.82 45.5511 219.82C31.7395 219.82 20.543 231.017 20.543 244.828C20.543 255.909 27.7487 265.306 37.7298 268.589L24.7887 299.403L78.9567 347.148L0 371.938V435.291L78.9567 457.327L197.392 441.719L210.245 461H270.84L284.612 441.719L309.4 430.701V371.938L284.612 363.675L270.84 342.557H210.245L197.392 363.675L232.28 274.613L284.612 219.523L363.568 181.878L386.521 169.942Z" fill="#FB6217"/>
<path fill-rule="evenodd" clip-rule="evenodd" d="M539.142 1C524.847 1 513.21 12.3822 512.8 26.5781H425.98V135.866H481.787V235.078H425.98V349.791H481.787V444.352L494.188 461.404H688.736L699.588 444.352V349.791H709.664C720.205 269.182 694.42 244.379 680.21 242.053H656.958V235.078H787.948L805 221.126V149.043L787.948 135.866H656.958V128.115H680.21C716.175 129.975 714.831 61.1989 709.664 26.5781H681.754C681.344 12.3822 669.707 1 655.412 1C641.117 1 629.48 12.3822 629.07 26.5781H565.484C565.074 12.3822 553.437 1 539.142 1Z" fill="#F6D81F"/>
<path d="M968.809 297.991C915.058 295.857 898.777 331.237 897.355 349.194L846.164 335.327C846.591 390.798 880.469 406.088 897.355 406.799L884.024 458.002C939.481 458.002 954.411 423.867 954.945 406.799L1006.14 420.666C1009.97 370.743 973.608 352.217 954.945 349.194L968.809 297.991Z" fill="#F6D81F"/>
<path fill-rule="evenodd" clip-rule="evenodd" d="M877.629 158.944C877.629 140.761 863.852 125.796 846.168 123.918C850.592 98.1522 860.514 71.3863 878.418 45.1408L938.931 75.8492L926.286 86.6874L991.316 63.2046V23.4644L1006.67 12.6261L1040.09 12.6261L1054.54 45.1408V0.884705H1098.79V45.1408L1116.86 12.6261H1152.99L1164.73 23.4644V63.2046L1224.34 86.6874L1213.5 75.8492L1281.24 45.1408C1291.14 61.3823 1302.78 89.3687 1308.16 123.781C1289.68 124.868 1275.04 140.195 1275.04 158.944C1275.04 177.976 1290.13 193.483 1309 194.146C1305.38 220.704 1296.88 248.613 1281.24 276.357L1213.5 242.036L1224.34 231.197L1164.73 256.486V293.517L1152.99 302.549H1116.86L1098.79 276.357V317H1054.54V276.357L1040.09 309.775L1006.67 309.775L991.316 302.549V256.486L926.286 222.165L938.931 242.036L878.418 276.357C866.538 259.212 852.527 229.693 846.418 193.942C863.982 191.95 877.629 177.041 877.629 158.944Z" fill="#B6CAFA"/>
</svg>
