<svg width="1282" height="256" viewBox="0 0 1282 256" fill="none" xmlns="http://www.w3.org/2000/svg">
<mask id="path-1-inside-1_743_20743" fill="white">
<path fill-rule="evenodd" clip-rule="evenodd" d="M36 0C36 4.41828 32.4183 8 28 8C23.5817 8 20 4.41828 20 0H8C8 4.41828 4.41828 8 0 8V20C4.41828 20 8 23.5817 8 28C8 32.4183 4.41828 36 0 36V48C4.41828 48 8 51.5817 8 56C8 60.4183 4.41828 64 0 64V76C4.41828 76 8 79.5817 8 84C8 88.4183 4.41828 92 0 92V104C4.41828 104 8 107.582 8 112H20C20 107.582 23.5817 104 28 104C32.4183 104 36 107.582 36 112H48C48 107.582 51.5817 104 56 104C60.4183 104 64 107.582 64 112H76C76 107.582 79.5817 104 84 104C88.4183 104 92 107.582 92 112H104C104 107.582 107.582 104 112 104C116.418 104 120 107.582 120 112H132C132 107.582 135.582 104 140 104C144.418 104 148 107.582 148 112H160C160 107.582 163.582 104 168 104C172.418 104 176 107.582 176 112H188C188 107.582 191.582 104 196 104C200.418 104 204 107.582 204 112H216C216 107.582 219.582 104 224 104C228.418 104 232 107.582 232 112H244C244 107.582 247.582 104 252 104C256.418 104 260 107.582 260 112H272C272 107.582 275.582 104 280 104C284.418 104 288 107.582 288 112H300C300 107.582 303.582 104 308 104C312.418 104 316 107.582 316 112H328C328 107.582 331.582 104 336 104C340.418 104 344 107.582 344 112H356C356 107.582 359.582 104 364 104C368.418 104 372 107.582 372 112H384C384 107.582 387.582 104 392 104C396.418 104 400 107.582 400 112H412C412 107.582 415.582 104 420 104V92C415.582 92 412 88.4183 412 84C412 79.5817 415.582 76 420 76V64C415.582 64 412 60.4183 412 56C412 51.5817 415.582 48 420 48V36C415.582 36 412 32.4183 412 28C412 23.5817 415.582 20 420 20V8C415.582 8 412 4.41828 412 0H400C400 4.41828 396.418 8 392 8C387.582 8 384 4.41828 384 0H372C372 4.41828 368.418 8 364 8C359.582 8 356 4.41828 356 0H344C344 4.41828 340.418 8 336 8C331.582 8 328 4.41828 328 0H316C316 4.41828 312.418 8 308 8C303.582 8 300 4.41828 300 0H288C288 4.41828 284.418 8 280 8C275.582 8 272 4.41828 272 0H260C260 4.41828 256.418 8 252 8C247.582 8 244 4.41828 244 0H232C232 4.41828 228.418 8 224 8C219.582 8 216 4.41828 216 0H204C204 4.41828 200.418 8 196 8C191.582 8 188 4.41828 188 0H176C176 4.41828 172.418 8 168 8C163.582 8 160 4.41828 160 0H148C148 4.41828 144.418 8 140 8C135.582 8 132 4.41828 132 0H120C120 4.41828 116.418 8 112 8C107.582 8 104 4.41828 104 0H92C92 4.41828 88.4183 8 84 8C79.5817 8 76 4.41828 76 0H64C64 4.41828 60.4183 8 56 8C51.5817 8 48 4.41828 48 0H36Z"/>
</mask>
<path fill-rule="evenodd" clip-rule="evenodd" d="M36 0C36 4.41828 32.4183 8 28 8C23.5817 8 20 4.41828 20 0H8C8 4.41828 4.41828 8 0 8V20C4.41828 20 8 23.5817 8 28C8 32.4183 4.41828 36 0 36V48C4.41828 48 8 51.5817 8 56C8 60.4183 4.41828 64 0 64V76C4.41828 76 8 79.5817 8 84C8 88.4183 4.41828 92 0 92V104C4.41828 104 8 107.582 8 112H20C20 107.582 23.5817 104 28 104C32.4183 104 36 107.582 36 112H48C48 107.582 51.5817 104 56 104C60.4183 104 64 107.582 64 112H76C76 107.582 79.5817 104 84 104C88.4183 104 92 107.582 92 112H104C104 107.582 107.582 104 112 104C116.418 104 120 107.582 120 112H132C132 107.582 135.582 104 140 104C144.418 104 148 107.582 148 112H160C160 107.582 163.582 104 168 104C172.418 104 176 107.582 176 112H188C188 107.582 191.582 104 196 104C200.418 104 204 107.582 204 112H216C216 107.582 219.582 104 224 104C228.418 104 232 107.582 232 112H244C244 107.582 247.582 104 252 104C256.418 104 260 107.582 260 112H272C272 107.582 275.582 104 280 104C284.418 104 288 107.582 288 112H300C300 107.582 303.582 104 308 104C312.418 104 316 107.582 316 112H328C328 107.582 331.582 104 336 104C340.418 104 344 107.582 344 112H356C356 107.582 359.582 104 364 104C368.418 104 372 107.582 372 112H384C384 107.582 387.582 104 392 104C396.418 104 400 107.582 400 112H412C412 107.582 415.582 104 420 104V92C415.582 92 412 88.4183 412 84C412 79.5817 415.582 76 420 76V64C415.582 64 412 60.4183 412 56C412 51.5817 415.582 48 420 48V36C415.582 36 412 32.4183 412 28C412 23.5817 415.582 20 420 20V8C415.582 8 412 4.41828 412 0H400C400 4.41828 396.418 8 392 8C387.582 8 384 4.41828 384 0H372C372 4.41828 368.418 8 364 8C359.582 8 356 4.41828 356 0H344C344 4.41828 340.418 8 336 8C331.582 8 328 4.41828 328 0H316C316 4.41828 312.418 8 308 8C303.582 8 300 4.41828 300 0H288C288 4.41828 284.418 8 280 8C275.582 8 272 4.41828 272 0H260C260 4.41828 256.418 8 252 8C247.582 8 244 4.41828 244 0H232C232 4.41828 228.418 8 224 8C219.582 8 216 4.41828 216 0H204C204 4.41828 200.418 8 196 8C191.582 8 188 4.41828 188 0H176C176 4.41828 172.418 8 168 8C163.582 8 160 4.41828 160 0H148C148 4.41828 144.418 8 140 8C135.582 8 132 4.41828 132 0H120C120 4.41828 116.418 8 112 8C107.582 8 104 4.41828 104 0H92C92 4.41828 88.4183 8 84 8C79.5817 8 76 4.41828 76 0H64C64 4.41828 60.4183 8 56 8C51.5817 8 48 4.41828 48 0H36Z" fill="#FFF9EF"/>
<path d="M36 0V-3H33V0H36ZM20 0H23V-3H20V0ZM8 0V-3H5V0H8ZM0 8V5H-3V8H0ZM0 20H-3V23H0V20ZM0 36V33H-3V36H0ZM0 48H-3V51H0V48ZM0 64V61H-3V64H0ZM0 76H-3V79H0V76ZM0 92V89H-3V92H0ZM0 104H-3V107H0V104ZM8 112H5V115H8V112ZM20 112V115H23V112H20ZM36 112H33V115H36V112ZM48 112V115H51V112H48ZM64 112H61V115H64V112ZM76 112V115H79V112H76ZM92 112H89V115H92V112ZM104 112V115H107V112H104ZM120 112H117V115H120V112ZM132 112V115H135V112H132ZM148 112H145V115H148V112ZM160 112V115H163V112H160ZM176 112H173V115H176V112ZM188 112V115H191V112H188ZM204 112H201V115H204V112ZM216 112V115H219V112H216ZM232 112H229V115H232V112ZM244 112V115H247V112H244ZM260 112H257V115H260V112ZM272 112V115H275V112H272ZM288 112H285V115H288V112ZM300 112V115H303V112H300ZM316 112H313V115H316V112ZM328 112V115H331V112H328ZM344 112H341V115H344V112ZM356 112V115H359V112H356ZM372 112H369V115H372V112ZM384 112V115H387V112H384ZM400 112H397V115H400V112ZM412 112V115H415V112H412ZM420 104V107H423V104H420ZM420 92H423V89H420V92ZM420 76V79H423V76H420ZM420 64H423V61H420V64ZM420 48V51H423V48H420ZM420 36H423V33H420V36ZM420 20V23H423V20H420ZM420 8H423V5H420V8ZM412 0H415V-3H412V0ZM400 0V-3H397V0H400ZM384 0H387V-3H384V0ZM372 0V-3H369V0H372ZM356 0H359V-3H356V0ZM344 0V-3H341V0H344ZM328 0H331V-3H328V0ZM316 0V-3H313V0H316ZM300 0H303V-3H300V0ZM288 0V-3H285V0H288ZM272 0H275V-3H272V0ZM260 0V-3H257V0H260ZM244 0H247V-3H244V0ZM232 0V-3H229V0H232ZM216 0H219V-3H216V0ZM204 0V-3H201V0H204ZM188 0H191V-3H188V0ZM176 0V-3H173V0H176ZM160 0H163V-3H160V0ZM148 0V-3H145V0H148ZM132 0H135V-3H132V0ZM120 0V-3H117V0H120ZM104 0H107V-3H104V0ZM92 0V-3H89V0H92ZM76 0H79V-3H76V0ZM64 0V-3H61V0H64ZM48 0H51V-3H48V0ZM28 11C34.0751 11 39 6.07513 39 0H33C33 2.76142 30.7614 5 28 5V11ZM17 0C17 6.07513 21.9249 11 28 11V5C25.2386 5 23 2.76142 23 0H17ZM8 3H20V-3H8V3ZM0 11C6.07513 11 11 6.07513 11 0H5C5 2.76142 2.76142 5 0 5V11ZM3 20V8H-3V20H3ZM11 28C11 21.9249 6.07513 17 0 17V23C2.76142 23 5 25.2386 5 28H11ZM0 39C6.07513 39 11 34.0751 11 28H5C5 30.7614 2.76142 33 0 33V39ZM3 48V36H-3V48H3ZM11 56C11 49.9249 6.07513 45 0 45V51C2.76142 51 5 53.2386 5 56H11ZM0 67C6.07513 67 11 62.0751 11 56H5C5 58.7614 2.76142 61 0 61V67ZM3 76V64H-3V76H3ZM11 84C11 77.9249 6.07513 73 0 73V79C2.76142 79 5 81.2386 5 84H11ZM0 95C6.07513 95 11 90.0751 11 84H5C5 86.7614 2.76142 89 0 89V95ZM3 104V92H-3V104H3ZM11 112C11 105.925 6.07513 101 0 101V107C2.76142 107 5 109.239 5 112H11ZM20 109H8V115H20V109ZM23 112C23 109.239 25.2386 107 28 107V101C21.9249 101 17 105.925 17 112H23ZM28 107C30.7614 107 33 109.239 33 112H39C39 105.925 34.0751 101 28 101V107ZM48 109H36V115H48V109ZM56 101C49.9249 101 45 105.925 45 112H51C51 109.239 53.2386 107 56 107V101ZM67 112C67 105.925 62.0751 101 56 101V107C58.7614 107 61 109.239 61 112H67ZM76 109H64V115H76V109ZM84 101C77.9249 101 73 105.925 73 112H79C79 109.239 81.2386 107 84 107V101ZM95 112C95 105.925 90.0751 101 84 101V107C86.7614 107 89 109.239 89 112H95ZM104 109H92V115H104V109ZM112 101C105.925 101 101 105.925 101 112H107C107 109.239 109.239 107 112 107V101ZM123 112C123 105.925 118.075 101 112 101V107C114.761 107 117 109.239 117 112H123ZM132 109H120V115H132V109ZM140 101C133.925 101 129 105.925 129 112H135C135 109.239 137.239 107 140 107V101ZM151 112C151 105.925 146.075 101 140 101V107C142.761 107 145 109.239 145 112H151ZM160 109H148V115H160V109ZM168 101C161.925 101 157 105.925 157 112H163C163 109.239 165.239 107 168 107V101ZM179 112C179 105.925 174.075 101 168 101V107C170.761 107 173 109.239 173 112H179ZM188 109H176V115H188V109ZM196 101C189.925 101 185 105.925 185 112H191C191 109.239 193.239 107 196 107V101ZM207 112C207 105.925 202.075 101 196 101V107C198.761 107 201 109.239 201 112H207ZM216 109H204V115H216V109ZM224 101C217.925 101 213 105.925 213 112H219C219 109.239 221.239 107 224 107V101ZM235 112C235 105.925 230.075 101 224 101V107C226.761 107 229 109.239 229 112H235ZM244 109H232V115H244V109ZM252 101C245.925 101 241 105.925 241 112H247C247 109.239 249.239 107 252 107V101ZM263 112C263 105.925 258.075 101 252 101V107C254.761 107 257 109.239 257 112H263ZM272 109H260V115H272V109ZM280 101C273.925 101 269 105.925 269 112H275C275 109.239 277.239 107 280 107V101ZM291 112C291 105.925 286.075 101 280 101V107C282.761 107 285 109.239 285 112H291ZM300 109H288V115H300V109ZM308 101C301.925 101 297 105.925 297 112H303C303 109.239 305.239 107 308 107V101ZM319 112C319 105.925 314.075 101 308 101V107C310.761 107 313 109.239 313 112H319ZM328 109H316V115H328V109ZM336 101C329.925 101 325 105.925 325 112H331C331 109.239 333.239 107 336 107V101ZM347 112C347 105.925 342.075 101 336 101V107C338.761 107 341 109.239 341 112H347ZM356 109H344V115H356V109ZM364 101C357.925 101 353 105.925 353 112H359C359 109.239 361.239 107 364 107V101ZM375 112C375 105.925 370.075 101 364 101V107C366.761 107 369 109.239 369 112H375ZM384 109H372V115H384V109ZM392 101C385.925 101 381 105.925 381 112H387C387 109.239 389.239 107 392 107V101ZM403 112C403 105.925 398.075 101 392 101V107C394.761 107 397 109.239 397 112H403ZM412 109H400V115H412V109ZM420 101C413.925 101 409 105.925 409 112H415C415 109.239 417.239 107 420 107V101ZM417 92V104H423V92H417ZM409 84C409 90.0751 413.925 95 420 95V89C417.239 89 415 86.7614 415 84H409ZM420 73C413.925 73 409 77.9249 409 84H415C415 81.2386 417.239 79 420 79V73ZM417 64V76H423V64H417ZM409 56C409 62.0751 413.925 67 420 67V61C417.239 61 415 58.7614 415 56H409ZM420 45C413.925 45 409 49.9249 409 56H415C415 53.2386 417.239 51 420 51V45ZM417 36V48H423V36H417ZM409 28C409 34.0751 413.925 39 420 39V33C417.239 33 415 30.7614 415 28H409ZM420 17C413.925 17 409 21.9249 409 28H415C415 25.2386 417.239 23 420 23V17ZM417 8V20H423V8H417ZM409 0C409 6.07513 413.925 11 420 11V5C417.239 5 415 2.76142 415 0H409ZM400 3H412V-3H400V3ZM392 11C398.075 11 403 6.07513 403 0H397C397 2.76142 394.761 5 392 5V11ZM381 0C381 6.07513 385.925 11 392 11V5C389.239 5 387 2.76142 387 0H381ZM372 3H384V-3H372V3ZM364 11C370.075 11 375 6.07513 375 0H369C369 2.76142 366.761 5 364 5V11ZM353 0C353 6.07513 357.925 11 364 11V5C361.239 5 359 2.76142 359 0H353ZM344 3H356V-3H344V3ZM336 11C342.075 11 347 6.07513 347 0H341C341 2.76142 338.761 5 336 5V11ZM325 0C325 6.07513 329.925 11 336 11V5C333.239 5 331 2.76142 331 0H325ZM316 3H328V-3H316V3ZM308 11C314.075 11 319 6.07513 319 0H313C313 2.76142 310.761 5 308 5V11ZM297 0C297 6.07513 301.925 11 308 11V5C305.239 5 303 2.76142 303 0H297ZM288 3H300V-3H288V3ZM280 11C286.075 11 291 6.07513 291 0H285C285 2.76142 282.761 5 280 5V11ZM269 0C269 6.07513 273.925 11 280 11V5C277.239 5 275 2.76142 275 0H269ZM260 3H272V-3H260V3ZM252 11C258.075 11 263 6.07513 263 0H257C257 2.76142 254.761 5 252 5V11ZM241 0C241 6.07513 245.925 11 252 11V5C249.239 5 247 2.76142 247 0H241ZM232 3H244V-3H232V3ZM224 11C230.075 11 235 6.07513 235 0H229C229 2.76142 226.761 5 224 5V11ZM213 0C213 6.07513 217.925 11 224 11V5C221.239 5 219 2.76142 219 0H213ZM204 3H216V-3H204V3ZM196 11C202.075 11 207 6.07513 207 0H201C201 2.76142 198.761 5 196 5V11ZM185 0C185 6.07513 189.925 11 196 11V5C193.239 5 191 2.76142 191 0H185ZM176 3H188V-3H176V3ZM168 11C174.075 11 179 6.07513 179 0H173C173 2.76142 170.761 5 168 5V11ZM157 0C157 6.07513 161.925 11 168 11V5C165.239 5 163 2.76142 163 0H157ZM148 3H160V-3H148V3ZM140 11C146.075 11 151 6.07513 151 0H145C145 2.76142 142.761 5 140 5V11ZM129 0C129 6.07513 133.925 11 140 11V5C137.239 5 135 2.76142 135 0H129ZM120 3H132V-3H120V3ZM112 11C118.075 11 123 6.07513 123 0H117C117 2.76142 114.761 5 112 5V11ZM101 0C101 6.07513 105.925 11 112 11V5C109.239 5 107 2.76142 107 0H101ZM92 3H104V-3H92V3ZM84 11C90.0751 11 95 6.07513 95 0H89C89 2.76142 86.7614 5 84 5V11ZM73 0C73 6.07513 77.9249 11 84 11V5C81.2386 5 79 2.76142 79 0H73ZM64 3H76V-3H64V3ZM56 11C62.0751 11 67 6.07513 67 0H61C61 2.76142 58.7614 5 56 5V11ZM45 0C45 6.07513 49.9249 11 56 11V5C53.2386 5 51 2.76142 51 0H45ZM36 3H48V-3H36V3Z" fill="#C4C4C4" mask="url(#path-1-inside-1_743_20743)"/>
<path d="M104.948 74H111.845V56.807L126.761 74H136.133L119.831 56.18L134.615 38.36H125.837L111.845 55.52V38.36H104.948V55.52L90.956 38.36H82.178L96.962 56.18L80.66 74H90.032L104.948 56.84V74ZM158.924 32.387H165.524V25.787L158.924 25.787V32.387ZM145.625 32.387H152.225V25.787H145.625V32.387ZM155.657 68.555C149.882 68.555 146.186 64.727 145.559 58.127H172.091C172.817 45.356 166.712 37.37 155.591 37.37C145.163 37.37 138.134 44.828 138.134 56.18C138.134 67.4 145.13 74.99 155.657 74.99C163.049 74.99 168.824 71.36 171.629 64.958L164.831 62.879C163.082 66.608 160.178 68.555 155.657 68.555ZM145.724 52.748C146.648 46.907 150.146 43.574 155.591 43.574C161.102 43.574 164.534 46.907 164.996 52.748H145.724ZM176.195 74.429C177.482 74.792 178.637 74.99 179.726 74.99C185.6 74.99 188.735 69.413 188.735 57.071V44.828H202.331V74H209.228V38.36H182.3V54.86C182.3 63.77 181.244 68.72 177.68 68.72C177.218 68.72 176.723 68.654 176.195 68.489V74.429ZM234.362 74V44.828L246.308 44.828V38.36L215.519 38.36V44.828H227.465V74H234.362ZM292.416 74V38.36H285.519V74H292.416ZM268.722 74C277.467 74 281.625 68.951 281.625 62.516C281.625 56.081 277.467 50.999 268.722 50.999H259.482V38.36H252.585V74H268.722ZM259.482 68.291V56.708H267.732C272.583 56.708 274.695 59.216 274.695 62.516C274.695 65.816 272.583 68.291 267.732 68.291H259.482ZM317.54 34.268C319.289 34.268 320.873 33.839 322.325 32.981C325.229 31.298 327.044 28.229 327.044 24.764H321.566C321.566 26.942 319.751 28.79 317.54 28.79C315.362 28.79 313.514 26.942 313.514 24.764H308.036C308.036 26.513 308.465 28.097 309.323 29.549C311.006 32.453 314.075 34.268 317.54 34.268ZM324.767 38.36L308.498 63.275V38.36H301.601V74H308.498L324.767 49.085V74H331.664V38.36H324.767Z" fill="#F6D81F"/>
<path fill-rule="evenodd" clip-rule="evenodd" d="M36 144C36 148.418 32.4183 152 28 152C23.5817 152 20 148.418 20 144H8C8 148.418 4.41828 152 0 152V164C4.41828 164 8 167.582 8 172C8 176.418 4.41828 180 0 180V192C4.41828 192 8 195.582 8 200C8 204.418 4.41828 208 0 208V220C4.41828 220 8 223.582 8 228C8 232.418 4.41828 236 0 236V248C4.41828 248 8 251.582 8 256H20C20 251.582 23.5817 248 28 248C32.4183 248 36 251.582 36 256H48C48 251.582 51.5817 248 56 248C60.4183 248 64 251.582 64 256H76C76 251.582 79.5817 248 84 248C88.4183 248 92 251.582 92 256H104C104 251.582 107.582 248 112 248C116.418 248 120 251.582 120 256H132C132 251.582 135.582 248 140 248C144.418 248 148 251.582 148 256H160C160 251.582 163.582 248 168 248C172.418 248 176 251.582 176 256H188C188 251.582 191.582 248 196 248C200.418 248 204 251.582 204 256H216C216 251.582 219.582 248 224 248C228.418 248 232 251.582 232 256H244C244 251.582 247.582 248 252 248C256.418 248 260 251.582 260 256H272C272 251.582 275.582 248 280 248C284.418 248 288 251.582 288 256H300C300 251.582 303.582 248 308 248C312.418 248 316 251.582 316 256H328C328 251.582 331.582 248 336 248C340.418 248 344 251.582 344 256H356C356 251.582 359.582 248 364 248C368.418 248 372 251.582 372 256H384C384 251.582 387.582 248 392 248C396.418 248 400 251.582 400 256H412C412 251.582 415.582 248 420 248V236C415.582 236 412 232.418 412 228C412 223.582 415.582 220 420 220V208C415.582 208 412 204.418 412 200C412 195.582 415.582 192 420 192V180C415.582 180 412 176.418 412 172C412 167.582 415.582 164 420 164V152C415.582 152 412 148.418 412 144H400C400 148.418 396.418 152 392 152C387.582 152 384 148.418 384 144H372C372 148.418 368.418 152 364 152C359.582 152 356 148.418 356 144H344C344 148.418 340.418 152 336 152C331.582 152 328 148.418 328 144H316C316 148.418 312.418 152 308 152C303.582 152 300 148.418 300 144H288C288 148.418 284.418 152 280 152C275.582 152 272 148.418 272 144H260C260 148.418 256.418 152 252 152C247.582 152 244 148.418 244 144H232C232 148.418 228.418 152 224 152C219.582 152 216 148.418 216 144H204C204 148.418 200.418 152 196 152C191.582 152 188 148.418 188 144H176C176 148.418 172.418 152 168 152C163.582 152 160 148.418 160 144H148C148 148.418 144.418 152 140 152C135.582 152 132 148.418 132 144H120C120 148.418 116.418 152 112 152C107.582 152 104 148.418 104 144H92C92 148.418 88.4183 152 84 152C79.5817 152 76 148.418 76 144H64C64 148.418 60.4183 152 56 152C51.5817 152 48 148.418 48 144H36Z" fill="#F6D81F"/>
<path d="M54.587 218H61.484V200.807L76.4 218H85.772L69.47 200.18L84.254 182.36H75.476L61.484 199.52V182.36H54.587V218ZM95.9994 233.84V212.819C98.2104 216.68 101.873 218.99 107.45 218.99C117.02 218.99 123.62 211.301 123.62 200.147C123.62 189.125 117.053 181.37 107.45 181.37C101.906 181.37 98.2104 183.68 95.9994 187.541V182.36H89.1024V233.84H95.9994ZM106.13 212.489C99.4644 212.489 95.9994 207.671 95.9994 200.147C95.9994 192.887 99.2004 187.871 106.13 187.871C112.862 187.871 116.294 192.689 116.294 200.147C116.294 207.44 112.928 212.489 106.13 212.489ZM146.411 212.555C140.636 212.555 136.94 208.727 136.313 202.127H162.845C163.571 189.356 157.466 181.37 146.345 181.37C135.917 181.37 128.888 188.828 128.888 200.18C128.888 211.4 135.884 218.99 146.411 218.99C153.803 218.99 159.578 215.36 162.383 208.958L155.585 206.879C153.836 210.608 150.932 212.555 146.411 212.555ZM136.478 196.748C137.402 190.907 140.9 187.574 146.345 187.574C151.856 187.574 155.288 190.907 155.75 196.748H136.478ZM176.146 218V195.593L184.726 212.39H190.303L198.883 195.593V218H205.813V182.36H198.883L187.531 204.503L176.146 182.36H169.249V218H176.146ZM230.521 218.99C241.147 218.99 248.011 211.334 248.011 200.147C248.011 189.059 241.18 181.37 230.521 181.37C219.961 181.37 213.064 189.026 213.064 200.147C213.064 211.268 219.895 218.99 230.521 218.99ZM230.521 212.489C223.987 212.489 220.39 207.803 220.39 200.147C220.39 192.557 223.855 187.871 230.521 187.871C237.121 187.871 240.685 192.491 240.685 200.147C240.685 207.737 237.121 212.489 230.521 212.489ZM270.839 218C279.32 218 283.841 214.568 283.841 208.133C283.841 203.711 281.399 200.477 277.967 199.553C280.871 198.431 282.752 195.89 282.752 191.963C282.752 185.693 278.264 182.36 269.981 182.36H255.23V218H270.839ZM270.014 187.904C274.172 187.904 276.185 189.224 276.185 192.623C276.185 195.791 273.908 197.078 270.674 197.078H261.665V187.904H270.014ZM261.698 212.456V202.556H271.499C274.799 202.556 277.307 204.008 277.307 207.539C277.307 210.938 274.931 212.456 270.773 212.456H261.698ZM330.285 218V182.36H323.388V218H330.285ZM306.591 218C315.336 218 319.494 212.951 319.494 206.516C319.494 200.081 315.336 194.999 306.591 194.999H297.351V182.36H290.454V218H306.591ZM297.351 212.291V200.708H305.601C310.452 200.708 312.564 203.216 312.564 206.516C312.564 209.816 310.452 212.291 305.601 212.291H297.351ZM355.409 178.268C357.158 178.268 358.742 177.839 360.194 176.981C363.098 175.298 364.913 172.229 364.913 168.764H359.435C359.435 170.942 357.62 172.79 355.409 172.79C353.231 172.79 351.383 170.942 351.383 168.764H345.905C345.905 170.513 346.334 172.097 347.192 173.549C348.875 176.453 351.944 178.268 355.409 178.268ZM362.636 182.36L346.367 207.275V182.36H339.47V218H346.367L362.636 193.085V218H369.533V182.36H362.636Z" fill="#FFF9EF"/>
<path fill-rule="evenodd" clip-rule="evenodd" d="M467 0C467 4.41828 463.418 8 459 8C454.582 8 451 4.41828 451 0H439C439 4.41828 435.418 8 431 8V20C435.418 20 439 23.5817 439 28C439 32.4183 435.418 36 431 36V48C435.418 48 439 51.5817 439 56C439 60.4183 435.418 64 431 64V76C435.418 76 439 79.5817 439 84C439 88.4183 435.418 92 431 92V104C435.418 104 439 107.582 439 112H451C451 107.582 454.582 104 459 104C463.418 104 467 107.582 467 112H479C479 107.582 482.582 104 487 104C491.418 104 495 107.582 495 112H507C507 107.582 510.582 104 515 104C519.418 104 523 107.582 523 112H535C535 107.582 538.582 104 543 104C547.418 104 551 107.582 551 112H563C563 107.582 566.582 104 571 104C575.418 104 579 107.582 579 112H591C591 107.582 594.582 104 599 104C603.418 104 607 107.582 607 112H619C619 107.582 622.582 104 627 104C631.418 104 635 107.582 635 112H647C647 107.582 650.582 104 655 104C659.418 104 663 107.582 663 112H675C675 107.582 678.582 104 683 104C687.418 104 691 107.582 691 112H703C703 107.582 706.582 104 711 104C715.418 104 719 107.582 719 112H731C731 107.582 734.582 104 739 104C743.418 104 747 107.582 747 112H759C759 107.582 762.582 104 767 104C771.418 104 775 107.582 775 112H787C787 107.582 790.582 104 795 104C799.418 104 803 107.582 803 112H815C815 107.582 818.582 104 823 104C827.418 104 831 107.582 831 112H843C843 107.582 846.582 104 851 104V92C846.582 92 843 88.4183 843 84C843 79.5817 846.582 76 851 76V64C846.582 64 843 60.4183 843 56C843 51.5817 846.582 48 851 48V36C846.582 36 843 32.4183 843 28C843 23.5817 846.582 20 851 20V8C846.582 8 843 4.41828 843 0H831C831 4.41828 827.418 8 823 8C818.582 8 815 4.41828 815 0H803C803 4.41828 799.418 8 795 8C790.582 8 787 4.41828 787 0H775C775 4.41828 771.418 8 767 8C762.582 8 759 4.41828 759 0H747C747 4.41828 743.418 8 739 8C734.582 8 731 4.41828 731 0H719C719 4.41828 715.418 8 711 8C706.582 8 703 4.41828 703 0H691C691 4.41828 687.418 8 683 8C678.582 8 675 4.41828 675 0H663C663 4.41828 659.418 8 655 8C650.582 8 647 4.41828 647 0H635C635 4.41828 631.418 8 627 8C622.582 8 619 4.41828 619 0H607C607 4.41828 603.418 8 599 8C594.582 8 591 4.41828 591 0H579C579 4.41828 575.418 8 571 8C566.582 8 563 4.41828 563 0H551C551 4.41828 547.418 8 543 8C538.582 8 535 4.41828 535 0H523C523 4.41828 519.418 8 515 8C510.582 8 507 4.41828 507 0H495C495 4.41828 491.418 8 487 8C482.582 8 479 4.41828 479 0H467Z" fill="#B6CAFA"/>
<path d="M535.948 74H542.845V56.807L557.761 74H567.133L550.831 56.18L565.615 38.36H556.837L542.845 55.52V38.36H535.948V55.52L521.956 38.36H513.178L527.962 56.18L511.66 74H521.032L535.948 56.84V74ZM589.924 32.387H596.524V25.787L589.924 25.787V32.387ZM576.625 32.387H583.225V25.787H576.625V32.387ZM586.657 68.555C580.882 68.555 577.186 64.727 576.559 58.127H603.091C603.817 45.356 597.712 37.37 586.591 37.37C576.163 37.37 569.134 44.828 569.134 56.18C569.134 67.4 576.13 74.99 586.657 74.99C594.049 74.99 599.824 71.36 602.629 64.958L595.831 62.879C594.082 66.608 591.178 68.555 586.657 68.555ZM576.724 52.748C577.648 46.907 581.146 43.574 586.591 43.574C592.102 43.574 595.534 46.907 595.996 52.748H576.724ZM607.195 74.429C608.482 74.792 609.637 74.99 610.726 74.99C616.6 74.99 619.735 69.413 619.735 57.071V44.828H633.331V74H640.228V38.36H613.3V54.86C613.3 63.77 612.244 68.72 608.68 68.72C608.218 68.72 607.723 68.654 607.195 68.489V74.429ZM665.362 74V44.828L677.308 44.828V38.36L646.519 38.36V44.828H658.465V74H665.362ZM723.416 74V38.36H716.519V74H723.416ZM699.722 74C708.467 74 712.625 68.951 712.625 62.516C712.625 56.081 708.467 50.999 699.722 50.999H690.482V38.36H683.585V74H699.722ZM690.482 68.291V56.708H698.732C703.583 56.708 705.695 59.216 705.695 62.516C705.695 65.816 703.583 68.291 698.732 68.291H690.482ZM748.54 34.268C750.289 34.268 751.873 33.839 753.325 32.981C756.229 31.298 758.044 28.229 758.044 24.764H752.566C752.566 26.942 750.751 28.79 748.54 28.79C746.362 28.79 744.514 26.942 744.514 24.764H739.036C739.036 26.513 739.465 28.097 740.323 29.549C742.006 32.453 745.075 34.268 748.54 34.268ZM755.767 38.36L739.498 63.275V38.36H732.601V74H739.498L755.767 49.085V74H762.664V38.36H755.767Z" fill="#F6D81F"/>
<path fill-rule="evenodd" clip-rule="evenodd" d="M467 144C467 148.418 463.418 152 459 152C454.582 152 451 148.418 451 144H439C439 148.418 435.418 152 431 152V164C435.418 164 439 167.582 439 172C439 176.418 435.418 180 431 180V192C435.418 192 439 195.582 439 200C439 204.418 435.418 208 431 208V220C435.418 220 439 223.582 439 228C439 232.418 435.418 236 431 236V248C435.418 248 439 251.582 439 256H451C451 251.582 454.582 248 459 248C463.418 248 467 251.582 467 256H479C479 251.582 482.582 248 487 248C491.418 248 495 251.582 495 256H507C507 251.582 510.582 248 515 248C519.418 248 523 251.582 523 256H535C535 251.582 538.582 248 543 248C547.418 248 551 251.582 551 256H563C563 251.582 566.582 248 571 248C575.418 248 579 251.582 579 256H591C591 251.582 594.582 248 599 248C603.418 248 607 251.582 607 256H619C619 251.582 622.582 248 627 248C631.418 248 635 251.582 635 256H647C647 251.582 650.582 248 655 248C659.418 248 663 251.582 663 256H675C675 251.582 678.582 248 683 248C687.418 248 691 251.582 691 256H703C703 251.582 706.582 248 711 248C715.418 248 719 251.582 719 256H731C731 251.582 734.582 248 739 248C743.418 248 747 251.582 747 256H759C759 251.582 762.582 248 767 248C771.418 248 775 251.582 775 256H787C787 251.582 790.582 248 795 248C799.418 248 803 251.582 803 256H815C815 251.582 818.582 248 823 248C827.418 248 831 251.582 831 256H843C843 251.582 846.582 248 851 248V236C846.582 236 843 232.418 843 228C843 223.582 846.582 220 851 220V208C846.582 208 843 204.418 843 200C843 195.582 846.582 192 851 192V180C846.582 180 843 176.418 843 172C843 167.582 846.582 164 851 164V152C846.582 152 843 148.418 843 144H831C831 148.418 827.418 152 823 152C818.582 152 815 148.418 815 144H803C803 148.418 799.418 152 795 152C790.582 152 787 148.418 787 144H775C775 148.418 771.418 152 767 152C762.582 152 759 148.418 759 144H747C747 148.418 743.418 152 739 152C734.582 152 731 148.418 731 144H719C719 148.418 715.418 152 711 152C706.582 152 703 148.418 703 144H691C691 148.418 687.418 152 683 152C678.582 152 675 148.418 675 144H663C663 148.418 659.418 152 655 152C650.582 152 647 148.418 647 144H635C635 148.418 631.418 152 627 152C622.582 152 619 148.418 619 144H607C607 148.418 603.418 152 599 152C594.582 152 591 148.418 591 144H579C579 148.418 575.418 152 571 152C566.582 152 563 148.418 563 144H551C551 148.418 547.418 152 543 152C538.582 152 535 148.418 535 144H523C523 148.418 519.418 152 515 152C510.582 152 507 148.418 507 144H495C495 148.418 491.418 152 487 152C482.582 152 479 148.418 479 144H467Z" fill="#FB6217"/>
<path d="M535.948 218H542.845V200.807L557.761 218H567.133L550.831 200.18L565.615 182.36H556.837L542.845 199.52V182.36H535.948V199.52L521.956 182.36H513.178L527.962 200.18L511.66 218H521.032L535.948 200.84V218ZM589.924 176.387H596.524V169.787H589.924V176.387ZM576.625 176.387H583.225V169.787H576.625V176.387ZM586.657 212.555C580.882 212.555 577.186 208.727 576.559 202.127H603.091C603.817 189.356 597.712 181.37 586.591 181.37C576.163 181.37 569.134 188.828 569.134 200.18C569.134 211.4 576.13 218.99 586.657 218.99C594.049 218.99 599.824 215.36 602.629 208.958L595.831 206.879C594.082 210.608 591.178 212.555 586.657 212.555ZM576.724 196.748C577.648 190.907 581.146 187.574 586.591 187.574C592.102 187.574 595.534 190.907 595.996 196.748H576.724ZM607.195 218.429C608.482 218.792 609.637 218.99 610.726 218.99C616.6 218.99 619.735 213.413 619.735 201.071V188.828H633.331V218H640.228V182.36H613.3V198.86C613.3 207.77 612.244 212.72 608.68 212.72C608.218 212.72 607.723 212.654 607.195 212.489V218.429ZM665.362 218V188.828H677.308V182.36H646.519V188.828H658.465V218H665.362ZM723.416 218V182.36H716.519V218H723.416ZM699.722 218C708.467 218 712.625 212.951 712.625 206.516C712.625 200.081 708.467 194.999 699.722 194.999H690.482V182.36H683.585V218H699.722ZM690.482 212.291V200.708H698.732C703.583 200.708 705.695 203.216 705.695 206.516C705.695 209.816 703.583 212.291 698.732 212.291H690.482ZM748.54 178.268C750.289 178.268 751.873 177.839 753.325 176.981C756.229 175.298 758.044 172.229 758.044 168.764H752.566C752.566 170.942 750.751 172.79 748.54 172.79C746.362 172.79 744.514 170.942 744.514 168.764H739.036C739.036 170.513 739.465 172.097 740.323 173.549C742.006 176.453 745.075 178.268 748.54 178.268ZM755.767 182.36L739.498 207.275V182.36H732.601V218H739.498L755.767 193.085V218H762.664V182.36H755.767Z" fill="#F6D81F"/>
<path fill-rule="evenodd" clip-rule="evenodd" d="M898 0C898 4.41828 894.418 8 890 8C885.582 8 882 4.41828 882 0H870C870 4.41828 866.418 8 862 8V20C866.418 20 870 23.5817 870 28C870 32.4183 866.418 36 862 36V48C866.418 48 870 51.5817 870 56C870 60.4183 866.418 64 862 64V76C866.418 76 870 79.5817 870 84C870 88.4183 866.418 92 862 92V104C866.418 104 870 107.582 870 112H882C882 107.582 885.582 104 890 104C894.418 104 898 107.582 898 112H910C910 107.582 913.582 104 918 104C922.418 104 926 107.582 926 112H938C938 107.582 941.582 104 946 104C950.418 104 954 107.582 954 112H966C966 107.582 969.582 104 974 104C978.418 104 982 107.582 982 112H994C994 107.582 997.582 104 1002 104C1006.42 104 1010 107.582 1010 112H1022C1022 107.582 1025.58 104 1030 104C1034.42 104 1038 107.582 1038 112H1050C1050 107.582 1053.58 104 1058 104C1062.42 104 1066 107.582 1066 112H1078C1078 107.582 1081.58 104 1086 104C1090.42 104 1094 107.582 1094 112H1106C1106 107.582 1109.58 104 1114 104C1118.42 104 1122 107.582 1122 112H1134C1134 107.582 1137.58 104 1142 104C1146.42 104 1150 107.582 1150 112H1162C1162 107.582 1165.58 104 1170 104C1174.42 104 1178 107.582 1178 112H1190C1190 107.582 1193.58 104 1198 104C1202.42 104 1206 107.582 1206 112H1218C1218 107.582 1221.58 104 1226 104C1230.42 104 1234 107.582 1234 112H1246C1246 107.582 1249.58 104 1254 104C1258.42 104 1262 107.582 1262 112H1274C1274 107.582 1277.58 104 1282 104V92C1277.58 92 1274 88.4183 1274 84C1274 79.5817 1277.58 76 1282 76V64C1277.58 64 1274 60.4183 1274 56C1274 51.5817 1277.58 48 1282 48V36C1277.58 36 1274 32.4183 1274 28C1274 23.5817 1277.58 20 1282 20V8C1277.58 8 1274 4.41828 1274 0H1262C1262 4.41828 1258.42 8 1254 8C1249.58 8 1246 4.41828 1246 0H1234C1234 4.41828 1230.42 8 1226 8C1221.58 8 1218 4.41828 1218 0H1206C1206 4.41828 1202.42 8 1198 8C1193.58 8 1190 4.41828 1190 0H1178C1178 4.41828 1174.42 8 1170 8C1165.58 8 1162 4.41828 1162 0H1150C1150 4.41828 1146.42 8 1142 8C1137.58 8 1134 4.41828 1134 0H1122C1122 4.41828 1118.42 8 1114 8C1109.58 8 1106 4.41828 1106 0H1094C1094 4.41828 1090.42 8 1086 8C1081.58 8 1078 4.41828 1078 0H1066C1066 4.41828 1062.42 8 1058 8C1053.58 8 1050 4.41828 1050 0H1038C1038 4.41828 1034.42 8 1030 8C1025.58 8 1022 4.41828 1022 0H1010C1010 4.41828 1006.42 8 1002 8C997.582 8 994 4.41828 994 0H982C982 4.41828 978.418 8 974 8C969.582 8 966 4.41828 966 0H954C954 4.41828 950.418 8 946 8C941.582 8 938 4.41828 938 0H926C926 4.41828 922.418 8 918 8C913.582 8 910 4.41828 910 0H898Z" fill="#F6D81F"/>
<path d="M949.583 74V44.828H966.05V38.36H942.62V74H949.583ZM987.165 74.99C997.791 74.99 1004.66 67.334 1004.66 56.147C1004.66 45.059 997.824 37.37 987.165 37.37C976.605 37.37 969.708 45.026 969.708 56.147C969.708 67.268 976.539 74.99 987.165 74.99ZM987.165 68.489C980.631 68.489 977.034 63.803 977.034 56.147C977.034 48.557 980.499 43.871 987.165 43.871C993.765 43.871 997.329 48.491 997.329 56.147C997.329 63.737 993.765 68.489 987.165 68.489ZM1008.61 74.429C1009.89 74.792 1011.05 74.99 1012.14 74.99C1018.01 74.99 1021.15 69.413 1021.15 57.071V44.828L1034.74 44.828V74H1041.64V38.36L1014.71 38.36V54.86C1014.71 63.77 1013.66 68.72 1010.09 68.72C1009.63 68.72 1009.14 68.654 1008.61 68.489V74.429ZM1062.29 89.84L1081.95 38.36H1074.96L1064.93 65.123L1054.37 38.36H1047.17L1061.59 73.835L1055.72 89.84H1062.29ZM1101.64 75.023C1111.77 75.089 1118.74 68.225 1118.74 57.731C1118.74 47.666 1112.5 40.802 1103.46 40.802C1098.67 40.802 1094.58 42.584 1091.94 46.676C1092.44 40.472 1093.69 37.733 1096.96 35.852C1101.84 33.047 1107.68 34.004 1117.05 31.958L1116.56 25.523C1107.39 27.569 1099.27 26.513 1092.73 30.836C1087.92 34.037 1086.3 39.35 1085.54 46.082C1085.11 49.646 1085.04 53.705 1085.24 56.609C1085.9 67.994 1091.55 74.957 1101.64 75.023ZM1101.91 68.522C1096.07 68.522 1092.6 64.463 1092.6 57.995C1092.6 51.461 1096 47.369 1102.11 47.369C1108.01 47.369 1111.44 51.494 1111.44 57.995C1111.44 64.331 1108.01 68.522 1101.91 68.522ZM1141.47 74.99C1152.09 74.99 1158.96 67.334 1158.96 56.147C1158.96 45.059 1152.13 37.37 1141.47 37.37C1130.91 37.37 1124.01 45.026 1124.01 56.147C1124.01 67.268 1130.84 74.99 1141.47 74.99ZM1141.47 68.489C1134.93 68.489 1131.34 63.803 1131.34 56.147C1131.34 48.557 1134.8 43.871 1141.47 43.871C1148.07 43.871 1151.63 48.491 1151.63 56.147C1151.63 63.737 1148.07 68.489 1141.47 68.489ZM1182.11 34.268C1183.86 34.268 1185.45 33.839 1186.9 32.981C1189.8 31.298 1191.62 28.229 1191.62 24.764H1186.14C1186.14 26.942 1184.32 28.79 1182.11 28.79C1179.94 28.79 1178.09 26.942 1178.09 24.764H1172.61C1172.61 26.513 1173.04 28.097 1173.9 29.549C1175.58 32.453 1178.65 34.268 1182.11 34.268ZM1189.34 38.36L1173.07 63.275V38.36H1166.17V74H1173.07L1189.34 49.085V74H1196.24V38.36H1189.34Z" fill="#B6CAFA"/>
<path fill-rule="evenodd" clip-rule="evenodd" d="M898 144C898 148.418 894.418 152 890 152C885.582 152 882 148.418 882 144H870C870 148.418 866.418 152 862 152V164C866.418 164 870 167.582 870 172C870 176.418 866.418 180 862 180V192C866.418 192 870 195.582 870 200C870 204.418 866.418 208 862 208V220C866.418 220 870 223.582 870 228C870 232.418 866.418 236 862 236V248C866.418 248 870 251.582 870 256H882C882 251.582 885.582 248 890 248C894.418 248 898 251.582 898 256H910C910 251.582 913.582 248 918 248C922.418 248 926 251.582 926 256H938C938 251.582 941.582 248 946 248C950.418 248 954 251.582 954 256H966C966 251.582 969.582 248 974 248C978.418 248 982 251.582 982 256H994C994 251.582 997.582 248 1002 248C1006.42 248 1010 251.582 1010 256H1022C1022 251.582 1025.58 248 1030 248C1034.42 248 1038 251.582 1038 256H1050C1050 251.582 1053.58 248 1058 248C1062.42 248 1066 251.582 1066 256H1078C1078 251.582 1081.58 248 1086 248C1090.42 248 1094 251.582 1094 256H1106C1106 251.582 1109.58 248 1114 248C1118.42 248 1122 251.582 1122 256H1134C1134 251.582 1137.58 248 1142 248C1146.42 248 1150 251.582 1150 256H1162C1162 251.582 1165.58 248 1170 248C1174.42 248 1178 251.582 1178 256H1190C1190 251.582 1193.58 248 1198 248C1202.42 248 1206 251.582 1206 256H1218C1218 251.582 1221.58 248 1226 248C1230.42 248 1234 251.582 1234 256H1246C1246 251.582 1249.58 248 1254 248C1258.42 248 1262 251.582 1262 256H1274C1274 251.582 1277.58 248 1282 248V236C1277.58 236 1274 232.418 1274 228C1274 223.582 1277.58 220 1282 220V208C1277.58 208 1274 204.418 1274 200C1274 195.582 1277.58 192 1282 192V180C1277.58 180 1274 176.418 1274 172C1274 167.582 1277.58 164 1282 164V152C1277.58 152 1274 148.418 1274 144H1262C1262 148.418 1258.42 152 1254 152C1249.58 152 1246 148.418 1246 144H1234C1234 148.418 1230.42 152 1226 152C1221.58 152 1218 148.418 1218 144H1206C1206 148.418 1202.42 152 1198 152C1193.58 152 1190 148.418 1190 144H1178C1178 148.418 1174.42 152 1170 152C1165.58 152 1162 148.418 1162 144H1150C1150 148.418 1146.42 152 1142 152C1137.58 152 1134 148.418 1134 144H1122C1122 148.418 1118.42 152 1114 152C1109.58 152 1106 148.418 1106 144H1094C1094 148.418 1090.42 152 1086 152C1081.58 152 1078 148.418 1078 144H1066C1066 148.418 1062.42 152 1058 152C1053.58 152 1050 148.418 1050 144H1038C1038 148.418 1034.42 152 1030 152C1025.58 152 1022 148.418 1022 144H1010C1010 148.418 1006.42 152 1002 152C997.582 152 994 148.418 994 144H982C982 148.418 978.418 152 974 152C969.582 152 966 148.418 966 144H954C954 148.418 950.418 152 946 152C941.582 152 938 148.418 938 144H926C926 148.418 922.418 152 918 152C913.582 152 910 148.418 910 144H898Z" fill="#FB6217"/>
<path d="M949.583 218V188.828H966.05V182.36H942.62V218H949.583ZM987.165 218.99C997.791 218.99 1004.66 211.334 1004.66 200.147C1004.66 189.059 997.824 181.37 987.165 181.37C976.605 181.37 969.708 189.026 969.708 200.147C969.708 211.268 976.539 218.99 987.165 218.99ZM987.165 212.489C980.631 212.489 977.034 207.803 977.034 200.147C977.034 192.557 980.499 187.871 987.165 187.871C993.765 187.871 997.329 192.491 997.329 200.147C997.329 207.737 993.765 212.489 987.165 212.489ZM1008.61 218.429C1009.89 218.792 1011.05 218.99 1012.14 218.99C1018.01 218.99 1021.15 213.413 1021.15 201.071V188.828H1034.74V218H1041.64V182.36H1014.71V198.86C1014.71 207.77 1013.66 212.72 1010.09 212.72C1009.63 212.72 1009.14 212.654 1008.61 212.489V218.429ZM1062.29 233.84L1081.95 182.36H1074.96L1064.93 209.123L1054.37 182.36H1047.17L1061.59 217.835L1055.72 233.84H1062.29ZM1101.64 219.023C1111.77 219.089 1118.74 212.225 1118.74 201.731C1118.74 191.666 1112.5 184.802 1103.46 184.802C1098.67 184.802 1094.58 186.584 1091.94 190.676C1092.44 184.472 1093.69 181.733 1096.96 179.852C1101.84 177.047 1107.68 178.004 1117.05 175.958L1116.56 169.523C1107.39 171.569 1099.27 170.513 1092.73 174.836C1087.92 178.037 1086.3 183.35 1085.54 190.082C1085.11 193.646 1085.04 197.705 1085.24 200.609C1085.9 211.994 1091.55 218.957 1101.64 219.023ZM1101.91 212.522C1096.07 212.522 1092.6 208.463 1092.6 201.995C1092.6 195.461 1096 191.369 1102.11 191.369C1108.01 191.369 1111.44 195.494 1111.44 201.995C1111.44 208.331 1108.01 212.522 1101.91 212.522ZM1141.47 218.99C1152.09 218.99 1158.96 211.334 1158.96 200.147C1158.96 189.059 1152.13 181.37 1141.47 181.37C1130.91 181.37 1124.01 189.026 1124.01 200.147C1124.01 211.268 1130.84 218.99 1141.47 218.99ZM1141.47 212.489C1134.93 212.489 1131.34 207.803 1131.34 200.147C1131.34 192.557 1134.8 187.871 1141.47 187.871C1148.07 187.871 1151.63 192.491 1151.63 200.147C1151.63 207.737 1148.07 212.489 1141.47 212.489ZM1182.11 178.268C1183.86 178.268 1185.45 177.839 1186.9 176.981C1189.8 175.298 1191.62 172.229 1191.62 168.764H1186.14C1186.14 170.942 1184.32 172.79 1182.11 172.79C1179.94 172.79 1178.09 170.942 1178.09 168.764H1172.61C1172.61 170.513 1173.04 172.097 1173.9 173.549C1175.58 176.453 1178.65 178.268 1182.11 178.268ZM1189.34 182.36L1173.07 207.275V182.36H1166.17V218H1173.07L1189.34 193.085V218H1196.24V182.36H1189.34Z" fill="#B6CAFA"/>
</svg>
