<svg width="160" height="70" viewBox="0 0 160 70" fill="none" xmlns="http://www.w3.org/2000/svg">
<path d="M23.232 69.012C18.632 69.012 14.584 68.184 11.088 66.528C7.65333 64.8107 4.98533 62.4187 3.084 59.352C1.18267 56.2853 0.201334 52.7587 0.14 48.772H10.444C10.5667 52.084 11.7013 54.752 13.848 56.776C16.056 58.8 19.1533 59.812 23.14 59.812C26.7587 59.812 29.58 59.0147 31.604 57.42C33.6893 55.8253 34.732 53.648 34.732 50.888C34.732 48.7413 34.1187 46.9933 32.892 45.644C31.7267 44.2947 30.2547 43.2213 28.476 42.424C26.6973 41.5653 24.2133 40.6147 21.024 39.572C16.8533 38.1613 13.5107 36.8427 10.996 35.616C8.48133 34.328 6.304 32.4267 4.464 29.912C2.68533 27.3973 1.796 24.0853 1.796 19.976C1.796 16.664 2.68533 13.6893 4.464 11.052C6.304 8.41466 8.81867 6.35999 12.008 4.888C15.2587 3.35466 18.908 2.588 22.956 2.588C26.7587 2.588 30.224 3.38533 33.352 4.97999C36.5413 6.51333 39.0867 8.72133 40.988 11.604C42.9507 14.4253 43.9627 17.7067 44.024 21.448H33.812C33.6893 18.6267 32.616 16.3267 30.592 14.548C28.6293 12.708 25.992 11.788 22.68 11.788C19.6133 11.788 17.0987 12.524 15.136 13.996C13.1733 15.468 12.192 17.5227 12.192 20.16C12.192 22.184 12.7747 23.8707 13.94 25.22C15.1053 26.5693 16.5773 27.6427 18.356 28.44C20.196 29.2373 22.6493 30.1267 25.716 31.108C29.8867 32.5187 33.2293 33.868 35.744 35.156C38.32 36.444 40.528 38.376 42.368 40.952C44.208 43.528 45.128 46.9013 45.128 51.072C45.128 54.4453 44.208 57.512 42.368 60.272C40.528 62.9707 37.952 65.1173 34.64 66.712C31.328 68.2453 27.5253 69.012 23.232 69.012ZM77.2453 20.988C81.416 20.988 85.28 22 88.8373 24.024C92.456 25.9867 95.308 28.716 97.3933 32.212C99.54 35.708 100.613 39.664 100.613 44.08C100.613 45.6747 100.491 47.116 100.245 48.404H63.5373C64.0893 52.268 65.5613 55.304 67.9533 57.512C70.4067 59.72 73.504 60.824 77.2453 60.824C82.8267 60.824 86.8747 58.616 89.3893 54.2H99.2333C97.3933 58.7387 94.572 62.3573 90.7693 65.056C87.028 67.6933 82.52 69.012 77.2453 69.012C72.952 69.012 68.996 68 65.3773 65.976C61.7587 63.8907 58.876 61.0387 56.7293 57.42C54.644 53.74 53.6013 49.6 53.6013 45C53.6013 40.4 54.644 36.2907 56.7293 32.672C58.876 28.992 61.7587 26.14 65.3773 24.116C68.996 22.0307 72.952 20.988 77.2453 20.988ZM77.2453 29.176C73.6267 29.176 70.6213 30.188 68.2293 32.212C65.8987 34.236 64.396 37.0267 63.7213 40.584H90.6773C90.1867 37.2107 88.7453 34.4813 86.3533 32.396C83.9613 30.2493 80.9253 29.176 77.2453 29.176ZM121.316 68H111.748V1.76H121.316V68ZM155.893 9.764C153.624 9.764 151.845 10.408 150.557 11.696C149.269 12.984 148.625 14.7627 148.625 17.032V22H159.941V30.832H148.625V68H139.057V30.832H131.513V22H139.057V15.652C139.057 11.1747 140.406 7.58666 143.105 4.888C145.865 2.18933 149.545 0.839998 154.145 0.839998H159.941V9.764H155.893Z" fill="#FFF9EF"/>
</svg>
