<svg width="421" height="113" viewBox="0 0 421 113" fill="none" xmlns="http://www.w3.org/2000/svg">
<path fill-rule="evenodd" clip-rule="evenodd" d="M36.1892 0.951172C36.1892 5.36945 32.6075 8.95117 28.1892 8.95117C23.7709 8.95117 20.1892 5.36946 20.1892 0.951188L8.19296 0.951188C8.19199 5.36785 4.61191 8.94811 0.195312 8.94938L0.195312 20.9505C4.61288 20.9513 8.19377 24.5327 8.19377 28.9505C8.19377 33.3682 4.61288 36.9496 0.195312 36.9505L0.195312 48.9516C4.61325 48.952 8.19458 52.5335 8.19458 56.9516C8.19458 61.3696 4.61325 64.9512 0.195312 64.9516L0.195312 76.9527L0.195384 76.9527C4.61366 76.9527 8.19538 80.5344 8.19538 84.9527C8.19538 89.3709 4.61366 92.9527 0.195384 92.9527H0.195312L0.195312 104.948C4.61109 104.951 8.18986 108.531 8.18986 112.948L8.18986 112.951L20.1935 112.951C20.1939 108.533 23.7755 104.952 28.1935 104.952C32.6116 104.952 36.1932 108.533 36.1935 112.951L48.1909 112.951V112.95C48.1909 108.532 51.7726 104.95 56.1909 104.95C60.6092 104.95 64.1909 108.532 64.1909 112.95V112.951L76.1957 112.951V112.95C76.1957 108.532 79.7775 104.95 84.1957 104.95C88.614 104.95 92.1957 108.532 92.1957 112.95V112.951L104.192 112.951C104.192 108.533 107.774 104.952 112.192 104.952C116.61 104.952 120.191 108.533 120.192 112.951L132.189 112.951V112.95C132.189 108.532 135.771 104.95 140.189 104.95C144.608 104.95 148.189 108.532 148.189 112.95V112.951L160.194 112.951V112.95C160.194 108.532 163.776 104.95 168.194 104.95C172.612 104.95 176.194 108.532 176.194 112.95V112.951L188.192 112.951V112.948C188.192 108.53 191.773 104.948 196.192 104.948C200.61 104.948 204.192 108.53 204.192 112.948V112.951L216.195 112.951C216.196 108.533 219.777 104.952 224.195 104.952C228.613 104.952 232.194 108.533 232.195 112.951L244.193 112.951V112.951C244.193 108.532 247.774 104.951 252.193 104.951C256.611 104.951 260.193 108.532 260.193 112.951V112.951L272.19 112.951L272.19 112.949C272.19 108.53 275.772 104.949 280.19 104.949C284.608 104.949 288.19 108.53 288.19 112.949L288.19 112.951L300.195 112.951V112.949C300.195 108.531 303.776 104.949 308.195 104.949C312.613 104.949 316.195 108.531 316.195 112.949V112.951L328.191 112.951V112.951C328.191 108.532 331.773 104.951 336.191 104.951C340.609 104.951 344.191 108.532 344.191 112.951V112.951L356.196 112.951C356.196 108.533 359.777 104.951 364.196 104.951C368.614 104.951 372.196 108.533 372.196 112.951L384.193 112.951V112.949C384.193 108.531 387.775 104.949 392.193 104.949C396.611 104.949 400.193 108.531 400.193 112.949V112.951L412.189 112.951V112.951C412.189 108.533 415.771 104.951 420.189 104.951L420.195 104.951L420.195 92.9521C415.777 92.9517 412.196 89.3701 412.196 84.9521C412.196 80.534 415.777 76.9525 420.195 76.9521L420.195 64.951C415.777 64.951 412.195 61.3693 412.195 56.951C412.195 52.5327 415.777 48.951 420.195 48.951L420.195 36.9499H420.194C415.776 36.9499 412.194 33.3682 412.194 28.9499C412.194 24.5316 415.776 20.9499 420.194 20.9499H420.195V8.94879H420.194C415.776 8.94879 412.195 5.36836 412.194 0.951188L400.196 0.951188C400.196 5.36926 396.614 8.95074 392.196 8.95074C387.778 8.95074 384.196 5.36926 384.196 0.951188L372.191 0.951188C372.191 5.3691 368.609 8.9504 364.191 8.9504C359.773 8.9504 356.192 5.3691 356.191 0.951188L344.194 0.951188V0.952352C344.194 5.37063 340.612 8.95235 336.194 8.95235C331.776 8.95235 328.194 5.37063 328.194 0.952352V0.951188L316.19 0.951188C316.189 5.36813 312.608 8.94828 308.19 8.94828C303.773 8.94828 300.192 5.36813 300.19 0.951188L288.193 0.951188C288.192 5.36903 284.611 8.95023 280.193 8.95023C275.775 8.95023 272.193 5.36903 272.193 0.951188L260.196 0.951188V0.952181C260.196 5.37046 256.614 8.95218 252.196 8.95218C247.777 8.95218 244.196 5.37046 244.196 0.952181V0.951188L232.192 0.951188C232.19 5.36805 228.609 8.94811 224.192 8.94811C219.775 8.94811 216.194 5.36805 216.192 0.951188L204.195 0.951188C204.194 5.36895 200.612 8.95006 196.195 8.95006C191.777 8.95006 188.195 5.36895 188.195 0.951188L176.19 0.951188C176.189 5.36879 172.608 8.94973 168.19 8.94973C163.772 8.94973 160.191 5.36879 160.19 0.951188L148.192 0.951188V0.951677C148.192 5.36995 144.611 8.95168 140.192 8.95168C135.774 8.95168 132.192 5.36995 132.192 0.951677V0.951188L120.196 0.951188C120.195 5.36887 116.614 8.94989 112.196 8.94989C107.778 8.94989 104.197 5.36887 104.196 0.951188L92.1914 0.951188C92.1905 5.36872 88.6091 8.94956 84.1914 8.94956C79.7736 8.94956 76.1922 5.36872 76.1914 0.951188L64.194 0.951188V0.951506C64.194 5.36978 60.6123 8.95151 56.194 8.95151C51.7757 8.95151 48.194 5.36978 48.194 0.951506V0.951188L36.1892 0.951172Z" fill="#B6CAFA"/>
</svg>
