<svg width="1308" height="1088" viewBox="0 0 1308 1088" fill="none" xmlns="http://www.w3.org/2000/svg">
<path fill-rule="evenodd" clip-rule="evenodd" d="M537.031 687.035L537.077 687.035H578.031H694.031H776.031C785.42 687.035 793.031 679.424 793.031 670.035V572.035C793.031 562.646 785.42 555.035 776.031 555.035H578.031C568.642 555.035 561.031 562.646 561.031 572.035V625.035H554.031V477.035H560.721V530.051C560.721 540.696 570.392 548.722 580.854 546.76L779.168 509.576C787.209 508.069 793.035 501.048 793.035 492.867L793.035 57.4953C793.035 49.4075 787.337 42.4395 779.41 40.8338L581.096 0.662434C570.565 -1.4708 560.721 6.57912 560.721 17.3241V66.0351H554.031V17.0352C554.031 7.6463 546.42 0.0351562 537.031 0.0351562L17.0312 0.0352077C7.64238 0.0352086 0.0312401 7.64635 0.0312411 17.0352L0.0312712 66.0352L0.0313093 670.035C0.0313102 679.424 7.64246 687.035 17.0313 687.035L505.031 687.035L537.031 687.035Z" fill="#B6CAFA"/>
<rect width="354" height="285" rx="17" transform="matrix(-1.04377e-07 -1 -1 9.58101e-08 285 1087.04)" fill="#B6CAFA"/>
<rect width="220" height="358" transform="matrix(-9.69146e-08 -1 -1 1.02404e-07 358 1019.04)" fill="#B6CAFA"/>
<path d="M391 1051.04C400.389 1051.04 408 1043.42 408 1034.04L408 784.035C408 774.646 400.389 767.035 391 767.035L306 767.035C296.611 767.035 289 774.646 289 784.035L289 1034.04C289 1043.42 296.611 1051.04 306 1051.04L391 1051.04Z" fill="#B6CAFA"/>
<path fill-rule="evenodd" clip-rule="evenodd" d="M1070.02 979.433V983.034H1057.63C1048.24 983.034 1040.63 990.645 1040.63 1000.03V1007.34C1034.98 1003.1 1027.96 1000.58 1020.35 1000.58H1015.79C997.13 1000.58 982 1015.71 982 1034.38C982 1053.04 997.13 1068.17 1015.79 1068.17H1020.35C1027.96 1068.17 1034.98 1065.66 1040.63 1061.41V1069.03C1040.63 1078.42 1048.24 1086.03 1057.63 1086.03L1290.63 1086.03C1300.02 1086.03 1307.63 1078.42 1307.63 1069.03V1000.03C1307.63 990.645 1300.02 983.034 1290.63 983.034H1277.64V979.255C1278.64 979.11 1279.62 978.877 1280.58 978.556L1296.01 973.398C1302.95 971.081 1307.63 964.587 1307.63 957.275V756.196C1307.63 748.884 1302.95 742.391 1296.01 740.073L1280.58 734.915C1279.62 734.595 1278.64 734.361 1277.64 734.216V734.035L1070.02 734.035V734.039L999 734.039C989.611 734.039 982 741.65 982 751.039L982 962.433C982 971.822 989.611 979.433 999 979.433H1070.02Z" fill="#B6CAFA"/>
<path fill-rule="evenodd" clip-rule="evenodd" d="M871.733 804.035C871.735 804.035 871.737 804.035 871.738 804.035L924.047 804.035C933.436 804.035 941.047 811.646 941.047 821.035L941.047 1070.04C941.047 1079.42 933.436 1087.04 924.047 1087.04L870.051 1087.04L525.047 1087.04L470.051 1087.04C460.662 1087.04 453.051 1079.42 453.051 1070.04L453.051 819.353C453.051 810.893 459.909 804.035 468.368 804.035L871.733 804.035Z" fill="#B6CAFA"/>
<path d="M885.381 799.035C896.407 799.035 904.516 788.701 901.893 777.991L894.055 745.991C892.192 738.385 885.374 733.035 877.543 733.035L478.55 733.035C470.719 733.035 463.901 738.385 462.038 745.991L454.201 777.991C451.578 788.701 459.687 799.035 470.713 799.035L885.381 799.035Z" fill="#B6CAFA"/>
<path d="M843.723 1049.04C856.052 1049.04 866.047 1039.04 866.047 1026.71L866.047 809.342C866.047 786.529 847.553 768.035 824.74 768.035L573.354 768.035C550.541 768.035 532.047 786.529 532.047 809.342L532.047 1026.71C532.047 1039.04 542.042 1049.04 554.371 1049.04L843.723 1049.04Z" fill="#B6CAFA"/>
</svg>
