<svg width="44" height="44" viewBox="0 0 44 44" fill="none" xmlns="http://www.w3.org/2000/svg">
<path fill-rule="evenodd" clip-rule="evenodd" d="M21.7939 1.49778e-05C9.73852 0.110672 0 9.91759 0 21.9991C0 34.0803 9.73809 43.887 21.7931 43.9981C21.5334 34.2702 21.3116 29.8257 18.3038 26.2599C15.1969 22.8004 11.3236 22.5645 2.83789 22.25V21.7783C11.3236 21.4795 15.1969 21.2279 18.3038 17.7684C21.3148 14.1989 21.5201 9.7489 21.7939 1.49778e-05ZM22.2045 0C22.4645 9.7489 22.6836 14.1989 25.6946 17.7684C28.8014 21.2279 32.6748 21.4638 41.1605 21.7783V22.25C32.6748 22.5488 28.8014 22.8004 25.6946 26.2599C22.6867 29.8257 22.4787 34.2702 22.2054 43.9981C34.2611 43.8879 44 34.0808 44 21.9991C44 9.91705 34.2606 0.109783 22.2045 0Z" fill="#FFF9EF"/>
</svg>
