<svg width="1339" height="339" viewBox="0 0 1339 339" fill="none" xmlns="http://www.w3.org/2000/svg">
<path fill-rule="evenodd" clip-rule="evenodd" d="M865.538 273.575L854.733 307.107L856.371 308.236C860.865 311.332 866.223 313.902 872.404 315.974C878.593 318.048 885.231 319.489 892.31 320.306L892.323 320.307L892.336 320.309C899.611 321.074 907.273 321.041 915.316 320.223C923.462 319.568 931.665 317.944 939.924 315.359C950.247 312.127 959.363 307.857 967.242 302.527C975.277 297.153 981.731 291.01 986.54 284.075L986.553 284.057L986.566 284.038C991.304 276.95 994.35 269.307 995.676 261.127C997.185 252.815 996.529 244.245 993.779 235.458C990.938 226.383 986.71 219.288 980.95 214.415C975.49 209.481 969.217 206.05 962.161 204.143C955.166 202.1 947.692 201.187 939.756 201.383C932.106 201.356 924.452 201.609 916.793 202.143L916.773 202.144L916.753 202.146C910.29 202.695 903.995 203.191 897.869 203.635C891.972 203.852 886.521 203.667 881.509 203.09C876.832 202.481 872.895 201.175 869.636 199.232C866.71 197.212 864.549 194.199 863.231 189.99C861.151 183.343 862.388 176.919 867.306 170.469C872.399 163.956 880.926 158.661 893.273 154.796C900.01 152.687 905.872 151.666 910.89 151.654L910.944 151.653L910.998 151.651C916.249 151.426 920.827 151.919 924.768 153.072L924.838 153.092L924.908 153.109C929.112 154.095 932.634 155.424 935.516 157.061C938.558 158.789 941.124 160.537 943.232 162.299L945.863 164.498L961.125 132.92L959.341 131.601C949.76 124.522 938.307 120.32 925.075 118.923C911.842 117.527 898.067 119.097 883.776 123.57C873.779 126.699 864.912 130.895 857.198 136.176C849.502 141.446 843.234 147.529 838.438 154.438C833.561 161.218 830.452 168.724 829.126 176.926C827.792 185.18 828.533 193.713 831.28 202.49C834.402 212.462 839.216 220.166 845.873 225.337L845.887 225.348L845.901 225.359C852.286 230.185 859.547 233.458 867.647 235.187L867.673 235.192L867.699 235.197C875.613 236.724 883.951 237.247 892.703 236.779L892.71 236.779L892.716 236.778C901.461 236.267 909.902 235.666 918.039 234.976C923.58 234.524 928.801 234.262 933.706 234.187L933.719 234.187L933.733 234.186C938.664 234.063 942.991 234.548 946.742 235.599L946.816 235.619L946.89 235.636C950.706 236.472 953.887 237.967 956.5 240.077L956.528 240.099L956.556 240.121C958.954 241.955 960.798 244.669 961.986 248.464C962.958 251.571 963.15 254.756 962.55 258.058C961.907 261.145 960.428 264.258 958.005 267.401L957.985 267.427L957.966 267.453C955.736 270.496 952.474 273.52 948.082 276.495C943.875 279.202 938.515 281.601 931.944 283.658C924.549 285.973 917.705 287.213 911.398 287.419C905.162 287.575 899.386 287.06 894.06 285.892C888.661 284.709 883.82 283.193 879.525 281.355C875.231 279.246 871.539 277.242 868.437 275.347L865.538 273.575ZM1001.97 195.576L1001.97 195.592L1001.97 195.608C1001.69 204.519 1002.94 213.414 1005.72 222.282C1008.71 231.835 1013.06 240.254 1018.8 247.506L1018.8 247.513L1018.81 247.521C1024.49 254.595 1031.15 260.152 1038.8 264.154L1038.82 264.163L1038.84 264.172C1046.65 268.113 1055.28 270.415 1064.69 271.109L1064.72 271.111L1064.74 271.112C1074.16 271.634 1084.14 270.215 1094.67 266.918C1102.75 264.389 1109.63 261.295 1115.25 257.602C1120.79 254.166 1125.43 250.614 1129.13 246.933L1129.14 246.92L1129.16 246.906C1132.88 243.089 1135.89 239.459 1138.14 236.017L1138.14 236.011L1138.15 236.004C1140.4 232.515 1142.14 229.721 1143.38 227.634L1144.54 225.673L1120.95 206.041L1119.5 209.22C1118.58 211.235 1117.23 213.689 1115.44 216.597C1113.67 219.218 1111.43 221.838 1108.72 224.455C1106.02 227.06 1102.81 229.577 1099.09 231.997L1099.07 232.005L1099.06 232.013C1095.62 234.303 1091.66 236.162 1087.15 237.572C1076.36 240.95 1066.79 240.69 1058.29 237.026C1050.76 233.671 1044.8 228.152 1040.41 220.334L1132.11 191.627L1131.74 189.333C1130.03 179.031 1126.86 169.786 1122.19 161.632C1117.48 153.319 1111.52 146.576 1104.29 141.457C1097.14 136.089 1088.88 132.747 1079.57 131.406C1070.34 130.001 1060.33 131.042 1049.58 134.406C1039.33 137.614 1030.68 142.325 1023.71 148.587C1016.8 154.79 1011.5 161.951 1007.85 170.063L1007.85 170.067C1004.32 177.931 1002.37 186.443 1001.97 195.576ZM1089.62 170.41L1089.63 170.425L1089.64 170.44C1090.52 171.48 1091.34 172.62 1092.1 173.86L1092.1 173.859C1092.14 173.92 1092.17 173.981 1092.21 174.041C1092.68 174.821 1093.13 175.639 1093.56 176.498C1095.53 180.336 1096.5 183.415 1096.5 183.415L1090.13 189.051C1090.13 189.051 1082.32 183.108 1064.37 188.435C1046.53 194.296 1042.98 203.713 1042.98 203.713L1034.69 202.662C1034.69 202.662 1034.22 200.587 1033.94 197.266C1033.73 195.356 1033.67 193.537 1033.74 191.806C1033.74 191.727 1033.74 191.647 1033.74 191.567L1033.75 191.566C1033.82 190.153 1033.98 188.799 1034.24 187.503C1035.22 182.839 1036.8 178.839 1038.95 175.46C1041.31 171.964 1044.08 169.045 1047.27 166.681C1050.7 164.207 1054.02 162.497 1057.23 161.492C1061.31 160.214 1065.34 159.726 1069.34 160.005L1069.4 160.008L1069.45 160.01C1073.35 160.132 1076.98 161.083 1080.38 162.862L1080.42 162.88L1080.45 162.898C1083.76 164.504 1086.82 166.98 1089.62 170.41ZM1113.47 55.0022L1171.25 239.615L1202.91 229.707L1145.12 45.0942L1113.47 55.0022ZM1283.87 21.0648C1277.36 15.2709 1270.04 11.7921 1261.95 10.7363C1253.87 9.52134 1244.87 10.5378 1235 13.6264C1226.15 16.3971 1218.74 20.2398 1212.85 25.2137C1207.12 29.9347 1202.77 35.5127 1199.86 41.9422L1199.86 41.9476C1197.07 48.123 1195.61 54.932 1195.41 62.3381L1195.41 62.3595L1195.41 62.3809C1195.34 69.5585 1196.49 76.8961 1198.83 84.3833L1200.72 90.4266L1175.69 98.2616L1184.41 126.122L1209.44 118.287L1240.62 217.9L1272.28 207.992L1241.09 108.379L1294.44 91.6797L1285.72 63.8197L1260.49 71.7182C1255.41 73.4455 1246.3 76.9781 1239.14 82.1477C1231.82 87.4277 1224.94 97.1894 1224.47 97.9523L1217.95 93.264C1217.95 93.264 1224.36 84.4065 1225.88 80.9732C1227.03 78.3717 1228.44 74.8741 1228.43 71.2062C1228.42 68.9552 1228 66.864 1227.21 64.0181L1227.22 64.0174C1226.09 59.9666 1226.39 56.1297 1228.12 52.3892L1228.13 52.3612L1228.14 52.3328C1229.73 48.6762 1233.81 45.4243 1241.43 43.0363C1245.97 41.6154 1250.41 41.628 1254.81 43.0529L1254.85 43.0646L1254.88 43.0752C1259.5 44.4257 1262.56 46.2449 1264.41 48.3385L1266.71 50.9532L1285.61 22.6117L1283.87 21.0648Z" fill="#FB6217"/>
<path fill-rule="evenodd" clip-rule="evenodd" d="M4.54806 237.283L0 266.056L0.27436 267.623C1.02683 271.921 1.99895 275.974 3.18035 279.798C4.36314 283.626 5.68409 286.984 7.14088 289.878L7.14363 289.883L7.1464 289.889C8.64844 292.792 10.2865 295.05 12.0586 296.672C13.8414 298.48 15.7016 299.381 17.6377 299.381C20.0577 299.381 22.2893 298.029 24.328 295.296C26.4027 292.568 28.1911 288.633 29.6814 283.452L29.6854 283.438L29.6894 283.423C31.1749 278.075 32.3359 271.69 33.1657 264.281C34.0434 256.799 34.4762 248.425 34.4762 239.217C34.4762 229.708 34.0477 221.673 33.1436 215.302C32.3075 208.963 31.1976 203.814 29.8185 199.887C28.4616 195.847 26.9268 192.744 25.2192 190.559C23.5878 188.248 21.9366 186.203 20.2657 184.425L20.2613 184.42L20.2569 184.416C18.8403 183.009 17.4632 181.602 16.1255 180.196C14.852 178.641 13.7003 176.836 12.6688 174.788C11.7109 172.81 10.9577 170.387 10.3916 167.559C9.90189 164.758 9.64194 161.237 9.64194 156.826C9.64194 149.861 10.3355 144.1 11.8165 139.414C13.3391 134.72 15.5139 132.214 18.4082 132.214C19.9877 132.214 21.3074 132.99 22.3798 134.478L22.3913 134.494L22.403 134.508C23.5391 135.862 24.4835 137.699 25.248 139.977L25.2615 140.017L25.2755 140.054C26.1071 142.251 26.7702 144.571 27.2762 146.994C27.8103 149.552 28.2411 151.988 28.5735 154.299L28.9884 157.183L34.3574 131.606L34.0646 129.815C32.4922 120.197 30.3277 112.765 27.5958 107.48C24.8637 102.194 21.8177 99.5767 18.4675 99.5767C16.124 99.5767 13.9502 100.931 11.9504 103.668C9.95501 106.398 8.21004 110.33 6.72432 115.491C5.22999 120.505 4.06448 126.739 3.23317 134.171C2.39666 141.649 1.98458 150.014 1.98458 159.21C1.98458 169.66 2.49758 178.451 3.57324 185.374L3.5755 185.389L3.57781 185.403C4.61861 191.916 5.95002 197.209 7.56406 201.279L7.56919 201.292L7.57437 201.304C9.16215 205.126 10.9074 208.115 12.8073 210.283L12.8087 210.285L12.8102 210.286C14.7115 212.411 16.5539 214.359 18.3374 216.131C19.5504 217.355 20.6829 218.665 21.7352 220.058L21.738 220.062L21.7408 220.066C22.802 221.421 23.6933 223.177 24.424 225.3L24.4384 225.341L24.4532 225.379C25.212 227.317 25.7913 229.694 26.2081 232.488L26.2126 232.518L26.2172 232.547C26.6067 235.014 26.8189 238.155 26.8189 242.132C26.8189 245.387 26.647 248.484 26.2982 251.456C25.9545 254.21 25.4306 256.739 24.7033 259.015L24.6974 259.033L24.6915 259.053C24.0121 261.29 23.1136 263.201 21.9768 264.729C20.8978 266.055 19.5929 266.744 18.0526 266.744C16.319 266.744 14.7747 265.883 13.4143 264.195C12.0725 262.481 10.8738 260.264 9.81457 257.559C8.74097 254.817 7.80871 251.924 7.0144 248.887C6.23868 245.591 5.58416 242.576 5.04859 239.84L4.54806 237.283ZM38.8906 203.602L38.8894 203.618L38.8882 203.634C38.2329 212.054 37.9066 220.918 37.9066 230.21C37.9066 240.22 38.2733 249.555 39.0131 258.189L39.0138 258.198L39.0146 258.207C39.7542 266.654 40.8058 273.948 42.1716 280.053L42.1747 280.067L42.1779 280.081C43.5828 286.175 45.2713 290.951 47.2346 294.424L47.2397 294.433L47.2448 294.442C49.22 297.753 51.4466 299.381 53.9154 299.381C55.8095 299.381 57.4847 298.483 58.9323 296.638C60.3444 295.013 61.5721 293.009 62.6079 290.602L62.6117 290.593L62.6155 290.583C63.6663 288.054 64.5509 285.489 65.2608 282.875L65.2622 282.87L65.2635 282.865C65.977 280.208 66.5369 278.063 66.9403 276.441L67.3193 274.916L63.5957 249.135L63.0724 251.734C62.7408 253.381 62.2893 255.321 61.7118 257.56C61.1588 259.532 60.507 261.366 59.7526 263.052C59.0013 264.731 58.1486 266.175 57.1917 267.373L57.1886 267.377L57.1855 267.381C56.2977 268.538 55.3274 269.128 54.271 269.128C51.741 269.128 49.7154 266.021 48.1443 259.984C46.761 254.533 45.8572 247.485 45.443 238.713H66.9417L67.0141 236.41C67.3388 226.069 67.2798 216.3 66.8284 207.124C66.3776 197.783 65.5548 189.565 64.3538 182.521C63.1862 175.263 61.6461 169.606 59.7474 165.545C57.8708 161.446 55.6636 159.45 53.1449 159.45C50.742 159.45 48.5805 161.362 46.6729 165.255C44.7834 169.11 43.1736 174.361 41.8511 181.011L41.8504 181.015C40.572 187.466 39.5863 195.006 38.8906 203.602ZM59.2868 205.771L59.2884 205.788L59.29 205.806C59.4068 207.059 59.5056 208.391 59.5856 209.802L59.5898 209.801C59.889 215.418 59.889 220.233 59.889 220.233L58.1535 223.71C58.1535 223.71 56.885 215.721 52.7068 215.426C48.4939 215.671 47.1018 223.618 47.1018 223.618L45.4034 220.14C45.4034 220.14 45.4412 217.972 45.6077 214.658C45.6892 212.845 45.7934 211.152 45.9194 209.576L45.942 209.268L45.9442 209.27C46.0538 207.943 46.179 206.699 46.3195 205.538C46.8409 201.38 47.4465 198.036 48.1311 195.453C48.8683 192.821 49.6552 190.864 50.4929 189.559C51.3908 188.223 52.2143 187.583 52.967 187.583C53.9238 187.583 54.8175 188.322 55.6532 189.783L55.6639 189.802L55.6747 189.819C56.4994 191.101 57.2119 193.093 57.8189 195.807L57.8254 195.835L57.832 195.863C58.4312 198.384 58.9191 201.662 59.2868 205.771ZM72.0913 102.756V296.202H79.5116V102.756H72.0913ZM110.743 121.275C109.74 113.799 108.41 108.293 106.753 104.868C105.11 101.296 103.119 99.5767 100.806 99.5767C98.7311 99.5767 96.892 101.03 95.3026 104.018C93.7629 106.811 92.4617 110.835 91.4099 116.101L91.409 116.105C90.4023 121.167 89.6336 127.226 89.0971 134.236L89.0955 134.257L89.094 134.277C88.5986 141.105 88.3536 148.451 88.3536 156.296V162.629H82.4858V191.822H88.3536V296.202H95.7739V191.822H108.28V162.629H102.351C101.148 162.763 98.9777 163.42 97.1101 166.203C95.195 169.056 93.0726 176.315 92.921 176.902L91.8438 170.483C91.8438 170.483 93.8044 163.944 94.3572 161.12C94.7761 158.98 95.3113 156.064 95.5541 152.561C95.7031 150.41 95.7528 148.289 95.7755 145.338L95.776 145.339C95.8049 141.135 96.1272 137.566 96.7454 134.512L96.75 134.49L96.7545 134.466C97.3373 131.45 98.425 129.564 100.213 129.564C101.278 129.564 102.223 130.901 103.068 133.576L103.075 133.598L103.082 133.619C103.977 136.287 104.51 138.939 104.764 141.487L105.08 144.67L111.011 123.27L110.743 121.275Z" fill="#FB6217"/>
<path fill-rule="evenodd" clip-rule="evenodd" d="M260.657 206.461L240.328 214.91L241.554 215.37C244.918 216.632 249.263 217.822 254.544 218.945C259.83 220.069 265.735 221.055 272.246 221.904L272.259 221.906L272.271 221.908C278.985 222.76 286.307 223.423 294.227 223.899C302.196 224.43 310.511 224.695 319.165 224.695C329.982 224.695 339.956 224.298 349.069 223.495C358.342 222.694 366.336 221.539 372.997 220.017L373.015 220.013L373.033 220.009C379.673 218.439 384.862 216.564 388.572 214.388C392.495 212.191 394.429 209.732 394.429 207.029C394.429 204.237 392.514 201.877 388.473 200.007C384.736 198.145 379.774 196.633 373.61 195.48C367.545 194.294 360.685 193.383 353.053 192.741C345.761 192.063 338.38 191.462 330.911 190.94L330.892 190.939L330.872 190.937C324.54 190.524 318.385 190.111 312.405 189.698C306.713 189.242 301.566 188.712 296.955 188.11C292.673 187.53 289.306 186.818 286.776 185.988C284.587 185.165 283.425 184.131 283.425 182.836C283.425 180.791 286.525 179.099 293.145 177.723C299.951 176.345 309.672 175.609 322.609 175.609C329.669 175.609 335.568 175.837 340.361 176.274L340.412 176.279L340.464 176.283C345.543 176.68 349.764 177.22 353.181 177.889L353.242 177.901L353.304 177.911C357.021 178.556 359.985 179.238 362.247 179.949C364.634 180.7 366.56 181.415 368.045 182.094L369.9 182.941L393.898 175.431L392.59 174.905C385.561 172.081 375.886 169.898 363.675 168.346C351.463 166.794 337.849 166.026 322.874 166.026C312.399 166.026 302.683 166.424 293.744 167.227C284.825 168.029 277.025 169.183 270.384 170.699C263.705 172.171 258.495 174.002 254.78 176.184C251.041 178.38 249.199 180.836 249.199 183.536C249.199 186.605 251.492 189.186 256.3 191.219L256.31 191.223L256.32 191.227C260.972 193.14 266.923 194.694 274.138 195.889L274.161 195.893L274.184 195.896C281.281 197.018 289.082 197.896 297.574 198.533L297.58 198.533L297.587 198.534C306.085 199.158 314.32 199.73 322.292 200.25C327.714 200.609 332.776 200.994 337.48 201.403L337.492 201.404L337.505 201.405C342.248 201.803 346.232 202.319 349.498 202.942L349.562 202.954L349.629 202.966C353.02 203.535 355.61 204.232 357.473 205.053L357.493 205.062L357.513 205.07C359.254 205.795 360.203 206.717 360.203 207.885C360.203 208.84 359.435 209.75 357.875 210.622C356.339 211.431 353.997 212.174 350.747 212.842L350.72 212.847L350.694 212.853C347.657 213.51 343.641 214.071 338.56 214.52C333.737 214.909 327.904 215.111 321.019 215.111C313.271 215.111 306.368 214.859 300.287 214.363C294.289 213.86 288.931 213.209 284.197 212.415C279.398 211.609 275.231 210.76 271.681 209.868C268.214 208.9 265.288 208.015 262.894 207.212L260.657 206.461ZM414.161 196.571L414.155 196.576L414.15 196.58C411.221 199.053 409.762 201.655 409.762 204.384C409.762 207.323 411.402 210.064 414.708 212.599L414.711 212.602L414.715 212.605C418.021 215.085 422.721 217.227 428.826 219.019L428.84 219.024L428.854 219.028C435.134 220.817 442.681 222.219 451.457 223.239L451.479 223.242L451.502 223.245C460.331 224.217 470.283 224.695 481.318 224.695C489.785 224.695 497.272 224.431 503.743 223.889C510.054 223.412 515.542 222.824 520.172 222.117L520.189 222.114L520.206 222.112C524.903 221.369 528.856 220.616 532.03 219.848L532.036 219.847L532.042 219.845C535.231 219.065 537.733 218.435 539.537 217.959L541.23 217.511L524.587 209.941L522.248 210.704C520.766 211.188 518.748 211.757 516.166 212.415C513.694 212.994 510.781 213.532 507.409 214.028C504.051 214.521 500.24 214.945 495.962 215.296L495.949 215.297L495.935 215.298C491.966 215.638 487.629 215.812 482.908 215.812C471.599 215.812 462.545 214.899 455.523 213.127C449.34 211.526 445.3 209.456 443.448 206.881H539.543L539.866 206.205C541.318 203.168 541.054 200.299 539.037 197.605C537.021 194.862 533.344 192.449 527.975 190.381C522.756 188.25 515.873 186.589 507.386 185.396C498.998 184.193 489.132 183.606 477.874 183.606C467.134 183.606 457.472 184.168 448.946 185.311C440.5 186.443 433.305 187.985 427.393 189.938L427.39 189.939C421.676 191.833 417.27 194.047 414.161 196.571ZM505.327 197.208L505.334 197.213L505.341 197.218C506.246 197.855 506.907 198.561 507.312 199.339C508.006 200.553 508.006 201.466 508.006 201.466L500.249 202.487C500.249 202.487 494.398 200.067 475.009 200.052C456.885 200.194 450.863 202.452 450.863 202.452L443.272 201.431C443.272 201.431 443.436 200.812 444.155 199.861C444.535 199.295 445.029 198.769 445.632 198.281L445.679 198.239L445.684 198.239C446.175 197.848 446.736 197.482 447.366 197.139C449.697 195.919 452.403 194.937 455.463 194.178C458.758 193.406 462.276 192.831 466.02 192.448C470.034 192.055 473.714 191.867 477.079 191.867C481.355 191.867 485.35 192.084 489.086 192.513L489.133 192.519L489.182 192.524C492.868 192.9 496.053 193.485 498.766 194.282L498.795 194.291L498.824 194.299C501.503 195.039 503.683 196.001 505.327 197.208ZM562.56 166.959V223.761H595.727V166.959H562.56ZM735.326 172.397C730.841 170.202 724.895 168.585 717.489 167.58C710.145 166.531 701.249 166.026 690.909 166.026C681.635 166.026 673.414 166.453 666.31 167.33C659.428 168.15 653.612 169.332 648.91 170.878L648.906 170.879C644.407 172.366 640.971 174.145 638.573 176.203L638.566 176.209L638.559 176.215C636.344 178.22 635.249 180.377 635.249 182.681V184.54H609.022V193.112H635.249V223.761H668.416V193.112H724.316V184.54H697.37C691.916 184.587 682.508 184.791 674.383 185.586C665.823 186.424 656.336 188.555 655.659 188.728L650.844 186.843C650.844 186.843 659.607 184.923 662.078 184.094C663.951 183.465 666.343 182.609 667.428 181.58C668.094 180.949 668.316 180.326 668.418 179.459L668.426 179.46C668.558 178.227 669.998 177.18 672.759 176.284L672.779 176.277L672.8 176.271C675.404 175.385 680.266 174.831 688.26 174.831C693.017 174.831 697.243 175.224 701.02 176.009L701.051 176.016L701.082 176.022C705.084 176.805 707.467 177.584 708.599 178.332L710.014 179.267L736.524 172.983L735.326 172.397Z" fill="#FB6217"/>
</svg>
