<svg width="1920" height="1761" viewBox="0 0 1920 1761" fill="none" xmlns="http://www.w3.org/2000/svg">
<path fill-rule="evenodd" clip-rule="evenodd" d="M0 1593V223L1.84857e-05 30C1.8678e-05 13.4315 13.4315 0 30 0L1890 2.31606e-05C1906.23 2.33595e-05 1919.46 12.8944 1919.98 29H1920V30V268V1542V1593V1731C1920 1747.57 1906.57 1761 1890 1761H994C977.431 1761 964 1747.57 964 1731V1623H955V1731C955 1747.57 941.569 1761 925 1761H30C13.4315 1761 0 1747.57 0 1731L6.85645e-06 1593.02C2.28573e-06 1593.01 0 1593.01 0 1593Z" fill="#87AAFF"/>
</svg>
