<svg width="1920" height="1080" viewBox="0 0 1920 1080" fill="none" xmlns="http://www.w3.org/2000/svg">
<path fill-rule="evenodd" clip-rule="evenodd" d="M4.17418e-06 857L1.87959e-05 99L677.353 99V220.941H700.531V221.073L1920 221V791.5H1920V1080H702.341C678.04 1080 658.341 1060.3 658.341 1036V980H639.331L639.331 1036C639.331 1060.3 619.632 1080 595.331 1080H44.0001C19.6995 1080 0 1060.3 0 1036V980L4.17418e-06 857Z" fill="#FF5400"/>
<path d="M1920 0.000133831L1920 288.5L657.996 288.5L658.221 43.9596C658.243 19.6749 677.936 0.000133831 702.221 0.000133831L1920 0.000133831Z" fill="#FF5400"/>
<path d="M595.606 -3.8794e-06C620.06 -1.74249e-06 639.822 19.9395 639.604 44.3925L638.011 223L0.999983 223L1.00067 -5.58391e-05L595.606 -3.8794e-06Z" fill="#FF5400"/>
</svg>
