<svg width="179" height="71" viewBox="0 0 179 71" fill="none" xmlns="http://www.w3.org/2000/svg">
<g clip-path="url(#clip0_444_2276)">
<path d="M8.85898 0.301758V14.1395H5.27898V0.301758H0V34.8054H5.27898V19.6383H8.85898V34.8054H14.0773V0.301758H8.85898Z" fill="#FF5400"/>
<path d="M23.0571 35.1683H22.0256C17.8388 35.1683 15.5938 32.8721 15.5938 28.6422V21.7536H20.8121V27.7962C20.8121 29.3673 21.2975 30.2133 22.511 30.2133C23.7853 30.2133 24.21 29.3673 24.21 27.2524V26.4669C24.21 23.9894 23.9673 23.1434 22.0863 20.6659L18.8097 16.3756C16.5646 13.4751 15.8971 11.2998 15.8971 7.85546V6.76778C15.8971 2.11493 18.2636 0 22.3897 0H23.3605C27.6687 0 29.3677 1.87323 29.3677 5.98224V11.6623H24.2707V6.64693C24.2707 5.49882 24.028 4.59242 22.7538 4.59242C21.4795 4.59242 21.2368 5.37797 21.2368 7.00949V7.67418C21.2368 9.60783 21.6009 10.6955 23.3605 12.9313L26.6978 17.2216C29.0643 20.3033 29.7924 22.0557 29.7924 25.923V27.0107C29.8531 32.147 27.6687 35.1683 23.0571 35.1683Z" fill="#FF5400"/>
<path d="M43.3247 0.302734V5.31814H36.6501V14.3821H41.8684V19.5788H36.6501V29.5492H43.628V34.8063H31.3711V0.302734H43.3247Z" fill="#FF5400"/>
<path d="M57.8266 28.3407H54.0039L53.2757 34.8063H48.6035L52.851 0.302734H59.1008L63.591 34.8063H58.494L57.8266 28.3407ZM57.2198 23.2044L55.8242 10.4544L54.4893 23.2044H57.2198V23.2044Z" fill="#FF5400"/>
<path d="M69.6579 34.8063H64.3789V0.302734H72.8738C76.3931 0.302734 78.1528 1.8134 78.1528 5.62028V11.7234C78.1528 14.6238 76.8179 15.7115 75.847 16.1345C76.9999 16.6179 78.1528 17.5847 78.1528 19.881V31.9663C78.1528 33.3561 78.4562 34.0208 78.6382 34.5042V34.7459H73.4199C73.1772 34.3833 72.9345 33.7791 72.9345 31.9059V21.5729C72.9345 20.0622 72.6311 19.3975 70.9928 19.3975H69.6579V34.8063ZM69.6579 14.503H71.0535C72.5098 14.503 72.9345 13.5966 72.9345 12.0255V7.19137C72.9345 5.6807 72.6311 4.95558 71.0535 4.95558H69.6579V14.503Z" fill="#FF5400"/>
<path d="M88.8333 5.31814V34.8063H83.615V5.31814H79.1855V0.302734H93.2022V5.31814H88.8333Z" fill="#FF5400"/>
<path d="M107.401 28.3407H103.578L102.85 34.8063H98.1777L102.425 0.302734H108.614L113.105 34.8063H108.008L107.401 28.3407ZM106.794 23.2044L105.398 10.4544L104.063 23.2044H106.794Z" fill="#FF5400"/>
<path d="M118.747 0.301758L123.237 18.7923V0.301758H128.03V34.8054H123.783L118.747 14.9854V34.8054H113.953V0.301758H118.747Z" fill="#FF5400"/>
<path d="M129.973 0.302734H138.043C142.533 0.302734 143.929 2.84065 143.929 6.94966V27.9177C143.929 32.1476 142.351 34.8063 138.043 34.8063H129.973V0.302734ZM135.252 29.7909H136.526C138.104 29.7909 138.589 28.945 138.589 27.1322V7.67478C138.589 5.6807 138.104 5.01601 136.769 5.01601H135.252V29.7909Z" fill="#FF5400"/>
<path d="M0 35.5312H8.07017C12.5603 35.5312 13.9559 38.0692 13.9559 42.1782V63.1462C13.9559 67.3761 12.3783 70.0349 8.07017 70.0349H0V35.5312ZM5.27898 64.959H6.55322C8.13085 64.959 8.61627 64.113 8.61627 62.3002V42.9033C8.61627 40.9092 8.13085 40.2445 6.79593 40.2445H5.27898V64.959Z" fill="#FF5400"/>
<path d="M27.7914 35.5312V40.4862H21.0562V49.5502H26.3352V54.8073H21.0562V64.7777H28.0948V69.9744H15.8379V35.5312H27.7914Z" fill="#FF5400"/>
<path d="M36.4673 70.3364H35.4358C31.249 70.3364 29.0039 68.0402 29.0039 63.8103V56.9217H34.2222V62.9643C34.2222 64.5354 34.7076 65.3814 35.9212 65.3814C37.1954 65.3814 37.6202 64.5354 37.6202 62.4205V61.635C37.6202 59.1575 37.3775 58.3115 35.4964 55.834L32.1592 51.5437C29.9141 48.6432 29.2466 46.4679 29.2466 43.0235V41.9359C29.2466 37.3434 31.5524 35.2285 35.7392 35.2285H36.71C41.0181 35.2285 42.7171 37.1017 42.7171 41.2108V46.8909H37.6202V41.9359C37.6202 40.7878 37.3775 39.8814 36.1032 39.8814C34.829 39.8814 34.5863 40.6669 34.5863 42.2984V42.9027C34.5863 44.8364 34.9503 45.924 36.71 48.1598L40.0473 52.4501C42.4137 55.5319 43.1419 57.2842 43.1419 61.1515V62.2392C43.2632 67.3755 41.0788 70.3364 36.4673 70.3364Z" fill="#FF5400"/>
<path d="M49.9977 35.5312H44.7188V70.0349H49.9977V35.5312Z" fill="#FF5400"/>
<path d="M56.8546 70.4571C53.76 70.4571 51.8184 67.7379 51.8184 64.1728V42.6004C51.8184 38.7331 53.3353 35.168 58.3109 35.168H59.3424C64.9855 35.168 65.6529 38.854 65.6529 42.9026V46.4073H60.556V42.54C60.556 41.0294 60.1919 40.1834 58.857 40.1834C57.7648 40.1834 57.2187 41.0294 57.2187 42.54V62.7225C57.2187 64.354 57.8861 65.2 58.9177 65.2C60.2526 65.2 60.8594 64.2936 60.8594 62.9642V54.3232H58.4929V49.0661H65.835V70.0341H62.8617C62.8011 69.8529 62.3763 68.1609 61.9516 66.6502C61.5875 67.7984 59.8278 70.5176 57.158 70.5176H56.8546V70.4571Z" fill="#FF5400"/>
<path d="M72.3891 35.5312L76.8793 54.0218V35.5312H81.6729V69.9744H77.4254L72.3891 50.1545V69.9744H67.6562V35.5312H72.3891Z" fill="#FF5400"/>
<path d="M95.3853 70.3364H94.3538C90.167 70.3364 87.9219 68.0402 87.9219 63.8103V56.9217H93.1402V62.9643C93.1402 64.5354 93.6256 65.3814 94.8392 65.3814C96.1134 65.3814 96.5382 64.5354 96.5382 62.4205V61.635C96.5382 59.1575 96.2955 58.3115 94.4144 55.834L91.0771 51.5437C88.8321 48.6432 88.1646 46.4679 88.1646 43.0235V41.9359C88.1646 37.3434 90.4704 35.2285 94.6571 35.2285H95.628C99.9361 35.2285 101.635 37.1017 101.635 41.2108V46.8909H96.5382V41.9359C96.5382 40.7878 96.2955 39.8814 95.0212 39.8814C93.747 39.8814 93.5043 40.6669 93.5043 42.2984V42.9027C93.5043 44.8364 93.8683 45.924 95.628 48.1598L98.9653 52.4501C101.332 55.5319 102.06 57.2842 102.06 61.1515V62.2392C102.181 67.3755 99.9968 70.3364 95.3853 70.3364Z" fill="#FF5400"/>
<path d="M112.316 62.9643V54.988H117.474V62.9643C117.474 66.6503 116.26 70.3968 111.163 70.3968H110.01C104.731 70.3968 103.518 66.5899 103.518 63.1456V42.1171C103.518 38.6124 105.035 35.2285 109.828 35.2285H111.042C116.806 35.2285 117.474 39.0354 117.474 42.4193V48.5828H112.316V42.5401C112.316 41.0295 111.83 40.2439 110.556 40.2439C109.282 40.2439 108.918 40.969 108.918 42.5401V63.0248C108.918 64.5354 109.403 65.3814 110.617 65.3814C111.83 65.321 112.316 64.3541 112.316 62.9643Z" fill="#FF5400"/>
<path d="M127.97 54.8073H124.39V69.9744H119.172V35.5312H124.39V49.3085H127.97V35.5312H133.249V69.9744H127.97V54.8073Z" fill="#FF5400"/>
<path d="M149.449 62.2995C149.449 67.1336 147.811 70.3967 142.774 70.3967H141.864C136.828 70.3967 135.068 67.1336 135.068 62.2995V43.0839C135.068 38.3102 136.889 35.168 141.804 35.168H142.714C147.811 35.168 149.449 38.3102 149.449 43.0234V62.2995ZM144.109 42.8421C144.109 41.0294 143.503 40.1834 142.289 40.1834C140.954 40.1834 140.408 41.0898 140.408 42.8421V62.6621C140.408 64.1727 140.833 65.3208 142.289 65.3208C143.685 65.3208 144.049 64.1727 144.049 62.6621V42.8421H144.109Z" fill="#FF5400"/>
<path d="M165.529 62.2995C165.529 67.1336 163.891 70.3967 158.855 70.3967H157.944C152.908 70.3967 151.148 67.1336 151.148 62.2995V43.0839C151.148 38.3102 152.969 35.168 157.884 35.168H158.794C163.891 35.168 165.529 38.3102 165.529 43.0234V62.2995V62.2995ZM160.129 42.8421C160.129 41.0294 159.522 40.1834 158.308 40.1834C156.974 40.1834 156.427 41.0898 156.427 42.8421V62.6621C156.427 64.1727 156.852 65.3208 158.308 65.3208C159.704 65.3208 160.068 64.1727 160.068 62.6621V42.8421H160.129Z" fill="#FF5400"/>
<path d="M172.568 35.5312V64.6569H179V69.9744H167.289V35.5312H172.568Z" fill="#FF5400"/>
<rect x="117.363" y="70.2715" width="512.705" height="116.475" fill="#C4C4C4"/>
</g>
<defs>
<clipPath id="clip0_444_2276">
<rect width="179" height="70.4574" fill="white"/>
</clipPath>
</defs>
</svg>
