<svg width="477" height="113" viewBox="0 0 477 113" fill="none" xmlns="http://www.w3.org/2000/svg">
<path fill-rule="evenodd" clip-rule="evenodd" d="M36 0C36 4.41828 32.4183 8 28 8C23.5817 8 20 4.41828 20 0H8C8 4.41828 4.41828 8 0 8V20C4.41828 20 8 23.5817 8 28C8 32.4183 4.41828 36 0 36V48C4.41828 48 8 51.5817 8 56C8 60.4183 4.41828 64 0 64V76C4.41828 76 8 79.5817 8 84C8 88.4183 4.41828 92 0 92V104C4.41828 104 8 107.582 8 112C8 112.339 7.97896 112.672 7.93811 113H20.0619C20.021 112.672 20 112.339 20 112C20 107.582 23.5817 104 28 104C32.4183 104 36 107.582 36 112C36 112.339 35.979 112.672 35.9381 113H48.0619C48.021 112.672 48 112.339 48 112C48 107.582 51.5817 104 56 104C60.4183 104 64 107.582 64 112C64 112.339 63.979 112.672 63.9381 113H76.0619C76.021 112.672 76 112.339 76 112C76 107.582 79.5817 104 84 104C88.4183 104 92 107.582 92 112C92 112.339 91.979 112.672 91.9381 113H104.062C104.021 112.672 104 112.339 104 112C104 107.582 107.582 104 112 104C116.418 104 120 107.582 120 112C120 112.339 119.979 112.672 119.938 113H132.062C132.021 112.672 132 112.339 132 112C132 107.582 135.582 104 140 104C144.418 104 148 107.582 148 112C148 112.339 147.979 112.672 147.938 113H160.062C160.021 112.672 160 112.339 160 112C160 107.582 163.582 104 168 104C172.418 104 176 107.582 176 112C176 112.339 175.979 112.672 175.938 113H188.062C188.021 112.672 188 112.339 188 112C188 107.582 191.582 104 196 104C200.418 104 204 107.582 204 112C204 112.339 203.979 112.672 203.938 113H216.062C216.021 112.672 216 112.339 216 112C216 107.582 219.582 104 224 104C228.418 104 232 107.582 232 112C232 112.339 231.979 112.672 231.938 113H244.062C244.021 112.672 244 112.339 244 112C244 107.582 247.582 104 252 104C256.418 104 260 107.582 260 112C260 112.339 259.979 112.672 259.938 113H272.062C272.021 112.672 272 112.339 272 112C272 107.582 275.582 104 280 104C284.418 104 288 107.582 288 112C288 112.339 287.979 112.672 287.938 113H300.062C300.021 112.672 300 112.339 300 112C300 107.582 303.582 104 308 104C312.418 104 316 107.582 316 112C316 112.339 315.979 112.672 315.938 113H328.062C328.021 112.672 328 112.339 328 112C328 107.582 331.582 104 336 104C340.418 104 344 107.582 344 112C344 112.339 343.979 112.672 343.938 113H356.062C356.021 112.672 356 112.339 356 112C356 107.582 359.582 104 364 104C368.418 104 372 107.582 372 112C372 112.339 371.979 112.672 371.938 113H384.062C384.021 112.672 384 112.339 384 112C384 107.582 387.582 104 392 104C396.418 104 400 107.582 400 112C400 112.339 399.979 112.672 399.938 113H412.062C412.021 112.672 412 112.339 412 112C412 107.582 415.582 104 420 104C424.418 104 428 107.582 428 112C428 112.339 427.979 112.672 427.938 113H440.062C440.021 112.672 440 112.339 440 112C440 107.582 443.582 104 448 104C452.418 104 456 107.582 456 112C456 112.339 455.979 112.672 455.938 113H468.062C468.021 112.672 468 112.339 468 112C468 107.582 471.582 104 476 104C476.339 104 476.672 104.021 477 104.062V91.9381C476.672 91.979 476.339 92 476 92C471.582 92 468 88.4183 468 84C468 79.5817 471.582 76 476 76C476.339 76 476.672 76.021 477 76.0619V63.9381C476.672 63.979 476.339 64 476 64C471.582 64 468 60.4183 468 56C468 51.5817 471.582 48 476 48C476.339 48 476.672 48.021 477 48.0619V35.9381C476.672 35.979 476.339 36 476 36C471.582 36 468 32.4183 468 28C468 23.5817 471.582 20 476 20C476.339 20 476.672 20.021 477 20.0619V7.9381C476.672 7.97896 476.339 8 476 8C471.582 8 468 4.41828 468 0H456C456 4.41828 452.418 8 448 8C443.582 8 440 4.41828 440 0H428C428 4.41828 424.418 8 420 8C415.582 8 412 4.41828 412 0H400C400 4.41828 396.418 8 392 8C387.582 8 384 4.41828 384 0H372C372 4.41828 368.418 8 364 8C359.582 8 356 4.41828 356 0H344C344 4.41828 340.418 8 336 8C331.582 8 328 4.41828 328 0H316C316 4.41828 312.418 8 308 8C303.582 8 300 4.41828 300 0H288C288 4.41828 284.418 8 280 8C275.582 8 272 4.41828 272 0H260C260 4.41828 256.418 8 252 8C247.582 8 244 4.41828 244 0H232C232 4.41828 228.418 8 224 8C219.582 8 216 4.41828 216 0H204C204 4.41828 200.418 8 196 8C191.582 8 188 4.41828 188 0H176C176 4.41828 172.418 8 168 8C163.582 8 160 4.41828 160 0H148C148 4.41828 144.418 8 140 8C135.582 8 132 4.41828 132 0H120C120 4.41828 116.418 8 112 8C107.582 8 104 4.41828 104 0H92C92 4.41828 88.4183 8 84 8C79.5817 8 76 4.41828 76 0H64C64 4.41828 60.4183 8 56 8C51.5817 8 48 4.41828 48 0H36Z" fill="#FB6217"/>
<path d="M51.52 87.36L70.592 37.44H63.808L54.08 63.392L43.84 37.44H36.864L50.848 71.84L45.152 87.36H51.52ZM90.709 72C98.933 72 103.317 68.672 103.317 62.432C103.317 58.144 100.949 55.008 97.621 54.112C100.437 53.024 102.261 50.56 102.261 46.752C102.261 40.672 97.909 37.44 89.877 37.44H75.573V72H90.709ZM89.909 42.816C93.941 42.816 95.893 44.096 95.893 47.392C95.893 50.464 93.685 51.712 90.549 51.712H81.813V42.816H89.909ZM81.845 66.624V57.024H91.349C94.549 57.024 96.981 58.432 96.981 61.856C96.981 65.152 94.677 66.624 90.645 66.624H81.845ZM124.802 66.72C119.202 66.72 115.618 63.008 115.01 56.608L140.738 56.608C141.442 44.224 135.522 36.48 124.738 36.48C114.626 36.48 107.81 43.712 107.81 54.72C107.81 65.6 114.594 72.96 124.802 72.96C131.97 72.96 137.57 69.44 140.29 63.232L133.698 61.216C132.002 64.832 129.186 66.72 124.802 66.72ZM115.17 51.392C116.066 45.728 119.458 42.496 124.738 42.496C130.082 42.496 133.41 45.728 133.858 51.392H115.17ZM154.606 87.36V66.976C156.75 70.72 160.302 72.96 165.71 72.96C174.99 72.96 181.39 65.504 181.39 54.688C181.39 44 175.022 36.48 165.71 36.48C160.333 36.48 156.75 38.72 154.606 42.464V37.44H147.918V87.36H154.606ZM164.43 66.656C157.966 66.656 154.606 61.984 154.606 54.688C154.606 47.648 157.71 42.784 164.43 42.784C170.958 42.784 174.286 47.456 174.286 54.688C174.286 61.76 171.022 66.656 164.43 66.656ZM203.49 66.72C197.89 66.72 194.306 63.008 193.698 56.608H219.426C220.13 44.224 214.21 36.48 203.426 36.48C193.314 36.48 186.498 43.712 186.498 54.72C186.498 65.6 193.282 72.96 203.49 72.96C210.658 72.96 216.257 69.44 218.978 63.232L212.386 61.216C210.69 64.832 207.874 66.72 203.49 66.72ZM193.858 51.392C194.754 45.728 198.146 42.496 203.426 42.496C208.77 42.496 212.098 45.728 212.546 51.392H193.858ZM233.261 72V57.856H250.125V72H256.813V37.44H250.125V51.584H233.261V37.44H226.573V72H233.261ZM272.449 72V57.856H289.313V72H296.001V37.44H289.313V51.584H272.449V37.44H265.761V72H272.449ZM319.988 72.96C330.292 72.96 336.948 65.536 336.948 54.688C336.948 43.936 330.324 36.48 319.988 36.48C309.748 36.48 303.06 43.904 303.06 54.688C303.06 65.472 309.684 72.96 319.988 72.96ZM319.988 66.656C313.652 66.656 310.164 62.112 310.164 54.688C310.164 47.328 313.524 42.784 319.988 42.784C326.388 42.784 329.844 47.264 329.844 54.688C329.844 62.048 326.388 66.656 319.988 66.656ZM358.764 72.96C366.188 72.96 371.564 69.28 373.836 62.496L367.052 60.896C365.676 64.576 363.084 66.656 358.764 66.656C352.428 66.656 349.164 61.856 349.164 54.72C349.164 47.584 352.364 42.784 358.764 42.784C362.636 42.784 365.868 45.056 367.18 48.928L373.836 47.008C372.108 40.512 366.412 36.48 358.86 36.48C348.492 36.48 342.06 43.904 342.06 54.72C342.06 65.408 348.332 72.96 358.764 72.96ZM394.497 72V43.712H406.081V37.44H376.225V43.712H387.809V72H394.497ZM427.784 72C436.264 72 440.328 67.104 440.328 60.864C440.328 54.624 436.264 49.696 427.784 49.696H418.856V37.44H412.136V72H427.784ZM418.856 66.464V55.232H426.856C431.528 55.232 433.608 57.664 433.608 60.864C433.608 64.064 431.528 66.464 426.856 66.464H418.856Z" fill="#FFF9EF"/>
</svg>
