<svg width="814" height="328" viewBox="0 0 814 328" fill="none" xmlns="http://www.w3.org/2000/svg">
<path fill-rule="evenodd" clip-rule="evenodd" d="M33.3491 225.907L0 273.108L2.01177 275.679C7.52932 282.729 14.6575 289.378 23.3202 295.651C31.9931 301.932 41.6791 307.44 52.3611 312.188L52.3813 312.197L52.4016 312.205C63.4155 316.968 75.4271 320.672 88.4207 323.332C101.494 326.3 115.133 327.777 129.33 327.777C147.075 327.777 163.438 325.559 178.387 321.076C193.6 316.6 206.714 310.145 217.642 301.646L217.671 301.623L217.7 301.599C228.593 292.825 237.106 282.351 243.191 270.196C249.626 257.922 252.8 244.184 252.8 229.079C252.8 213.479 249.658 200.299 243.029 189.847C236.898 179.447 228.759 171.001 218.647 164.558C208.697 157.931 197.443 152.84 184.922 149.256C172.96 145.465 160.852 142.11 148.6 139.193L148.568 139.186L148.536 139.178C138.148 136.87 128.05 134.562 118.242 132.255C108.903 129.704 100.459 126.744 92.8954 123.384C85.8713 120.139 80.3481 116.164 76.1976 111.525C72.6066 106.929 70.7004 101.153 70.7004 93.917C70.7004 82.4918 75.7859 73.0408 86.6454 65.3527C97.8105 57.6521 113.757 53.5407 134.98 53.5407C146.562 53.5407 156.239 54.8148 164.102 57.255L164.186 57.2812L164.272 57.304C172.603 59.5256 179.528 62.5396 185.133 66.2766L185.232 66.3427L185.335 66.4033C191.433 70.0065 196.295 73.8132 200.005 77.7885C203.922 81.9848 207.081 85.9796 209.518 89.7708L212.56 94.503L251.929 52.5437L249.782 49.6057C238.252 33.8276 222.381 21.6352 202.349 12.9646C182.316 4.2936 159.981 0 135.415 0C118.231 0 102.291 2.22228 87.6273 6.71131C72.996 11.1903 60.2009 17.6411 49.3067 26.1078C38.3494 34.3329 29.8032 44.5601 23.7075 56.7515C17.5737 69.019 14.5521 82.7416 14.5521 97.8284C14.5521 114.971 18.3137 129.392 26.2011 140.75L26.2177 140.774L26.2346 140.797C33.8664 151.482 43.6291 160.165 55.4642 166.841L55.5018 166.863L55.5398 166.883C67.1823 173.152 79.9794 178.056 93.9107 181.613L93.9213 181.616L93.932 181.618C107.873 185.104 121.383 188.3 134.46 191.206C143.355 193.215 151.659 195.363 159.375 197.649L159.396 197.655L159.416 197.661C167.198 199.884 173.733 202.765 179.091 206.248L179.197 206.316L179.306 206.378C184.869 209.558 189.117 213.456 192.174 218.041L192.206 218.089L192.24 218.137C195.096 222.183 196.652 227.337 196.652 233.86C196.652 239.2 195.392 244.281 192.834 249.157C190.314 253.675 186.472 257.824 181.139 261.557L181.096 261.587L181.053 261.619C176.071 265.29 169.482 268.425 161.147 270.93C153.235 273.107 143.667 274.236 132.372 274.236C119.661 274.236 108.337 272.824 98.3617 270.055C88.5226 267.243 79.7329 263.607 71.9663 259.169C64.094 254.67 57.2581 249.924 51.4338 244.943C45.7457 239.535 40.9464 234.589 37.0193 230.101L33.3491 225.907ZM285.169 170.653L285.16 170.679L285.151 170.704C280.347 184.517 277.954 199.059 277.954 214.303C277.954 230.725 280.643 246.039 286.067 260.202L286.073 260.217L286.078 260.232C291.501 274.09 299.213 286.055 309.227 296.069L309.25 296.093L309.273 296.115C319.575 306.114 331.956 313.948 346.352 319.646L346.389 319.661L346.427 319.675C360.91 325.106 377.237 327.777 395.34 327.777C409.229 327.777 421.512 326.304 432.127 323.278C442.481 320.612 451.483 317.324 459.078 313.375L459.106 313.36L459.134 313.345C466.839 309.196 473.325 304.987 478.531 300.7L478.541 300.692L478.551 300.684C483.783 296.324 487.888 292.806 490.846 290.144L493.625 287.643L466.321 245.349L462.484 249.613C460.052 252.314 456.742 255.497 452.507 259.171C448.452 262.406 443.673 265.415 438.141 268.18C432.632 270.935 426.38 273.303 419.363 275.268L419.341 275.274L419.318 275.281C412.808 277.18 405.693 278.148 397.947 278.148C379.396 278.148 364.543 273.05 353.023 263.147C342.88 254.204 336.252 242.642 333.215 228.252H490.857L491.387 224.474C493.768 207.51 493.336 191.483 490.026 176.43C486.72 161.106 480.687 147.626 471.88 136.07C463.318 124.163 452.026 114.882 438.103 108.22C424.343 101.497 408.158 98.2209 389.69 98.2209C372.07 98.2209 356.221 101.358 342.234 107.744C328.379 114.069 316.574 122.684 306.877 133.593L306.872 133.599C297.498 144.183 290.27 156.551 285.169 170.653ZM434.726 174.21L434.737 174.239L434.749 174.268C435.606 176.325 436.33 178.51 436.917 180.826L436.931 180.824C437.026 181.225 437.118 181.624 437.205 182.019C437.409 182.913 437.594 183.827 437.759 184.759C439.125 192.179 439.125 197.938 439.125 197.938L426.399 203.643C426.399 203.643 417.071 190.499 386.328 190.051C355.555 190.493 345.381 203.487 345.381 203.487L332.927 197.782C332.927 197.782 333.201 194.269 334.403 188.89C335.009 185.852 335.788 183.018 336.733 180.384C336.78 180.239 336.828 180.093 336.876 179.947L336.891 179.95C337.694 177.772 338.612 175.733 339.642 173.828C343.466 167.008 347.906 161.521 352.926 157.284C358.331 152.967 364.101 149.756 370.244 147.616C376.828 145.424 382.866 144.373 388.386 144.373C395.401 144.373 401.955 145.585 408.082 147.983L408.161 148.014L408.24 148.041C414.287 150.145 419.512 153.413 423.963 157.865L424.01 157.912L424.058 157.957C428.452 162.093 432.029 167.47 434.726 174.21ZM528.616 0V327.777H583.026V0H528.616ZM812.036 35.5951C804.678 23.3323 794.923 14.2989 782.774 8.68102C770.726 2.82109 756.132 0 739.17 0C723.955 0 710.469 2.38413 698.815 7.28605C687.525 11.8674 677.984 18.4693 670.272 27.1073L670.265 27.1146C662.883 35.4192 657.247 45.3593 653.313 56.8589L653.301 56.8921L653.29 56.9255C649.658 68.1266 647.861 80.1775 647.861 93.0478V103.436H604.835V151.327H647.861V327.777H702.271V151.327H793.973V103.436H750.509C741.691 103.657 725.768 104.733 712.069 109.3C698.027 113.98 682.463 125.889 681.352 126.852L673.453 116.321C673.453 116.321 687.829 105.595 691.883 100.962C694.955 97.4516 698.879 92.6677 700.659 86.92C701.752 83.3925 702.116 79.9117 702.283 75.072L702.287 75.0726C702.498 68.1767 704.861 62.3219 709.394 57.3119L709.428 57.2744L709.461 57.236C713.735 52.288 721.711 49.1947 734.824 49.1947C742.627 49.1947 749.56 51.3865 755.757 55.7757L755.807 55.8116L755.859 55.846C762.424 60.2224 766.333 64.5732 768.19 68.7536L770.511 73.9747L814 38.8691L812.036 35.5951Z" fill="#FB6217"/>
</svg>
