<svg width="42" height="42" viewBox="0 0 42 42" fill="none" xmlns="http://www.w3.org/2000/svg">
<circle cx="21" cy="21" r="21" fill="#FF5400"/>
<path d="M21.0458 31.7311C19.5252 31.7311 18.1872 31.4574 17.0315 30.91C15.8962 30.3423 15.0143 29.5516 14.3858 28.5379C13.7573 27.5242 13.4329 26.3585 13.4127 25.0407H16.8187C16.8592 26.1355 17.2343 27.0174 17.9439 27.6864C18.6737 28.3555 19.6976 28.69 21.0153 28.69C22.2115 28.69 23.1441 28.4264 23.8131 27.8993C24.5024 27.3722 24.8471 26.6525 24.8471 25.7402C24.8471 25.0306 24.6444 24.4528 24.2389 24.0067C23.8537 23.5607 23.3671 23.2059 22.7792 22.9424C22.1912 22.6585 21.3701 22.3443 20.3159 21.9996C18.9373 21.5333 17.8324 21.0975 17.0011 20.692C16.1699 20.2662 15.4502 19.6377 14.842 18.8065C14.254 17.9753 13.9601 16.8805 13.9601 15.5222C13.9601 14.4274 14.254 13.4441 14.842 12.5723C15.4502 11.7005 16.2814 11.0214 17.3357 10.5348C18.4102 10.028 19.6165 9.77453 20.9545 9.77453C22.2115 9.77453 23.357 10.0381 24.3909 10.5652C25.4452 11.0721 26.2865 11.8019 26.915 12.7548C27.5638 13.6874 27.8983 14.772 27.9186 16.0087H24.543C24.5024 15.0761 24.1477 14.3159 23.4786 13.7279C22.8299 13.1197 21.9581 12.8156 20.8633 12.8156C19.8496 12.8156 19.0184 13.0589 18.3696 13.5455C17.7209 14.032 17.3965 14.7112 17.3965 15.583C17.3965 16.252 17.5891 16.8095 17.9743 17.2556C18.3595 17.7016 18.8461 18.0564 19.434 18.3199C20.0422 18.5835 20.8532 18.8775 21.8668 19.2019C23.2455 19.6681 24.3504 20.1142 25.1816 20.5399C26.0331 20.9657 26.763 21.6043 27.3712 22.4558C27.9794 23.3073 28.2835 24.4224 28.2835 25.801C28.2835 26.916 27.9794 27.9297 27.3712 28.842C26.763 29.7341 25.9115 30.4437 24.8167 30.9708C23.7219 31.4776 22.4649 31.7311 21.0458 31.7311Z" fill="#FFF9EF"/>
</svg>
