<svg width="718" height="718" viewBox="0 0 718 718" fill="none" xmlns="http://www.w3.org/2000/svg">
<rect x="0.5" y="0.5" width="717" height="717" rx="18.5125" stroke="black"/>
<line x1="704.5" y1="1.12109" x2="704.5" y2="716.884" stroke="black"/>
<line x1="16.5" y1="1.12109" x2="16.5" y2="716.884" stroke="black"/>
<line x1="1" y1="530.734" x2="717.882" y2="530.734" stroke="black"/>
<line x1="1" y1="522.941" x2="717.882" y2="522.941" stroke="black"/>
<line x1="1" y1="444.277" x2="717.882" y2="444.277" stroke="black"/>
<line x1="1" y1="436.484" x2="717.882" y2="436.484" stroke="black"/>
<line x1="1" y1="616.734" x2="717.882" y2="616.734" stroke="black"/>
<line x1="1" y1="608.941" x2="717.882" y2="608.941" stroke="black"/>
<line x1="1" y1="358.363" x2="717.882" y2="358.363" stroke="black"/>
<line x1="1" y1="350.574" x2="717.882" y2="350.574" stroke="black"/>
<line x1="1" y1="271.172" x2="717.882" y2="271.172" stroke="black"/>
<line x1="1" y1="263.746" x2="717.882" y2="263.746" stroke="black"/>
<line x1="1" y1="185.086" x2="717.882" y2="185.086" stroke="black"/>
<line x1="1" y1="177.297" x2="717.882" y2="177.297" stroke="black"/>
<line x1="1" y1="98.2617" x2="717.882" y2="98.2618" stroke="black"/>
<line x1="1" y1="90.4648" x2="717.882" y2="90.4649" stroke="black"/>
<line x1="1.11719" y1="14.5" x2="716.88" y2="14.5" stroke="black"/>
<line x1="2" y1="704.5" x2="717" y2="704.5" stroke="black"/>
</svg>
