<svg width="26" height="26" viewBox="0 0 26 26" fill="none" xmlns="http://www.w3.org/2000/svg">
<path fill-rule="evenodd" clip-rule="evenodd" d="M5.07438 13.3787C5.13347 13.5117 5.21381 13.6814 5.3174 13.878C5.58955 14.3945 6.01657 15.0851 6.63161 15.7766C7.85069 17.1473 9.80162 18.5208 12.8181 18.5701C15.813 18.6191 17.7497 17.2577 18.966 15.8656C19.5802 15.1627 20.0074 14.4533 20.2804 13.9197C20.3887 13.708 20.4718 13.5259 20.5318 13.3854C20.4733 13.2416 20.3918 13.0542 20.2847 12.8358C20.0174 12.2907 19.5969 11.565 18.9868 10.8427C17.7785 9.41209 15.8389 8 12.8017 8C9.7645 8 7.82494 9.41209 6.61663 10.8427C6.00653 11.565 5.58597 12.2907 5.3187 12.8358C5.2133 13.0508 5.13268 13.2357 5.07438 13.3787ZM21.6017 13.3948C22.556 13.0959 22.5557 13.095 22.5557 13.095L22.5553 13.0938L22.5545 13.0911L22.5522 13.084L22.5453 13.0628C22.5396 13.0457 22.5318 13.0225 22.5218 12.9938C22.5018 12.9364 22.4729 12.8565 22.4343 12.7574C22.3573 12.5594 22.2413 12.2834 22.0805 11.9554C21.7598 11.3014 21.2549 10.4285 20.5147 9.55213C19.0224 7.7853 16.5619 6 12.8017 6C9.04148 6 6.58104 7.7853 5.08871 9.55213C4.34849 10.4285 3.84357 11.3014 3.52294 11.9554C3.36211 12.2834 3.24614 12.5594 3.16909 12.7574C3.13053 12.8565 3.1016 12.9364 3.08159 12.9938C3.07157 13.0225 3.06378 13.0457 3.05812 13.0628L3.0512 13.084L3.04892 13.0911L3.04807 13.0938L3.04771 13.095C3.04771 13.095 3.04741 13.0959 4.00171 13.3948L3.04741 13.0959L2.94922 13.4095L3.05613 13.7202L4.00171 13.3948C3.05613 13.7202 3.05647 13.7211 3.05647 13.7211L3.05685 13.7223L3.05778 13.7249L3.06023 13.7319L3.06757 13.7525C3.07356 13.769 3.08176 13.7912 3.09224 13.8188C3.11321 13.8738 3.14337 13.9502 3.18338 14.0449C3.26334 14.2341 3.38309 14.4974 3.54804 14.8104C3.87701 15.4347 4.39134 16.2672 5.13719 17.1058C6.6399 18.7953 9.08898 20.5094 12.7854 20.5699C16.5033 20.6307 18.9666 18.9045 20.4721 17.1815C21.2188 16.3269 21.7328 15.472 22.061 14.8306C22.2256 14.5088 22.3449 14.2377 22.4245 14.0431C22.4644 13.9457 22.4943 13.8671 22.5151 13.8106C22.5255 13.7824 22.5336 13.7596 22.5395 13.7427L22.5468 13.7218L22.5492 13.7147L22.5504 13.7109C22.5504 13.7109 22.5507 13.7099 21.6017 13.3948ZM21.6017 13.3948L22.5507 13.7099L22.6524 13.4038L22.556 13.0959L21.6017 13.3948ZM12.8017 12.1717C12.1131 12.1717 11.6017 12.708 11.6017 13.3124C11.6017 13.9169 12.1131 14.4532 12.8017 14.4532C13.4904 14.4532 14.0017 13.9169 14.0017 13.3124C14.0017 12.708 13.4904 12.1717 12.8017 12.1717ZM9.60171 13.3124C9.60171 11.5523 11.0603 10.1717 12.8017 10.1717C14.5431 10.1717 16.0017 11.5523 16.0017 13.3124C16.0017 15.0726 14.5431 16.4532 12.8017 16.4532C11.0603 16.4532 9.60171 15.0726 9.60171 13.3124Z" fill="#ED6D2F"/>
</svg>
