<svg width="30" height="26" viewBox="0 0 30 26" fill="none" xmlns="http://www.w3.org/2000/svg">
<path fill-rule="evenodd" clip-rule="evenodd" d="M3.93231 11.4884C10.3734 8.39348 14.6614 6.33698 16.8146 5.33927C22.9428 2.50904 24.2311 2.02036 25.0592 2C25.2432 2 25.6481 2.04072 25.9242 2.28506C26.145 2.48867 26.2002 2.75337 26.237 2.95699C26.2738 3.1606 26.3106 3.58819 26.2738 3.91397C25.9426 7.78264 24.5071 17.1693 23.771 21.4859C23.4581 23.3184 22.8508 23.9292 22.2619 23.9903C20.9737 24.1125 19.9983 23.0537 18.7653 22.1578C16.8146 20.7529 15.7288 19.8773 13.8332 18.4927C11.6433 16.9046 13.0603 16.029 14.3117 14.6037C14.643 14.2372 20.2928 8.53601 20.4032 8.02698C20.4216 7.9659 20.4216 7.72156 20.2928 7.59939C20.1639 7.47722 19.9799 7.51794 19.8327 7.55867C19.6303 7.59939 16.5385 9.87987 10.5207 14.3797C9.63731 15.0517 8.84597 15.3774 8.12824 15.3571C7.33691 15.3367 5.82784 14.8684 4.68684 14.4612C3.3066 13.9725 2.20241 13.7078 2.29442 12.8526C2.34963 12.4047 2.90173 11.9567 3.93231 11.4884Z" fill="#FFF9EF"/>
</svg>
