<svg width="22" height="22" viewBox="0 0 22 22" fill="none" xmlns="http://www.w3.org/2000/svg">
<path d="M0.292893 10.2929C-0.097631 10.6834 -0.0976312 11.3166 0.292893 11.7071L6.65685 18.0711C7.04738 18.4616 7.68054 18.4616 8.07107 18.0711C8.46159 17.6805 8.46159 17.0474 8.07107 16.6569L2.41421 11L8.07107 5.34315C8.46159 4.95262 8.46159 4.31946 8.07107 3.92893C7.68054 3.53841 7.04738 3.53841 6.65686 3.92893L0.292893 10.2929ZM21 12C21.5523 12 22 11.5523 22 11C22 10.4477 21.5523 10 21 10L21 12ZM1 12L21 12L21 10L1 10L1 12Z" fill="#FB6217"/>
</svg>
