<svg width="11" height="12" viewBox="0 0 11 12" fill="none" xmlns="http://www.w3.org/2000/svg">
<path d="M0.553162 5.53191C0.294645 5.53191 0.0850765 5.74148 0.0850765 6C0.0850765 6.25852 0.294645 6.46809 0.553162 6.46809L0.553162 5.53191ZM10.2458 6.33099C10.4286 6.14819 10.4286 5.85181 10.2458 5.66901L7.26697 2.69014C7.08418 2.50734 6.7878 2.50734 6.605 2.69014C6.4222 2.87294 6.4222 3.16931 6.605 3.35211L9.25289 6L6.605 8.64789C6.4222 8.83069 6.4222 9.12706 6.605 9.30986C6.7878 9.49266 7.08418 9.49266 7.26697 9.30986L10.2458 6.33099ZM0.553162 6.46809L9.91486 6.46809L9.91486 5.53191L0.553162 5.53191L0.553162 6.46809Z" fill="#FFF9EF"/>
</svg>
