<svg width="915" height="364" viewBox="0 0 915 364" fill="none" xmlns="http://www.w3.org/2000/svg">
<path d="M0 306.035L32.1882 260.477C36.8101 265.759 42.4224 271.536 49.0251 277.809C55.9579 283.751 64.0462 289.363 73.29 294.646C82.5338 299.928 92.933 304.219 104.488 307.521C116.373 310.822 129.743 312.473 144.599 312.473C157.805 312.473 169.194 311.152 178.768 308.511C188.672 305.54 196.76 301.743 203.033 297.122C209.636 292.5 214.588 287.218 217.889 281.275C221.19 275.003 222.841 268.4 222.841 261.467C222.841 253.214 220.86 246.281 216.899 240.668C212.937 234.726 207.49 229.774 200.557 225.812C193.954 221.521 186.031 218.054 176.787 215.413C167.874 212.772 158.3 210.296 148.066 207.985C133.209 204.684 117.858 201.052 102.012 197.091C86.4954 193.129 72.2996 187.682 59.4243 180.749C46.549 173.486 35.9847 164.077 27.7313 152.522C19.478 140.638 15.3513 125.286 15.3513 106.469C15.3513 89.9618 18.6526 75.1057 25.2553 61.9003C31.858 48.6949 41.1018 37.6354 52.9867 28.7218C64.8715 19.478 78.9023 12.3801 95.0789 7.42806C111.256 2.47602 128.918 0 148.066 0C175.467 0 200.227 4.78697 222.346 14.3609C244.465 23.9348 261.797 37.3053 274.342 54.4723L236.707 94.5837C233.736 89.9618 229.939 85.1749 225.317 80.2228C220.695 75.2708 214.753 70.6489 207.49 66.3572C200.557 61.7353 192.139 58.1038 182.235 55.4627C172.661 52.4915 161.106 51.0059 147.57 51.0059C122.81 51.0059 103.497 55.7928 89.6317 65.3667C76.0961 74.9407 69.3284 87.1557 69.3284 102.012C69.3284 111.256 71.8044 119.014 76.7564 125.286C82.0386 131.229 88.9714 136.181 97.5549 140.142C106.469 144.104 116.373 147.57 127.267 150.542C138.492 153.183 150.046 155.824 161.931 158.465C175.797 161.766 189.498 165.563 203.033 169.855C216.899 173.816 229.279 179.428 240.173 186.691C251.068 193.624 259.816 202.703 266.419 213.928C273.352 224.822 276.818 238.853 276.818 256.02C276.818 272.526 273.352 287.383 266.419 300.588C259.816 313.793 250.573 325.183 238.688 334.757C226.803 344.001 212.442 351.099 195.605 356.051C179.098 361.003 160.941 363.479 141.133 363.479C125.286 363.479 110.1 361.828 95.5741 358.527C81.0482 355.555 67.6777 351.429 55.4627 346.147C43.5778 340.864 32.8484 334.757 23.2745 327.824C13.7006 320.891 5.94243 313.628 0 306.035Z" fill="#FFF9EF"/>
<path d="M315.479 239.183C315.479 222.346 318.12 206.334 323.402 191.148C329.014 175.632 336.938 162.096 347.172 150.542C357.736 138.657 370.611 129.248 385.798 122.315C400.984 115.382 418.316 111.916 437.794 111.916C458.262 111.916 475.924 115.547 490.781 122.81C505.967 130.073 518.182 140.142 527.426 153.018C536.999 165.563 543.602 180.254 547.234 197.091C550.865 213.597 551.36 231.26 548.719 250.077H367.475C370.446 270.216 378.865 286.392 392.73 298.607C406.926 310.822 425.084 316.93 447.203 316.93C456.447 316.93 465.03 315.774 472.953 313.463C481.207 311.152 488.635 308.346 495.237 305.045C501.84 301.743 507.617 298.112 512.569 294.15C517.521 289.859 521.483 286.062 524.454 282.761L549.71 321.882C546.408 324.853 541.786 328.815 535.844 333.767C530.232 338.388 523.134 343.01 514.55 347.632C506.297 351.924 496.393 355.555 484.838 358.527C473.283 361.828 459.748 363.479 444.232 363.479C424.093 363.479 406.101 360.507 390.254 354.565C374.408 348.292 360.872 339.709 349.648 328.815C338.753 317.92 330.335 304.88 324.392 289.694C318.45 274.177 315.479 257.34 315.479 239.183ZM368.466 219.375L375.398 222.346C377.709 220.695 384.312 218.714 395.206 216.404C406.431 213.762 419.802 212.442 435.318 212.442C444.892 212.442 452.98 212.772 459.583 213.432C466.516 214.093 472.128 214.918 476.42 215.908C480.711 216.899 484.013 217.889 486.324 218.88C488.965 219.87 490.781 220.86 491.771 221.851L498.704 219.375C498.704 208.81 497.053 199.567 493.752 191.643C490.45 183.39 485.994 176.622 480.381 171.34C474.769 165.728 468.166 161.601 460.573 158.96C452.98 155.989 444.892 154.503 436.308 154.503C429.375 154.503 421.947 155.824 414.024 158.465C406.431 161.106 399.333 165.068 392.73 170.35C386.458 175.632 381.011 182.4 376.389 190.653C372.097 198.576 369.456 208.15 368.466 219.375Z" fill="#FFF9EF"/>
<path d="M601.091 357.536V5.94244H653.087V357.536H601.091Z" fill="#FFF9EF"/>
<path d="M736.962 117.858V101.021C736.962 86.8255 738.943 73.6201 742.904 61.4051C747.196 48.86 753.304 38.1306 761.227 29.217C769.48 19.9732 779.714 12.8753 791.929 7.92326C804.475 2.64108 819.166 0 836.003 0C854.82 0 870.667 3.13629 883.542 9.40887C896.417 15.3513 906.816 24.9252 914.74 38.1306L873.638 71.3092C870.997 65.3668 865.715 59.7545 857.791 54.4723C849.868 48.86 840.955 46.0539 831.05 46.0539C815.534 46.0539 804.64 49.6853 798.367 56.9483C792.094 63.8811 788.958 72.1345 788.958 81.7084V92.1077C788.958 98.0501 787.638 103.002 784.997 106.964C782.356 110.595 779.219 114.392 775.588 118.353L784.006 127.762C787.968 125.121 792.095 122.81 796.386 120.829C801.008 118.849 806.62 117.858 813.223 117.858H893.446V162.426H788.958V357.536H736.962V162.426H687.937V117.858H736.962Z" fill="#FFF9EF"/>
</svg>
