<svg width="26" height="26" viewBox="0 0 26 26" fill="none" xmlns="http://www.w3.org/2000/svg">
<rect x="26" width="26" height="26" rx="13" transform="rotate(90 26 0)" fill="#FF5400"/>
<path d="M11.4163 12.7088H9.1213L9.12209 12.7017C9.22546 12.1955 9.42778 11.7147 9.71742 11.2869C10.1485 10.6519 10.753 10.1542 11.4591 9.85324C11.6982 9.7519 11.9475 9.67432 12.2017 9.62286C12.7288 9.51598 13.2721 9.51598 13.7993 9.62286C14.5569 9.7781 15.252 10.1528 15.7982 10.7003L16.9192 9.58249C16.414 9.07712 15.8162 8.67369 15.1585 8.3942C14.8231 8.25219 14.4744 8.14399 14.1175 8.0712C13.3811 7.92158 12.6222 7.92158 11.8858 8.0712C11.5286 8.14429 11.1796 8.25276 10.844 8.39499C9.8548 8.81465 9.00804 9.51131 8.40563 10.4011C8.00021 11.001 7.7167 11.6749 7.57122 12.3842C7.54905 12.4911 7.53717 12.6003 7.52134 12.7088H5.08301L8.24967 15.8754L11.4163 12.7088ZM14.583 14.2921H16.878L16.8773 14.2984C16.6704 15.3132 16.0723 16.2056 15.2124 16.7827C14.7847 17.0726 14.3039 17.2749 13.7977 17.378C13.2708 17.4849 12.7278 17.4849 12.2009 17.378C11.6947 17.2747 11.214 17.0723 10.7862 16.7827C10.5761 16.6406 10.3799 16.4789 10.2003 16.2998L9.08092 17.4192C9.58641 17.9244 10.1844 18.3276 10.8424 18.6067C11.178 18.7492 11.5288 18.8577 11.8834 18.9297C12.6195 19.0794 13.3782 19.0794 14.1143 18.9297C15.5334 18.6352 16.7817 17.7987 17.5937 16.5982C17.9987 15.9987 18.282 15.3255 18.4273 14.6167C18.4487 14.5098 18.4614 14.4006 18.4772 14.2921H20.9163L17.7497 11.1254L14.583 14.2921Z" fill="#FFF9EF"/>
</svg>
