<svg width="26" height="26" viewBox="0 0 26 26" fill="none" xmlns="http://www.w3.org/2000/svg">
<path d="M5.28016 19.3059C4.8826 19.6892 4.8826 20.3108 5.28016 20.6941C5.67771 21.0775 6.32229 21.0775 6.71984 20.6941L5.28016 19.3059ZM21.4149 6.11729C21.4149 5.57514 20.9591 5.13563 20.3969 5.13563L11.2348 5.13563C10.6725 5.13563 10.2168 5.57514 10.2168 6.11729C10.2168 6.65944 10.6725 7.09894 11.2348 7.09895L19.3789 7.09894L19.3789 14.9522C19.3789 15.4943 19.8347 15.9338 20.3969 15.9338C20.9591 15.9338 21.4149 15.4943 21.4149 14.9522L21.4149 6.11729ZM6.71984 20.6941L21.1167 6.81142L19.677 5.42315L5.28016 19.3059L6.71984 20.6941Z" fill="#ED6D2F"/>
</svg>
