<svg width="26" height="26" viewBox="0 0 26 26" fill="none" xmlns="http://www.w3.org/2000/svg">
<path d="M12 23C12 23.5523 12.4477 24 13 24C13.5523 24 14 23.5523 14 23H12ZM13.7071 2.29289C13.3166 1.90237 12.6834 1.90237 12.2929 2.29289L5.92893 8.65685C5.53841 9.04738 5.53841 9.68054 5.92893 10.0711C6.31946 10.4616 6.95262 10.4616 7.34315 10.0711L13 4.41421L18.6569 10.0711C19.0474 10.4616 19.6805 10.4616 20.0711 10.0711C20.4616 9.68054 20.4616 9.04738 20.0711 8.65685L13.7071 2.29289ZM14 23L14 3H12L12 23H14Z" fill="#87AAFF"/>
</svg>
