<svg width="26" height="26" viewBox="0 0 26 26" fill="none" xmlns="http://www.w3.org/2000/svg">
<path d="M14 3C14 2.44772 13.5523 2 13 2C12.4477 2 12 2.44772 12 3H14ZM12.2929 17.7071C12.6834 18.0976 13.3166 18.0976 13.7071 17.7071L20.0711 11.3431C20.4616 10.9526 20.4616 10.3195 20.0711 9.92893C19.6805 9.53841 19.0474 9.53841 18.6569 9.92893L13 15.5858L7.34315 9.92893C6.95262 9.53841 6.31946 9.53841 5.92893 9.92893C5.53841 10.3195 5.53841 10.9526 5.92893 11.3431L12.2929 17.7071ZM12 3V17H14V3H12Z" fill="#87AAFF"/>
<line x1="6" y1="23" x2="20.9388" y2="23" stroke="#87AAFF" stroke-width="2" stroke-linecap="round"/>
</svg>
