<svg width="26" height="26" viewBox="0 0 26 26" fill="none" xmlns="http://www.w3.org/2000/svg">
<path d="M23 14C23.5523 14 24 13.5523 24 13C24 12.4477 23.5523 12 23 12L23 14ZM2.29289 12.2929C1.90237 12.6834 1.90237 13.3166 2.29289 13.7071L8.65686 20.0711C9.04738 20.4616 9.68054 20.4616 10.0711 20.0711C10.4616 19.6805 10.4616 19.0474 10.0711 18.6569L4.41421 13L10.0711 7.34315C10.4616 6.95262 10.4616 6.31946 10.0711 5.92893C9.68054 5.53841 9.04738 5.53841 8.65685 5.92893L2.29289 12.2929ZM23 12L3 12L3 14L23 14L23 12Z" fill="#87AAFF"/>
</svg>
