<svg width="39" height="38" viewBox="0 0 39 38" fill="none" xmlns="http://www.w3.org/2000/svg">
<path fill-rule="evenodd" clip-rule="evenodd" d="M19.3083 5.02968e-05C8.91288 0.0965688 0.515625 8.55349 0.515625 18.9717C0.515625 29.3897 8.91251 37.8464 19.3076 37.9433C19.0836 29.5542 18.8924 25.7213 16.2985 22.6462C13.6192 19.6628 10.2789 19.4594 2.96094 19.1881V18.7813C10.2789 18.5236 13.6192 18.3067 16.2985 15.3232C18.8951 12.245 19.0722 8.40733 19.3083 5.02968e-05ZM19.6624 0C19.8867 8.40732 20.0756 12.245 22.6722 15.3232C25.3515 18.3067 28.6918 18.5101 36.0098 18.7813V19.1881C28.6918 19.4458 25.3515 19.6628 22.6722 22.6462C20.0783 25.7213 19.8988 29.5542 19.6632 37.9434C30.0608 37.8494 38.4606 29.3915 38.4606 18.9717C38.4606 8.55165 30.0604 0.0935853 19.6624 0Z" fill="#FFF9EF"/>
</svg>
