<svg width="39" height="37" viewBox="0 0 39 37" fill="none" xmlns="http://www.w3.org/2000/svg">
<path fill-rule="evenodd" clip-rule="evenodd" d="M3.16835 15.9722C13.352 10.9981 20.1315 7.69293 23.5357 6.08944C33.2247 1.54076 35.2615 0.755381 36.5708 0.722656C36.8618 0.722656 37.5019 0.788105 37.9383 1.1808C38.2875 1.50804 38.3748 1.93346 38.433 2.2607C38.4912 2.58794 38.5494 3.27515 38.4912 3.79874C37.9674 10.0164 35.6979 25.1023 34.5341 32.0398C34.0394 34.985 33.0793 35.9667 32.1482 36.0649C30.1115 36.2613 28.5694 34.5596 26.6199 33.1197C23.5357 30.8617 21.819 29.4546 18.8221 27.2293C15.3597 24.6769 17.6001 23.2697 19.5786 20.979C20.1024 20.39 29.0349 11.2272 29.2095 10.4091C29.2386 10.3109 29.2386 9.91819 29.0349 9.72184C28.8312 9.5255 28.5403 9.59095 28.3075 9.65639C27.9874 9.72184 23.0993 13.387 13.5848 20.619C12.1882 21.6989 10.937 22.2225 9.80229 22.1898C8.55115 22.1571 6.16526 21.4044 4.3613 20.7499C2.17908 19.9645 0.433309 19.5391 0.57879 18.1647C0.666079 17.4448 1.53897 16.7248 3.16835 15.9722Z" fill="#FFF9EF"/>
</svg>
