<svg width="22" height="22" viewBox="0 0 22 22" fill="none" xmlns="http://www.w3.org/2000/svg">
<path d="M12 1C12 0.447715 11.5523 0 11 0C10.4477 0 10 0.447715 10 1L12 1ZM10.2929 21.7071C10.6834 22.0976 11.3166 22.0976 11.7071 21.7071L18.0711 15.3431C18.4616 14.9526 18.4616 14.3195 18.0711 13.9289C17.6805 13.5384 17.0474 13.5384 16.6569 13.9289L11 19.5858L5.34315 13.9289C4.95262 13.5384 4.31946 13.5384 3.92893 13.9289C3.53841 14.3195 3.53841 14.9526 3.92893 15.3431L10.2929 21.7071ZM10 1L10 21H12L12 1L10 1Z" fill="#FB6217"/>
</svg>
