<svg width="1305" height="719" viewBox="0 0 1305 719" fill="none" xmlns="http://www.w3.org/2000/svg">
<rect x="1210.42" y="0.5" width="6.83" height="717.123" stroke="black"/>
<rect x="1130.26" y="0.5" width="6.83" height="717.123" stroke="black"/>
<rect x="1050.09" y="0.5" width="6.83" height="717.123" stroke="black"/>
<rect x="969.926" y="0.5" width="6.83" height="717.123" stroke="black"/>
<rect x="889.766" y="0.5" width="6.83" height="717.123" stroke="black"/>
<rect x="809.598" y="0.5" width="6.83" height="717.123" stroke="black"/>
<rect x="729.434" y="0.5" width="6.83" height="717.123" stroke="black"/>
<rect x="649.27" y="0.5" width="6.83" height="717.123" stroke="black"/>
<rect x="568.738" y="0.5" width="6.83" height="717.123" stroke="black"/>
<rect x="488.57" y="0.5" width="6.83" height="717.123" stroke="black"/>
<rect x="408.406" y="0.5" width="6.83" height="717.123" stroke="black"/>
<rect x="328.242" y="0.5" width="6.83" height="717.123" stroke="black"/>
<rect x="248.078" y="0.5" width="6.83" height="717.123" stroke="black"/>
<rect x="167.91" y="0.5" width="6.83" height="717.123" stroke="black"/>
<rect x="87.75" y="0.5" width="6.83" height="717.123" stroke="black"/>
<rect x="0.5" y="0.5" width="1304" height="717.12" rx="16.5" stroke="black"/>
<line x1="1" y1="14.5" x2="1304" y2="14.5" stroke="black"/>
<line x1="1" y1="704" x2="1304" y2="704" stroke="black"/>
<line x1="1290.5" y1="718" x2="1290.5" y2="1" stroke="black"/>
<line x1="14.5" y1="718" x2="14.5" y2="1" stroke="black"/>
</svg>
