<svg width="41" height="41" viewBox="0 0 41 41" fill="none" xmlns="http://www.w3.org/2000/svg">
<path d="M5.26562 19.1528C4.41397 19.1528 3.72356 19.8432 3.72356 20.6948C3.72356 21.5465 4.41397 22.2369 5.26563 22.2369L5.26562 19.1528ZM37.1973 21.7852C37.7995 21.183 37.7995 20.2066 37.1973 19.6044L27.3836 9.7908C26.7814 9.18859 25.8051 9.18859 25.2028 9.7908C24.6006 10.393 24.6006 11.3694 25.2028 11.9716L33.9261 20.6948L25.2028 29.418C24.6006 30.0203 24.6006 30.9966 25.2028 31.5989C25.8051 32.2011 26.7814 32.2011 27.3836 31.5989L37.1973 21.7852ZM5.26563 22.2369L36.1069 22.2369L36.1069 19.1528L5.26562 19.1528L5.26563 22.2369Z" fill="#FFF9EF"/>
</svg>
