<svg width="22" height="22" viewBox="0 0 22 22" fill="none" xmlns="http://www.w3.org/2000/svg">
<path d="M12 1C12 0.447715 11.5523 0 11 0C10.4477 0 10 0.447715 10 1L12 1ZM10.2929 15.7071C10.6834 16.0976 11.3166 16.0976 11.7071 15.7071L18.0711 9.34315C18.4616 8.95262 18.4616 8.31946 18.0711 7.92893C17.6805 7.53841 17.0474 7.53841 16.6569 7.92893L11 13.5858L5.34315 7.92893C4.95262 7.53841 4.31946 7.53841 3.92893 7.92893C3.53841 8.31946 3.53841 8.95262 3.92893 9.34315L10.2929 15.7071ZM10 1V15H12V1L10 1Z" fill="#FB6217"/>
<line x1="4" y1="21" x2="18.9388" y2="21" stroke="#FB6217" stroke-width="2" stroke-linecap="round"/>
</svg>
