<svg width="430" height="441" viewBox="0 0 430 441" fill="none" xmlns="http://www.w3.org/2000/svg">
<path d="M9.48396 441C4.24612 441 0 436.754 0 431.516L0 9.48394C0 4.2461 4.24611 0 9.48395 0H429V431.516C429 436.754 424.754 441 419.516 441H9.48396Z" fill="#ED6D2F"/>
<rect x="383" y="366" width="119" height="46" rx="9.48395" transform="rotate(-90 383 366)" fill="#FFF9EF"/>
<rect x="303.568" y="402.705" width="77.1361" height="125.908" rx="9.48395" transform="rotate(-90 303.568 402.705)" fill="#ED6D2F"/>
<rect x="303.568" y="322.408" width="81.5619" height="125.908" rx="9.48395" transform="rotate(-90 303.568 322.408)" fill="#ED6D2F"/>
<rect x="299" y="308.182" width="119.182" height="59.4" rx="9.48395" transform="rotate(-90 299 308.182)" fill="#ED6D2F"/>
<rect x="75.647" y="38.2512" width="124.872" height="75.6461" rx="9.48395" transform="rotate(90 75.647 38.2512)" fill="#FFF9EF"/>
<path d="M96.9697 0L96.9697 104.64L9.48053 104.64C4.24487 104.64 0.000527592 100.395 0.000528327 95.1595L0.000541687 -5.27868e-06L96.9697 0Z" fill="#ED6D2F"/>
<rect x="96.9697" y="107.801" width="61.9618" height="96.9692" rx="9.48395" transform="rotate(90 96.9697 107.801)" fill="#ED6D2F"/>
<rect x="76.0625" y="38.2512" width="124.872" height="31.9846" rx="9.48395" transform="rotate(90 76.0625 38.2512)" fill="#ED6D2F"/>
</svg>
