<svg width="754" height="259" viewBox="0 0 754 259" fill="none" xmlns="http://www.w3.org/2000/svg">
<path fill-rule="evenodd" clip-rule="evenodd" d="M27.2152 142.375L11.2686 145.6C11.9116 148.779 11.1136 151.915 9.32374 154.331C7.77084 156.726 5.29315 158.518 2.27501 159.128L5.19163 173.549C11.1462 172.345 16.9496 176.196 18.1539 182.151L18.3428 183.085C19.5471 189.04 15.6962 194.843 9.74165 196.047L12.6583 210.469C18.6128 209.264 24.4162 213.115 25.6205 219.07L25.8095 220.004C27.0138 225.959 23.1629 231.762 17.2083 232.966L20.1249 247.388C23.1426 246.778 26.1215 247.466 28.4826 249.068C31.0712 250.598 33.0256 253.178 33.6686 256.358L49.6152 253.133C48.4109 247.178 52.2618 241.375 58.2164 240.17L59.1904 239.973C65.145 238.769 70.9484 242.62 72.1527 248.575L88.0992 245.35C86.8949 239.395 90.7458 233.592 96.7004 232.387L97.6744 232.19C103.629 230.986 109.432 234.837 110.637 240.792L126.583 237.566C125.379 231.612 129.23 225.808 135.184 224.604L136.158 224.407C142.113 223.203 147.916 227.054 149.121 233.008L165.067 229.783C163.863 223.829 167.714 218.025 173.668 216.821L174.642 216.624C180.597 215.42 186.4 219.271 187.605 225.225L203.551 222C202.347 216.046 206.198 210.242 212.152 209.038L213.126 208.841C219.081 207.637 224.884 211.488 226.089 217.442L242.035 214.217C240.831 208.263 244.682 202.459 250.636 201.255L251.61 201.058C257.565 199.854 263.368 203.704 264.573 209.659L280.519 206.434C279.315 200.479 283.166 194.676 289.12 193.472L290.094 193.275C296.049 192.07 301.852 195.921 303.057 201.876L319.003 198.651C317.799 192.696 321.65 186.893 327.604 185.689L328.578 185.492C334.533 184.287 340.336 188.138 341.541 194.093L357.487 190.868C356.283 184.913 360.134 179.11 366.088 177.906L367.062 177.709C373.017 176.504 378.82 180.355 380.025 186.31L395.971 183.085C394.767 177.13 398.618 171.327 404.572 170.122L405.546 169.925C411.501 168.721 417.304 172.572 418.509 178.527L434.455 175.302C433.251 169.347 437.102 163.544 443.056 162.339L444.03 162.142C449.985 160.938 455.788 164.789 456.993 170.744L472.939 167.518C471.735 161.564 475.586 155.76 481.54 154.556L482.515 154.359C488.469 153.155 494.272 157.006 495.477 162.96L511.423 159.735C510.219 153.781 514.07 147.977 520.024 146.773L520.998 146.576C526.953 145.372 532.756 149.223 533.961 155.177L549.907 151.952C548.703 145.998 552.554 140.194 558.508 138.99L559.483 138.793C565.437 137.589 571.24 141.44 572.445 147.394L588.391 144.169C587.187 138.215 591.038 132.411 596.993 131.207L597.967 131.01C603.921 129.806 609.725 133.656 610.929 139.611L626.875 136.386C625.671 130.431 629.522 124.628 635.477 123.424L636.451 123.227C642.405 122.022 648.209 125.873 649.413 131.828L665.359 128.603C664.155 122.648 668.006 116.845 673.961 115.641L674.935 115.444C680.889 114.239 686.693 118.09 687.897 124.045L703.843 120.82C702.639 114.865 706.49 109.062 712.445 107.858L713.419 107.661C719.373 106.456 725.177 110.307 726.381 116.262L742.327 113.037C741.684 109.857 742.483 106.721 744.272 104.305C745.825 101.911 748.303 100.119 751.321 99.5087L748.404 85.0874C742.45 86.2916 736.646 82.4408 735.442 76.4862L735.253 75.5518C734.049 69.5972 737.9 63.7938 743.854 62.5895L740.938 48.1682C734.983 49.3724 729.18 45.5216 727.976 39.567L727.787 38.6326C726.582 32.678 730.433 26.8746 736.388 25.6703L733.471 11.249C730.453 11.8593 727.475 11.1713 725.114 9.56911C722.525 8.03853 720.57 5.45874 719.927 2.27907L703.981 5.50414C705.185 11.4587 701.334 17.2621 695.38 18.4664L694.406 18.6634C688.451 19.8676 682.648 16.0167 681.443 10.0622L665.497 13.2872C666.701 19.2418 662.85 25.0452 656.896 26.2495L655.922 26.4465C649.967 27.6507 644.164 23.7999 642.959 17.8453L627.013 21.0704C628.217 27.0249 624.366 32.8283 618.412 34.0326L617.438 34.2296C611.483 35.4339 605.68 31.583 604.475 25.6284L588.529 28.8535C589.733 34.808 585.882 40.6114 579.928 41.8157L578.954 42.0127C572.999 43.217 567.196 39.3661 565.991 33.4115L550.045 36.6366C551.249 42.5912 547.398 48.3945 541.444 49.5988L540.47 49.7958C534.515 51.0001 528.712 47.1492 527.507 41.1946L511.561 44.4197C512.765 50.3743 508.914 56.1777 502.96 57.3819L501.986 57.5789C496.031 58.7832 490.228 54.9323 489.023 48.9777L473.077 52.2028C474.281 58.1574 470.43 63.9608 464.476 65.165L463.502 65.362C457.547 66.5663 451.744 62.7154 450.539 56.7608L434.593 59.9859C435.797 65.9405 431.946 71.7439 425.992 72.9482L425.018 73.1451C419.063 74.3494 413.26 70.4985 412.055 64.544L396.109 67.769C397.313 73.7236 393.462 79.527 387.508 80.7313L386.534 80.9283C380.579 82.1325 374.776 78.2816 373.571 72.3271L357.625 75.5521C358.829 81.5067 354.978 87.3101 349.024 88.5144L348.05 88.7114C342.095 89.9156 336.292 86.0647 335.087 80.1102L319.141 83.3352C320.345 89.2898 316.494 95.0932 310.54 96.2975L309.566 96.4945C303.611 97.6987 297.808 93.8479 296.603 87.8933L280.657 91.1184C281.861 97.0729 278.01 102.876 272.056 104.081L271.082 104.278C265.127 105.482 259.324 101.631 258.119 95.6764L242.173 98.9015C243.377 104.856 239.526 110.659 233.572 111.864L232.598 112.061C226.643 113.265 220.84 109.414 219.635 103.46L203.689 106.685C204.893 112.639 201.042 118.443 195.088 119.647L194.114 119.844C188.159 121.048 182.356 117.197 181.151 111.243L165.205 114.468C166.409 120.422 162.558 126.226 156.604 127.43L155.629 127.627C149.675 128.831 143.872 124.98 142.667 119.026L126.721 122.251C127.925 128.205 124.074 134.009 118.12 135.213L117.145 135.41C111.191 136.614 105.387 132.763 104.183 126.809L88.2367 130.034C89.441 135.988 85.5901 141.792 79.6355 142.996L78.6614 143.193C72.7069 144.397 66.9035 140.547 65.6992 134.592L49.7527 137.817C50.9569 143.772 47.106 149.575 41.1515 150.779L40.1774 150.976C34.2228 152.181 28.4194 148.33 27.2152 142.375Z" fill="#87AAFF"/>
<path d="M92.8069 178.856L97.0773 177.992L99.2561 188.766L102.653 188.079L110.083 175.362L115.13 174.341L106.461 188.925L120.817 199.963L115.381 201.062L103.399 191.767L100.002 192.454L102.279 203.712L98.0085 204.576L92.8069 178.856ZM132.873 198.03C131.45 198.318 130.149 198.379 128.97 198.213C127.818 198.008 126.797 197.625 125.909 197.064C125.021 196.503 124.285 195.776 123.701 194.884C123.116 193.992 122.706 192.964 122.47 191.799C121.954 189.243 122.325 187.249 123.584 185.815C124.875 184.376 126.928 183.371 129.743 182.802L138.09 181.114L137.737 179.367C137.292 177.167 136.483 175.748 135.31 175.109C134.169 174.465 132.612 174.342 130.638 174.741C128.794 175.114 127.524 175.741 126.827 176.623C126.123 177.473 125.811 178.344 125.89 179.237L121.62 180.101C121.475 179.052 121.557 178.042 121.866 177.071C122.2 176.06 122.723 175.146 123.433 174.329C124.176 173.505 125.109 172.795 126.234 172.197C127.353 171.566 128.64 171.104 130.096 170.81C133.137 170.195 135.694 170.435 137.768 171.531C139.868 172.588 141.248 174.75 141.909 178.018L144.019 188.451C144.294 189.81 144.536 191.007 144.745 192.042C144.98 193.039 145.261 194.009 145.586 194.953L141.85 195.709C141.602 194.985 141.397 194.302 141.234 193.662C141.064 192.989 140.894 192.232 140.724 191.391C140.319 192.887 139.452 194.258 138.121 195.504C136.79 196.749 135.041 197.591 132.873 198.03ZM133.01 193.961C134.013 193.758 134.925 193.439 135.746 193.004C136.593 192.529 137.304 191.965 137.879 191.31C138.447 190.622 138.847 189.851 139.078 188.996C139.309 188.141 139.32 187.196 139.111 186.161L138.757 184.414L131.138 185.955C129.553 186.275 128.373 186.851 127.598 187.681C126.816 188.479 126.563 189.557 126.838 190.916C127.08 192.113 127.7 193.014 128.698 193.621C129.729 194.221 131.166 194.334 133.01 193.961ZM147.685 167.757L151.955 166.894L154.134 177.667L157.531 176.98L164.961 164.264L170.008 163.243L161.339 177.826L175.694 188.864L170.259 189.964L158.277 180.668L154.88 181.355L157.157 192.613L152.886 193.477L147.685 167.757ZM203.706 183.704C202.056 184.038 200.434 184.097 198.841 183.88C197.242 183.631 195.768 183.087 194.42 182.249C193.065 181.378 191.881 180.186 190.868 178.673C189.855 177.161 189.126 175.305 188.681 173.105L188.485 172.134C188.066 170.064 188.036 168.167 188.395 166.444C188.754 164.722 189.394 163.228 190.317 161.964C191.234 160.667 192.384 159.61 193.767 158.791C195.144 157.94 196.658 157.348 198.308 157.014C199.958 156.681 201.582 156.638 203.182 156.887C204.775 157.104 206.245 157.631 207.593 158.47C208.935 159.276 210.106 160.403 211.106 161.851C212.106 163.299 212.815 165.058 213.234 167.129L213.43 168.099C213.875 170.299 213.925 172.293 213.579 174.08C213.233 175.868 212.606 177.426 211.696 178.755C210.779 180.051 209.633 181.125 208.256 181.976C206.872 182.795 205.355 183.371 203.706 183.704ZM202.92 179.822C203.891 179.626 204.829 179.268 205.734 178.748C206.632 178.196 207.382 177.489 207.982 176.627C208.576 175.732 208.981 174.657 209.198 173.4C209.448 172.137 209.403 170.665 209.063 168.983L208.866 168.012C208.552 166.459 208.041 165.182 207.334 164.18C206.658 163.172 205.877 162.387 204.989 161.826C204.101 161.264 203.139 160.92 202.103 160.793C201.067 160.666 200.063 160.7 199.093 160.896C198.122 161.093 197.184 161.451 196.279 161.971C195.374 162.49 194.621 163.181 194.021 164.044C193.421 164.906 192.99 165.936 192.727 167.134C192.496 168.326 192.538 169.698 192.852 171.251L193.049 172.221C193.389 173.904 193.903 175.281 194.592 176.354C195.312 177.421 196.12 178.251 197.015 178.845C197.903 179.406 198.868 179.766 199.911 179.926C200.947 180.053 201.95 180.019 202.92 179.822ZM216.827 153.774L238.179 149.456L243.381 175.175L239.111 176.039L234.675 154.104L221.863 156.695L226.299 178.63L222.029 179.494L216.827 153.774ZM250.012 174.339C249.526 174.438 249.031 174.487 248.526 174.488L247.663 170.218C247.831 170.217 248.077 170.185 248.4 170.119C249.112 169.975 249.681 169.624 250.107 169.067C250.565 168.503 250.842 167.622 250.936 166.424C251.031 165.226 250.963 163.64 250.732 161.667C250.501 159.693 250.085 157.218 249.483 154.241L248.109 147.447L266.549 143.718L271.751 169.438L267.48 170.301L263.044 148.367L253.145 150.369L253.949 154.348C254.676 157.939 255.116 160.948 255.27 163.375C255.424 165.803 255.322 167.793 254.962 169.348C254.629 170.863 254.036 172.01 253.183 172.789C252.33 173.567 251.273 174.084 250.012 174.339ZM286.939 166.871C285.516 167.159 284.215 167.22 283.036 167.054C281.884 166.85 280.863 166.467 279.975 165.905C279.087 165.344 278.351 164.617 277.766 163.725C277.182 162.833 276.772 161.805 276.536 160.64C276.019 158.085 276.391 156.09 277.65 154.657C278.941 153.217 280.994 152.212 283.809 151.643L292.156 149.955L291.802 148.208C291.357 146.008 290.548 144.589 289.375 143.951C288.235 143.306 286.678 143.183 284.704 143.582C282.86 143.955 281.59 144.582 280.892 145.464C280.189 146.314 279.877 147.185 279.956 148.078L275.686 148.942C275.541 147.894 275.623 146.884 275.932 145.912C276.266 144.901 276.788 143.988 277.499 143.17C278.241 142.347 279.175 141.636 280.3 141.038C281.419 140.408 282.706 139.945 284.162 139.651C287.203 139.036 289.76 139.276 291.834 140.372C293.934 141.429 295.314 143.592 295.975 146.859L298.085 157.293C298.36 158.651 298.602 159.848 298.811 160.884C299.046 161.88 299.327 162.85 299.652 163.795L295.916 164.55C295.668 163.826 295.463 163.144 295.3 162.503C295.13 161.83 294.96 161.073 294.79 160.232C294.385 161.728 293.518 163.099 292.187 164.345C290.856 165.591 289.107 166.433 286.939 166.871ZM287.076 162.802C288.079 162.6 288.991 162.28 289.812 161.845C290.659 161.371 291.37 160.806 291.945 160.151C292.513 159.463 292.912 158.692 293.144 157.837C293.375 156.982 293.386 156.037 293.176 155.002L292.823 153.255L285.204 154.796C283.619 155.116 282.439 155.692 281.664 156.522C280.882 157.32 280.629 158.398 280.904 159.757C281.146 160.954 281.766 161.856 282.764 162.462C283.795 163.062 285.232 163.175 287.076 162.802ZM319.78 149.066C319.127 149.669 318.303 150.257 317.307 150.829C316.344 151.394 315.07 151.837 313.485 152.158C311.996 152.459 310.621 152.568 309.359 152.487C308.128 152.399 307.037 152.081 306.084 151.533C305.132 150.985 304.33 150.187 303.681 149.14C303.031 148.092 302.54 146.744 302.206 145.094L300.538 136.844L304.808 135.98L306.329 143.502C306.552 144.602 306.835 145.505 307.18 146.209C307.557 146.908 308.034 147.434 308.611 147.789C309.187 148.144 309.868 148.343 310.651 148.387C311.434 148.43 312.36 148.344 313.427 148.128C314.883 147.834 316.099 147.436 317.076 146.936C318.052 146.435 318.718 145.981 319.073 145.572L316.649 133.586L320.919 132.722L326.121 158.442L321.85 159.305L319.78 149.066ZM328.668 131.155L332.939 130.291L336.865 149.702L346.235 127.602L350.506 126.738L355.707 152.458L351.437 153.322L347.511 133.911L338.14 156.011L333.87 156.874L328.668 131.155ZM358.287 125.165L369.449 122.907C372.619 122.266 375.083 122.458 376.839 123.484C378.589 124.477 379.673 126.009 380.092 128.079C380.203 128.629 380.221 129.215 380.144 129.836C380.062 130.426 379.891 130.999 379.633 131.556C379.408 132.107 379.089 132.609 378.675 133.063C378.295 133.511 377.833 133.89 377.289 134.202C378.953 134.27 380.301 134.772 381.332 135.708C382.389 136.606 383.065 137.782 383.359 139.238C383.811 141.471 383.426 143.4 382.206 145.028C380.987 146.655 378.791 147.789 375.621 148.431L363.489 150.884L358.287 125.165ZM374.855 144.646C376.667 144.279 377.88 143.697 378.493 142.9C379.106 142.102 379.292 141.105 379.049 139.908C378.801 138.678 378.239 137.816 377.364 137.319C376.483 136.79 375.136 136.709 373.324 137.075L365.463 138.665L366.994 146.235L374.855 144.646ZM371.647 133.778C373.491 133.405 374.704 132.823 375.285 132.032C375.898 131.234 376.09 130.269 375.861 129.137C375.645 128.069 375.103 127.303 374.234 126.839C373.398 126.368 372.058 126.32 370.214 126.692L363.323 128.086L364.756 135.171L371.647 133.778ZM398.354 144.338C396.93 144.626 395.629 144.687 394.451 144.521C393.298 144.317 392.278 143.934 391.39 143.373C390.502 142.811 389.765 142.085 389.181 141.193C388.596 140.301 388.186 139.272 387.951 138.108C387.434 135.552 387.805 133.557 389.064 132.124C390.356 130.684 392.409 129.68 395.224 129.11L403.57 127.422L403.217 125.675C402.772 123.475 401.963 122.056 400.79 121.418C399.649 120.773 398.092 120.65 396.119 121.049C394.275 121.422 393.004 122.05 392.307 122.932C391.603 123.781 391.291 124.652 391.371 125.545L387.1 126.409C386.956 125.361 387.038 124.351 387.346 123.379C387.681 122.369 388.203 121.455 388.913 120.638C389.656 119.814 390.59 119.103 391.715 118.505C392.833 117.875 394.121 117.412 395.576 117.118C398.617 116.503 401.175 116.743 403.249 117.839C405.348 118.897 406.728 121.059 407.389 124.326L409.499 134.76C409.774 136.119 410.016 137.316 410.226 138.351C410.461 139.347 410.741 140.318 411.067 141.262L407.33 142.018C407.083 141.293 406.877 140.611 406.714 139.97C406.544 139.297 406.374 138.54 406.204 137.699C405.8 139.195 404.932 140.566 403.601 141.812C402.271 143.058 400.521 143.9 398.354 144.338ZM398.491 140.27C399.494 140.067 400.406 139.748 401.227 139.312C402.074 138.838 402.785 138.273 403.359 137.618C403.927 136.931 404.327 136.159 404.558 135.305C404.789 134.45 404.8 133.504 404.591 132.469L404.238 130.722L396.619 132.263C395.034 132.584 393.853 133.159 393.078 133.989C392.297 134.787 392.044 135.866 392.318 137.224C392.56 138.421 393.181 139.323 394.179 139.929C395.209 140.529 396.647 140.643 398.491 140.27ZM419.329 116.759L410.545 118.536L409.78 114.751L431.617 110.334L432.383 114.119L423.599 115.896L428.035 137.83L423.765 138.694L419.329 116.759ZM436.481 109.35L440.752 108.487L442.715 118.192L448.878 116.946C452.113 116.292 454.635 116.522 456.443 117.638C458.284 118.748 459.459 120.564 459.97 123.088C460.467 125.546 460.083 127.645 458.818 129.382C457.585 131.113 455.352 132.306 452.116 132.96L441.683 135.07L436.481 109.35ZM451.108 129.224C453.114 128.818 454.449 128.178 455.114 127.302C455.779 126.427 455.971 125.294 455.689 123.903C455.408 122.512 454.791 121.542 453.838 120.994C452.886 120.446 451.406 120.374 449.401 120.78L443.48 121.977L445.188 130.421L451.108 129.224ZM474.109 101.74L478.38 100.877L480.549 111.601L493.845 108.912L491.676 98.1877L495.947 97.324L501.148 123.044L496.878 123.907L494.611 112.697L481.314 115.387L483.581 126.596L479.311 127.46L474.109 101.74ZM516.356 120.473C514.932 120.761 513.631 120.822 512.453 120.656C511.3 120.452 510.28 120.069 509.392 119.508C508.504 118.946 507.767 118.22 507.183 117.328C506.598 116.436 506.188 115.407 505.953 114.243C505.436 111.687 505.807 109.692 507.066 108.259C508.358 106.819 510.411 105.815 513.225 105.245L521.572 103.557L521.219 101.81C520.774 99.6104 519.965 98.1913 518.792 97.5529C517.651 96.9081 516.094 96.7852 514.121 97.1843C512.277 97.5573 511.006 98.1847 510.309 99.0665C509.605 99.916 509.293 100.787 509.373 101.68L505.102 102.544C504.958 101.496 505.04 100.486 505.348 99.5142C505.683 98.5036 506.205 97.5898 506.915 96.7726C507.658 95.9489 508.592 95.2381 509.717 94.6402C510.835 94.0098 512.122 93.5475 513.578 93.253C516.619 92.638 519.177 92.8785 521.25 93.9744C523.35 95.0315 524.73 97.1938 525.391 100.461L527.501 110.895C527.776 112.254 528.018 113.451 528.227 114.486C528.463 115.482 528.743 116.453 529.069 117.397L525.332 118.153C525.085 117.428 524.879 116.746 524.716 116.105C524.546 115.432 524.376 114.675 524.206 113.834C523.802 115.33 522.934 116.701 521.603 117.947C520.272 119.193 518.523 120.035 516.356 120.473ZM516.493 116.405C517.495 116.202 518.407 115.883 519.229 115.447C520.076 114.973 520.786 114.408 521.361 113.753C521.929 113.066 522.329 112.294 522.56 111.439C522.791 110.585 522.802 109.639 522.593 108.604L522.24 106.857L514.621 108.398C513.035 108.719 511.855 109.294 511.08 110.124C510.299 110.922 510.045 112.001 510.32 113.359C510.562 114.556 511.182 115.458 512.181 116.064C513.211 116.664 514.648 116.777 516.493 116.405ZM535.254 116.651C534.768 116.749 534.273 116.799 533.768 116.8L532.905 112.53C533.073 112.529 533.319 112.496 533.643 112.431C534.354 112.287 534.923 111.936 535.349 111.379C535.808 110.814 536.084 109.934 536.179 108.736C536.273 107.538 536.205 105.952 535.974 103.978C535.743 102.005 535.327 99.5295 534.725 96.5532L533.351 89.7593L551.791 86.0298L556.993 111.749L552.723 112.613L548.287 90.6786L538.387 92.6808L539.192 96.66C539.918 100.251 540.358 103.26 540.512 105.687C540.666 108.114 540.564 110.105 540.205 111.659C539.871 113.175 539.278 114.322 538.425 115.101C537.573 115.879 536.515 116.396 535.254 116.651ZM575.53 108.506C573.88 108.839 572.258 108.898 570.666 108.681C569.066 108.432 567.592 107.888 566.244 107.05C564.889 106.179 563.705 104.987 562.692 103.475C561.679 101.962 560.95 100.106 560.505 97.9059L560.309 96.9353C559.89 94.8648 559.86 92.9682 560.219 91.2456C560.578 89.523 561.219 88.0295 562.142 86.7653C563.058 85.4686 564.208 84.411 565.592 83.5924C566.969 82.7415 568.482 82.1492 570.132 81.8155C571.782 81.4818 573.407 81.4394 575.006 81.6884C576.599 81.9051 578.069 82.4327 579.418 83.2713C580.759 84.0776 581.93 85.2046 582.93 86.6525C583.93 88.1003 584.639 89.8595 585.058 91.93L585.254 92.9006C585.699 95.1005 585.749 97.0941 585.403 98.8814C585.058 100.669 584.43 102.227 583.52 103.556C582.604 104.853 581.457 105.926 580.08 106.777C578.696 107.596 577.18 108.172 575.53 108.506ZM574.745 104.623C575.715 104.427 576.653 104.069 577.558 103.549C578.457 102.997 579.206 102.29 579.806 101.428C580.4 100.533 580.805 99.4578 581.023 98.2015C581.272 96.9387 581.227 95.4661 580.887 93.7838L580.691 92.8133C580.377 91.2604 579.866 89.9831 579.158 88.9812C578.483 87.9729 577.701 87.1881 576.813 86.6268C575.925 86.0656 574.963 85.7213 573.927 85.5941C572.891 85.4669 571.888 85.5014 570.917 85.6977C569.947 85.894 569.009 86.252 568.104 86.7718C567.198 87.2916 566.446 87.9826 565.846 88.8449C565.245 89.7071 564.814 90.7373 564.551 91.9354C564.321 93.1269 564.363 94.4991 564.677 96.052L564.873 97.0226C565.213 98.7049 565.727 100.083 566.416 101.156C567.137 102.222 567.944 103.052 568.839 103.646C569.727 104.207 570.692 104.567 571.735 104.727C572.771 104.854 573.774 104.82 574.745 104.623ZM588.652 78.5751L606.122 75.0419L606.887 78.8271L593.688 81.4966L598.124 103.431L593.853 104.295L588.652 78.5751ZM610.972 74.0609L615.243 73.1972L619.169 92.6083L628.539 70.5081L632.81 69.6444L638.012 95.3641L633.741 96.2278L629.815 76.8167L620.444 98.9169L616.174 99.7806L610.972 74.0609Z" fill="#87AAFF"/>
</svg>
