<svg width="1310" height="236" viewBox="0 0 1310 236" fill="none" xmlns="http://www.w3.org/2000/svg">
<path fill-rule="evenodd" clip-rule="evenodd" d="M36 0.40625C36 4.82453 32.4183 8.40625 28 8.40625C23.5817 8.40625 20 4.82453 20 0.40625H8C8 4.82453 4.41828 8.40625 0 8.40625V20.4062C4.41828 20.4062 8 23.988 8 28.4062C8 32.8245 4.41828 36.4062 0 36.4062V48.4062C4.41828 48.4062 8 51.988 8 56.4062C8 60.8245 4.41828 64.4062 0 64.4062V76.4062C4.41828 76.4062 8 79.988 8 84.4062C8 88.8245 4.41828 92.4062 0 92.4062V104.406C4.41828 104.406 8 107.988 8 112.406H20C20 107.988 23.5817 104.406 28 104.406C32.4183 104.406 36 107.988 36 112.406H48C48 107.988 51.5817 104.406 56 104.406C60.4183 104.406 64 107.988 64 112.406H76C76 107.988 79.5817 104.406 84 104.406C88.4183 104.406 92 107.988 92 112.406H104C104 107.988 107.582 104.406 112 104.406C116.418 104.406 120 107.988 120 112.406H132C132 107.988 135.582 104.406 140 104.406C144.418 104.406 148 107.988 148 112.406H160C160 107.988 163.582 104.406 168 104.406C172.418 104.406 176 107.988 176 112.406H188C188 107.988 191.582 104.406 196 104.406C200.418 104.406 204 107.988 204 112.406H216C216 107.988 219.582 104.406 224 104.406C228.418 104.406 232 107.988 232 112.406H244C244 107.988 247.582 104.406 252 104.406C256.418 104.406 260 107.988 260 112.406H272C272 107.988 275.582 104.406 280 104.406C284.418 104.406 288 107.988 288 112.406H300C300 107.988 303.582 104.406 308 104.406C312.418 104.406 316 107.988 316 112.406H328C328 107.988 331.582 104.406 336 104.406C340.418 104.406 344 107.988 344 112.406H356C356 107.988 359.582 104.406 364 104.406V92.4062C359.582 92.4062 356 88.8245 356 84.4062C356 79.988 359.582 76.4062 364 76.4062V64.4062C359.582 64.4062 356 60.8245 356 56.4062C356 51.988 359.582 48.4062 364 48.4062V36.4062C359.582 36.4062 356 32.8245 356 28.4062C356 23.988 359.582 20.4062 364 20.4062V8.40625C359.582 8.40625 356 4.82453 356 0.40625H344C344 4.82453 340.418 8.40625 336 8.40625C331.582 8.40625 328 4.82453 328 0.40625H316C316 4.82453 312.418 8.40625 308 8.40625C303.582 8.40625 300 4.82453 300 0.40625H288C288 4.82453 284.418 8.40625 280 8.40625C275.582 8.40625 272 4.82453 272 0.40625H260C260 4.82453 256.418 8.40625 252 8.40625C247.582 8.40625 244 4.82453 244 0.40625H232C232 4.82453 228.418 8.40625 224 8.40625C219.582 8.40625 216 4.82453 216 0.40625H204C204 4.82453 200.418 8.40625 196 8.40625C191.582 8.40625 188 4.82453 188 0.40625H176C176 4.82453 172.418 8.40625 168 8.40625C163.582 8.40625 160 4.82453 160 0.40625H148C148 4.82453 144.418 8.40625 140 8.40625C135.582 8.40625 132 4.82453 132 0.40625H120C120 4.82453 116.418 8.40625 112 8.40625C107.582 8.40625 104 4.82453 104 0.40625H92C92 4.82453 88.4183 8.40625 84 8.40625C79.5817 8.40625 76 4.82453 76 0.40625H64C64 4.82453 60.4183 8.40625 56 8.40625C51.5817 8.40625 48 4.82453 48 0.40625H36Z" fill="#FB6217"/>
<path d="M62.484 74.4062V45.2342H78.423V74.4062H85.32V38.7662H55.587V74.4062H62.484ZM110.027 75.3963C120.653 75.3963 127.517 67.7402 127.517 56.5532C127.517 45.4652 120.686 37.7762 110.027 37.7762C99.4667 37.7762 92.5697 45.4322 92.5697 56.5532C92.5697 67.6742 99.4007 75.3963 110.027 75.3963ZM110.027 68.8952C103.493 68.8952 99.8957 64.2092 99.8957 56.5532C99.8957 48.9632 103.361 44.2772 110.027 44.2772C116.627 44.2772 120.191 48.8972 120.191 56.5532C120.191 64.1432 116.627 68.8952 110.027 68.8952ZM146.309 75.3963C155.483 75.3963 160.895 70.6772 160.895 64.0112C160.895 60.0182 158.651 56.9492 155.516 55.9262C158.486 54.5732 159.905 52.1972 159.905 48.6992C159.905 41.8682 154.889 37.7762 146.21 37.7762C139.28 37.7762 133.175 40.4492 131.327 48.3362L137.861 49.5242C138.719 45.7952 141.326 43.8482 146.078 43.8482C150.467 43.8482 153.173 45.6962 153.173 49.0622C153.173 51.7352 151.193 53.2862 147.497 53.2862H142.151V58.8632H147.497C151.358 58.8632 154.097 60.3152 154.097 63.8792C154.097 67.2452 151.193 69.3242 146.111 69.3242C141.227 69.3242 137.927 67.1792 137.234 62.5592L130.733 63.7142C132.02 71.5352 137.696 75.3963 146.309 75.3963ZM191.288 38.7662L175.019 63.6812V38.7662H168.122V74.4062H175.019L191.288 49.4912V74.4062H198.185V38.7662H191.288ZM223.28 74.4062V45.2342H235.226V38.7662L204.437 38.7662V45.2342L216.383 45.2342V74.4062H223.28ZM264.636 38.7662L248.367 63.6812V38.7662H241.47V74.4062L248.367 74.4063L264.636 49.4912V74.4063H271.533V38.7662H264.636ZM296.331 74.4063C304.812 74.4063 309.333 70.9742 309.333 64.5392C309.333 60.1172 306.891 56.8832 303.459 55.9592C306.363 54.8372 308.244 52.2962 308.244 48.3692C308.244 42.0992 303.756 38.7662 295.473 38.7662H280.722V74.4063H296.331ZM295.506 44.3102C299.664 44.3102 301.677 45.6302 301.677 49.0292C301.677 52.1972 299.4 53.4842 296.166 53.4842H287.157V44.3102H295.506ZM287.19 68.8622V58.9622H296.991C300.291 58.9622 302.799 60.4142 302.799 63.9452C302.799 67.3442 300.423 68.8622 296.265 68.8622H287.19Z" fill="#FFF9EF"/>
<path fill-rule="evenodd" clip-rule="evenodd" d="M411 0.40625C411 4.82453 407.418 8.40625 403 8.40625C398.582 8.40625 395 4.82453 395 0.40625H383C383 4.82453 379.418 8.40625 375 8.40625V20.4062C379.418 20.4062 383 23.988 383 28.4062C383 32.8245 379.418 36.4062 375 36.4062V48.4062C379.418 48.4062 383 51.988 383 56.4062C383 60.8245 379.418 64.4062 375 64.4062V76.4062C379.418 76.4062 383 79.988 383 84.4062C383 88.8245 379.418 92.4062 375 92.4062V104.406C379.418 104.406 383 107.988 383 112.406H395C395 107.988 398.582 104.406 403 104.406C407.418 104.406 411 107.988 411 112.406H423C423 107.988 426.582 104.406 431 104.406C435.418 104.406 439 107.988 439 112.406H451C451 107.988 454.582 104.406 459 104.406C463.418 104.406 467 107.988 467 112.406H479C479 107.988 482.582 104.406 487 104.406C491.418 104.406 495 107.988 495 112.406H507C507 107.988 510.582 104.406 515 104.406C519.418 104.406 523 107.988 523 112.406H535C535 107.988 538.582 104.406 543 104.406C547.418 104.406 551 107.988 551 112.406H563C563 107.988 566.582 104.406 571 104.406C575.418 104.406 579 107.988 579 112.406H591C591 107.988 594.582 104.406 599 104.406C603.418 104.406 607 107.988 607 112.406H619C619 107.988 622.582 104.406 627 104.406C631.418 104.406 635 107.988 635 112.406H647C647 107.988 650.582 104.406 655 104.406C659.418 104.406 663 107.988 663 112.406H675C675 107.988 678.582 104.406 683 104.406C687.418 104.406 691 107.988 691 112.406H703C703 107.988 706.582 104.406 711 104.406C715.418 104.406 719 107.988 719 112.406H731C731 107.988 734.582 104.406 739 104.406C743.418 104.406 747 107.988 747 112.406H759C759 107.988 762.582 104.406 767 104.406C771.418 104.406 775 107.988 775 112.406H787C787 107.988 790.582 104.406 795 104.406C799.418 104.406 803 107.988 803 112.406H815C815 107.988 818.582 104.406 823 104.406V92.4062C818.582 92.4062 815 88.8245 815 84.4062C815 79.988 818.582 76.4062 823 76.4062V64.4062C818.582 64.4062 815 60.8245 815 56.4062C815 51.988 818.582 48.4062 823 48.4062V36.4062C818.582 36.4062 815 32.8245 815 28.4062C815 23.988 818.582 20.4062 823 20.4062V8.40625C818.582 8.40625 815 4.82453 815 0.40625H803C803 4.82453 799.418 8.40625 795 8.40625C790.582 8.40625 787 4.82453 787 0.40625H775C775 4.82453 771.418 8.40625 767 8.40625C762.582 8.40625 759 4.82453 759 0.40625H747C747 4.82453 743.418 8.40625 739 8.40625C734.582 8.40625 731 4.82453 731 0.40625H719C719 4.82453 715.418 8.40625 711 8.40625C706.582 8.40625 703 4.82453 703 0.40625H691C691 4.82453 687.418 8.40625 683 8.40625C678.582 8.40625 675 4.82453 675 0.40625H663C663 4.82453 659.418 8.40625 655 8.40625C650.582 8.40625 647 4.82453 647 0.40625H635C635 4.82453 631.418 8.40625 627 8.40625C622.582 8.40625 619 4.82453 619 0.40625H607C607 4.82453 603.418 8.40625 599 8.40625C594.582 8.40625 591 4.82453 591 0.40625H579C579 4.82453 575.418 8.40625 571 8.40625C566.582 8.40625 563 4.82453 563 0.40625H551C551 4.82453 547.418 8.40625 543 8.40625C538.582 8.40625 535 4.82453 535 0.40625H523C523 4.82453 519.418 8.40625 515 8.40625C510.582 8.40625 507 4.82453 507 0.40625H495C495 4.82453 491.418 8.40625 487 8.40625C482.582 8.40625 479 4.82453 479 0.40625H467C467 4.82453 463.418 8.40625 459 8.40625C454.582 8.40625 451 4.82453 451 0.40625H439C439 4.82453 435.418 8.40625 431 8.40625C426.582 8.40625 423 4.82453 423 0.40625H411Z" fill="#F6D81F"/>
<path d="M424.484 74.4062V45.2342H440.423V74.4062H447.32V38.7662H417.587V74.4062H424.484ZM472.027 75.3963C482.653 75.3963 489.517 67.7402 489.517 56.5532C489.517 45.4652 482.686 37.7762 472.027 37.7762C461.467 37.7762 454.57 45.4322 454.57 56.5532C454.57 67.6742 461.401 75.3963 472.027 75.3963ZM472.027 68.8952C465.493 68.8952 461.896 64.2092 461.896 56.5532C461.896 48.9632 465.361 44.2772 472.027 44.2772C478.627 44.2772 482.191 48.8972 482.191 56.5532C482.191 64.1432 478.627 68.8952 472.027 68.8952ZM494.128 82.0953H501.025V74.4062H525.115V82.0953H532.012V67.9382H527.392V38.7662L500.134 38.7662V51.4052C500.134 57.9392 499.903 65.2982 497.593 67.9382H494.128V82.0953ZM504.82 67.9382C505.909 65.2652 506.569 60.4142 506.569 54.9032V45.2342L520.495 45.2342V67.9382H504.82ZM535.959 82.0953L542.856 82.0953V74.4062H566.946V82.0953H573.843V67.9382H569.223V38.7662H541.965V51.4052C541.965 57.9392 541.734 65.2982 539.424 67.9382H535.959V82.0953ZM546.651 67.9382C547.74 65.2652 548.4 60.4142 548.4 54.9032V45.2342H562.326V67.9382H546.651ZM595.972 68.9612C590.197 68.9612 586.501 65.1332 585.874 58.5332L612.406 58.5332C613.132 45.7622 607.027 37.7762 595.906 37.7762C585.478 37.7762 578.449 45.2342 578.449 56.5862C578.449 67.8062 585.445 75.3963 595.972 75.3963C603.364 75.3963 609.139 71.7662 611.944 65.3642L605.146 63.2852C603.397 67.0142 600.493 68.9612 595.972 68.9612ZM586.039 53.1542C586.963 47.3132 590.461 43.9802 595.906 43.9802C601.417 43.9802 604.849 47.3132 605.311 53.1542L586.039 53.1542ZM626.706 90.2463V69.2252C628.917 73.0862 632.58 75.3963 638.157 75.3963C647.727 75.3963 654.327 67.7072 654.327 56.5532C654.327 45.5312 647.76 37.7762 638.157 37.7762C632.613 37.7762 628.917 40.0862 626.706 43.9472V38.7662H619.809V90.2463H626.706ZM636.837 68.8952C630.171 68.8952 626.706 64.0772 626.706 56.5532C626.706 49.2932 629.907 44.2772 636.837 44.2772C643.569 44.2772 647.001 49.0952 647.001 56.5532C647.001 63.8462 643.635 68.8952 636.837 68.8952ZM680.614 74.4063H687.511V57.2132L702.427 74.4063H711.799L695.497 56.5862L710.281 38.7662H701.503L687.511 55.9262V38.7662H680.614V55.9262L666.622 38.7662H657.844L672.628 56.5862L656.326 74.4063H665.698L680.614 57.2462V74.4063ZM717.036 74.4063H723.933V57.2132L738.849 74.4063H748.221L731.919 56.5862L746.703 38.7662H737.925L723.933 55.9262V38.7662H717.036V74.4063ZM765.775 37.7762C757.954 37.7762 752.674 41.3072 750.859 47.7752L757.228 49.4582C758.383 45.6962 761.056 43.9472 765.709 43.9472C770.956 43.9472 773.53 46.3892 773.629 51.8342L763.828 53.0552C754.819 54.1772 749.572 57.6752 749.572 64.8362C749.572 71.2712 754.291 75.3963 761.65 75.3963C767.194 75.3963 771.22 73.2842 773.629 69.1922V74.4063H780.559V53.1212C780.559 42.7592 775.708 37.7762 765.775 37.7762ZM773.629 57.0482V57.2792C773.629 58.8632 773.629 60.9752 772.969 62.6912C771.847 66.7502 768.184 69.5553 763.234 69.5553C758.713 69.5553 756.37 67.7732 756.37 64.3082C756.37 60.7772 758.911 58.8632 764.686 58.1702L773.629 57.0482Z" fill="#FB6217"/>
<path fill-rule="evenodd" clip-rule="evenodd" d="M36 123.406C36 127.825 32.4183 131.406 28 131.406C23.5817 131.406 20 127.825 20 123.406H8C8 127.825 4.41828 131.406 0 131.406V143.406C4.41828 143.406 8 146.988 8 151.406C8 155.825 4.41828 159.406 0 159.406V171.406C4.41828 171.406 8 174.988 8 179.406C8 183.825 4.41828 187.406 0 187.406V199.406C4.41828 199.406 8 202.988 8 207.406C8 211.825 4.41828 215.406 0 215.406V227.406C4.41828 227.406 8 230.988 8 235.406H20C20 230.988 23.5817 227.406 28 227.406C32.4183 227.406 36 230.988 36 235.406H48C48 230.988 51.5817 227.406 56 227.406C60.4183 227.406 64 230.988 64 235.406H76C76 230.988 79.5817 227.406 84 227.406C88.4183 227.406 92 230.988 92 235.406H104C104 230.988 107.582 227.406 112 227.406C116.418 227.406 120 230.988 120 235.406H132C132 230.988 135.582 227.406 140 227.406C144.418 227.406 148 230.988 148 235.406H160C160 230.988 163.582 227.406 168 227.406C172.418 227.406 176 230.988 176 235.406H188C188 230.988 191.582 227.406 196 227.406C200.418 227.406 204 230.988 204 235.406H216C216 230.988 219.582 227.406 224 227.406C228.418 227.406 232 230.988 232 235.406H244C244 230.988 247.582 227.406 252 227.406C256.418 227.406 260 230.988 260 235.406H272C272 230.988 275.582 227.406 280 227.406C284.418 227.406 288 230.988 288 235.406H300C300 230.988 303.582 227.406 308 227.406C312.418 227.406 316 230.988 316 235.406H328C328 230.988 331.582 227.406 336 227.406C340.418 227.406 344 230.988 344 235.406H356C356 230.988 359.582 227.406 364 227.406C368.418 227.406 372 230.988 372 235.406H384C384 230.988 387.582 227.406 392 227.406C396.418 227.406 400 230.988 400 235.406H412C412 230.988 415.582 227.406 420 227.406V215.406C415.582 215.406 412 211.825 412 207.406C412 202.988 415.582 199.406 420 199.406V187.406C415.582 187.406 412 183.825 412 179.406C412 174.988 415.582 171.406 420 171.406V159.406C415.582 159.406 412 155.825 412 151.406C412 146.988 415.582 143.406 420 143.406V131.406C415.582 131.406 412 127.825 412 123.406H400C400 127.825 396.418 131.406 392 131.406C387.582 131.406 384 127.825 384 123.406H372C372 127.825 368.418 131.406 364 131.406C359.582 131.406 356 127.825 356 123.406H344C344 127.825 340.418 131.406 336 131.406C331.582 131.406 328 127.825 328 123.406H316C316 127.825 312.418 131.406 308 131.406C303.582 131.406 300 127.825 300 123.406H288C288 127.825 284.418 131.406 280 131.406C275.582 131.406 272 127.825 272 123.406H260C260 127.825 256.418 131.406 252 131.406C247.582 131.406 244 127.825 244 123.406H232C232 127.825 228.418 131.406 224 131.406C219.582 131.406 216 127.825 216 123.406H204C204 127.825 200.418 131.406 196 131.406C191.582 131.406 188 127.825 188 123.406H176C176 127.825 172.418 131.406 168 131.406C163.582 131.406 160 127.825 160 123.406H148C148 127.825 144.418 131.406 140 131.406C135.582 131.406 132 127.825 132 123.406H120C120 127.825 116.418 131.406 112 131.406C107.582 131.406 104 127.825 104 123.406H92C92 127.825 88.4183 131.406 84 131.406C79.5817 131.406 76 127.825 76 123.406H64C64 127.825 60.4183 131.406 56 131.406C51.5817 131.406 48 127.825 48 123.406H36Z" fill="#F6D81F"/>
<path d="M74.119 197.406V161.766H67.189V177.672C65.011 179.223 62.602 179.982 59.599 179.982C54.187 179.982 52.537 177.177 52.537 171.468V161.766H45.64V172.458C45.64 181.698 49.633 186.087 58.114 186.087C61.777 186.087 64.978 185.295 67.189 183.942V197.406H74.119ZM98.87 191.961C93.095 191.961 89.399 188.133 88.772 181.533H115.304C116.03 168.762 109.925 160.776 98.804 160.776C88.376 160.776 81.347 168.234 81.347 179.586C81.347 190.806 88.343 198.396 98.87 198.396C106.262 198.396 112.037 194.766 114.842 188.364L108.044 186.285C106.295 190.014 103.391 191.961 98.87 191.961ZM88.937 176.154C89.861 170.313 93.359 166.98 98.804 166.98C104.315 166.98 107.747 170.313 108.209 176.154H88.937ZM137.954 198.396C145.61 198.396 151.154 194.601 153.497 187.605L146.501 185.955C145.082 189.75 142.409 191.895 137.954 191.895C131.42 191.895 128.054 186.945 128.054 179.586C128.054 172.227 131.354 167.277 137.954 167.277C141.947 167.277 145.28 169.62 146.633 173.613L153.497 171.633C151.715 164.934 145.841 160.776 138.053 160.776C127.361 160.776 120.728 168.432 120.728 179.586C120.728 190.608 127.196 198.396 137.954 198.396ZM174.804 197.406V168.234H186.75V161.766H155.961V168.234H167.907V197.406H174.804ZM199.89 197.406V182.82H217.281V197.406H224.178V161.766H217.281V176.352H199.89V161.766H192.993V197.406H199.89ZM248.915 198.396C259.541 198.396 266.405 190.74 266.405 179.553C266.405 168.465 259.574 160.776 248.915 160.776C238.355 160.776 231.458 168.432 231.458 179.553C231.458 190.674 238.289 198.396 248.915 198.396ZM248.915 191.895C242.381 191.895 238.784 187.209 238.784 179.553C238.784 171.963 242.249 167.277 248.915 167.277C255.515 167.277 259.079 171.897 259.079 179.553C259.079 187.143 255.515 191.895 248.915 191.895ZM288.903 198.396C296.559 198.396 302.103 194.601 304.446 187.605L297.45 185.955C296.031 189.75 293.358 191.895 288.903 191.895C282.369 191.895 279.003 186.945 279.003 179.586C279.003 172.227 282.303 167.277 288.903 167.277C292.896 167.277 296.229 169.62 297.582 173.613L304.446 171.633C302.664 164.934 296.79 160.776 289.002 160.776C278.31 160.776 271.677 168.432 271.677 179.586C271.677 190.608 278.145 198.396 288.903 198.396ZM325.753 197.406V168.234L337.699 168.234V161.766L306.91 161.766V168.234H318.856V197.406H325.753ZM360.079 197.406C368.824 197.406 373.015 192.357 373.015 185.922C373.015 179.487 368.824 174.405 360.079 174.405H350.872V161.766H343.942V197.406H360.079ZM350.872 191.697V180.114H359.122C363.94 180.114 366.085 182.622 366.085 185.922C366.085 189.222 363.94 191.697 359.122 191.697H350.872Z" fill="#FB6217"/>
<path fill-rule="evenodd" clip-rule="evenodd" d="M870 0.40625C870 4.82453 866.418 8.40625 862 8.40625C857.582 8.40625 854 4.82453 854 0.40625H842C842 4.82453 838.418 8.40625 834 8.40625V20.4062C838.418 20.4062 842 23.988 842 28.4062C842 32.8245 838.418 36.4062 834 36.4062V48.4062C838.418 48.4062 842 51.988 842 56.4062C842 60.8245 838.418 64.4062 834 64.4062V76.4062C838.418 76.4062 842 79.988 842 84.4062C842 88.8245 838.418 92.4062 834 92.4062V104.406C838.418 104.406 842 107.988 842 112.406H854C854 107.988 857.582 104.406 862 104.406C866.418 104.406 870 107.988 870 112.406H882C882 107.988 885.582 104.406 890 104.406C894.418 104.406 898 107.988 898 112.406H910C910 107.988 913.582 104.406 918 104.406C922.418 104.406 926 107.988 926 112.406H938C938 107.988 941.582 104.406 946 104.406C950.418 104.406 954 107.988 954 112.406H966C966 107.988 969.582 104.406 974 104.406C978.418 104.406 982 107.988 982 112.406H994C994 107.988 997.582 104.406 1002 104.406C1006.42 104.406 1010 107.988 1010 112.406H1022C1022 107.988 1025.58 104.406 1030 104.406C1034.42 104.406 1038 107.988 1038 112.406H1050C1050 107.988 1053.58 104.406 1058 104.406C1062.42 104.406 1066 107.988 1066 112.406H1078C1078 107.988 1081.58 104.406 1086 104.406C1090.42 104.406 1094 107.988 1094 112.406H1106C1106 107.988 1109.58 104.406 1114 104.406C1118.42 104.406 1122 107.988 1122 112.406H1134C1134 107.988 1137.58 104.406 1142 104.406C1146.42 104.406 1150 107.988 1150 112.406H1162C1162 107.988 1165.58 104.406 1170 104.406C1174.42 104.406 1178 107.988 1178 112.406H1190C1190 107.988 1193.58 104.406 1198 104.406C1202.42 104.406 1206 107.988 1206 112.406H1218C1218 107.988 1221.58 104.406 1226 104.406C1230.42 104.406 1234 107.988 1234 112.406H1246C1246 107.988 1249.58 104.406 1254 104.406C1258.42 104.406 1262 107.988 1262 112.406H1274C1274 107.988 1277.58 104.406 1282 104.406C1286.42 104.406 1290 107.988 1290 112.406H1302C1302 107.988 1305.58 104.406 1310 104.406V92.4062C1305.58 92.4062 1302 88.8245 1302 84.4062C1302 79.988 1305.58 76.4062 1310 76.4062V64.4062C1305.58 64.4062 1302 60.8245 1302 56.4062C1302 51.988 1305.58 48.4062 1310 48.4062V36.4062C1305.58 36.4062 1302 32.8245 1302 28.4062C1302 23.988 1305.58 20.4062 1310 20.4062V8.40625C1305.58 8.40625 1302 4.82453 1302 0.40625H1290C1290 4.82453 1286.42 8.40625 1282 8.40625C1277.58 8.40625 1274 4.82453 1274 0.40625H1262C1262 4.82453 1258.42 8.40625 1254 8.40625C1249.58 8.40625 1246 4.82453 1246 0.40625H1234C1234 4.82453 1230.42 8.40625 1226 8.40625C1221.58 8.40625 1218 4.82453 1218 0.40625H1206C1206 4.82453 1202.42 8.40625 1198 8.40625C1193.58 8.40625 1190 4.82453 1190 0.40625H1178C1178 4.82453 1174.42 8.40625 1170 8.40625C1165.58 8.40625 1162 4.82453 1162 0.40625H1150C1150 4.82453 1146.42 8.40625 1142 8.40625C1137.58 8.40625 1134 4.82453 1134 0.40625H1122C1122 4.82453 1118.42 8.40625 1114 8.40625C1109.58 8.40625 1106 4.82453 1106 0.40625H1094C1094 4.82453 1090.42 8.40625 1086 8.40625C1081.58 8.40625 1078 4.82453 1078 0.40625H1066C1066 4.82453 1062.42 8.40625 1058 8.40625C1053.58 8.40625 1050 4.82453 1050 0.40625H1038C1038 4.82453 1034.42 8.40625 1030 8.40625C1025.58 8.40625 1022 4.82453 1022 0.40625H1010C1010 4.82453 1006.42 8.40625 1002 8.40625C997.582 8.40625 994 4.82453 994 0.40625H982C982 4.82453 978.418 8.40625 974 8.40625C969.582 8.40625 966 4.82453 966 0.40625H954C954 4.82453 950.418 8.40625 946 8.40625C941.582 8.40625 938 4.82453 938 0.40625H926C926 4.82453 922.418 8.40625 918 8.40625C913.582 8.40625 910 4.82453 910 0.40625H898C898 4.82453 894.418 8.40625 890 8.40625C885.582 8.40625 882 4.82453 882 0.40625H870Z" fill="#B6CAFA"/>
<path d="M902.097 75.3963C912.723 75.3963 919.587 67.7402 919.587 56.5532C919.587 45.4652 912.756 37.7762 902.097 37.7762C891.537 37.7762 884.64 45.4322 884.64 56.5532C884.64 67.6742 891.471 75.3963 902.097 75.3963ZM902.097 68.8952C895.563 68.8952 891.966 64.2092 891.966 56.5532C891.966 48.9632 895.431 44.2772 902.097 44.2772C908.697 44.2772 912.261 48.8972 912.261 56.5532C912.261 64.1432 908.697 68.8952 902.097 68.8952ZM941.938 74.4062V45.2342H953.884V38.7662H923.095V45.2342H935.041V74.4062H941.938ZM960.128 74.4062H967.025V57.2132L981.941 74.4062H991.313L975.011 56.5862L989.795 38.7662H981.017L967.025 55.9262V38.7662H960.128V74.4062ZM1001.54 90.2463V69.2252C1003.75 73.0862 1007.41 75.3963 1012.99 75.3963C1022.56 75.3963 1029.16 67.7072 1029.16 56.5532C1029.16 45.5312 1022.59 37.7762 1012.99 37.7762C1007.45 37.7762 1003.75 40.0862 1001.54 43.9472V38.7662H994.643V90.2463H1001.54ZM1011.67 68.8952C1005.01 68.8952 1001.54 64.0772 1001.54 56.5532C1001.54 49.2932 1004.74 44.2772 1011.67 44.2772C1018.4 44.2772 1021.84 49.0952 1021.84 56.5532C1021.84 63.8462 1018.47 68.8952 1011.67 68.8952ZM1076.24 74.4063V38.7662H1069.34V74.4062L1076.24 74.4063ZM1052.55 74.4062C1061.29 74.4062 1065.45 69.3572 1065.45 62.9222C1065.45 56.4872 1061.29 51.4052 1052.55 51.4052H1043.31V38.7662L1036.41 38.7662V74.4062H1052.55ZM1043.31 68.6972V57.1142H1051.56C1056.41 57.1142 1058.52 59.6222 1058.52 62.9222C1058.52 66.2222 1056.41 68.6972 1051.56 68.6972H1043.31ZM1101.33 74.4063V45.2342H1113.28V38.7662H1082.49V45.2342H1094.43V74.4063H1101.33ZM1134.39 75.3963C1145.01 75.3963 1151.88 67.7402 1151.88 56.5532C1151.88 45.4652 1145.05 37.7762 1134.39 37.7762C1123.83 37.7762 1116.93 45.4322 1116.93 56.5532C1116.93 67.6742 1123.76 75.3963 1134.39 75.3963ZM1134.39 68.8952C1127.85 68.8952 1124.26 64.2092 1124.26 56.5532C1124.26 48.9632 1127.72 44.2772 1134.39 44.2772C1140.99 44.2772 1144.55 48.8972 1144.55 56.5532C1144.55 64.1432 1140.99 68.8952 1134.39 68.8952ZM1174.37 75.3963C1182.03 75.3963 1187.57 71.6012 1189.92 64.6052L1182.92 62.9552C1181.5 66.7502 1178.83 68.8952 1174.37 68.8952C1167.84 68.8952 1164.47 63.9452 1164.47 56.5862C1164.47 49.2272 1167.77 44.2772 1174.37 44.2772C1178.37 44.2772 1181.7 46.6202 1183.05 50.6132L1189.92 48.6332C1188.13 41.9342 1182.26 37.7762 1174.47 37.7762C1163.78 37.7762 1157.15 45.4322 1157.15 56.5862C1157.15 67.6082 1163.62 75.3963 1174.37 75.3963ZM1211.22 74.4063V45.2342H1223.17V38.7662H1192.38V45.2342H1204.33V74.4063H1211.22ZM1245.55 74.4063C1254.3 74.4063 1258.49 69.3572 1258.49 62.9222C1258.49 56.4872 1254.3 51.4052 1245.55 51.4052H1236.34V38.7662L1229.41 38.7662V74.4063H1245.55ZM1236.34 68.6972V57.1142H1244.59C1249.41 57.1142 1251.56 59.6222 1251.56 62.9222C1251.56 66.2222 1249.41 68.6972 1244.59 68.6972H1236.34Z" fill="#FB6217"/>
<path fill-rule="evenodd" clip-rule="evenodd" d="M870 123.406C870 127.825 866.418 131.406 862 131.406C857.582 131.406 854 127.825 854 123.406H842C842 127.825 838.418 131.406 834 131.406C829.582 131.406 826 127.825 826 123.406H814C814 127.825 810.418 131.406 806 131.406V143.406C810.418 143.406 814 146.988 814 151.406C814 155.825 810.418 159.406 806 159.406V171.406C810.418 171.406 814 174.988 814 179.406C814 183.825 810.418 187.406 806 187.406V199.406C810.418 199.406 814 202.988 814 207.406C814 211.825 810.418 215.406 806 215.406V227.406C810.418 227.406 814 230.988 814 235.406H826C826 230.988 829.582 227.406 834 227.406C838.418 227.406 842 230.988 842 235.406H854C854 230.988 857.582 227.406 862 227.406C866.418 227.406 870 230.988 870 235.406H882C882 230.988 885.582 227.406 890 227.406C894.418 227.406 898 230.988 898 235.406H910C910 230.988 913.582 227.406 918 227.406C922.418 227.406 926 230.988 926 235.406H938C938 230.988 941.582 227.406 946 227.406C950.418 227.406 954 230.988 954 235.406H966C966 230.988 969.582 227.406 974 227.406C978.418 227.406 982 230.988 982 235.406H994C994 230.988 997.582 227.406 1002 227.406C1006.42 227.406 1010 230.988 1010 235.406H1022C1022 230.988 1025.58 227.406 1030 227.406C1034.42 227.406 1038 230.988 1038 235.406H1050C1050 230.988 1053.58 227.406 1058 227.406C1062.42 227.406 1066 230.988 1066 235.406H1078C1078 230.988 1081.58 227.406 1086 227.406C1090.42 227.406 1094 230.988 1094 235.406H1106C1106 230.988 1109.58 227.406 1114 227.406C1118.42 227.406 1122 230.988 1122 235.406H1134C1134 230.988 1137.58 227.406 1142 227.406C1146.42 227.406 1150 230.988 1150 235.406H1162C1162 230.988 1165.58 227.406 1170 227.406C1174.42 227.406 1178 230.988 1178 235.406H1190C1190 230.988 1193.58 227.406 1198 227.406C1202.42 227.406 1206 230.988 1206 235.406H1218C1218 230.988 1221.58 227.406 1226 227.406C1230.42 227.406 1234 230.988 1234 235.406H1246C1246 230.988 1249.58 227.406 1254 227.406C1258.42 227.406 1262 230.988 1262 235.406H1274C1274 230.988 1277.58 227.406 1282 227.406C1286.42 227.406 1290 230.988 1290 235.406H1302C1302 230.988 1305.58 227.406 1310 227.406V215.406C1305.58 215.406 1302 211.825 1302 207.406C1302 202.988 1305.58 199.406 1310 199.406V187.406C1305.58 187.406 1302 183.825 1302 179.406C1302 174.988 1305.58 171.406 1310 171.406V159.406C1305.58 159.406 1302 155.825 1302 151.406C1302 146.988 1305.58 143.406 1310 143.406V131.406C1305.58 131.406 1302 127.825 1302 123.406H1290C1290 127.825 1286.42 131.406 1282 131.406C1277.58 131.406 1274 127.825 1274 123.406H1262C1262 127.825 1258.42 131.406 1254 131.406C1249.58 131.406 1246 127.825 1246 123.406H1234C1234 127.825 1230.42 131.406 1226 131.406C1221.58 131.406 1218 127.825 1218 123.406H1206C1206 127.825 1202.42 131.406 1198 131.406C1193.58 131.406 1190 127.825 1190 123.406H1178C1178 127.825 1174.42 131.406 1170 131.406C1165.58 131.406 1162 127.825 1162 123.406H1150C1150 127.825 1146.42 131.406 1142 131.406C1137.58 131.406 1134 127.825 1134 123.406H1122C1122 127.825 1118.42 131.406 1114 131.406C1109.58 131.406 1106 127.825 1106 123.406H1094C1094 127.825 1090.42 131.406 1086 131.406C1081.58 131.406 1078 127.825 1078 123.406H1066C1066 127.825 1062.42 131.406 1058 131.406C1053.58 131.406 1050 127.825 1050 123.406H1038C1038 127.825 1034.42 131.406 1030 131.406C1025.58 131.406 1022 127.825 1022 123.406H1010C1010 127.825 1006.42 131.406 1002 131.406C997.582 131.406 994 127.825 994 123.406H982C982 127.825 978.418 131.406 974 131.406C969.582 131.406 966 127.825 966 123.406H954C954 127.825 950.418 131.406 946 131.406C941.582 131.406 938 127.825 938 123.406H926C926 127.825 922.418 131.406 918 131.406C913.582 131.406 910 127.825 910 123.406H898C898 127.825 894.418 131.406 890 131.406C885.582 131.406 882 127.825 882 123.406H870Z" fill="#FB6217"/>
<path d="M864.005 213.246L883.673 161.766H876.677L866.645 188.529L856.085 161.766H848.891L863.312 197.241L857.438 213.246H864.005ZM904.419 197.406C912.9 197.406 917.421 193.974 917.421 187.539C917.421 183.117 914.979 179.883 911.547 178.959C914.451 177.837 916.332 175.296 916.332 171.369C916.332 165.099 911.844 161.766 903.561 161.766H888.81V197.406H904.419ZM903.594 167.31C907.752 167.31 909.765 168.63 909.765 172.029C909.765 175.197 907.488 176.484 904.254 176.484H895.245V167.31H903.594ZM895.278 191.862V181.962H905.079C908.379 181.962 910.887 183.414 910.887 186.945C910.887 190.344 908.511 191.862 904.353 191.862H895.278ZM939.577 191.961C933.802 191.961 930.106 188.133 929.479 181.533H956.011C956.737 168.762 950.632 160.776 939.511 160.776C929.083 160.776 922.054 168.234 922.054 179.586C922.054 190.806 929.05 198.396 939.577 198.396C946.969 198.396 952.744 194.766 955.549 188.364L948.751 186.285C947.002 190.014 944.098 191.961 939.577 191.961ZM929.644 176.154C930.568 170.313 934.066 166.98 939.511 166.98C945.022 166.98 948.454 170.313 948.916 176.154H929.644ZM970.312 213.246V192.225C972.523 196.086 976.186 198.396 981.763 198.396C991.333 198.396 997.933 190.707 997.933 179.553C997.933 168.531 991.366 160.776 981.763 160.776C976.219 160.776 972.523 163.086 970.312 166.947V161.766H963.415V213.246H970.312ZM980.443 191.895C973.777 191.895 970.312 187.077 970.312 179.553C970.312 172.293 973.513 167.277 980.443 167.277C987.175 167.277 990.607 172.095 990.607 179.553C990.607 186.846 987.241 191.895 980.443 191.895ZM1020.72 191.961C1014.95 191.961 1011.25 188.133 1010.63 181.533H1037.16C1037.88 168.762 1031.78 160.776 1020.66 160.776C1010.23 160.776 1003.2 168.234 1003.2 179.586C1003.2 190.806 1010.2 198.396 1020.72 198.396C1028.12 198.396 1033.89 194.766 1036.7 188.364L1029.9 186.285C1028.15 190.014 1025.24 191.961 1020.72 191.961ZM1010.79 176.154C1011.71 170.313 1015.21 166.98 1020.66 166.98C1026.17 166.98 1029.6 170.313 1030.06 176.154H1010.79ZM1051.43 197.406V182.82H1068.82V197.406H1075.71V161.766H1068.82V176.352H1051.43V161.766H1044.53V197.406H1051.43ZM1091.84 197.406V182.82H1109.23V197.406H1116.13V161.766H1109.23V176.352H1091.84V161.766H1084.94V197.406H1091.84ZM1140.86 198.396C1151.49 198.396 1158.35 190.74 1158.35 179.553C1158.35 168.465 1151.52 160.776 1140.86 160.776C1130.3 160.776 1123.41 168.432 1123.41 179.553C1123.41 190.674 1130.24 198.396 1140.86 198.396ZM1140.86 191.895C1134.33 191.895 1130.73 187.209 1130.73 179.553C1130.73 171.963 1134.2 167.277 1140.86 167.277C1147.46 167.277 1151.03 171.897 1151.03 179.553C1151.03 187.143 1147.46 191.895 1140.86 191.895ZM1180.85 198.396C1188.51 198.396 1194.05 194.601 1196.39 187.605L1189.4 185.955C1187.98 189.75 1185.31 191.895 1180.85 191.895C1174.32 191.895 1170.95 186.945 1170.95 179.586C1170.95 172.227 1174.25 167.277 1180.85 167.277C1184.84 167.277 1188.18 169.62 1189.53 173.613L1196.39 171.633C1194.61 164.934 1188.74 160.776 1180.95 160.776C1170.26 160.776 1163.62 168.432 1163.62 179.586C1163.62 190.608 1170.09 198.396 1180.85 198.396ZM1217.7 197.406V168.234H1229.65V161.766H1198.86V168.234H1210.8V197.406H1217.7ZM1252.03 197.406C1260.77 197.406 1264.96 192.357 1264.96 185.922C1264.96 179.487 1260.77 174.405 1252.03 174.405H1242.82V161.766H1235.89V197.406H1252.03ZM1242.82 191.697V180.114H1251.07C1255.89 180.114 1258.03 182.622 1258.03 185.922C1258.03 189.222 1255.89 191.697 1251.07 191.697H1242.82Z" fill="#FFF9EF"/>
<path fill-rule="evenodd" clip-rule="evenodd" d="M467 123.406C467 127.825 463.418 131.406 459 131.406C454.582 131.406 451 127.825 451 123.406H439C439 127.825 435.418 131.406 431 131.406V143.406C435.418 143.406 439 146.988 439 151.406C439 155.825 435.418 159.406 431 159.406V171.406C435.418 171.406 439 174.988 439 179.406C439 183.825 435.418 187.406 431 187.406V199.406C435.418 199.406 439 202.988 439 207.406C439 211.825 435.418 215.406 431 215.406V227.406C435.418 227.406 439 230.988 439 235.406H451C451 230.988 454.582 227.406 459 227.406C463.418 227.406 467 230.988 467 235.406H479C479 230.988 482.582 227.406 487 227.406C491.418 227.406 495 230.988 495 235.406H507C507 230.988 510.582 227.406 515 227.406C519.418 227.406 523 230.988 523 235.406H535C535 230.988 538.582 227.406 543 227.406C547.418 227.406 551 230.988 551 235.406H563C563 230.988 566.582 227.406 571 227.406C575.418 227.406 579 230.988 579 235.406H591C591 230.988 594.582 227.406 599 227.406C603.418 227.406 607 230.988 607 235.406H619C619 230.988 622.582 227.406 627 227.406C631.418 227.406 635 230.988 635 235.406H647C647 230.988 650.582 227.406 655 227.406C659.418 227.406 663 230.988 663 235.406H675C675 230.988 678.582 227.406 683 227.406C687.418 227.406 691 230.988 691 235.406H703C703 230.988 706.582 227.406 711 227.406C715.418 227.406 719 230.988 719 235.406H731C731 230.988 734.582 227.406 739 227.406C743.418 227.406 747 230.988 747 235.406H759C759 230.988 762.582 227.406 767 227.406C771.418 227.406 775 230.988 775 235.406H787C787 230.988 790.582 227.406 795 227.406V215.406C790.582 215.406 787 211.825 787 207.406C787 202.988 790.582 199.406 795 199.406V187.406C790.582 187.406 787 183.825 787 179.406C787 174.988 790.582 171.406 795 171.406V159.406C790.582 159.406 787 155.825 787 151.406C787 146.988 790.582 143.406 795 143.406V131.406C790.582 131.406 787 127.825 787 123.406H775C775 127.825 771.418 131.406 767 131.406C762.582 131.406 759 127.825 759 123.406H747C747 127.825 743.418 131.406 739 131.406C734.582 131.406 731 127.825 731 123.406H719C719 127.825 715.418 131.406 711 131.406C706.582 131.406 703 127.825 703 123.406H691C691 127.825 687.418 131.406 683 131.406C678.582 131.406 675 127.825 675 123.406H663C663 127.825 659.418 131.406 655 131.406C650.582 131.406 647 127.825 647 123.406H635C635 127.825 631.418 131.406 627 131.406C622.582 131.406 619 127.825 619 123.406H607C607 127.825 603.418 131.406 599 131.406C594.582 131.406 591 127.825 591 123.406H579C579 127.825 575.418 131.406 571 131.406C566.582 131.406 563 127.825 563 123.406H551C551 127.825 547.418 131.406 543 131.406C538.582 131.406 535 127.825 535 123.406H523C523 127.825 519.418 131.406 515 131.406C510.582 131.406 507 127.825 507 123.406H495C495 127.825 491.418 131.406 487 131.406C482.582 131.406 479 127.825 479 123.406H467Z" fill="#B6CAFA"/>
<path d="M475.98 205.095H482.877V197.406H506.967V205.095H513.864V190.938H509.244V161.766H481.986V174.405C481.986 180.939 481.755 188.298 479.445 190.938H475.98V205.095ZM486.672 190.938C487.761 188.265 488.421 183.414 488.421 177.903V168.234H502.347V190.938H486.672ZM535.927 198.396C546.553 198.396 553.417 190.74 553.417 179.553C553.417 168.465 546.586 160.776 535.927 160.776C525.367 160.776 518.47 168.432 518.47 179.553C518.47 190.674 525.301 198.396 535.927 198.396ZM535.927 191.895C529.393 191.895 525.796 187.209 525.796 179.553C525.796 171.963 529.261 167.277 535.927 167.277C542.527 167.277 546.091 171.897 546.091 179.553C546.091 187.143 542.527 191.895 535.927 191.895ZM576.245 197.406C584.726 197.406 589.247 193.974 589.247 187.539C589.247 183.117 586.805 179.883 583.373 178.959C586.277 177.837 588.158 175.296 588.158 171.369C588.158 165.099 583.67 161.766 575.387 161.766H560.636V197.406H576.245ZM575.42 167.31C579.578 167.31 581.591 168.63 581.591 172.029C581.591 175.197 579.314 176.484 576.08 176.484H567.071V167.31H575.42ZM567.104 191.862V181.962H576.905C580.205 181.962 582.713 183.414 582.713 186.945C582.713 190.344 580.337 191.862 576.179 191.862H567.104ZM611.403 191.961C605.628 191.961 601.932 188.133 601.305 181.533H627.837C628.563 168.762 622.458 160.776 611.337 160.776C600.909 160.776 593.88 168.234 593.88 179.586C593.88 190.806 600.876 198.396 611.403 198.396C618.795 198.396 624.57 194.766 627.375 188.364L620.577 186.285C618.828 190.014 615.924 191.961 611.403 191.961ZM601.47 176.154C602.394 170.313 605.892 166.98 611.337 166.98C616.848 166.98 620.28 170.313 620.742 176.154H601.47ZM642.138 213.246V192.225C644.349 196.086 648.012 198.396 653.589 198.396C663.159 198.396 669.759 190.707 669.759 179.553C669.759 168.531 663.192 160.776 653.589 160.776C648.045 160.776 644.349 163.086 642.138 166.947V161.766H635.241V213.246H642.138ZM652.269 191.895C645.603 191.895 642.138 187.077 642.138 179.553C642.138 172.293 645.339 167.277 652.269 167.277C659.001 167.277 662.433 172.095 662.433 179.553C662.433 186.846 659.067 191.895 652.269 191.895ZM700.14 161.766L683.871 186.681V161.766H676.974V197.406H683.871L700.14 172.491V197.406H707.037V161.766H700.14ZM731.802 191.961C726.027 191.961 722.331 188.133 721.704 181.533H748.236C748.962 168.762 742.857 160.776 731.736 160.776C721.308 160.776 714.279 168.234 714.279 179.586C714.279 190.806 721.275 198.396 731.802 198.396C739.194 198.396 744.969 194.766 747.774 188.364L740.976 186.285C739.227 190.014 736.323 191.961 731.802 191.961ZM721.869 176.154C722.793 170.313 726.291 166.98 731.736 166.98C737.247 166.98 740.679 170.313 741.141 176.154H721.869Z" fill="#FB6217"/>
</svg>
