<svg width="17" height="16" viewBox="0 0 17 16" fill="none" xmlns="http://www.w3.org/2000/svg">
<path d="M1.23781 14.0281C0.888859 14.3646 0.888859 14.9101 1.23781 15.2466C1.58675 15.5831 2.15251 15.5831 2.50145 15.2466L1.23781 14.0281ZM16.5457 1.347C16.5457 0.871145 16.1457 0.485384 15.6522 0.485384L7.61039 0.485384C7.11691 0.485384 6.71686 0.871145 6.71686 1.347C6.71686 1.82286 7.11691 2.20863 7.61039 2.20863H14.7587L14.7587 9.10159C14.7587 9.57745 15.1587 9.96321 15.6522 9.96321C16.1457 9.96321 16.5457 9.57745 16.5457 9.10159L16.5457 1.347ZM2.50145 15.2466L16.284 1.95626L15.0204 0.737747L1.23781 14.0281L2.50145 15.2466Z" fill="white"/>
</svg>
