<svg width="22" height="22" viewBox="0 0 22 22" fill="none" xmlns="http://www.w3.org/2000/svg">
<path d="M3.28016 17.3059C2.8826 17.6892 2.8826 18.3108 3.28016 18.6941C3.67771 19.0775 4.32229 19.0775 4.71984 18.6941L3.28016 17.3059ZM19.4149 4.11729C19.4149 3.57514 18.9591 3.13563 18.3969 3.13563L9.23476 3.13563C8.67253 3.13563 8.21675 3.57514 8.21675 4.11729C8.21675 4.65944 8.67253 5.09894 9.23476 5.09895L17.3789 5.09894L17.3789 12.9522C17.3789 13.4943 17.8347 13.9338 18.3969 13.9338C18.9591 13.9338 19.4149 13.4943 19.4149 12.9522L19.4149 4.11729ZM4.71984 18.6941L19.1167 4.81142L17.677 3.42315L3.28016 17.3059L4.71984 18.6941Z" fill="#FB6217"/>
</svg>
