<svg width="1840" height="428" viewBox="0 0 1840 428" fill="none" xmlns="http://www.w3.org/2000/svg">
<path fill-rule="evenodd" clip-rule="evenodd" d="M1758.22 211.794H1820C1831.05 211.794 1840 220.748 1840 231.794V408C1840 419.045 1831.05 428 1820 428L586.312 428C583.856 428 581.504 427.557 579.331 426.748C577.589 427.243 575.75 427.508 573.85 427.508H20C8.9543 427.508 0 418.554 0 407.508L4.64761e-06 186.403L-3.23287e-06 186.385L0 20C0 8.95433 8.95431 2.50338e-05 20 2.51248e-05L527.044 2.93019e-05C538.09 2.93929e-05 547.044 8.95434 547.044 20V92.6596H565.289V20C565.289 8.9543 574.243 -3.04072e-05 585.289 -3.0271e-05L1738.22 -1.60586e-05C1738.24 -1.60584e-05 1738.25 -1.40856e-06 1738.26 2.78766e-05L1820 2.87566e-05C1831.05 2.88755e-05 1840 8.95434 1840 20V171.938C1840 182.984 1831.05 191.938 1820 191.938H1758.22V211.794Z" fill="#FB6217"/>
</svg>
