<svg width="26" height="26" viewBox="0 0 26 26" fill="none" xmlns="http://www.w3.org/2000/svg">
<path fill-rule="evenodd" clip-rule="evenodd" d="M5.07267 13.3787C5.13176 13.5117 5.2121 13.6814 5.31569 13.878C5.58784 14.3945 6.01486 15.0851 6.6299 15.7766C7.84898 17.1473 9.79991 18.5208 12.8164 18.5701C15.8113 18.6191 17.7479 17.2577 18.9643 15.8656C19.5784 15.1627 20.0057 14.4533 20.2787 13.9197C20.387 13.708 20.47 13.5259 20.5301 13.3854C20.4716 13.2416 20.3901 13.0542 20.283 12.8358C20.0157 12.2907 19.5952 11.565 18.9851 10.8427C17.7768 9.41209 15.8372 8 12.8 8C9.76279 8 7.82323 9.41209 6.61492 10.8427C6.00482 11.565 5.58426 12.2907 5.31699 12.8358C5.21159 13.0508 5.13097 13.2357 5.07267 13.3787ZM21.6 13.3948C22.5543 13.0959 22.554 13.095 22.554 13.095L22.5536 13.0938L22.5528 13.0911L22.5505 13.084L22.5436 13.0628C22.5379 13.0457 22.5301 13.0225 22.5201 12.9938C22.5001 12.9364 22.4712 12.8565 22.4326 12.7574C22.3556 12.5594 22.2396 12.2834 22.0788 11.9554C21.7581 11.3014 21.2532 10.4285 20.513 9.55213C19.0207 7.7853 16.5602 6 12.8 6C9.03977 6 6.57934 7.7853 5.08701 9.55213C4.34678 10.4285 3.84186 11.3014 3.52123 11.9554C3.3604 12.2834 3.24443 12.5594 3.16738 12.7574C3.12882 12.8565 3.09989 12.9364 3.07988 12.9938C3.06987 13.0225 3.06207 13.0457 3.05641 13.0628L3.04949 13.084L3.04721 13.0911L3.04636 13.0938L3.04601 13.095C3.04601 13.095 3.0457 13.0959 4 13.3948L3.0457 13.0959L2.94751 13.4095L3.05442 13.7202L4 13.3948C3.05442 13.7202 3.05476 13.7211 3.05476 13.7211L3.05514 13.7223L3.05607 13.7249L3.05852 13.7319L3.06586 13.7525C3.07185 13.769 3.08005 13.7912 3.09054 13.8188C3.1115 13.8738 3.14166 13.9502 3.18168 14.0449C3.26163 14.2341 3.38138 14.4974 3.54633 14.8104C3.8753 15.4347 4.38963 16.2672 5.13548 17.1058C6.6382 18.7953 9.08727 20.5094 12.7836 20.5699C16.5015 20.6307 18.9649 18.9045 20.4703 17.1815C21.2171 16.3269 21.7311 15.472 22.0593 14.8306C22.2239 14.5088 22.3432 14.2377 22.4228 14.0431C22.4626 13.9457 22.4926 13.8671 22.5134 13.8106C22.5238 13.7824 22.5319 13.7596 22.5378 13.7427L22.5451 13.7218L22.5474 13.7147L22.5487 13.7109C22.5487 13.7109 22.549 13.7099 21.6 13.3948ZM21.6 13.3948L22.549 13.7099L22.6507 13.4038L22.5543 13.0959L21.6 13.3948ZM12.8 12.1717C12.1113 12.1717 11.6 12.708 11.6 13.3124C11.6 13.9169 12.1113 14.4532 12.8 14.4532C13.4887 14.4532 14 13.9169 14 13.3124C14 12.708 13.4887 12.1717 12.8 12.1717ZM9.6 13.3124C9.6 11.5523 11.0586 10.1717 12.8 10.1717C14.5414 10.1717 16 11.5523 16 13.3124C16 15.0726 14.5414 16.4532 12.8 16.4532C11.0586 16.4532 9.6 15.0726 9.6 13.3124Z" fill="#ED6D2F"/>
</svg>
