<svg width="30" height="26" viewBox="0 0 30 26" fill="none" xmlns="http://www.w3.org/2000/svg">
<path d="M20.5385 1H9.46154C5.89846 1 3 3.89846 3 7.46154V18.5385C3 22.1015 5.89846 25 9.46154 25H20.5385C24.1015 25 27 22.1015 27 18.5385V7.46154C27 3.89846 24.1015 1 20.5385 1ZM25.1538 18.5385C25.1538 21.0834 23.0834 23.1538 20.5385 23.1538H9.46154C6.91662 23.1538 4.84615 21.0834 4.84615 18.5385V7.46154C4.84615 4.91662 6.91662 2.84615 9.46154 2.84615H20.5385C23.0834 2.84615 25.1538 4.91662 25.1538 7.46154V18.5385ZM15 7.46154C11.9455 7.46154 9.46154 9.94554 9.46154 13C9.46154 16.0545 11.9455 18.5385 15 18.5385C18.0545 18.5385 20.5385 16.0545 20.5385 13C20.5385 9.94554 18.0545 7.46154 15 7.46154ZM15 16.6923C12.9637 16.6923 11.3077 15.0363 11.3077 13C11.3077 10.9637 12.9637 9.30769 15 9.30769C17.0363 9.30769 18.6923 10.9637 18.6923 13C18.6923 15.0363 17.0363 16.6923 15 16.6923ZM22.3846 7C22.3846 7.76431 21.7643 8.38462 21 8.38462C20.2357 8.38462 19.6154 7.76431 19.6154 7C19.6154 6.23569 20.2357 5.61538 21 5.61538C21.7643 5.61538 22.3846 6.23569 22.3846 7Z" fill="#FFF9EF"/>
</svg>
