<svg width="22" height="22" viewBox="0 0 22 22" fill="none" xmlns="http://www.w3.org/2000/svg">
<path d="M10 21C10 21.5523 10.4477 22 11 22C11.5523 22 12 21.5523 12 21L10 21ZM11.7071 0.292892C11.3166 -0.0976314 10.6834 -0.0976315 10.2929 0.292892L3.92893 6.65685C3.53841 7.04738 3.53841 7.68054 3.92893 8.07107C4.31946 8.46159 4.95262 8.46159 5.34315 8.07107L11 2.41421L16.6569 8.07107C17.0474 8.46159 17.6805 8.46159 18.0711 8.07107C18.4616 7.68054 18.4616 7.04738 18.0711 6.65685L11.7071 0.292892ZM12 21L12 1L10 1L10 21L12 21Z" fill="#FB6217"/>
</svg>
