<svg width="42" height="42" viewBox="0 0 42 42" fill="none" xmlns="http://www.w3.org/2000/svg">
<circle cx="21" cy="21" r="21" fill="#FFF9EF"/>
<path d="M21.0455 31.731C19.525 31.731 18.1869 31.4573 17.0313 30.9099C15.896 30.3422 15.0141 29.5516 14.3856 28.5379C13.7571 27.5242 13.4327 26.3584 13.4124 25.0406H16.8184C16.859 26.1354 17.234 27.0173 17.9436 27.6864C18.6735 28.3554 19.6973 28.6899 21.0151 28.6899C22.2113 28.6899 23.1439 28.4264 23.8129 27.8993C24.5022 27.3721 24.8469 26.6524 24.8469 25.7401C24.8469 25.0305 24.6441 24.4527 24.2386 24.0067C23.8534 23.5607 23.3669 23.2059 22.7789 22.9423C22.191 22.6585 21.3699 22.3442 20.3157 21.9996C18.937 21.5333 17.8321 21.0974 17.0009 20.6919C16.1697 20.2662 15.4499 19.6377 14.8417 18.8064C14.2538 17.9752 13.9598 16.8804 13.9598 15.5221C13.9598 14.4273 14.2538 13.444 14.8417 12.5723C15.4499 11.7005 16.2812 11.0213 17.3354 10.5347C18.4099 10.0279 19.6162 9.77447 20.9543 9.77447C22.2113 9.77447 23.3567 10.038 24.3907 10.5651C25.4449 11.072 26.2863 11.8018 26.9148 12.7547C27.5635 13.6873 27.8981 14.772 27.9183 16.0087H24.5427C24.5022 15.0761 24.1474 14.3158 23.4784 13.7279C22.8296 13.1196 21.9578 12.8155 20.8631 12.8155C19.8494 12.8155 19.0181 13.0588 18.3694 13.5454C17.7206 14.032 17.3962 14.7111 17.3962 15.5829C17.3962 16.252 17.5888 16.8095 17.974 17.2555C18.3592 17.7015 18.8458 18.0563 19.4337 18.3199C20.042 18.5834 20.8529 18.8774 21.8666 19.2018C23.2452 19.6681 24.3501 20.1141 25.1814 20.5399C26.0329 20.9656 26.7627 21.6042 27.3709 22.4557C27.9792 23.3072 28.2833 24.4223 28.2833 25.8009C28.2833 26.916 27.9792 27.9297 27.3709 28.842C26.7627 29.734 25.9112 30.4436 24.8164 30.9707C23.7217 31.4776 22.4647 31.731 21.0455 31.731Z" fill="#FF5400"/>
</svg>
