<svg width="41" height="41" viewBox="0 0 41 41" fill="none" xmlns="http://www.w3.org/2000/svg">
<rect x="0.5" y="0.5" width="40" height="40" rx="20" stroke="black"/>
<circle cx="20.5" cy="20.5" r="20.5" fill="black"/>
<path d="M20.7589 31.6499C19.2384 31.6499 17.9003 31.3763 16.7447 30.8289C15.6093 30.2612 14.7274 29.4705 14.0989 28.4568C13.4705 27.4431 13.1461 26.2774 13.1258 24.9596H16.5318C16.5724 26.0544 16.9474 26.9363 17.657 27.6053C18.3869 28.2744 19.4107 28.6089 20.7285 28.6089C21.9246 28.6089 22.8572 28.3453 23.5263 27.8182C24.2156 27.2911 24.5602 26.5714 24.5602 25.659C24.5602 24.9495 24.3575 24.3717 23.952 23.9256C23.5668 23.4796 23.0802 23.1248 22.4923 22.8613C21.9044 22.5774 21.0833 22.2632 20.029 21.9185C18.6504 21.4522 17.5455 21.0163 16.7143 20.6109C15.883 20.1851 15.1633 19.5566 14.5551 18.7254C13.9672 17.8942 13.6732 16.7994 13.6732 15.441C13.6732 14.3463 13.9672 13.363 14.5551 12.4912C15.1633 11.6194 15.9946 10.9403 17.0488 10.4537C18.1233 9.94684 19.3296 9.69341 20.6677 9.69341C21.9246 9.69341 23.0701 9.95697 24.1041 10.4841C25.1583 10.9909 25.9997 11.7208 26.6282 12.6737C27.2769 13.6063 27.6114 14.6909 27.6317 15.9276H24.2561C24.2156 14.995 23.8608 14.2347 23.1918 13.6468C22.543 13.0386 21.6712 12.7345 20.5764 12.7345C19.5627 12.7345 18.7315 12.9778 18.0828 13.4643C17.434 13.9509 17.1096 14.6301 17.1096 15.5019C17.1096 16.1709 17.3022 16.7284 17.6874 17.1744C18.0726 17.6205 18.5592 17.9753 19.1471 18.2388C19.7553 18.5024 20.5663 18.7964 21.58 19.1207C22.9586 19.587 24.0635 20.0331 24.8948 20.4588C25.7463 20.8846 26.4761 21.5232 27.0843 22.3747C27.6925 23.2262 27.9966 24.3412 27.9966 25.7199C27.9966 26.8349 27.6925 27.8486 27.0843 28.7609C26.4761 29.653 25.6246 30.3626 24.5298 30.8897C23.435 31.3965 22.1781 31.6499 20.7589 31.6499Z" fill="white"/>
</svg>
