<svg width="799" height="188" viewBox="0 0 799 188" fill="none" xmlns="http://www.w3.org/2000/svg">
<path fill-rule="evenodd" clip-rule="evenodd" d="M785 0H766.001C766.001 7.73199 759.732 14 752 14C744.268 14 738 7.73199 738 0H719.001C719.001 7.73199 712.732 14 705 14C697.268 14 691 7.73199 691 0H672.001C672.001 7.73199 665.732 14 658 14C650.268 14 644 7.73199 644 0H625.001C625.001 7.73199 618.732 14 611 14C603.268 14 597 7.73199 597 0H578.001C578.001 7.73199 571.732 14 564 14C556.268 14 550 7.73199 550 0H531.001C531.001 7.73199 524.732 14 517 14C509.268 14 503 7.73199 503 0H484.001C484.001 7.73199 477.732 14 470 14C462.268 14 456 7.73199 456 0H437.001C437.001 7.73199 430.732 14 423 14C415.268 14 409 7.73199 409 0H390.001C390.001 7.73199 383.732 14 376 14C368.268 14 362 7.73199 362 0H343.001C343.001 7.73199 336.732 14 329 14C321.268 14 315 7.73199 315 0H296.001C296.001 7.73199 289.732 14 282 14C274.268 14 268 7.73199 268 0H249.001C249.001 7.73199 242.732 14 235 14C227.268 14 221 7.73199 221 0H202.001C202.001 7.73199 195.732 14 188 14C180.268 14 174 7.73199 174 0H155.001C155.001 7.73199 148.732 14 141 14C133.268 14 127 7.73199 127 0H108.001C108.001 7.73199 101.732 14 94.0003 14C86.2682 14 80 7.73199 80 0H61.0006C61.0006 7.73199 54.7325 14 47.0003 14C39.2682 14 33 7.73199 33 0H14.0006C14.0006 7.73199 7.73248 14 0.000317693 14H0V33C0.000105897 33 0.000211795 33 0.000317693 33C7.73248 33 14.0006 39.268 14.0006 47C14.0006 54.732 7.73248 61 0.000317693 61C0.000211795 61 0.000105897 61 0 61V80H0.000317693C7.73248 80 14.0006 86.268 14.0006 94C14.0006 101.732 7.73248 108 0.000317693 108H0V127H0.000317693C7.73248 127 14.0006 133.268 14.0006 141C14.0006 148.732 7.73248 155 0.000317693 155H0V174H0.000317693C7.73248 174 14.0006 180.268 14.0006 188H33C33 180.268 39.2682 174 47.0003 174C54.7325 174 61.0006 180.268 61.0006 188H80C80 180.268 86.2682 174 94.0003 174C101.732 174 108.001 180.268 108.001 188H127C127 180.268 133.268 174 141 174C148.732 174 155.001 180.268 155.001 188H174C174 180.268 180.268 174 188 174C195.732 174 202.001 180.268 202.001 188H221C221 180.268 227.268 174 235 174C242.732 174 249.001 180.268 249.001 188H268C268 180.268 274.268 174 282 174C289.732 174 296.001 180.268 296.001 188H315C315 180.268 321.268 174 329 174C336.732 174 343.001 180.268 343.001 188H362C362 180.268 368.268 174 376 174C383.732 174 390.001 180.268 390.001 188H409C409 180.268 415.268 174 423 174C430.732 174 437.001 180.268 437.001 188H456C456 180.268 462.268 174 470 174C477.732 174 484.001 180.268 484.001 188H503C503 180.268 509.268 174 517 174C524.732 174 531.001 180.268 531.001 188H550C550 180.268 556.268 174 564 174C571.732 174 578.001 180.268 578.001 188H597C597 180.268 603.268 174 611 174C618.732 174 625.001 180.268 625.001 188H644C644 180.268 650.268 174 658 174C665.732 174 672.001 180.268 672.001 188H691C691 180.268 697.268 174 705 174C712.732 174 719.001 180.268 719.001 188H738C738 180.268 744.268 174 752 174C759.732 174 766.001 180.268 766.001 188H785C785 180.268 791.268 174 799 174V155C791.268 155 785 148.732 785 141C785 133.268 791.268 127 799 127V108C791.268 108 785 101.732 785 94C785 86.268 791.268 80 799 80V61C791.268 61 785 54.732 785 47C785 39.268 791.268 33 799 33V14C791.268 14 785 7.73199 785 0Z" fill="#F6D81F"/>
</svg>
