<svg width="30" height="26" viewBox="0 0 30 26" fill="none" xmlns="http://www.w3.org/2000/svg">
<path fill-rule="evenodd" clip-rule="evenodd" d="M14.8877 1.00001C8.31199 1.06041 3 6.40974 3 12.9997C3 19.5896 8.31175 24.9388 14.8873 24.9995C14.7456 19.6933 14.6247 17.2689 12.984 15.3239C11.2893 13.4369 9.17656 13.3082 4.54789 13.1366V12.8793C9.17656 12.7164 11.2893 12.5791 12.984 10.6921C14.6264 8.74503 14.7384 6.3177 14.8877 1.00001ZM15.1117 1C15.2536 6.31769 15.3731 8.74503 17.0154 10.6921C18.7101 12.5791 20.8229 12.7078 25.4516 12.8793V13.1366C20.8229 13.2996 18.7101 13.4369 17.0154 15.3239C15.3748 17.2689 15.2613 19.6933 15.1122 24.9995C21.6882 24.9394 27.0005 19.59 27.0005 12.9997C27.0005 6.40939 21.688 1.05984 15.1117 1Z" fill="#FFF9EF"/>
</svg>
