<svg width="269" height="171" viewBox="0 0 269 171" fill="none" xmlns="http://www.w3.org/2000/svg">
<path fill-rule="evenodd" clip-rule="evenodd" d="M22.6532 98.719C22.8154 101.499 20.6931 103.885 17.9128 104.047C15.1325 104.209 12.7471 102.087 12.5848 99.3066L12.5848 99.3065L5.03401 99.7472L5.03401 99.7473C5.19629 102.528 3.07405 104.913 0.293836 105.075L0.734591 112.627L0.735326 112.627C3.51561 112.464 5.90103 114.587 6.06331 117.367C6.22559 120.147 4.10328 122.533 1.32299 122.695L1.32225 122.695L1.763 130.246C4.54315 130.084 6.92838 132.206 7.09066 134.987C7.25293 137.767 5.13079 140.152 2.35066 140.314L2.79141 147.866C5.57152 147.704 7.95671 149.826 8.11898 152.606C8.28125 155.386 6.15916 157.772 3.37908 157.934L3.8198 165.485L3.82029 165.485C6.60057 165.323 8.98599 167.445 9.14827 170.225L16.6991 169.785C16.5369 167.004 18.6592 164.619 21.4394 164.457C24.2197 164.294 26.6051 166.417 26.7674 169.197L34.3182 168.756C34.156 165.976 36.2783 163.591 39.0586 163.428C41.8388 163.266 44.2242 165.388 44.3865 168.169L51.9383 167.728C51.7762 164.948 53.8985 162.562 56.6787 162.4C59.4589 162.238 61.8443 164.36 62.0067 167.14L69.5575 166.699C69.3954 163.919 71.5176 161.534 74.2978 161.372C77.078 161.209 79.4634 163.332 79.6258 166.112L87.1776 165.671C87.0156 162.891 89.1378 160.506 91.9179 160.343C94.6981 160.181 97.0834 162.303 97.2459 165.083L104.797 164.643C104.634 161.862 106.757 159.477 109.537 159.315C112.317 159.152 114.703 161.275 114.865 164.055L122.417 163.614C122.255 160.834 124.377 158.449 127.157 158.286C129.937 158.124 132.323 160.246 132.485 163.027L140.036 162.586C139.874 159.806 141.996 157.42 144.776 157.258C147.557 157.096 149.942 159.218 150.104 161.998L157.655 161.557C157.493 158.777 159.615 156.392 162.395 156.23C165.176 156.067 167.561 158.19 167.723 160.97L175.275 160.529C175.113 157.749 177.235 155.364 180.016 155.201C182.796 155.039 185.181 157.161 185.344 159.941L192.894 159.501C192.732 156.72 194.855 154.335 197.635 154.173C200.415 154.011 202.8 156.133 202.963 158.913L210.514 158.472C210.351 155.692 212.474 153.306 215.254 153.144C218.034 152.982 220.42 155.104 220.582 157.884L228.134 157.444C227.971 154.663 230.094 152.278 232.874 152.116C235.654 151.954 238.04 154.076 238.202 156.856L245.754 156.415C245.592 153.635 247.714 151.25 250.494 151.088C253.274 150.925 255.66 153.047 255.822 155.828L263.373 155.387C263.211 152.607 265.333 150.222 268.113 150.059L267.672 142.508L267.672 142.508C264.891 142.67 262.506 140.548 262.344 137.768C262.181 134.987 264.304 132.602 267.084 132.44L267.085 132.44L266.644 124.888C263.864 125.05 261.479 122.928 261.316 120.148C261.154 117.368 263.276 114.982 266.056 114.82L265.615 107.269L265.615 107.269C262.835 107.431 260.449 105.309 260.287 102.528C260.125 99.748 262.247 97.3626 265.027 97.2003L265.028 97.2003L264.587 89.6495L264.587 89.6495C261.806 89.8118 259.421 87.6894 259.259 84.9092L259.259 84.9087L251.708 85.3495L251.708 85.3498C251.87 88.1301 249.748 90.5155 246.968 90.6778C244.187 90.8401 241.802 88.7178 241.64 85.9375L241.639 85.9371L234.089 86.3778L234.089 86.3781C234.251 89.1584 232.129 91.5438 229.348 91.7061C226.568 91.8684 224.183 89.7461 224.02 86.9658L224.02 86.9655L216.469 87.4063L216.469 87.4065C216.631 90.1867 214.509 92.5722 211.728 92.7344C208.948 92.8967 206.563 90.7744 206.4 87.9941L206.4 87.9939L198.849 88.4347L198.849 88.4348C199.012 91.2151 196.889 93.6005 194.109 93.7628C191.329 93.925 188.943 91.8027 188.781 89.0224L188.781 89.0223L181.229 89.4631L181.229 89.4636C181.392 92.2439 179.269 94.6293 176.489 94.7916C173.709 94.9538 171.323 92.8315 171.161 90.0512L171.161 90.0508L163.61 90.4915L163.61 90.4919C163.772 93.2722 161.65 95.6576 158.87 95.8199C156.09 95.9822 153.704 93.8599 153.542 91.0796L153.542 91.0792L145.99 91.5199L145.99 91.5202C146.152 94.3005 144.03 96.6859 141.25 96.8482C138.469 97.0105 136.084 94.8882 135.922 92.1079L135.922 92.1076L128.371 92.5483L128.371 92.5485C128.533 95.3288 126.411 97.7143 123.631 97.8765C120.85 98.0388 118.465 95.9165 118.303 93.1362L118.303 93.136L110.752 93.5767L110.752 93.5769C110.914 96.3572 108.792 98.7426 106.011 98.9048C103.231 99.0671 100.846 96.9448 100.683 94.1645L100.683 94.1644L93.1317 94.6052C93.294 97.3855 91.1716 99.7709 88.3913 99.9332C85.6111 100.095 83.2256 97.9731 83.0634 95.1928L75.5125 95.6336L75.5125 95.634C75.6748 98.4143 73.5525 100.8 70.7722 100.962C67.9919 101.124 65.6065 99.0019 65.4442 96.2217L65.4442 96.2212L57.8934 96.6619L57.8934 96.6623C58.0557 99.4426 55.9334 101.828 53.1531 101.99C50.3728 102.153 47.9874 100.03 47.8251 97.25L47.8251 97.2496L40.2733 97.6904L40.2733 97.6906C40.4355 100.471 38.3132 102.856 35.5329 103.019C32.7527 103.181 30.3672 101.059 30.205 98.2783L30.2049 98.278L22.6531 98.7188L22.6532 98.719Z" fill="#F6D81F"/>
<path d="M75.8096 142.775C81.5826 142.438 84.8148 139.27 84.57 135.075C84.4233 132.563 82.8985 130.714 80.8882 130.185C82.7075 129.225 83.5131 127.678 83.3846 125.476C83.1337 121.178 79.827 118.787 74.3656 119.106C70.0048 119.36 66.2613 121.267 65.388 126.298L69.5433 126.805C69.9463 124.427 71.5153 123.106 74.5056 122.932C77.2674 122.77 79.0381 123.834 79.1617 125.952C79.2599 127.634 78.0709 128.683 75.7451 128.819L72.3811 129.015L72.5859 132.524L75.95 132.328C78.3796 132.186 80.1565 132.999 80.2874 135.242C80.411 137.36 78.66 138.775 75.462 138.962C72.3887 139.141 70.2333 137.912 69.6275 135.031L65.5791 135.996C66.6762 140.871 70.3897 143.092 75.8096 142.775ZM97.1253 117.777C92.2038 118.065 89.011 120.481 88.1064 124.617L92.176 125.442C92.7647 123.033 94.3825 121.834 97.3105 121.663C100.612 121.47 102.322 122.912 102.584 126.335L96.4613 127.464C90.8335 128.5 87.6602 130.894 87.9232 135.401C88.1595 139.45 91.2806 141.872 95.9113 141.602C99.4 141.398 101.856 139.922 103.221 137.258L103.413 140.539L107.774 140.285L106.992 126.891C106.611 120.37 103.376 117.413 97.1253 117.777ZM102.775 129.616L102.784 129.762C102.842 130.758 102.92 132.087 102.567 133.191C102.01 135.787 99.8085 137.686 96.6936 137.868C93.8487 138.034 92.3088 136.999 92.1816 134.819C92.0519 132.597 93.5805 131.299 97.1891 130.651L102.775 129.616ZM117.485 139.718L116.414 121.361L126.444 120.775L127.515 139.132L131.855 138.879L130.546 116.452L111.836 117.544L113.145 139.971L117.485 139.718ZM145.409 148.089L155.895 114.972L151.493 115.229L146.163 132.439L138.535 115.986L134.008 116.25L144.386 138.043L141.277 148.331L145.409 148.089ZM169.276 137.32C174.094 137.039 177.443 134.447 178.661 129.959L174.198 129.177C173.444 131.617 171.841 133.065 169.037 133.229C164.926 133.469 162.626 130.478 162.356 125.847C162.085 121.216 163.98 117.98 168.133 117.738C170.646 117.591 172.829 118.943 173.827 121.406L178.074 119.908C176.707 115.758 172.858 113.357 167.957 113.643C161.229 114.036 157.336 119.097 157.746 126.116C158.15 133.052 162.507 137.715 169.276 137.32ZM183.23 135.88L187.57 135.627L186.939 124.808L196.957 135.079L202.854 134.735L191.941 124.12L200.59 112.364L195.066 112.686L186.892 123.998L186.261 113.2L181.921 113.453L183.23 135.88Z" fill="#FB6217"/>
<path fill-rule="evenodd" clip-rule="evenodd" d="M25.8416 0.137621L33.4025 0.343979C33.3266 3.12789 35.5218 5.44627 38.3057 5.52225C41.0896 5.59824 43.4081 3.40305 43.4841 0.619136L51.046 0.825521C50.9702 3.60939 53.1654 5.92771 55.9493 6.0037C58.7332 6.07968 61.0516 3.88455 61.1277 1.10068L68.6886 1.30704C68.6126 4.09098 70.8079 6.4094 73.5918 6.48539C76.3758 6.56137 78.6943 4.36614 78.7703 1.58219L86.3321 1.78858C86.2562 4.57248 88.4515 6.89085 91.2354 6.96683C94.0193 7.04282 96.3378 4.84764 96.4138 2.06374L103.975 2.27009C103.899 5.05407 106.094 7.37254 108.878 7.44852C111.662 7.52451 113.98 5.32924 114.056 2.54526L121.618 2.7517C121.542 5.53561 123.738 7.85398 126.522 7.92997C129.305 8.00595 131.624 5.81077 131.7 3.02687L139.261 3.23322C139.185 6.01715 141.38 8.33555 144.164 8.41153C146.948 8.48752 149.266 6.29231 149.342 3.50839L156.904 3.71478C156.828 6.49872 159.024 8.81712 161.808 8.8931C164.592 8.96909 166.91 6.77388 166.986 3.98995L174.547 4.19631C174.471 6.98022 176.666 9.2986 179.45 9.37459C182.234 9.45057 184.552 7.25538 184.628 4.47147L192.19 4.67784C192.114 7.46182 194.309 9.78028 197.093 9.85627C199.877 9.93225 202.195 7.73699 202.271 4.95301L209.833 5.15948C209.757 7.94334 211.952 10.2617 214.736 10.3376C217.52 10.4136 219.838 8.2185 219.915 5.43465L227.476 5.64102C227.4 8.42494 229.595 10.7433 232.379 10.8193C235.163 10.8953 237.481 8.70011 237.557 5.91619L245.118 6.12256C245.043 8.90641 247.238 11.2247 250.022 11.3007L249.815 18.8621C247.031 18.7862 244.713 20.9814 244.637 23.7653C244.561 26.5492 246.756 28.8676 249.54 28.9438L249.334 36.5053C246.55 36.4293 244.231 38.6246 244.155 41.4085C244.079 44.1925 246.275 46.5109 249.059 46.5869L248.852 54.1479C246.068 54.0719 243.75 56.2672 243.674 59.0511C243.598 61.8351 245.793 64.1536 248.577 64.2296L248.371 71.791C245.587 71.7151 243.268 73.9103 243.192 76.6942L243.192 76.6944L235.632 76.488L235.632 76.4879C235.708 73.7039 233.512 71.3854 230.728 71.3095C227.944 71.2335 225.626 73.4287 225.55 76.2127L225.55 76.2129L217.988 76.0065L217.988 76.0063C218.064 73.2223 215.869 70.9039 213.085 70.8279C210.301 70.7519 207.982 72.9472 207.906 75.7312L207.906 75.7313L200.345 75.5249L200.345 75.5245C200.421 72.7405 198.226 70.4221 195.442 70.3461C192.658 70.2701 190.34 72.4654 190.264 75.2493L190.264 75.2498L182.702 75.0434L182.702 75.0431C182.778 72.2591 180.583 69.9406 177.799 69.8646C175.015 69.7887 172.696 71.9839 172.62 74.7679L172.62 74.7682L165.059 74.5618L165.059 74.5616C165.135 71.7776 162.94 69.4592 160.156 69.3832C157.372 69.3072 155.054 71.5025 154.978 74.2864L154.978 74.2867L147.416 74.0802C147.492 71.2962 145.297 68.9777 142.513 68.9017C139.729 68.8258 137.41 71.021 137.334 73.805L137.334 73.8051L129.773 73.5987C129.849 70.8147 127.654 68.4963 124.87 68.4203C122.086 68.3443 119.768 70.5396 119.692 73.3236L112.131 73.1172L112.131 73.1169C112.207 70.3329 110.011 68.0144 107.227 67.9384C104.443 67.8624 102.125 70.0577 102.049 72.8417L102.049 72.842L94.4871 72.6356L94.4871 72.6353C94.5631 69.8514 92.3678 67.5329 89.5838 67.4569C86.7998 67.3809 84.4814 69.5762 84.4054 72.3602L84.4054 72.3605L76.8446 72.1541L76.8446 72.1538C76.9206 69.3698 74.7253 67.0514 71.9413 66.9754C69.1574 66.8994 66.8389 69.0947 66.7629 71.8786L66.7629 71.8789L59.2018 71.6726L59.2019 71.6724C59.2778 68.8884 57.0826 66.57 54.2986 66.494C51.5146 66.418 49.1961 68.6133 49.1202 71.3973L49.1202 71.3974L41.5585 71.191C41.5585 71.1909 41.5585 71.1908 41.5585 71.1908C41.6345 68.4068 39.4392 66.0883 36.6552 66.0123C33.8712 65.9363 31.5528 68.1316 31.4768 70.9156C31.4768 70.9157 31.4768 70.9157 31.4768 70.9158L23.9157 70.7095L23.9157 70.7094C23.9917 67.9254 21.7964 65.6069 19.0125 65.531L19.0122 65.5309L19.2186 57.9696L19.2187 57.9696C22.0027 58.0456 24.3211 55.8503 24.3971 53.0663C24.4731 50.2823 22.2778 47.9639 19.4938 47.8879L19.4937 47.8879L19.7001 40.3265C22.4841 40.4025 24.8025 38.2072 24.8785 35.4232C24.9545 32.6393 22.7592 30.3208 19.9753 30.2448L20.1817 22.6836L20.1817 22.6836C22.9657 22.7596 25.2841 20.5644 25.3601 17.7804C25.4361 14.9964 23.2408 12.6779 20.4569 12.6019L20.4568 12.6019L20.6632 5.04081C23.4471 5.11676 25.7655 2.92155 25.8416 0.137621Z" fill="#FFF9EF"/>
<path d="M86.0905 48.8793C90.9146 49.011 94.4731 46.7151 96.0698 42.3472L91.69 41.1872C90.7306 43.554 89.0094 44.8596 86.2023 44.783C82.0852 44.6706 80.0494 41.4937 80.1759 36.8568C80.3025 32.2198 82.467 29.1576 86.6257 29.2711C89.1417 29.3398 91.2015 30.8734 91.9854 33.4127L96.3445 32.2831C95.3369 28.0314 91.7071 25.3104 86.7999 25.1765C80.0628 24.9926 75.7516 29.7026 75.5598 36.7308C75.3702 43.6758 79.3118 48.6943 86.0905 48.8793ZM100.116 48.6379L104.462 48.7565L104.758 37.9231L113.861 49.013L119.766 49.1742L109.801 37.6654L119.423 26.6911L113.892 26.5402L104.78 37.1122L105.075 26.2995L100.729 26.1809L100.116 48.6379ZM131.194 50.1104C137.889 50.2931 142.346 45.5871 142.538 38.5381C142.729 31.5515 138.557 26.5891 131.841 26.4058C125.187 26.2242 120.709 30.9297 120.518 37.9371C120.327 44.9445 124.498 49.9276 131.194 50.1104ZM131.306 46.0141C127.189 45.9017 125.003 42.8872 125.134 38.0631C125.265 33.2806 127.529 30.3875 131.729 30.5021C135.888 30.6156 138.054 33.588 137.922 38.4121C137.792 43.1946 135.464 46.1276 131.306 46.0141ZM150.874 60.0116L151.236 46.7661C152.562 49.237 154.831 50.7555 158.345 50.8514C164.375 51.016 168.666 46.2847 168.858 39.2565C169.047 32.3114 165.043 27.312 158.992 27.1469C155.499 27.0515 153.13 28.4435 151.67 30.8383L151.76 27.5737L147.414 27.4551L146.528 59.893L150.874 60.0116ZM157.625 46.7324C153.425 46.6178 151.324 43.5223 151.454 38.7814C151.579 34.2069 153.682 31.1013 158.048 31.2205C162.29 31.3363 164.37 34.4311 164.242 39.1305C164.116 43.7258 161.908 46.8493 157.625 46.7324ZM182.853 51.5204C189.548 51.7031 194.005 46.9971 194.197 39.9481C194.388 32.9615 190.216 27.9991 183.5 27.8158C176.846 27.6342 172.368 32.3396 172.177 39.3471C171.986 46.3545 176.157 51.3376 182.853 51.5204ZM182.964 47.424C178.847 47.3117 176.661 44.2971 176.793 39.473C176.924 34.6905 179.188 31.7975 183.388 31.9121C187.547 32.0256 189.713 34.998 189.581 39.8221C189.451 44.6046 187.123 47.5376 182.964 47.424Z" fill="#FB6217"/>
</svg>
