<svg width="838" height="338" viewBox="0 0 838 338" fill="none" xmlns="http://www.w3.org/2000/svg">
<path fill-rule="evenodd" clip-rule="evenodd" d="M34.3323 232.7L0 281.294L2.07109 283.94C7.75132 291.198 15.0897 298.043 24.0078 304.501C32.9364 310.967 42.908 316.637 53.905 321.525L53.9257 321.534L53.9466 321.543C65.2853 326.446 77.651 330.259 91.0277 332.998C104.486 336.053 118.528 337.574 133.143 337.574C151.411 337.574 168.257 335.291 183.647 330.675C199.308 326.068 212.809 319.422 224.059 310.672L224.089 310.648L224.119 310.624C235.333 301.591 244.097 290.809 250.361 278.295C256.986 265.659 260.254 251.516 260.254 235.966C260.254 219.906 257.019 206.337 250.194 195.577C243.882 184.87 235.504 176.176 225.093 169.542C214.85 162.72 203.265 157.479 190.375 153.79C178.059 149.886 165.595 146.433 152.981 143.43L152.948 143.422L152.915 143.415C142.221 141.038 131.826 138.662 121.728 136.287C112.114 133.661 103.421 130.614 95.6343 127.155C88.4032 123.814 82.7171 119.721 78.4442 114.946C74.7473 110.214 72.785 104.268 72.785 96.8188C72.785 85.0568 78.0204 75.3272 89.2001 67.4123C100.694 59.4848 117.111 55.2522 138.96 55.2522C150.883 55.2522 160.845 56.5637 168.94 59.0759L169.027 59.1029L169.115 59.1264C177.692 61.4135 184.821 64.5163 190.592 68.3635L190.694 68.4315L190.799 68.4939C197.077 72.2033 202.083 76.1223 205.902 80.2148C209.934 84.5348 213.186 88.6474 215.695 92.5505L218.827 97.4221L259.357 54.2257L257.147 51.2011C245.277 34.9577 228.937 22.4059 208.315 13.4797C187.691 4.553 164.697 0.132812 139.407 0.132812C121.717 0.132812 105.307 2.42062 90.2109 7.042C75.1482 11.653 61.9758 18.294 50.7604 27.0104C39.4801 35.478 30.6819 46.0067 24.4065 58.5575C18.0918 71.1868 14.9811 85.314 14.9811 100.846C14.9811 118.494 18.8537 133.34 26.9736 145.032L26.9907 145.057L27.0081 145.081C34.8649 156.081 44.9154 165.02 57.0995 171.893L57.1382 171.915L57.1773 171.936C69.1631 178.39 82.3375 183.439 96.6796 187.101L96.6905 187.103L96.7015 187.106C111.054 190.694 124.962 193.984 138.425 196.976C147.582 199.044 156.131 201.256 164.074 203.609L164.095 203.616L164.116 203.622C172.128 205.911 178.856 208.876 184.372 212.462L184.48 212.532L184.592 212.596C190.32 215.869 194.693 219.883 197.84 224.602L197.873 224.652L197.908 224.702C200.848 228.867 202.45 234.172 202.45 240.888C202.45 246.385 201.153 251.616 198.519 256.636C195.925 261.287 191.97 265.558 186.48 269.401L186.435 269.433L186.391 269.465C181.263 273.244 174.479 276.472 165.898 279.051C157.753 281.292 147.903 282.455 136.275 282.455C123.189 282.455 111.531 281.001 101.262 278.15C91.1326 275.255 82.0838 271.512 74.0881 266.943C65.9838 262.312 58.9463 257.426 52.9503 252.297C47.0945 246.731 42.1536 241.639 38.1108 237.018L34.3323 232.7ZM293.577 175.818L293.568 175.844L293.558 175.87C288.612 190.091 286.149 205.061 286.149 220.754C286.149 237.66 288.917 253.426 294.501 268.007L294.507 268.022L294.513 268.037C300.096 282.304 308.035 294.622 318.344 304.931L318.368 304.955L318.392 304.979C328.997 315.272 341.744 323.337 356.564 329.203L356.602 329.218L356.641 329.233C371.552 334.824 388.359 337.574 406.996 337.574C421.294 337.574 433.94 336.057 444.868 332.942C455.527 330.198 464.795 326.813 472.614 322.747L472.642 322.732L472.671 322.717C480.604 318.445 487.281 314.112 492.64 309.699L492.65 309.69L492.66 309.682C498.046 305.193 502.273 301.572 505.318 298.831L508.179 296.257L480.07 252.716L476.12 257.105C473.617 259.886 470.209 263.163 465.849 266.945C461.674 270.275 456.755 273.373 451.06 276.22C445.388 279.056 438.951 281.494 431.728 283.517L431.704 283.523L431.681 283.53C424.979 285.485 417.655 286.482 409.68 286.482C390.582 286.482 375.291 281.234 363.431 271.038C352.989 261.832 346.167 249.929 343.04 235.115H505.329L505.875 231.225C508.326 213.761 507.881 197.262 504.474 181.765C501.07 165.989 494.859 152.111 485.793 140.214C476.979 127.957 465.353 118.402 451.02 111.544C436.854 104.622 420.193 101.25 401.179 101.25C383.04 101.25 366.724 104.48 352.324 111.054C338.06 117.565 325.908 126.434 315.925 137.665L315.92 137.671C306.269 148.566 298.828 161.299 293.577 175.818ZM447.543 179.48L447.555 179.51L447.568 179.539C448.45 181.657 449.195 183.906 449.799 186.29L449.814 186.289C449.916 186.72 450.014 187.147 450.108 187.572C450.309 188.457 450.492 189.36 450.656 190.282C452.073 197.949 452.072 203.907 452.072 203.907L438.972 209.78C438.972 209.78 429.377 196.261 397.763 195.789C366.049 196.232 355.565 209.621 355.565 209.621L342.744 203.748C342.744 203.748 343.024 200.153 344.252 194.645C344.88 191.48 345.691 188.531 346.677 185.791C346.721 185.657 346.765 185.522 346.81 185.387L346.823 185.39C347.65 183.148 348.596 181.048 349.656 179.086C353.592 172.065 358.163 166.416 363.331 162.054C368.896 157.61 374.837 154.304 381.16 152.101C387.939 149.844 394.154 148.763 399.837 148.763C407.059 148.763 413.806 150.01 420.114 152.479L420.195 152.511L420.276 152.539C426.502 154.704 431.88 158.07 436.463 162.652L436.511 162.7L436.561 162.747C441.085 167.005 444.767 172.54 447.543 179.48ZM544.202 5.50186V332.205H600.216V5.50186H544.202ZM835.978 36.7774C828.403 24.1531 818.361 14.8533 805.853 9.06979C793.45 3.03708 778.426 0.132812 760.964 0.132812C745.3 0.132812 731.417 2.58724 719.419 7.63369C707.796 12.3501 697.974 19.1467 690.034 28.0394L690.027 28.0468C682.428 36.5963 676.625 46.8295 672.575 58.6681L672.563 58.7023L672.552 58.7367C668.812 70.268 666.963 82.6742 666.963 95.924V106.619H622.668V155.922H666.963V332.205H722.977V155.922H817.382V106.619H772.628C763.548 106.846 747.162 107.955 733.063 112.655C718.607 117.474 702.585 129.733 701.44 130.725L693.309 119.883C693.309 119.883 708.109 108.841 712.282 104.071C715.445 100.457 719.485 95.5325 721.317 89.6153C722.442 85.9839 722.817 82.4004 722.989 77.418L722.993 77.4187C723.211 70.3196 725.644 64.2922 730.31 59.1345L730.345 59.0958L730.379 59.0564C734.779 53.9624 742.99 50.778 756.49 50.778C764.523 50.778 771.66 53.0344 778.039 57.553L778.092 57.5899L778.145 57.6254C784.903 62.1308 788.927 66.6099 790.84 70.9136L793.229 76.2886L838 40.1479L835.978 36.7774Z" fill="#FFF9EF"/>
</svg>
