<svg width="39" height="39" viewBox="0 0 39 39" fill="none" xmlns="http://www.w3.org/2000/svg">
<circle cx="19.5" cy="19.5" r="18.8448" fill="white" stroke="black" stroke-width="1.31034"/>
<path d="M13.4249 25.097C13.1644 25.3481 13.1644 25.7554 13.4249 26.0065C13.6853 26.2577 14.1076 26.2577 14.3681 26.0065L13.4249 25.097ZM27.8766 12.7141C27.8766 12.3589 27.578 12.071 27.2096 12.071L21.2068 12.071C20.8385 12.071 20.5399 12.3589 20.5399 12.7141C20.5399 13.0693 20.8385 13.3573 21.2068 13.3573H26.5426V18.5025C26.5426 18.8577 26.8412 19.1457 27.2096 19.1457C27.578 19.1457 27.8766 18.8577 27.8766 18.5025L27.8766 12.7141ZM14.3681 26.0065L27.6812 13.1689L26.738 12.2593L13.4249 25.097L14.3681 26.0065Z" fill="black"/>
</svg>
