<svg width="110" height="46" viewBox="0 0 110 46" fill="none" xmlns="http://www.w3.org/2000/svg">
<path fill-rule="evenodd" clip-rule="evenodd" d="M4.50663 31.235L0 37.6136L0.271861 37.961C1.01748 38.9137 1.98075 39.8122 3.15139 40.6599C4.3234 41.5086 5.63231 42.253 7.07583 42.8946L7.07856 42.8958L7.0813 42.897C8.56967 43.5406 10.1929 44.041 11.9487 44.4006C13.7154 44.8016 15.5585 45.0012 17.477 45.0012C19.875 45.0012 22.0863 44.7016 24.1064 44.0957C26.1622 43.4908 27.9343 42.6185 29.411 41.47L29.415 41.4668L29.419 41.4637C30.8909 40.2779 32.0413 38.8626 32.8636 37.22C33.7333 35.5613 34.1622 33.7049 34.1622 31.6637C34.1622 29.5556 33.7376 27.7744 32.8417 26.362C32.0132 24.9566 30.9134 23.8153 29.5469 22.9445C28.2023 22.049 26.6815 21.361 24.9895 20.8768C23.373 20.3644 21.7368 19.9111 20.0811 19.5169L20.0767 19.5159L20.0724 19.5149C18.6687 19.203 17.3041 18.8911 15.9786 18.5793C14.7167 18.2346 13.5755 17.8346 12.5534 17.3806C11.6042 16.942 10.8579 16.4048 10.297 15.778C9.8117 15.1568 9.55412 14.3763 9.55412 13.3985C9.55412 11.8546 10.2413 10.5774 11.7088 9.53847C13.2176 8.49786 15.3725 7.94227 18.2405 7.94227C19.8057 7.94227 21.1133 8.11443 22.1759 8.4442L22.1873 8.44774L22.1989 8.45082C23.3247 8.75104 24.2605 9.15833 25.018 9.66332L25.0314 9.67225L25.0453 9.68044C25.8693 10.1674 26.5263 10.6818 27.0277 11.219C27.557 11.7861 27.9839 12.3259 28.3132 12.8382L28.7243 13.4777L34.0445 7.80753L33.7543 7.41051C32.1962 5.27832 30.0514 3.63071 27.3444 2.45901C24.6372 1.28725 21.619 0.707031 18.2993 0.707031C15.9772 0.707031 13.8232 1.00734 11.8415 1.61397C9.86433 2.21923 8.13525 3.09096 6.66306 4.23512C5.18235 5.34661 4.02745 6.72867 3.20371 8.37615C2.37482 10.0339 1.9665 11.8883 1.9665 13.9271C1.9665 16.2437 2.47483 18.1924 3.54069 19.7273L3.54293 19.7305L3.54522 19.7337C4.57654 21.1776 5.89582 22.351 7.49516 23.2532L7.50024 23.256L7.50537 23.2588C9.07869 24.106 10.808 24.7687 12.6906 25.2493L12.6921 25.2497L12.6935 25.2501C14.5775 25.7211 16.4031 26.1529 18.1703 26.5457C19.3723 26.8171 20.4945 27.1074 21.5372 27.4164L21.54 27.4172L21.5427 27.418C22.5943 27.7184 23.4775 28.1077 24.2015 28.5783L24.2158 28.5876L24.2305 28.596C24.9823 29.0256 25.5564 29.5525 25.9694 30.172L25.9738 30.1786L25.9784 30.185C26.3643 30.7318 26.5746 31.4282 26.5746 32.3097C26.5746 33.0314 26.4043 33.7179 26.0586 34.3768C25.7181 34.9874 25.199 35.5481 24.4783 36.0525L24.4724 36.0567L24.4666 36.0609C23.7934 36.557 22.903 36.9807 21.7766 37.3192C20.7074 37.6134 19.4144 37.766 17.8882 37.766C16.1704 37.766 14.6401 37.5752 13.2921 37.201C11.9625 36.821 10.7747 36.3296 9.72517 35.7298C8.66135 35.1219 7.73758 34.4806 6.95051 33.8074C6.18185 33.0767 5.53329 32.4083 5.00261 31.8018L4.50663 31.235ZM38.5364 23.7683L38.5351 23.7717L38.5339 23.7752C37.8847 25.6418 37.5613 27.6069 37.5613 29.6669C37.5613 31.8861 37.9247 33.9555 38.6577 35.8695L38.6585 35.8715L38.6592 35.8735C39.3921 37.7462 40.4342 39.3631 41.7874 40.7164L41.7905 40.7195L41.7937 40.7226C43.1858 42.0737 44.859 43.1324 46.8044 43.9025L46.8094 43.9044L46.8144 43.9063C48.7717 44.6403 50.978 45.0012 53.4243 45.0012C55.3012 45.0012 56.9611 44.8021 58.3955 44.3933C59.7948 44.033 61.0112 43.5887 62.0376 43.055L62.0414 43.053L62.0451 43.051C63.0864 42.4903 63.9629 41.9215 64.6664 41.3422L64.6677 41.3411L64.669 41.34C65.376 40.7508 65.9308 40.2754 66.3306 39.9156L66.7061 39.5777L63.0164 33.8623L62.4978 34.4385C62.1693 34.8036 61.722 35.2336 61.1496 35.7301C60.6017 36.1673 59.9559 36.5739 59.2083 36.9476C58.4638 37.3199 57.6189 37.6399 56.6707 37.9054L56.6677 37.9063L56.6646 37.9072C55.7849 38.1638 54.8234 38.2946 53.7766 38.2946C51.2697 38.2946 49.2626 37.6057 47.7058 36.2674C46.3351 35.0589 45.4395 33.4965 45.0291 31.5519H66.332L66.4036 31.0414C66.7254 28.7489 66.667 26.5831 66.2197 24.549C65.7729 22.4781 64.9577 20.6564 63.7676 19.0948C62.6106 17.4858 61.0846 16.2316 59.2031 15.3314C57.3436 14.4228 55.1565 13.9801 52.6608 13.9801C50.2798 13.9801 48.138 14.4041 46.2478 15.267C44.3755 16.1218 42.7803 17.2859 41.4699 18.7601L41.4692 18.7609C40.2024 20.1912 39.2257 21.8626 38.5364 23.7683ZM58.7467 24.249L58.7483 24.2529L58.7499 24.2568C58.8655 24.5341 58.9631 24.8286 59.0423 25.1408L59.0437 25.1407C59.0521 25.1761 59.0603 25.2113 59.0683 25.2464C59.1067 25.4085 59.1403 25.5752 59.169 25.7466C59.3402 26.7133 59.3402 27.4533 59.3402 27.4533L57.6205 28.2242C57.6205 28.2242 56.3707 26.4632 52.2587 26.3884C48.0578 26.4335 46.6709 28.2047 46.6709 28.2047L44.988 27.4338C44.988 27.4338 45.0285 26.9142 45.2106 26.1301C45.283 25.7878 45.3719 25.4651 45.4768 25.1617C45.4914 25.116 45.5063 25.07 45.5217 25.0236L45.5258 25.0245C45.6344 24.7303 45.7585 24.4547 45.8976 24.1973C46.4143 23.2756 47.0143 22.5342 47.6926 21.9617C48.4231 21.3783 49.2029 20.9443 50.033 20.6551C50.9227 20.3589 51.7386 20.2169 52.4846 20.2169C53.4326 20.2169 54.3182 20.3807 55.1463 20.7047L55.1568 20.7089L55.1676 20.7126C55.9847 20.9968 56.6908 21.4386 57.2923 22.0401L57.2986 22.0465L57.3052 22.0526C57.8989 22.6115 58.3824 23.3381 58.7467 24.249ZM71.4346 1.4118V44.2965H78.7873V1.4118H71.4346ZM109.735 5.51718C108.74 3.86005 107.422 2.63932 105.78 1.88014C104.152 1.08826 102.18 0.707031 99.8879 0.707031C97.8318 0.707031 96.0094 1.02921 94.4345 1.69163C92.9088 2.31073 91.6195 3.20289 90.5773 4.37018L90.5764 4.37116C89.5788 5.49341 88.8171 6.83667 88.2855 8.39067L88.284 8.39516L88.2825 8.39967C87.7916 9.91332 87.5488 11.5418 87.5488 13.2811V14.6849H81.7345V21.1566H87.5488V44.2965H94.9015V21.1566H107.294V14.6849H101.391C100.192 14.7165 98.0633 14.865 96.2291 15.4764C94.3315 16.1089 92.2284 17.7182 92.0781 17.8484L91.0107 16.4252C91.0107 16.4252 92.9535 14.9758 93.5013 14.3497C93.9164 13.8753 94.4467 13.2288 94.6873 12.4521C94.8245 12.0091 94.8767 11.5716 94.9015 10.9871C94.9022 9.99629 95.2222 9.1614 95.8641 8.45188L95.8687 8.44681L95.8732 8.44163C96.4507 7.77297 97.5285 7.35496 99.3006 7.35496C100.355 7.35496 101.292 7.65116 102.129 8.24428L102.136 8.24913L102.143 8.25379C103.03 8.84519 103.558 9.43314 103.81 9.99806L104.123 10.7036L110 5.95962L109.735 5.51718Z" fill="#FFF9EF"/>
</svg>
