<svg width="44" height="44" viewBox="0 0 44 44" fill="none" xmlns="http://www.w3.org/2000/svg">
<path fill-rule="evenodd" clip-rule="evenodd" d="M21.7939 1.32684e-05C9.73857 0.11062 0 9.91756 0 21.9991C0 34.0803 9.73814 43.8871 21.7931 43.9981C21.5335 34.2702 21.3117 29.8257 18.3039 26.2599C15.197 22.8004 11.3237 22.5645 2.83798 22.25V21.7783C11.3237 21.4795 15.197 21.2279 18.3039 17.7684C21.3148 14.1989 21.5202 9.7489 21.7939 1.32684e-05ZM22.2046 0C22.4646 9.74889 22.6837 14.1989 25.6947 17.7684C28.8015 21.2279 32.6749 21.4638 41.1606 21.7783V22.25C32.6749 22.5488 28.8015 22.8004 25.6947 26.2599C22.6868 29.8257 22.4787 34.2702 22.2055 43.9981C34.2611 43.8878 44 34.0808 44 21.9991C44 9.91708 34.2606 0.109833 22.2046 0Z" fill="#FF5400"/>
</svg>
