<svg width="100" height="41" viewBox="0 0 100 41" fill="none" xmlns="http://www.w3.org/2000/svg">
<path fill-rule="evenodd" clip-rule="evenodd" d="M4.09694 27.7527L0 33.5514L0.247147 33.8672C0.924978 34.7333 1.80068 35.5502 2.8649 36.3208C3.93036 37.0924 5.12029 37.7691 6.43257 38.3523L6.43505 38.3534L6.43755 38.3545C7.79061 38.9396 9.26623 39.3946 10.8625 39.7214C12.4685 40.086 14.1441 40.2675 15.8882 40.2675C18.0682 40.2675 20.0784 39.995 21.9149 39.4442C23.7838 38.8944 25.3949 38.1013 26.7373 37.0572L26.7409 37.0544L26.7445 37.0515C28.0827 35.9735 29.1285 34.6869 29.876 33.1936C30.6666 31.6857 31.0566 29.998 31.0566 28.1424C31.0566 26.226 30.6706 24.6067 29.8561 23.3227C29.1029 22.0451 28.1031 21.0075 26.8608 20.2159C25.6385 19.4018 24.2559 18.7764 22.7177 18.3361C21.2481 17.8704 19.7607 17.4583 18.2555 17.0999L18.2516 17.099L18.2476 17.0981C16.9715 16.8145 15.731 16.531 14.526 16.2475C13.3788 15.9342 12.3414 15.5705 11.4122 15.1578C10.5493 14.759 9.87078 14.2707 9.36088 13.7009C8.91973 13.1362 8.68556 12.4266 8.68556 11.5377C8.68556 10.1341 9.31031 8.97308 10.6444 8.02858C12.016 7.08257 13.975 6.57749 16.5823 6.57749C18.0051 6.57749 19.194 6.734 20.1599 7.03379L20.1703 7.03701L20.1808 7.03981C21.2043 7.31273 22.055 7.683 22.7436 8.14208L22.7558 8.1502L22.7684 8.15765C23.5175 8.6003 24.1149 9.06796 24.5707 9.55632C25.0518 10.0718 25.4399 10.5626 25.7393 11.0284L26.113 11.6097L30.9495 6.455L30.6858 6.09407C29.2693 4.15572 27.3195 2.65789 24.8586 1.59271C22.3975 0.527469 19.6536 0 16.6357 0C14.5247 0 12.5665 0.273008 10.765 0.824486C8.96757 1.37473 7.39568 2.16721 6.05733 3.20735C4.71123 4.2178 3.66132 5.47422 2.91247 6.97193C2.15893 8.479 1.78773 10.1648 1.78773 12.0182C1.78773 14.1242 2.24984 15.8958 3.21881 17.2911L3.22085 17.2941L3.22292 17.297C4.16049 18.6096 5.35984 19.6763 6.81378 20.4965L6.8184 20.4991L6.82307 20.5016C8.25336 21.2718 9.82548 21.8742 11.5369 22.3112L11.5382 22.3115L11.5396 22.3119C13.2522 22.74 14.9119 23.1326 16.5185 23.4897C17.6112 23.7364 18.6314 24.0004 19.5793 24.2812L19.5818 24.282L19.5843 24.2827C20.5403 24.5558 21.3431 24.9097 22.0014 25.3376L22.0143 25.346L22.0277 25.3536C22.7112 25.7442 23.2331 26.2231 23.6086 26.7863L23.6125 26.7923L23.6167 26.7982C23.9676 27.2953 24.1587 27.9283 24.1587 28.7297C24.1587 29.3857 24.0039 30.0099 23.6897 30.6089C23.3801 31.164 22.9081 31.6737 22.253 32.1323L22.2476 32.136L22.2424 32.1399C21.6304 32.5909 20.8209 32.9761 19.7969 33.2838C18.8249 33.5512 17.6495 33.69 16.262 33.69C14.7003 33.69 13.3092 33.5165 12.0837 33.1763C10.875 32.8309 9.7952 32.3841 8.84107 31.8389C7.87396 31.2863 7.03416 30.7032 6.31865 30.0912C5.61987 29.427 5.03027 28.8193 4.54782 28.268L4.09694 27.7527ZM35.0331 20.9648L35.0319 20.9679L35.0308 20.9711C34.4406 22.668 34.1467 24.4544 34.1467 26.3271C34.1467 28.3446 34.477 30.2259 35.1434 31.9659L35.1441 31.9677L35.1448 31.9695C35.811 33.672 36.7583 35.1419 37.9886 36.3722L37.9914 36.375L37.9943 36.3778C39.2598 37.6061 40.7809 38.5685 42.5494 39.2686L42.554 39.2704L42.5586 39.2721C44.3379 39.9393 46.3436 40.2675 48.5675 40.2675C50.2738 40.2675 51.7828 40.0865 53.0868 39.7148C54.3589 39.3872 55.4648 38.9833 56.3978 38.4981L56.4012 38.4963L56.4047 38.4945C57.3513 37.9848 58.1481 37.4677 58.7876 36.941L58.7888 36.94L58.79 36.939C59.4328 36.4034 59.9371 35.9713 60.3005 35.6442L60.6419 35.337L57.2876 30.1412L56.8162 30.6649C56.5175 30.9968 56.1109 31.3878 55.5906 31.8391C55.0924 32.2366 54.5053 32.6062 53.8257 32.946C53.1489 33.2844 52.3808 33.5754 51.5189 33.8167L51.516 33.8175L51.5133 33.8183C50.7135 34.0516 49.8394 34.1705 48.8879 34.1705C46.6088 34.1705 44.7841 33.5443 43.3689 32.3276C42.1228 31.229 41.3087 29.8086 40.9355 28.0408H60.3018L60.3669 27.5767C60.6594 25.4926 60.6064 23.5237 60.1997 21.6745C59.7936 19.7919 59.0524 18.1358 57.9705 16.7162C56.9187 15.2535 55.5314 14.1133 53.821 13.2948C52.1306 12.4689 50.1423 12.0665 47.8734 12.0665C45.7089 12.0665 43.7618 12.4519 42.0434 13.2364C40.3414 14.0134 38.8912 15.0717 37.6999 16.4119L37.6992 16.4126C36.5476 17.7128 35.6597 19.2323 35.0331 20.9648ZM53.4061 21.4018L53.4075 21.4053L53.409 21.4089C53.5143 21.6615 53.6032 21.9298 53.6753 22.2143L53.6777 22.2141C53.9473 23.3461 53.9472 24.3165 53.9472 24.3165L52.3839 25.0173C52.3839 25.0173 51.2415 23.4076 47.479 23.3479C43.685 23.3975 42.4313 24.9987 42.4313 24.9987L40.9014 24.2979C40.9014 24.2979 40.9333 23.8886 41.0712 23.257C41.1499 22.8494 41.2537 22.4714 41.3814 22.1223L41.3865 22.1068L41.3871 22.1069C41.4857 21.8394 41.5986 21.5888 41.7251 21.3548C42.1948 20.5169 42.7402 19.8429 43.3569 19.3224C44.021 18.7921 44.7299 18.3975 45.4845 18.1346C46.2934 17.8653 47.0351 17.7363 47.7132 17.7363C48.5751 17.7363 49.3802 17.8852 50.133 18.1797L50.1426 18.1835L50.1523 18.1869C50.8952 18.4453 51.5371 18.8469 52.0839 19.3937L52.0897 19.3995L52.0956 19.4051C52.6354 19.9131 53.0749 20.5737 53.4061 21.4018ZM64.9406 0.640698V39.6268H71.6248V0.640698H64.9406ZM99.7587 4.37287C98.8548 2.86638 97.6564 1.75662 96.1639 1.06646C94.6838 0.346571 92.8909 0 90.8072 0C88.938 0 87.2812 0.292891 85.8495 0.895093C84.4625 1.45791 83.2904 2.26896 82.343 3.33014L82.3422 3.33103C81.4353 4.35125 80.7428 5.5724 80.2595 6.98512L80.2581 6.9892L80.2568 6.99331C79.8105 8.36936 79.5898 9.84981 79.5898 11.4309V12.7072H74.3041V18.5905H79.5898V39.6268H86.2741V18.5905H97.5397V12.7072H92.2031C91.1202 12.7341 89.1625 12.8661 87.4783 13.4275C85.7533 14.0026 83.8413 15.4655 83.7047 15.5839L82.7344 14.2901C82.7344 14.2901 84.5005 12.9724 84.9985 12.4033C85.3759 11.972 85.858 11.3843 86.0767 10.6782C86.2092 10.2503 86.2545 9.82802 86.2754 9.24507C86.2969 8.38819 86.5874 7.66167 87.1492 7.04078L87.1534 7.03616L87.1574 7.03145C87.6824 6.42358 88.6623 6.04357 90.2733 6.04357C91.2319 6.04357 92.0836 6.31284 92.8448 6.85205L92.851 6.85646L92.8574 6.86069C93.6638 7.39833 94.1441 7.93283 94.3723 8.44639L94.6574 9.0878L100 4.77508L99.7587 4.37287Z" fill="#FB6217"/>
</svg>
