<svg width="26" height="26" viewBox="0 0 26 26" fill="none" xmlns="http://www.w3.org/2000/svg">
<path d="M14 3C14 2.44772 13.5523 2 13 2C12.4477 2 12 2.44772 12 3H14ZM12.2929 23.7071C12.6834 24.0976 13.3166 24.0976 13.7071 23.7071L20.0711 17.3431C20.4616 16.9526 20.4616 16.3195 20.0711 15.9289C19.6805 15.5384 19.0474 15.5384 18.6569 15.9289L13 21.5858L7.34315 15.9289C6.95262 15.5384 6.31946 15.5384 5.92893 15.9289C5.53841 16.3195 5.53841 16.9526 5.92893 17.3431L12.2929 23.7071ZM12 3L12 23H14L14 3H12Z" fill="#B17A52"/>
</svg>
