<svg width="64" height="26" viewBox="0 0 64 26" fill="none" xmlns="http://www.w3.org/2000/svg">
<path fill-rule="evenodd" clip-rule="evenodd" d="M2.62204 17.9194L0 21.6636L0.158174 21.8675C0.591986 22.4267 1.15243 22.9541 1.83353 23.4517C2.51543 23.9499 3.27698 24.3868 4.11685 24.7634L4.11843 24.7641L4.12003 24.7648C4.98599 25.1426 5.93039 25.4364 6.952 25.6474C7.97984 25.8828 9.05224 26 10.1685 26C11.5636 26 12.8502 25.8241 14.0255 25.4685C15.2216 25.1134 16.2527 24.6014 17.1119 23.9272L17.1142 23.9254L17.1165 23.9235C17.9729 23.2275 18.6422 22.3967 19.1206 21.4325C19.6266 20.4589 19.8762 19.3692 19.8762 18.1711C19.8762 16.9337 19.6292 15.8881 19.1079 15.0591C18.6259 14.2341 17.986 13.5642 17.1909 13.0531C16.4086 12.5274 15.5238 12.1236 14.5393 11.8393C13.5988 11.5386 12.6469 11.2725 11.6835 11.0411L11.681 11.0405L11.6785 11.0399C10.8618 10.8568 10.0678 10.6738 9.29663 10.4907C8.56242 10.2884 7.8985 10.0536 7.30381 9.78711C6.75155 9.52966 6.3173 9.21436 5.99097 8.84641C5.70862 8.48182 5.55876 8.02364 5.55876 7.4497C5.55876 6.54343 5.9586 5.79376 6.81242 5.18392C7.69026 4.57309 8.94403 4.24697 10.6127 4.24697C11.5233 4.24697 12.2841 4.34803 12.9024 4.54159L12.909 4.54367L12.9157 4.54548C13.5707 4.7217 14.1152 4.96078 14.5559 5.2572L14.5637 5.26245L14.5718 5.26725C15.0512 5.55307 15.4335 5.85503 15.7252 6.17035C16.0332 6.50321 16.2815 6.82009 16.4731 7.12082L16.7123 7.49618L19.8077 4.16788L19.6389 3.93484C18.7323 2.68328 17.4845 1.71615 15.9095 1.02838C14.3344 0.340578 12.5783 0 10.6469 0C9.2958 0 8.04257 0.176276 6.88962 0.532356C5.73925 0.887637 4.73324 1.39933 3.87669 2.07093C3.01519 2.72336 2.34325 3.53461 1.86398 4.50165C1.38172 5.47474 1.14414 6.56325 1.14414 7.75997C1.14414 9.11977 1.4399 10.2637 2.06004 11.1646L2.06134 11.1665L2.06267 11.1684C2.66272 12.0159 3.4303 12.7046 4.36082 13.2342L4.36377 13.2359L4.36676 13.2375C5.28215 13.7348 6.28831 14.1238 7.38364 14.406L7.38448 14.4062L7.38532 14.4064C8.48143 14.6828 9.54361 14.9363 10.5718 15.1669C11.2712 15.3262 11.9241 15.4966 12.5307 15.678L12.5323 15.6784L12.534 15.6789C13.1458 15.8553 13.6596 16.0838 14.0809 16.36L14.0892 16.3654L14.0977 16.3704C14.5352 16.6226 14.8692 16.9318 15.1095 17.2955L15.112 17.2993L15.1147 17.3031C15.3392 17.6241 15.4616 18.0328 15.4616 18.5503C15.4616 18.9739 15.3625 19.3769 15.1614 19.7637C14.9633 20.1221 14.6612 20.4511 14.2419 20.7473L14.2385 20.7497L14.2351 20.7522C13.8434 21.0434 13.3254 21.2921 12.67 21.4908C12.048 21.6634 11.2957 21.753 10.4077 21.753C9.40821 21.753 8.51789 21.641 7.7336 21.4214C6.96001 21.1983 6.26893 20.9099 5.65828 20.5578C5.03933 20.201 4.50186 19.8245 4.04393 19.4294C3.59671 19.0005 3.21937 18.6081 2.91061 18.2521L2.62204 17.9194ZM22.4212 13.5366L22.4204 13.5386L22.4197 13.5407C22.042 14.6363 21.8539 15.7898 21.8539 16.999C21.8539 18.3016 22.0653 19.5163 22.4918 20.6398L22.4922 20.641L22.4927 20.6421C22.919 21.7414 23.5253 22.6905 24.3127 23.4849L24.3145 23.4867L24.3163 23.4885C25.1263 24.2816 26.0998 24.903 27.2316 25.355L27.2345 25.3562L27.2375 25.3573C28.3763 25.7881 29.6599 26 31.0832 26C32.1752 26 33.141 25.8831 33.9756 25.6431C34.7897 25.4317 35.4974 25.1708 36.0946 24.8576L36.0968 24.8564L36.099 24.8552C36.7048 24.5261 37.2148 24.1922 37.6241 23.8522L37.6248 23.8515L37.6256 23.8509C38.037 23.5051 38.3597 23.226 38.5923 23.0148L38.8108 22.8165L36.6641 19.4616L36.3624 19.7998C36.1712 20.0141 35.911 20.2666 35.578 20.558C35.2591 20.8146 34.8834 21.0533 34.4485 21.2727C34.0153 21.4912 33.5237 21.679 32.9721 21.8349L32.9703 21.8354L32.9685 21.8359C32.4567 21.9865 31.8972 22.0633 31.2882 22.0633C29.8297 22.0633 28.6618 21.6589 27.7561 20.8734C26.9586 20.164 26.4375 19.2469 26.1987 18.1055H38.5932L38.6348 17.8058C38.822 16.4602 38.7881 15.1889 38.5278 13.9948C38.2679 12.7793 37.7936 11.71 37.1012 10.7934C36.428 9.8489 35.5401 9.11269 34.4454 8.58425C33.3636 8.05093 32.0911 7.7911 30.639 7.7911C29.2537 7.7911 28.0076 8.03997 26.9078 8.54649C25.8185 9.04821 24.8904 9.73153 24.1279 10.5969L24.1275 10.5974C23.3905 11.4369 22.8222 12.418 22.4212 13.5366ZM34.1799 13.8188L34.1808 13.8211L34.1818 13.8234C34.2491 13.9865 34.3061 14.1597 34.3522 14.3434L34.3537 14.3432C34.5262 15.0742 34.5262 15.7007 34.5262 15.7007L33.5257 16.1533C33.5257 16.1533 32.7946 15.1139 30.3866 15.0753C27.9584 15.1074 27.156 16.1412 27.156 16.1412L26.1769 15.6887C26.1769 15.6887 26.1973 15.4245 26.2856 15.0167C26.3359 14.7534 26.4023 14.5094 26.4841 14.284L26.4874 14.274L26.4877 14.274C26.5509 14.1013 26.6231 13.9395 26.7041 13.7884C27.0047 13.2474 27.3538 12.8122 27.7484 12.4761C28.1734 12.1337 28.6271 11.879 29.1101 11.7092C29.6278 11.5353 30.1025 11.452 30.5365 11.452C31.088 11.452 31.6033 11.5481 32.0851 11.7383L32.0913 11.7408L32.0975 11.743C32.5729 11.9098 32.9837 12.1691 33.3337 12.5222L33.3374 12.5259L33.3412 12.5295C33.6867 12.8576 33.9679 13.2841 34.1799 13.8188ZM41.562 0.413688V25.5863H45.8399V0.413688H41.562ZM63.8456 2.82348C63.2671 1.85077 62.5001 1.13422 61.5449 0.688598C60.5976 0.223775 59.4502 0 58.1166 0C56.9203 0 55.86 0.189115 54.9437 0.577946C54.056 0.941348 53.3059 1.46503 52.6995 2.15021L52.699 2.15079C52.1186 2.80953 51.6754 3.598 51.3661 4.51017L51.3652 4.51281L51.3644 4.51546C51.0787 5.40395 50.9375 6.35985 50.9375 7.38075V8.20479H47.5546V12.0036H50.9375V25.5863H55.2154V12.0036H62.4254V8.20479H59.01C58.317 8.22218 57.064 8.30744 55.9861 8.66992C54.8821 9.04121 53.6584 9.98582 53.571 10.0622L52.95 9.22685C52.95 9.22685 54.0803 8.37606 54.3991 8.00857C54.6406 7.73011 54.9491 7.35064 55.0891 6.89472C55.1739 6.61844 55.2029 6.34578 55.2162 5.96938C55.23 5.41611 55.416 4.94701 55.7755 4.54611L55.7781 4.54313L55.7808 4.54009C56.1167 4.1476 56.7438 3.90223 57.7749 3.90223C58.3884 3.90223 58.9335 4.07609 59.4207 4.42425L59.4247 4.4271L59.4287 4.42983C59.9449 4.77697 60.2522 5.12209 60.3983 5.45369L60.5807 5.86784L64 3.08318L63.8456 2.82348Z" fill="#ED6D2F"/>
</svg>
