<svg width="73" height="30" viewBox="0 0 73 30" fill="none" xmlns="http://www.w3.org/2000/svg">
<path fill-rule="evenodd" clip-rule="evenodd" d="M2.99076 20.6763L0 24.9964L0.180417 25.2317C0.675234 25.877 1.3145 26.4855 2.09137 27.0597C2.86916 27.6345 3.73781 28.1386 4.69578 28.5732L4.69759 28.574L4.69941 28.5748C5.68714 29.0107 6.76435 29.3497 7.92962 29.5932C9.10201 29.8648 10.3252 30 11.5984 30C13.1898 30 14.6572 29.797 15.9979 29.3867C17.3622 28.977 18.5382 28.3862 19.5182 27.6083L19.5209 27.6062L19.5235 27.604C20.5003 26.801 21.2638 25.8424 21.8095 24.7298C22.3866 23.6064 22.6713 22.3491 22.6713 20.9666C22.6713 19.5388 22.3895 18.3325 21.795 17.3759C21.2451 16.424 20.5153 15.651 19.6084 15.0612C18.7161 14.4547 17.7068 13.9887 16.5839 13.6608C15.5111 13.3138 14.4253 13.0068 13.3265 12.7397L13.3237 12.739L13.3208 12.7384C12.3892 12.5271 11.4836 12.3159 10.604 12.1047C9.76652 11.8713 9.00922 11.6003 8.33091 11.2928C7.70099 10.9958 7.20567 10.632 6.83345 10.2074C6.5114 9.78671 6.34046 9.25805 6.34046 8.59581C6.34046 7.55011 6.79653 6.68511 7.77042 5.98144C8.7717 5.27665 10.2018 4.90035 12.1051 4.90035C13.1438 4.90035 14.0116 5.01696 14.7167 5.2403L14.7243 5.2427L14.732 5.24479C15.4791 5.44812 16.1002 5.72398 16.6029 6.066L16.6117 6.07205L16.6209 6.0776C17.1678 6.40739 17.6038 6.7558 17.9366 7.11964C18.2878 7.50371 18.5711 7.86934 18.7897 8.21633L19.0625 8.64944L22.5932 4.8091L22.4006 4.54019C21.3666 3.09609 19.9432 1.98018 18.1467 1.1866C16.3502 0.392974 14.3472 0 12.1441 0C10.603 0 9.17356 0.203396 7.85847 0.614257C6.54633 1.0242 5.39885 1.61461 4.42185 2.38954C3.4392 3.14234 2.67276 4.07839 2.1261 5.19421C1.57602 6.31701 1.30504 7.57298 1.30504 8.95381C1.30504 10.5228 1.64238 11.8427 2.34973 12.8822L2.35122 12.8844L2.35274 12.8866C3.03716 13.8645 3.91268 14.6592 4.97406 15.2703L4.97743 15.2722L4.98084 15.2741C6.02495 15.8479 7.1726 16.2967 8.42197 16.6223L8.42292 16.6225L8.42388 16.6227C9.67413 16.9417 10.8857 17.2342 12.0585 17.5002C12.8562 17.6841 13.6009 17.8807 14.2929 18.09L14.2947 18.0905L14.2965 18.0911C14.9944 18.2945 15.5805 18.5582 16.061 18.8769L16.0705 18.8832L16.0802 18.8889C16.5792 19.1799 16.9602 19.5367 17.2342 19.9563L17.2372 19.9608L17.2402 19.9651C17.4963 20.3355 17.6359 20.8071 17.6359 21.4042C17.6359 21.8929 17.5229 22.3579 17.2935 22.8042C17.0675 23.2178 16.7229 23.5975 16.2447 23.9391L16.2408 23.9419L16.2369 23.9448C15.7902 24.2808 15.1993 24.5678 14.4518 24.7971C13.7422 24.9963 12.8841 25.0997 11.8712 25.0997C10.7312 25.0997 9.71571 24.9704 8.82114 24.717C7.93876 24.4596 7.15049 24.1268 6.45398 23.7206C5.74799 23.3089 5.13494 22.8745 4.61261 22.4185C4.1025 21.9236 3.67209 21.4709 3.31991 21.0602L2.99076 20.6763ZM25.5741 15.6192L25.5733 15.6215L25.5725 15.6238C25.1416 16.8881 24.9271 18.219 24.9271 19.6142C24.9271 21.1172 25.1682 22.5189 25.6547 23.8152L25.6552 23.8165L25.6557 23.8179C26.142 25.0862 26.8336 26.1814 27.7316 27.0979L27.7337 27.1001L27.7358 27.1021C28.6597 28.0172 29.77 28.7343 31.0611 29.2558L31.0644 29.2572L31.0677 29.2584C32.3667 29.7556 33.8308 30 35.4543 30C36.6999 30 37.8015 29.8652 38.7534 29.5882C39.682 29.3442 40.4893 29.0433 41.1704 28.6818L41.1729 28.6805L41.1754 28.6791C41.8664 28.2994 42.4481 27.9141 42.915 27.5218L42.9158 27.521L42.9167 27.5203C43.3859 27.1212 43.7541 26.7993 44.0194 26.5556L44.2686 26.3267L41.82 22.4557L41.4758 22.8459C41.2578 23.0932 40.9609 23.3845 40.5811 23.7208C40.2175 24.0169 39.7889 24.2922 39.2928 24.5454C38.7987 24.7975 38.238 25.0143 37.6088 25.1941L37.6067 25.1947L37.6047 25.1953C37.0209 25.3691 36.3828 25.4577 35.6881 25.4577C34.0245 25.4577 32.6924 24.9911 31.6593 24.0847C30.7497 23.2662 30.1553 22.208 29.8829 20.8909H44.0203L44.0679 20.5451C44.2814 18.9925 44.2426 17.5256 43.9458 16.1479C43.6493 14.7453 43.1083 13.5115 42.3185 12.4539C41.5507 11.3641 40.5379 10.5146 39.2893 9.9049C38.0553 9.28953 36.6039 8.98973 34.9476 8.98973C33.3675 8.98973 31.9461 9.27689 30.6917 9.86134C29.4492 10.4402 28.3906 11.2287 27.5209 12.2272L27.5204 12.2277C26.6798 13.1964 26.0316 14.3284 25.5741 15.6192ZM38.9865 15.9447L38.9875 15.9474L38.9886 15.95C39.0654 16.1382 39.1303 16.3381 39.183 16.5501L39.1847 16.5499C39.3815 17.3933 39.3815 18.1162 39.3815 18.1162L38.2402 18.6384C38.2402 18.6384 37.4063 17.4391 34.6597 17.3946C31.8901 17.4316 30.9748 18.6245 30.9748 18.6245L29.858 18.1024C29.858 18.1024 29.8813 17.7975 29.982 17.3269C30.0394 17.0232 30.1152 16.7416 30.2084 16.4815L30.2122 16.47L30.2126 16.47C30.2846 16.2707 30.367 16.0841 30.4593 15.9097C30.8022 15.2855 31.2004 14.7833 31.6506 14.3955C32.1353 14.0004 32.6528 13.7065 33.2037 13.5106C33.7942 13.31 34.3356 13.2139 34.8307 13.2139C35.4598 13.2139 36.0475 13.3248 36.5971 13.5442L36.6041 13.547L36.6112 13.5496C37.1535 13.7421 37.622 14.0413 38.0212 14.4487L38.0255 14.453L38.0298 14.4571C38.4238 14.8356 38.7447 15.3278 38.9865 15.9447ZM47.4066 0.477332V29.5227H52.2861V0.477332H47.4066ZM72.8238 3.25787C72.164 2.1355 71.2892 1.30872 70.1996 0.794536C69.1192 0.258202 67.8104 0 66.2892 0C64.9247 0 63.7153 0.218209 62.6702 0.666861C61.6577 1.08617 60.802 1.69042 60.1104 2.48101L60.1098 2.48168C59.4478 3.24176 58.9423 4.15154 58.5895 5.20405L58.5885 5.20709L58.5875 5.21014C58.2617 6.23533 58.1006 7.33829 58.1006 8.51626V9.46706H54.242V13.8503H58.1006V29.5227H62.9801V13.8503H71.204V9.46706H67.3083C66.5178 9.48713 65.0886 9.58551 63.8592 10.0038C62.5999 10.4322 61.2042 11.5221 61.1045 11.6103L60.3961 10.6464C60.3961 10.6464 61.6854 9.66469 62.0489 9.24066C62.3244 8.91936 62.6763 8.48151 62.836 7.95545C62.9328 7.63666 62.9658 7.32206 62.981 6.88775C62.9968 6.24935 63.2088 5.70809 63.6189 5.24551L63.622 5.24207L63.6249 5.23856C64.0082 4.78569 64.7234 4.50258 65.8995 4.50258C66.5993 4.50258 67.221 4.70318 67.7767 5.1049L67.7812 5.10819L67.7859 5.11134C68.3746 5.51189 68.7252 5.9101 68.8918 6.29272L69.0999 6.77058L73 3.55752L72.8238 3.25787Z" fill="#FFF9EF"/>
</svg>
