<svg width="98" height="40" viewBox="0 0 98 40" fill="none" xmlns="http://www.w3.org/2000/svg">
<path fill-rule="evenodd" clip-rule="evenodd" d="M4.015 27.5683L0 33.3286L0.242204 33.6423C0.906479 34.5026 1.76467 35.3141 2.8076 36.0796C3.85175 36.846 5.01788 37.5182 6.30392 38.0976L6.30635 38.0987L6.3088 38.0997C7.63479 38.6809 9.0809 39.1329 10.6452 39.4576C12.2191 39.8197 13.8612 40 15.5705 40C17.7068 40 19.6768 39.7294 21.4766 39.1822C23.3081 38.636 24.887 37.8482 26.2025 36.8111L26.2061 36.8083L26.2096 36.8054C27.521 35.7346 28.5459 34.4565 29.2785 32.9731C30.0533 31.4753 30.4354 29.7988 30.4354 27.9555C30.4354 26.0518 30.0571 24.4433 29.259 23.1678C28.5209 21.8986 27.541 20.868 26.3236 20.0816C25.1257 19.273 23.7708 18.6516 22.2634 18.2143C20.8232 17.7517 19.3655 17.3423 17.8904 16.9863L17.8865 16.9854L17.8827 16.9845C16.6321 16.7028 15.4164 16.4212 14.2355 16.1396C13.1112 15.8284 12.0946 15.4671 11.184 15.0571C10.3383 14.661 9.67336 14.1759 9.17367 13.6099C8.74133 13.0489 8.51185 12.3441 8.51185 11.4611C8.51185 10.0668 9.1241 8.91348 10.4315 7.97526C11.7757 7.03553 13.6955 6.5338 16.2507 6.5338C17.645 6.5338 18.8101 6.68927 19.7567 6.98707L19.7669 6.99027L19.7772 6.99305C20.7802 7.26416 21.6139 7.63197 22.2888 8.088L22.3007 8.09607L22.3131 8.10347C23.0472 8.54318 23.6326 9.00774 24.0792 9.49285C24.5508 10.0049 24.9311 10.4924 25.2245 10.9551L25.5908 11.5326L30.3305 6.41213L30.072 6.05359C28.6839 4.12812 26.7731 2.64023 24.3614 1.58213C21.9495 0.523966 19.2606 0 16.303 0C14.2342 0 12.3152 0.271195 10.5497 0.819009C8.78822 1.3656 7.24777 2.15282 5.93618 3.18605C4.61701 4.18979 3.58809 5.43786 2.85422 6.92562C2.11575 8.42268 1.75197 10.0973 1.75197 11.9384C1.75197 14.0304 2.20484 15.7902 3.15443 17.1763L3.15643 17.1792L3.15847 17.1821C4.07728 18.486 5.25264 19.5456 6.67751 20.3603L6.68203 20.3629L6.6866 20.3654C8.08829 21.1305 9.62897 21.7289 11.3062 22.163L11.3075 22.1633L11.3088 22.1637C12.9872 22.589 14.6137 22.979 16.1881 23.3336C17.259 23.5788 18.2587 23.8409 19.1877 24.1199L19.1901 24.1207L19.1926 24.1214C20.1295 24.3927 20.9163 24.7442 21.5614 25.1693L21.574 25.1776L21.5872 25.1852C22.257 25.5732 22.7684 26.049 23.1364 26.6084L23.1403 26.6144L23.1444 26.6202C23.4882 27.114 23.6755 27.7428 23.6755 28.5389C23.6755 29.1906 23.5238 29.8106 23.2159 30.4056C22.9125 30.957 22.45 31.4633 21.8079 31.9189L21.8027 31.9226L21.7975 31.9265C21.1978 32.3744 20.4045 32.757 19.401 33.0627C18.4484 33.3284 17.2965 33.4662 15.9367 33.4662C14.4063 33.4662 13.043 33.2939 11.8421 32.956C10.6575 32.6128 9.59929 32.169 8.66425 31.6274C7.71648 31.0785 6.89348 30.4993 6.19227 29.8914C5.50747 29.2315 4.92966 28.6279 4.45687 28.0802L4.015 27.5683ZM34.3324 20.8256L34.3313 20.8287L34.3302 20.8318C33.7518 22.5174 33.4637 24.292 33.4637 26.1523C33.4637 28.1563 33.7875 30.0251 34.4405 31.7535L34.4412 31.7554L34.4419 31.7572C35.0947 33.4483 36.0232 34.9085 37.2288 36.1306L37.2316 36.1334L37.2344 36.1362C38.4746 37.3563 39.9653 38.3123 41.6984 39.0078L41.7029 39.0095L41.7074 39.0112C43.4511 39.6741 45.4167 40 47.5962 40C49.2683 40 50.7472 39.8202 52.0251 39.451C53.2717 39.1256 54.3555 38.7244 55.2698 38.2424L55.2732 38.2406L55.2766 38.2388C56.2043 37.7325 56.9851 37.2188 57.6119 36.6957L57.613 36.6947L57.6142 36.6937C58.2441 36.1616 58.7384 35.7323 59.0945 35.4074L59.429 35.1022L56.1419 29.941L55.6799 30.4613C55.3872 30.791 54.9887 31.1794 54.4788 31.6277C53.9906 32.0225 53.4152 32.3896 52.7492 32.7272C52.086 33.0633 51.3332 33.3524 50.4885 33.5921L50.4857 33.5929L50.483 33.5937C49.6992 33.8254 48.8427 33.9435 47.9101 33.9435C45.6767 33.9435 43.8885 33.3215 42.5015 32.1129C41.2804 31.0216 40.4825 29.6106 40.1168 27.8546H59.0958L59.1596 27.3935C59.4463 25.3233 59.3942 23.3675 58.9957 21.5305C58.5977 19.6604 57.8714 18.0154 56.8111 16.6052C55.7803 15.1522 54.4208 14.0195 52.7446 13.2065C51.088 12.386 49.1395 11.9863 46.916 11.9863C44.7947 11.9863 42.8866 12.3692 41.2026 13.1484C39.5345 13.9203 38.1134 14.9716 36.9459 16.3029L36.9453 16.3036C35.8167 17.5952 34.9465 19.1046 34.3324 20.8256ZM52.338 21.2596L52.3394 21.2632L52.3408 21.2667C52.444 21.5176 52.5312 21.7842 52.6018 22.0667L52.6042 22.0665C52.8683 23.1911 52.8683 24.155 52.8683 24.155L51.3362 24.8512C51.3362 24.8512 50.2167 23.2522 46.5294 23.1928C42.8113 23.2421 41.5827 24.8326 41.5827 24.8326L40.0833 24.1365C40.0833 24.1365 40.1146 23.7299 40.2498 23.1026C40.3269 22.6976 40.4286 22.3222 40.5538 21.9753L40.5588 21.9599L40.5593 21.9601C40.656 21.6943 40.7666 21.4454 40.8906 21.213C41.3509 20.3806 41.8854 19.7111 42.4898 19.194C43.1406 18.6672 43.8353 18.2753 44.5748 18.0142C45.3675 17.7467 46.0944 17.6185 46.759 17.6185C47.6036 17.6185 48.3926 17.7664 49.1303 18.059L49.1397 18.0627L49.1493 18.0661C49.8773 18.3228 50.5063 18.7217 51.0422 19.2649L51.0479 19.2706L51.0537 19.2762C51.5827 19.7808 52.0134 20.437 52.338 21.2596ZM63.6418 0.636443V39.3636H70.1923V0.636443H63.6418ZM97.7635 4.34382C96.8777 2.84734 95.7033 1.74496 94.2406 1.05938C92.7901 0.344269 91.0331 0 88.991 0C87.1592 0 85.5356 0.290946 84.1325 0.889147C82.7733 1.44823 81.6246 2.25389 80.6961 3.30802L80.6953 3.30891C79.8066 4.32235 79.128 5.53539 78.6544 6.93873L78.653 6.94278L78.6517 6.94686C78.2143 8.31377 77.998 9.78439 77.998 11.355V12.6228H72.818V18.4671H77.998V39.3636H84.5486V18.4671H95.5889V12.6228H90.359C89.2978 12.6495 87.3793 12.7807 85.7288 13.3383C84.0382 13.9095 82.1645 15.3628 82.0306 15.4804L81.0797 14.1952C81.0797 14.1952 82.8105 12.8863 83.2986 12.3209C83.6684 11.8925 84.1408 11.3087 84.3552 10.6073C84.4851 10.1822 84.5294 9.76274 84.5499 9.18366C84.571 8.33247 84.8557 7.61079 85.4062 6.99401L85.4103 6.98943L85.4143 6.98475C85.9288 6.38092 86.889 6.00343 88.4678 6.00343C89.4072 6.00343 90.2419 6.27091 90.9879 6.80654L90.994 6.81092L91.0002 6.81512C91.7906 7.34919 92.2612 7.88014 92.4849 8.39029L92.7642 9.02744L98 4.74336L97.7635 4.34382Z" fill="#ED6D2F"/>
</svg>
